<svg width="480" height="1317" viewBox="0 0 480 1317" fill="none" xmlns="http://www.w3.org/2000/svg">
<g id="group-59(1) 1">
<g id="Group">
<g id="Group_2">
<path id="Vector" fill-rule="evenodd" clip-rule="evenodd" d="M269.892 1316.03H311.108V1061.73H269.892V1316.03Z" fill="black"/>
<path id="Vector_2" fill-rule="evenodd" clip-rule="evenodd" d="M149.177 826.182H376.866C433.784 826.182 479.922 871.719 479.922 927.896V1072.23H46.1219V927.896C46.1219 871.719 92.2599 826.182 149.177 826.182" fill="#FCC8B2"/>
<path id="Vector_3" fill-rule="evenodd" clip-rule="evenodd" d="M46.121 1075.47V929.234C46.121 872.32 92.26 826.182 149.177 826.182C206.091 826.182 252.225 872.32 252.225 929.234V1075.47H46.121Z" fill="white"/>
<path id="Vector_4" fill-rule="evenodd" clip-rule="evenodd" d="M46.121 1072.66C47.468 1072.66 48.554 1071.58 48.554 1070.23V927.069C48.554 872.779 93.693 828.61 149.177 828.61C204.662 828.61 249.801 872.78 249.801 927.07V1070.23C249.801 1071.58 250.887 1072.66 252.225 1072.66C253.571 1072.66 254.658 1071.58 254.658 1070.23V927.069C254.658 870.099 207.338 823.753 149.178 823.753C91.013 823.753 43.693 870.1 43.693 927.069V1070.23C43.693 1071.58 44.783 1072.66 46.121 1072.66" fill="#343434"/>
<path id="Vector_5" fill-rule="evenodd" clip-rule="evenodd" d="M188.524 826.182H203.225C247.285 839.277 279.407 879.095 279.407 926.074V1072.23C279.407 1073.12 278.688 1073.85 277.792 1073.85C276.9 1073.85 276.173 1073.12 276.173 1072.23V926.074C276.173 875.801 238.156 833.987 188.523 826.182H188.524ZM363.078 826.182H376.866L377.736 826.208C421.861 839.424 454.056 879.788 454.056 927.407V1075.47H450.818V927.407C450.818 876.442 412.753 834.052 363.078 826.182" fill="white"/>
<path id="Vector_6" fill-rule="evenodd" clip-rule="evenodd" d="M247.32 1074.74H479.922V1055.84H247.32V1074.74Z" fill="black"/>
<path id="Vector_7" fill-rule="evenodd" clip-rule="evenodd" d="M281.922 1316.03C282.866 1316.03 283.636 1315.47 283.636 1314.78V1055.31C283.636 1054.63 282.866 1054.08 281.922 1054.08C280.97 1054.08 280.199 1054.63 280.199 1055.31V1314.78C280.199 1315.47 280.969 1316.03 281.922 1316.03Z" fill="#FCC8B2"/>
<path id="Vector_8" fill-rule="evenodd" clip-rule="evenodd" d="M244.377 1073.51V931.433C244.377 877.723 201.671 834.035 149.177 834.035C96.675 834.035 53.978 877.723 53.978 931.433V1073.51H244.377Z" fill="#343434"/>
<path id="Vector_9" fill-rule="evenodd" clip-rule="evenodd" d="M100.61 1072.49H158.49C165.09 1072.49 170.442 1077.85 170.442 1084.45C170.442 1091.06 165.091 1096.4 158.489 1096.4L157.437 1096.35L102.913 1096.4V1096.18C102.165 1096.33 101.398 1096.4 100.61 1096.4C94.0041 1096.4 88.6541 1091.06 88.6541 1084.45C88.6541 1077.85 94.0041 1072.49 100.61 1072.49" fill="#343434"/>
<path id="Vector_10" fill-rule="evenodd" clip-rule="evenodd" d="M146.537 1084.45C146.537 1091.06 151.883 1096.4 158.489 1096.4C165.091 1096.4 170.442 1091.06 170.442 1084.45C170.442 1077.85 165.091 1072.49 158.489 1072.49C151.883 1072.49 146.537 1077.85 146.537 1084.45Z" fill="#FCC8B2"/>
<path id="Vector_11" fill-rule="evenodd" clip-rule="evenodd" d="M154.437 1084.45C154.437 1086.69 156.255 1088.5 158.489 1088.5C160.723 1088.5 162.532 1086.69 162.532 1084.45C162.532 1082.22 160.722 1080.4 158.489 1080.4C156.255 1080.4 154.437 1082.22 154.437 1084.45Z" fill="white"/>
<path id="Vector_12" fill-rule="evenodd" clip-rule="evenodd" d="M9.32 1055.2H259.095V1041.62C259.095 1034.85 264.593 1030.98 271.364 1030.98C278.139 1030.98 283.636 1036.46 283.636 1043.25V1075.47H9.32C4.169 1075.47 0 1071.29 0 1066.14C0 1061 4.169 1055.2 9.32 1055.2" fill="black"/>
<path id="Vector_13" fill-rule="evenodd" clip-rule="evenodd" d="M267.81 1044.06C267.81 1046.3 269.623 1048.11 271.857 1048.11C274.087 1048.11 275.9 1046.3 275.9 1044.06C275.9 1041.83 274.087 1040.01 271.857 1040.01C269.623 1040.01 267.81 1041.83 267.81 1044.06" fill="white"/>
<path id="Vector_14" fill-rule="evenodd" clip-rule="evenodd" d="M337.442 1006.94H341.658V777H337.442V1006.94Z" fill="#FE5814"/>
<path id="Vector_15" fill-rule="evenodd" clip-rule="evenodd" d="M340.121 810.139L385.84 793.567L340.121 777V810.139Z" fill="#FE5814"/>
<path id="Vector_16" fill-rule="evenodd" clip-rule="evenodd" d="M329.442 1007.79C329.442 1013.89 334.381 1018.83 340.481 1018.83C346.581 1018.83 351.519 1013.89 351.519 1007.79C351.519 1001.69 346.58 996.749 340.481 996.749C334.381 996.749 329.441 1001.69 329.441 1007.79" fill="white"/>
<path id="Vector_17" fill-rule="evenodd" clip-rule="evenodd" d="M334.926 1007.79C334.926 1010.86 337.416 1013.35 340.481 1013.35C343.55 1013.35 346.035 1010.86 346.035 1007.79C346.035 1004.72 343.55 1002.24 340.481 1002.24C337.416 1002.24 334.926 1004.72 334.926 1007.79Z" fill="#FCC8B2"/>
<g id="post-box-img-letter-6">
<mask id="mask0" mask-type="alpha" maskUnits="userSpaceOnUse" x="69" y="834" width="176" height="240">
<g id="prefix  b">
<path id="Vector_18" d="M244.377 1073.51V931.433C244.377 877.723 205.125 834.034 156.877 834.034C108.621 834.034 69.377 877.723 69.377 931.433V1073.51H244.377Z" fill="white"/>
</g>
</mask>
<g mask="url(#mask0)">
<path id="Vector_19" fill-rule="evenodd" clip-rule="evenodd" d="M122.944 954.749L246.308 998.87L274.719 919.402L151.342 875.285L122.944 954.749Z" stroke="#FCC8B2" stroke-width="2"/>
<path id="Vector_20" fill-rule="evenodd" clip-rule="evenodd" d="M243.753 997.961L125.502 955.675L125.52 955.671L243.753 997.956V997.961Z" fill="#9FABE7"/>
<path id="Vector_21" fill-rule="evenodd" clip-rule="evenodd" d="M243.753 997.956L125.52 955.671L198.827 937.078L243.753 997.956Z" stroke="#FCC8B2" stroke-width="2"/>
<path id="Vector_22" fill-rule="evenodd" clip-rule="evenodd" d="M273.182 918.848L191.559 957.363L152.888 875.831L273.182 918.848Z" fill="#FE5814"/>
</g>
</g>
<g id="post-box-img-letter-5">
<path id="Vector_23" fill-rule="evenodd" clip-rule="evenodd" d="M66.558 1044.39L190.108 1000.79L162.022 921.208L38.463 964.81L66.558 1044.39Z" fill="#343434" stroke="#FCC8B2" stroke-width="2"/>
<path id="Vector_24" fill-rule="evenodd" clip-rule="evenodd" d="M69.126 1043.49L114.29 982.801L187.554 1001.7L69.126 1043.49Z" fill="#343434" stroke="#FCC8B2" stroke-width="2"/>
<path id="Vector_25" fill-rule="evenodd" clip-rule="evenodd" d="M160.481 921.749L121.45 1003.13L40.009 964.268L160.481 921.749Z" fill="#FE5814"/>
</g>
</g>
<g id="post-box-img-letter-4">
<path id="Vector_26" fill-rule="evenodd" clip-rule="evenodd" d="M393.429 211.896L471.515 221.171L477.429 170.442L399.339 161.171L393.429 211.896Z" stroke="#FCC8B2" stroke-width="2"/>
<path id="Vector_27" fill-rule="evenodd" clip-rule="evenodd" d="M395.429 212.229L435.891 191.171L470.429 221.171L395.429 212.229Z" stroke="#FCC8B2" stroke-width="2"/>
<path id="Vector_28" fill-rule="evenodd" clip-rule="evenodd" d="M476.429 170.245L433.962 204.171L400.429 161.171L476.429 170.245Z" fill="#FE5814"/>
</g>
<g id="post-box-img-letter-3">
<path id="Vector_29" fill-rule="evenodd" clip-rule="evenodd" d="M55.4631 275.397L147.424 334.472L185.464 275.23L93.4977 216.157L55.4631 275.397Z" stroke="#FCC8B2" stroke-width="2"/>
<path id="Vector_30" fill-rule="evenodd" clip-rule="evenodd" d="M57.3634 276.627L120.462 275.316L145.52 333.249L57.3634 276.627Z" stroke="#FCC8B2" stroke-width="2"/>
<path id="Vector_31" fill-rule="evenodd" clip-rule="evenodd" d="M184.324 274.496L110.742 290.437L94.6453 216.895L184.324 274.496Z" fill="#FE5814"/>
</g>
<g id="post-box-img-letter-2">
<path id="Vector_32" fill-rule="evenodd" clip-rule="evenodd" d="M97.1912 639.978L255.807 694.079L290.81 590.015L132.186 535.92L97.1912 639.978Z" stroke="#FCC8B2" stroke-width="2"/>
<path id="Vector_33" fill-rule="evenodd" clip-rule="evenodd" d="M102.551 641.612L195.796 615.506L254.11 693.33L102.551 641.612Z" stroke="#FCC8B2" stroke-width="2"/>
<path id="Vector_34" fill-rule="evenodd" clip-rule="evenodd" d="M291.257 589.335L187.624 641.516L136.834 536.665L291.257 589.335Z" fill="#FE5814"/>
</g>
<g id="post-box-img-letter-1">
<path id="Vector_35" fill-rule="evenodd" clip-rule="evenodd" d="M304 37.652L359.921 47L366 11.346L310.077 2L304 37.652Z" stroke="#FCC8B2" stroke-width="2"/>
<path id="Vector_36" fill-rule="evenodd" clip-rule="evenodd" d="M306 38.164L335.506 25L359 47L306 38.164Z" stroke="#FCC8B2" stroke-width="2"/>
<path id="Vector_37" fill-rule="evenodd" clip-rule="evenodd" d="M365 10.972L332.862 33L310 2L365 10.972Z" fill="#FE5814"/>
</g>
</g>
</g>
</svg>
