<svg xmlns="http://www.w3.org/2000/svg" width="63.784" height="63.784" viewBox="0 0 63.784 63.784">
  <path id="Icon_awesome-facebook-square" data-name="Icon awesome-facebook-square" d="M56.95,2.25H6.834A6.834,6.834,0,0,0,0,9.084V59.2a6.834,6.834,0,0,0,6.834,6.834H26.375V44.349h-8.97V34.142h8.97V26.363c0-8.849,5.268-13.736,13.336-13.736a54.339,54.339,0,0,1,7.9.689V22H43.164c-4.387,0-5.755,2.722-5.755,5.514v6.628H47.2L45.635,44.349H37.409V66.034H56.95A6.834,6.834,0,0,0,63.784,59.2V48.162c0-12.529,0-39.078,0-39.078A6.834,6.834,0,0,0,56.95,2.25Z" transform="translate(0 -2.25)" fill="#0259a5"/>
</svg>
