<svg xmlns="http://www.w3.org/2000/svg" xmlns:xlink="http://www.w3.org/1999/xlink" width="1920" height="729" viewBox="0 0 1920 729">
  <defs>
    <clipPath id="clip-path">
      <rect id="Rectangle_94" data-name="Rectangle 94" width="1920" height="729" transform="translate(0 4106)" fill="#ff2e2e"/>
    </clipPath>
  </defs>
  <g id="Mask_Group_1" data-name="Mask Group 1" transform="translate(0 -4106)" clip-path="url(#clip-path)">
    <g id="Group_61" data-name="Group 61" transform="translate(1796.225 4810.791) rotate(-135)" opacity="0.28">
      <g id="Component_20_1" data-name="Component 20 – 1" transform="translate(36.993 -6.79)">
        <path id="Path_35" data-name="Path 35" d="M264.594,270.866c6.319,3.16,8.215,11.375,13.9,15.8-.632,3.792-1.264,7.583-1.9,10.743-3.16,2.528-6.319,4.423-8.847,6.319,1.264,9.479,10.743,15.166,18.958,10.743,3.16-1.9,6.951-3.16,9.479-5.055s4.423-4.423,6.951-6.951a43.544,43.544,0,0,0,5.055,1.9c3.16,1.264,5.687-.632,7.583-2.528.632-.632,0-3.16-.632-4.423-1.9-2.528-4.423-5.055-6.951-8.215h-2.528c-2.528-2.528-1.9-5.055.632-7.583l-.632-.632c-6.319-.632-6.319-1.264-5.056-6.951,1.264-4.423,0-7.583-1.9-11.375a41.257,41.257,0,0,1-5.055,4.423c-.632-3.792-1.9-6.319-1.264-8.215,1.264-6.319,0-12.007-5.055-15.8,2.528-5.055,3.792-10.111,0-15.166,3.16-4.424,6.319-9.479,9.479-13.9,2.528,2.528,2.528,5.687,6.319,6.319,1.264,0,1.9,2.528,2.528,4.423.632,1.264,0,3.16.632,5.055,1.264,5.687,2.528,6.319,8.847,5.055-3.16-3.792-3.792-8.847-3.792-13.9.632-8.847,1.264-17.694-.632-26.541a46.734,46.734,0,0,0-10.111-22.118c-3.16,3.16-6.319,6.951-10.111,10.111a5.462,5.462,0,0,1-3.792,1.9c-1.9,0-1.264-1.9-1.9-2.528-1.264-1.9-3.16-3.16-6.319-5.687-2.528,3.16-4.424,6.319-6.951,9.479-3.792-.632-8.215-1.9-8.847-7.583-6.319,3.792-6.319,3.792-10.743,0-1.264,1.264-1.9,3.792-.632,7.583-1.9-.632-3.16-.632-3.16-1.264-.632-1.264-.632-3.792-1.9-3.792-1.9-.632-4.423,0-6.319,0s-4.423-.632-6.951-.632c.632,3.792,0,7.583-3.792,10.111-1.264-5.055-2.528-8.847,0-13.27-4.423-1.9-8.215-5.687-13.9-3.792.632,1.264,1.264,1.9,1.9,3.16-2.528,1.9-4.423,3.16-6.951.632-3.792-4.423-3.16-3.792-8.847-6.319a17.206,17.206,0,0,1-6.319-5.055c-1.9-2.528-2.528-5.687-3.792-8.215,4.423-1.264,5.687,1.9,8.215,3.792,5.055-5.687.632-10.743,0-15.8a47.337,47.337,0,0,0-10.111,2.528v-3.792c-.632-1.264-1.264-3.16-2.528-3.16-3.792-.632-4.423-3.792-5.687-6.951a19.494,19.494,0,0,0,5.687.632c.632-1.264.632-2.528,1.264-3.792,1.264.632,1.9,1.9,3.792,3.792a6.674,6.674,0,0,0,3.792,0c7.583-2.528,7.583-2.528,11.375,4.423,1.264-3.16,3.792-2.528,6.319-1.9,1.264,0,3.792,0,5.055-1.264s0-3.16-1.264-4.423v-1.264c5.055-1.9,5.687,1.264,5.687,6.951,3.792-3.16,6.319-5.055,8.215-6.951a64.85,64.85,0,0,0,8.847,2.528c2.528.632,3.792,2.528,3.16,5.055-.632,1.9-1.9,4.424-2.528,6.319s-1.264,3.16-1.264,4.423c3.16.632,6.319,1.9,8.847,1.9,5.055.632,10.111,1.9,15.166,2.528a83.207,83.207,0,0,1,21.486,2.528c1.9.632,4.423-.632,6.319-.632a2.206,2.206,0,0,1,.632-1.264l12.007,12.007a1.957,1.957,0,0,1,.632,1.264c6.319,2.528,8.847,9.479,13.9,13.271,5.687,4.423,11.375,8.847,18.958,9.479.632,0,.632.632,1.264.632,3.792-.632.632,5.055,4.424,4.423,3.16-.632,4.423,1.9,5.687,4.423-6.319,2.528-5.056,7.583-3.16,12.639-3.16,1.264-5.687,1.9-8.847,3.16,4.423,2.528,7.583,5.687,12.007,6.319,5.055,1.264,10.111,0,15.166-1.9.632,0,.632-3.792.632-3.792-3.16-1.264-1.9-3.792-1.9-5.687a112.825,112.825,0,0,1-1.264-14.534c0-3.16,1.264-5.055,5.055-5.055,3.16,0,6.951-1.264,10.111-1.264,1.9,0,3.792.632,6.951.632,1.9-1.9,4.423-5.055,6.951-6.319a44.811,44.811,0,0,1,10.743-2.528c-4.424-4.424-9.479-5.687-14.534-8.215s-6.319-8.847-12.638-11.375c0,3.792-.632,7.583-.632,11.375h-16.43c1.9-8.215-6.951-8.847-8.847-13.9,1.9-1.264,4.423-2.528,7.583-4.423-3.792-1.264-6.319-2.528-8.215-2.528-2.528-.632-4.423-3.16-2.528-4.423,3.792-3.792.632-6.951.632-10.111,6.319-5.055,6.319-5.687,0-10.743,5.055-1.9,8.847-5.055,9.479-11.375,3.792,1.264,6.319.632,8.847-1.9,3.16-2.528,7.583-3.792,10.743-6.951,3.16-2.528,8.215-2.528,12.639-3.16a31.01,31.01,0,0,1,.632-6.951l2.528,5.055c8.847-1.264,10.111-3.16,5.687-10.743,3.792.632,6.951,1.264,10.111,1.9,1.9-2.528.632-3.792-1.9-5.055-4.424-1.9-3.16-1.9-1.9-6.319s4.424-3.792,6.951-5.055l1.264,1.264c-1.264,2.528-3.16,4.423-5.055,8.215,4.424-.632,7.583-.632,10.111-1.9,2.528-1.9,5.687,3.792,8.215-.632,0,3.792,2.528,5.055,6.319,5.687,8.215,1.264,13.9,6.319,18.958,12.007a39.979,39.979,0,0,1,10.111,21.486c.632,6.319,1.9,12.007.632,18.326-.632,2.528-1.264,4.423-3.792,6.319a8.531,8.531,0,0,0-3.16,10.743c1.9,4.423,0,8.847-1.264,12.639-.632,1.9-3.16,3.792-5.687,5.055a108.912,108.912,0,0,1-13.27,4.424c.632,3.16,1.264,5.055,1.9,7.583-1.9.632-3.16,1.264-5.055,1.9a14.981,14.981,0,0,0,9.479,5.687c5.687.632,10.743,2.528,16.43,3.16,3.16.632,4.423,2.528,6.319,5.055,2.528,3.792,5.687,8.215,8.215,12.007s3.16,8.215,0,11.375c-1.264,1.9-2.528,3.792-4.423,4.423-5.055,2.528-5.055,6.319-5.055,10.743,0,8.215.632,15.8.632,24.013,0,2.528,1.264,5.055,1.9,7.583,1.264,3.792,3.16,5.687,7.583,7.583,5.687,1.9,10.743,5.055,13.9,10.743,1.264,2.528,3.792,4.423,5.687,5.687,7.583,3.792,12.639,8.847,11.375,18.326V317a54.359,54.359,0,0,0,10.111-.632,22.443,22.443,0,0,0,5.687-2.528c2.528-1.264,4.424-3.792,6.319-5.055,2.528-1.9,5.687-3.16,8.215-5.055,5.055-3.16,10.111-6.319,15.8-9.479,4.423-3.16,7.583-5.687,9.479-12.007,1.9-7.583,6.319-14.534,10.111-21.486,3.16-6.319,6.951-12.639,10.111-18.958a107.231,107.231,0,0,1,6.319-8.847c1.264-1.9,3.16-3.792,4.423-6.319a13.783,13.783,0,0,1,2.528-3.16,2.87,2.87,0,0,1,3.16,0,6.775,6.775,0,0,1,1.264,3.792,4.791,4.791,0,0,1-1.264,2.528c-4.423,5.055-8.847,10.111-13.9,15.8,1.9,5.687-2.528,9.479-6.951,14.534-4.423,4.423-6.951,10.111-10.111,15.8-1.264,2.528-1.9,5.687,0,8.847,1.9,2.528.632,5.687-1.9,7.583s-5.687,4.423-8.215,6.319c-6.951,3.792-13.9,6.951-20.222,10.743-5.687,3.792-10.743,8.215-16.43,12.007a32.048,32.048,0,0,1-10.111,5.687c-5.687,2.528-6.319,3.792-5.055,10.111.632,5.055,1.9,10.743,0,15.8-.632,1.264-.632,2.528-1.264,3.16-6.319,5.055-8.215,13.9-15.8,18.326a16.754,16.754,0,0,0-3.792,3.16c-.632.632-.632,1.264-1.9,3.16,2.528,0,4.424.632,5.687,0,7.583-2.528,15.8-4.423,23.381-6.951a3.386,3.386,0,0,0,2.528-1.9c4.423-6.319,12.007-7.583,17.694-12.007a2.322,2.322,0,0,1,1.9-.632c15.166-3.16,27.173-13.9,41.075-20.222,1.9-.632,3.792-2.528,5.687-4.424A99.158,99.158,0,0,1,607.1,317.629c4.424-1.264,8.215-3.16,10.743-7.583.632-1.264,1.9-1.9,3.16-3.16,5.055-3.792,10.743-7.583,15.8-12.007a109.824,109.824,0,0,0,9.479-8.215c8.215-9.479,18.958-13.9,29.069-20.854a34.729,34.729,0,0,0,5.687-4.424,62.224,62.224,0,0,1,18.958-12.639c5.687-3.16,12.007-6.319,17.694-10.111-.632-3.16-1.9-5.687-2.528-8.215,8.847,2.528,15.8,0,23.381-3.16-2.528-4.423-6.951-2.528-9.479-3.792,4.423-1.264,8.215-3.16,10.743-8.215q4.739-9.479,15.166-7.583a20.783,20.783,0,0,1,1.9-3.792,66.66,66.66,0,0,0,12.007,3.16,4.028,4.028,0,0,0,3.792,0c3.792-1.264,7.583.632,10.743-1.9,1.264-.632,3.16,0,5.055,0a2.848,2.848,0,0,1,1.9,1.9c0,.632-.632,1.9-1.264,1.9-10.111,3.792-18.326,9.479-27.173,15.8-5.055,3.792-12.007,5.687-17.694,8.847-3.792,1.9-7.583,4.423-12.007,6.319q-7.583,3.792-5.687,11.375a10.674,10.674,0,0,1-3.16,1.264c-6.951-2.528-12.639,1.264-18.326,4.423-5.687,3.792-12.007,7.583-17.062,12.639-5.687,5.687-13.271,10.743-20.222,15.166-9.479,6.319-18.958,12.007-25.909,20.854-5.687,7.583-13.271,13.9-22.749,16.43a4.79,4.79,0,0,0-2.528,1.264c-5.687,4.424-11.375,7.583-17.694,11.375-8.847,5.687-17.694,12.007-24.645,19.59-4.423,5.055-10.743,8.847-15.8,13.271a36.118,36.118,0,0,0-5.055,4.423c-2.528,3.16-5.687,5.687-9.479,6.319a4.791,4.791,0,0,0-2.528,1.264c-3.16,4.423-8.215,7.583-13.271,10.743-1.9,1.264-3.16,2.528-5.687,3.16-1.9.632-3.792,2.528-5.055,3.792-2.528,1.9-3.792,6.319-7.583,3.16h-1.264c-6.319,5.055-13.9,8.215-17.694,16.43a29.53,29.53,0,0,0,6.319-3.16c4.423,5.687,8.847,5.055,14.534,1.9,2.528-1.9,5.687-2.528,9.479-3.792-3.16,6.951-5.055,8.847-11.375,10.111-3.16.632-5.687,1.264-8.215,3.16-7.583,4.424-15.8,8.215-23.381,13.271-3.16,1.9-6.319,5.055-10.743,8.847,3.16.632,5.055,2.528,6.319,1.9,5.687-2.528,10.111,1.264,15.166,2.528a8.768,8.768,0,0,0,5.687,0c6.319-1.9,12.007-3.792,17.694-5.055,6.951-1.9,13.271-3.16,20.222-4.423,9.479-1.264,16.43-6.951,24.013-11.375,10.743-6.319,21.485-13.27,34.124-16.43,9.479-1.9,17.694-6.951,25.909-12.639,5.055-3.16,10.111-6.319,16.43-6.319a18.449,18.449,0,0,0,5.687-1.264c12.639-6.319,26.541-12.007,38.548-19.59,9.479-6.319,20.222-10.111,30.333-15.8,2.528-1.264,4.423-2.528,6.951-3.792,12.639-8.847,25.277-17.062,39.18-23.381,5.687-2.528,10.111-6.319,15.166-9.479,6.951-4.424,14.534-7.583,20.854-12.007a374.052,374.052,0,0,1,38.548-20.854c3.792-1.9,7.583-5.055,11.375-6.951s7.583-3.792,10.743-5.687c3.792-2.528,7.583-6.319,11.375-9.479a17.284,17.284,0,0,0,3.16,2.528,26.756,26.756,0,0,0,3.16-4.424l4.423,4.424c.632.632-.632,2.528-1.9,3.16-6.319,5.055-15.166,6.951-21.486,12.007-8.215,0-13.271,4.423-19.59,8.847-8.215,5.687-17.694,10.111-26.541,15.166-6.319,3.792-12.639,8.215-18.958,12.007-17.062,10.111-34.124,20.222-51.818,30.333-3.792,2.528-6.951,5.055-10.743,7.583-8.847,5.687-42.971,24.645-51.186,29.069-6.319,3.16-12.007,6.319-18.326,10.111a5.7,5.7,0,0,0,.632,3.16c.632,5.056.632,5.687-4.423,5.687-3.16,0-6.319.632-10.111.632-5.055,0-9.479.632-13.271,3.792-2.528,1.264-5.055,1.9-7.583,3.16-12.007,5.055-22.749,11.375-33.492,18.326a57.468,57.468,0,0,0-13.271,11.375,3.283,3.283,0,0,1-2.528,1.264c-6.319,0-11.375,3.792-16.43,6.951a3.283,3.283,0,0,1-2.528,1.264c-10.743,1.9-20.222,6.951-29.069,13.271a69.073,69.073,0,0,1-9.479,5.055q-7.583,2.844-7.583,11.375c0,1.9-.632,4.424-.632,6.951a13.912,13.912,0,0,0-5.055-.632c-1.264,3.16-3.16,5.687-5.055,9.479a55.011,55.011,0,0,1-5.687-6.951,66.934,66.934,0,0,0-6.319,7.583c-1.9-.632-3.16-1.9-5.055-2.528h-.632c-5.055,6.319-15.166,4.423-20.222,12.007-1.264,1.9-5.055,3.16-7.583,4.423l-5.687,1.9c-4.423,1.9-6.951,5.055-6.319,10.743.632,6.951-3.792,9.479-10.111,5.056-3.792-1.9-5.055-1.9-5.687,2.528a80.569,80.569,0,0,0-.632,12.639c0,3.16.632,6.319-1.9,10.111-1.264,2.528.632,6.319.632,10.111a84.686,84.686,0,0,0,.632,12.639c.632,3.792-.632,6.951-3.16,10.111-2.528.632-5.055-1.264-8.215.632-2.528,1.264-5.687-.632-7.583-3.16-1.9-3.16-4.423-5.055-8.847-5.687.632,3.792,1.264,6.319,1.9,9.479-3.16,0-6.319-.632-8.847-.632-3.792,0-5.056-2.528-5.687-5.055-1.264-3.792-2.528-6.951-5.687-8.847l-1.264-1.264c-2.528-5.056-2.528-5.056-10.111-5.056-3.792,10.743-.632,21.486-3.792,32.86l-3.792-20.854v-1.9c-.632-2.528.632-6.319-2.528-7.583s-4.423,1.9-6.319,3.16a62.949,62.949,0,0,0-6.951,6.319,34.722,34.722,0,0,0-4.423-5.687c-3.16,1.264-6.319,1.9-9.479,3.16-1.264.632-3.16,1.9-3.16,3.16-.632,2.528,1.9,1.264,3.16,1.9,2.528,1.9,4.423,4.424,6.951,6.951-4.423,6.319-9.479,13.271-14.534,20.222-3.16-3.16-2.528-5.687-1.264-8.215,1.9-3.16,4.423-6.951,6.319-10.111.632-1.264,1.264-2.528.632-3.792-.632-.632-2.528-1.9-3.792-1.264-5.687,1.264-12.007,0-13.9,8.215-.632,1.9-3.16,3.792-4.423,5.055-2.528,2.528-5.687,4.424-7.583,8.215s-5.687,3.16-8.847,2.528c0-4.424,3.792-6.319,5.687-8.847l4.424-4.424c4.423-3.16,6.951-8.215,9.479-12.638,4.424-6.951,11.375-10.743,17.062-16.43,1.9-1.264,2.528-3.16,3.16-5.055.632-4.423-2.528-5.687-5.687-6.951-2.528-1.9-4.423-.632-6.951,1.264-3.792,3.16-8.215,5.687-12.639,8.847a55.276,55.276,0,0,0-6.319,5.055c-3.792,3.792-6.951,7.583-10.743,10.743-1.9,1.264-5.055,1.264-8.215,1.264,6.319-10.111,13.9-18.958,21.486-29.7-15.166,3.16-29.069-2.528-43.6-2.528-4.423,0-8.847-2.528-12.639-4.423-5.055-2.528-8.847-8.215-15.166-9.479-1.264,0-1.9-1.9-2.528-3.16-3.16-3.792-6.951-7.583-11.375-12.007,1.9-4.423-3.792-6.319-4.424-11.375l-5.687,1.9c-2.528-.632-1.9-7.583,1.264-13.9l-2.528-2.528c-5.055,1.9-8.215,6.951-13.9,7.583-1.264,0-1.9,3.16-3.16,4.424-1.9,0-4.424-.632-5.687.632-5.687,4.423-11.375,2.528-17.062,0-2.528-1.264-5.055-1.9-8.215-.632a6.366,6.366,0,0,0-1.9.632c-5.055-3.792-10.743-1.9-16.43-1.264a42.677,42.677,0,0,1-8.847-1.264c-6.319-1.9-13.27-4.424-18.958,2.528-1.9-3.792-5.055-5.687-8.847-5.055-4.424,0-8.215-.632-12.639-.632-8.215,0-8.215,0-10.743,8.847,6.951,3.792,14.534,6.319,22.749,5.055,3.16,4.423,2.528,7.583-1.264,10.743-5.687.632-11.375-.632-15.8-5.055-5.055-5.055-12.007-5.055-18.958-5.687-2.528-5.687,3.792-7.583,5.687-12.007-1.9-2.528-5.055-2.528-7.583-2.528H49.107c-3.16,0-5.055-2.528-4.423-5.055,0-2.528,1.9-5.056,3.16-6.951,1.9-1.9,3.792-.632,5.687,1.264,8.215,6.951,17.694,5.687,27.173,4.423a14.219,14.219,0,0,1,8.847.632c2.528,1.264,6.319,1.9,9.479,2.528a43.536,43.536,0,0,1,1.9-5.055c2.528,1.264,5.055,3.16,7.583,4.423a85.1,85.1,0,0,0,37.916,5.056c4.423-.632,8.215.632,12.639,0,4.424,0,8.215-1.264,12.007-1.264h.632c3.16-6.951,10.743-6.951,16.43-9.479s11.375-5.687,15.8-10.111a22.454,22.454,0,0,0,6.951-10.111c.632-1.9-.632-5.055-1.264-8.215-3.792,2.528-6.319,5.687-10.111,3.792-.632-.632-.632-2.528-1.264-4.423-3.16-2.528-5.687-.632-8.847,2.528-1.9,2.528-5.687,3.792-8.847,5.687,1.264,2.528,1.9,4.423,3.16,6.951l-5.687,3.792a20.032,20.032,0,0,0-3.792-3.16c-2.528,3.16-5.055,6.319-8.215,10.743,0-3.16,0-5.055-.632-6.951-4.424-.632-8.847-1.9-13.27-2.528a4.791,4.791,0,0,1,2.528-1.264c1.9-.632,3.792-.632,5.055-1.264,1.9-1.9,0-3.16-.632-4.423s.632-3.16,1.264-4.423c.632-1.9,2.528-3.16,4.424-6.319-2.528.632-4.424,0-5.055.632q-1.9,3.791-5.687,1.9c-2.528-1.264-3.16-3.16-3.16-5.687a27.381,27.381,0,0,1,.632-3.16c-5.055-1.9-11.375-1.264-14.534-7.583a21.035,21.035,0,0,0,1.9-3.792c-3.16.632-5.687.632-8.215,1.264a30.8,30.8,0,0,0,2.528-6.951c7.583-.632,14.534,6.319,22.117,2.528V442.75c-9.479-.632-18.326-5.055-28.437-3.16a93.31,93.31,0,0,1-29.7.632c-6.319-.632-12.639-1.264-18.958,0-1.9.632-3.792-.632-5.687-1.264-2.528-1.264-3.16-3.16-2.528-5.687.632-1.9,1.9-3.16,4.424-2.528a21.5,21.5,0,0,1,6.319.632c6.319,3.792,13.27,3.16,20.222,3.16A69.636,69.636,0,0,1,112.3,435.8c3.16,0,6.319.632,9.479,0a32.308,32.308,0,0,1,18.958,0c6.951,2.528,13.9,2.528,20.854,1.9,1.264-5.055-1.9-6.319-5.055-7.583A127.382,127.382,0,0,0,142,425.689c0-6.319.632-6.951,5.687-5.055,5.687,1.9,10.743,3.16,16.43,1.264,1.9-3.792,0-6.319-2.528-7.583-9.479-5.687-15.8-15.8-26.541-20.222-.632,0-1.264-.632-1.9-1.264-6.319-6.951-14.534-10.111-23.381-12.007-4.424-.632-8.215-3.16-12.639-4.423-2.528-.632-5.055-2.528-7.583,0-2.528,1.9-5.687.632-7.583-2.528-4.424-8.847-13.27-9.479-22.117-10.743-5.687-.632-12.007-1.264-17.694-1.9-3.792-.632-5.055-2.528-5.055-6.319s1.9-4.424,5.055-5.055c2.528,0,5.055,0,7.583,1.264,6.319,2.528,12.639,5.055,18.958,6.951,12.639,4.423,24.645,10.111,37.284,15.8,1.9.632,3.16,1.264,5.055,1.9,10.743,2.528,20.854,6.319,29.069,14.534,1.264,1.264,3.16,1.9,5.055,3.16,6.951,3.16,14.534,6.319,21.486,10.111.632,0,.632.632,1.264.632,7.583,0,13.271,5.055,18.958,8.847.632.632,1.264.632,2.528.632,4.423-10.743.632-20.222-1.9-30.964a37.506,37.506,0,0,0-5.055-2.528v1.264c-2.528.632-5.687.632-8.847,1.264-1.264,3.792,3.792,8.847-.632,12.007-4.424-1.9-9.479-3.16-12.639-6.319a35.859,35.859,0,0,0-11.375-7.583c-1.264-.632-1.9-2.528-2.528-3.792-1.264-2.528-2.528-5.687-3.792-8.847a32.6,32.6,0,0,1,1.264-6.951l-5.687-1.9c-2.528-4.423-.632-8.215,3.16-10.111,5.687-3.16,11.375-6.951,15.8-12.007a10.288,10.288,0,0,1,3.792-1.9A58.714,58.714,0,0,0,157.8,329c1.9-5.055,6.951,0,10.111-3.792-.632-1.264-1.9-2.528-3.16-4.424a61.192,61.192,0,0,0,4.423-5.687,64.846,64.846,0,0,0-2.528-8.847H158.43c-1.264-1.9-4.424-3.792-.632-6.951,1.264-1.264-.632-4.423-3.16-3.792-1.9.632-3.792,1.9-5.687,2.528-3.16,1.264-4.424-6.319-8.215-1.264,0-5.055,0-5.055,5.687-6.319-1.9-2.528-1.264-6.319-6.319-6.319-4.423,8.847-13.27,9.479-22.749,9.479.632-3.792.632-6.319,1.264-9.479a55.562,55.562,0,0,0-6.319-3.792,27.486,27.486,0,0,1,3.792-4.424c-1.264-2.528-1.9-5.055-3.16-7.583h-7.583c4.424-4.423,5.055-11.375,11.375-13.9-1.264-2.528-1.264-6.319,1.9-6.319,4.424,0,5.687-3.16,8.847-6.319-4.424-6.951-8.847-13.9-12.007-18.958-6.319-1.264-11.375-1.9-16.43-2.528-1.264-4.423-3.16-8.847-2.528-12.639.632-5.055-1.9-7.583-4.424-10.111-3.16-3.792-3.792-5.055-1.264-7.583,3.16-2.528,7.583-1.9,9.479,1.264a55.572,55.572,0,0,1,3.792,6.319,6.309,6.309,0,0,0,2.528,3.16c4.423,2.528,6.951,6.319,8.847,11.375,1.264,2.528,3.792,3.792,6.951,5.687a38.228,38.228,0,0,0,5.055,13.271,92.323,92.323,0,0,0,13.9,20.854c0,.632.632.632.632,1.264-.632,9.479,6.319,15.166,11.375,22.117a37.714,37.714,0,0,1,5.687,9.479c2.528,7.583,8.215,12.639,14.534,17.062,6.951,5.055,12.007,11.375,16.43,18.958,1.264,1.9,1.264,5.055,1.264,7.583,0,6.319,1.264,11.375,5.687,16.43,1.264,1.9,3.16,4.423,3.16,6.319-.632,5.687,2.528,10.111,3.792,14.534a25.356,25.356,0,0,1,1.9,9.479c.632,7.583,2.528,15.166,2.528,22.749,0,8.215,2.528,16.43,10.111,22.117-.632-1.9-1.264-4.423-2.528-5.687-2.528-3.792-2.528-6.319.632-10.111,2.528-3.16,4.423-4.423,7.583-5.056,3.16-5.055,6.319-9.479,5.055-15.166a22.444,22.444,0,0,0-2.528-5.687c-2.528-3.792-3.16-7.583,0-10.743,8.215-7.583,10.111-17.062,11.375-27.173.632-5.687.632-10.743-2.528-15.166-1.9-2.528-2.528-5.687-3.16-8.215-1.9-8.215-3.792-17.062-5.687-25.277,0-1.264-.632-1.9-1.264-3.16-.632-3.792-2.528-7.583-1.9-12.007s-1.9-8.847-3.16-13.27c-.632-2.528-1.9-5.055-1.9-7.583-.632-5.687.632-6.951,6.319-6.319a130.728,130.728,0,0,1,13.9,2.528c0,2.528,1.264,3.792,3.792,4.423,4.423,1.264,6.319,3.792,6.319,8.847-3.16.632-6.319.632-10.111,1.264-1.9-1.9-3.792-4.423-5.687-6.319-3.16,2.528-4.423,5.687-2.528,8.215,2.528,4.423,3.16,9.479,5.055,14.534a37.431,37.431,0,0,0,3.792,2.528c.632-2.528,1.264-4.423,1.9-6.319,2.528,1.264,3.792,3.792,3.16,5.687,0,6.319,1.9,7.583,8.215,6.951,7.583-17.062,10.111-17.694,12.007-20.854Z" transform="translate(-37.1 -75.6)" fill-rule="evenodd"/>
      </g>
      <path id="Path_36" data-name="Path 36" d="M61.156,111.6c.632,4.424,1.264,7.583,1.9,11.375,6.319.632,3.792-6.319,7.583-7.583,1.9.632,2.528,4.424,5.687,3.16a17.5,17.5,0,0,1,8.215-.632,55.569,55.569,0,0,1-6.319,3.792c-3.16,1.264-5.055,2.528-2.528,6.319-5.055,1.264-9.479,2.528-14.534,3.792H58.628c-8.847-2.528-9.479-2.528-14.534,3.16-1.9-2.528-3.792-4.424-1.9-7.583.632-1.264-1.264-3.792-1.9-5.687a70.887,70.887,0,0,0-8.215,3.16,10.754,10.754,0,0,1,.632-4.424c-1.9-.632-3.792-.632-6.319-1.264,1.264-.632,1.9-1.9,2.528-1.9,5.687-.632,12.007.632,17.694-1.264C52.309,113.5,56.1,111.6,61.156,111.6Z" transform="translate(25.001 246.283)" fill-rule="evenodd"/>
      <path id="Path_37" data-name="Path 37" d="M74.9,201.239c1.264-10.743,8.215-17.694,14.534-24.013,2.528-2.528,4.423-5.055,6.951-7.583,3.16-3.16,6.319-6.951,9.479-10.743,1.9,1.264,3.792,2.528,6.319,4.424a17.446,17.446,0,0,0-5.055,3.792,17.036,17.036,0,0,0-5.055,4.423c-1.9,3.16-2.528,8.215-5.055,10.111-3.16,3.16-3.16,6.319-3.792,10.111-.632,4.423-2.528,6.951-6.951,7.583C82.483,199.343,78.692,200.607,74.9,201.239Z" transform="translate(282.986 497.885)" fill-rule="evenodd"/>
      <path id="Path_38" data-name="Path 38" d="M97.673,102.617c.632,3.792,1.264,6.951,1.9,10.743-1.9,0-4.423-2.528-6.319.632,0,0-2.528-.632-4.423-1.264a13.914,13.914,0,0,1,.632-5.055c-3.792,0-6.951.632-9.479.632-3.792-1.9.632-6.951-4.424-7.583-3.16-.632-2.528-5.055-5.055-6.951l7.583-1.9c-1.9-3.16-8.215-5.687-3.16-11.375,2.528,3.16,5.055,6.319,8.215,10.111H86.93c5.055.632,5.687,3.16,3.16,6.951-1.264,1.9-3.16,3.16-1.264,4.423,1.264,1.264,3.16,1.264,5.055,1.264C95.145,103.881,96.409,102.617,97.673,102.617Z" transform="translate(259.581 80.853)" fill-rule="evenodd"/>
      <path id="Path_39" data-name="Path 39" d="M66.1,197.707c2.528-3.16,5.055-5.687,7.583-8.847,4.423-5.687,8.847-11.375,15.8-14.534,5.687-2.528,9.479-8.215,13.27-12.639,1.264-1.9,3.16-3.792,4.423-5.687,1.264,1.9,2.528,3.16,3.792,5.055-4.423,5.055-8.215,10.743-13.27,15.166-5.055,5.055-10.743,8.847-16.43,13.9-2.528,2.528-5.055,4.423-6.951,7.583C70.524,200.867,69.892,200.867,66.1,197.707Z" transform="translate(236.176 482.459)" fill-rule="evenodd"/>
      <path id="Path_40" data-name="Path 40" d="M94.81,94.18c-2.528-7.583,0-13.9,1.264-20.222.632-4.423,3.792-5.055,10.111-1.9,0,1.9-3.16,5.687,1.9,6.951.632,0,1.264,2.528.632,4.424,0,1.264-1.264,1.9-1.9,2.528C104.289,89.756,99.234,91.652,94.81,94.18Z" transform="translate(383.142 25.466)" fill-rule="evenodd"/>
      <path id="Path_41" data-name="Path 41" d="M75.941,91.329c-1.9,2.528-3.792,5.687-6.951,10.111,0-4.424-5.055-6.951-2.528-10.743-5.055-5.055-11.375,2.528-17.062-2.528a21.033,21.033,0,0,0,3.792-1.9c3.792,0,6.951,1.9,10.743-.632.632-.632,3.16.632,4.424,1.9A21.354,21.354,0,0,1,75.941,91.329Z" transform="translate(147.344 107.308)" fill-rule="evenodd"/>
      <path id="Path_42" data-name="Path 42" d="M121.078,160.2c-3.16-2.528-6.319-4.423-9.479-6.951-.632-.632-.632-2.528,0-3.792l2.528-5.055c3.16.632,5.687,1.9,8.215,2.528C122.342,151.983,117.286,155.775,121.078,160.2Z" transform="translate(475.677 420.755)" fill-rule="evenodd"/>
      <path id="Path_43" data-name="Path 43" d="M98.65,181.694c-1.9.632-3.16,1.264-4.424,1.264-2.528-1.264,0-5.055-3.792-5.055-3.792-.632-1.9-3.792-1.264-6.319,0-2.528.632-4.423,1.264-7.583a51.3,51.3,0,0,0,6.951,1.9c-3.792,3.792-3.16,6.319,1.264,8.847a26.751,26.751,0,0,1-4.424,3.16,30.8,30.8,0,0,1,4.424,1.9Z" transform="translate(353.393 525.013)" fill-rule="evenodd"/>
      <path id="Path_44" data-name="Path 44" d="M76.1,91.714V82.235c4.423-2.528,4.423-2.528,10.743.632-.632,1.264-3.792,6.319-4.424,8.215-1.9,0-3.792.632-6.319.632Z" transform="translate(289.369 80.382)" fill-rule="evenodd"/>
      <path id="Path_45" data-name="Path 45" d="M55.729,82.132c2.528,0,5.055-.632,7.583-.632-.632,3.16-1.264,5.687-1.9,8.847l-3.792-1.9a14.877,14.877,0,0,0,0,14.534c-3.16-2.528-4.424-5.687-3.792-10.111C54.465,89.715,55.1,85.923,55.729,82.132Z" transform="translate(170.084 86.172)" fill-rule="evenodd"/>
      <path id="Path_46" data-name="Path 46" d="M95.407,163.8v10.111H83.4c1.264-1.264,1.264-3.16,2.528-3.16C89.719,170.119,92.879,167.592,95.407,163.8Z" transform="translate(328.2 523.949)" fill-rule="evenodd"/>
      <path id="Path_47" data-name="Path 47" d="M88.3,174.687c2.528-1.9,4.423-3.16,7.583-5.687-.632,5.687-.632,9.479-1.264,13.271-1.9,0-3.792-.632-5.055-.632A19.507,19.507,0,0,1,88.3,174.687Z" transform="translate(354.264 551.61)" fill-rule="evenodd"/>
      <path id="Path_48" data-name="Path 48" d="M31.2,128.732c.632-1.264,1.9-1.9,2.528-3.16q1.9-5.687,5.687-1.9c2.528,3.16,1.9,6.319,0,9.479C36.887,131.892,34.36,130.628,31.2,128.732Z" transform="translate(50.533 302.454)" fill-rule="evenodd"/>
      <path id="Path_49" data-name="Path 49" d="M52.5,138.86c2.528-1.264,5.687-1.9,8.215-3.16,0,.632.632.632.632,1.264a37.53,37.53,0,0,0-2.528,5.055c3.792.632,6.951,1.9,10.743,2.528-6.319,0-12.007,0-17.062-3.792Q52.5,139.808,52.5,138.86Z" transform="translate(163.834 374.478)" fill-rule="evenodd"/>
      <path id="Path_50" data-name="Path 50" d="M91.351,77.964c-.632,4.424-.632,8.847-1.264,13.27,0,.632-2.528,1.9-3.792,1.9-.632,0-1.9-2.528-1.9-3.16,3.16-3.16,3.16-6.951,3.16-10.743A4.791,4.791,0,0,1,88.824,76.7,3.283,3.283,0,0,0,91.351,77.964Z" transform="translate(333.519 60.64)" fill-rule="evenodd"/>
      <path id="Path_51" data-name="Path 51" d="M84.728,88.175A53.065,53.065,0,0,1,82.2,80.592c0-1.264,1.264-2.528,1.9-3.792,1.264.632,3.16,1.264,3.792,2.528C90.415,82.487,88.519,85.015,84.728,88.175Z" transform="translate(321.817 61.172)" fill-rule="evenodd"/>
      <path id="Path_52" data-name="Path 52" d="M83.015,82.732c.632,2.528.632,4.424,1.264,8.215-3.792-1.9-6.319-2.528-9.479-4.423V82.1a45.338,45.338,0,0,0,8.215.632Z" transform="translate(282.454 89.364)" fill-rule="evenodd"/>
      <path id="Path_53" data-name="Path 53" d="M117.028,137.9c3.16,1.9,5.687,3.792,5.687,8.215-2.528,0-4.423-.632-6.951-.632C114.5,142.955,113.236,139.8,117.028,137.9Z" transform="translate(493.629 386.18)" fill-rule="evenodd"/>
      <path id="Path_54" data-name="Path 54" d="M89.432,83.115c0-2.528-.632-5.055-.632-8.215,3.16,0,5.055.632,8.215.632-1.9,3.16-3.792,5.687-5.055,8.215C90.7,83.747,90.064,83.747,89.432,83.115Z" transform="translate(356.924 51.065)" fill-rule="evenodd"/>
      <path id="Path_55" data-name="Path 55" d="M25.3,103.828A99.321,99.321,0,0,0,39.834,101.3c0,1.264.632,3.16,0,3.792-1.264,1.9-1.9,0-3.16-.632a3.8,3.8,0,0,0-2.528.632C31.619,107.619,29.092,105.724,25.3,103.828Z" transform="translate(19.149 191.494)" fill-rule="evenodd"/>
      <path id="Path_56" data-name="Path 56" d="M89.247,177.364c-1.9,2.528-3.16,4.424-4.423,6.319-1.264-.632-2.528-1.9-4.424-2.528a43.532,43.532,0,0,0,1.9-5.055C84.191,176.1,86.087,176.732,89.247,177.364Z" transform="translate(312.242 589.377)" fill-rule="evenodd"/>
      <path id="Path_57" data-name="Path 57" d="M41.475,92.7c-2.528,3.792-3.792,5.687-5.687,8.215-1.264-1.264-3.16-2.528-5.687-5.055C33.892,94.6,37.051,93.964,41.475,92.7Z" transform="translate(44.682 145.748)" fill-rule="evenodd"/>
      <path id="Path_58" data-name="Path 58" d="M98.582,78.857c-2.528,1.9-4.423,3.16-6.319,4.423-2.528-2.528-2.528-4.423-1.264-6.319C93.527,75.065,95.422,76.961,98.582,78.857Z" transform="translate(364.204 57.851)" fill-rule="evenodd"/>
      <path id="Path_59" data-name="Path 59" d="M83.732,70.987c0-1.9-.632-3.16-.632-5.687,3.16,0,5.687.632,8.847.632V67.2C89.419,68.46,86.892,69.724,83.732,70.987Z" transform="translate(326.604 0)" fill-rule="evenodd"/>
      <path id="Path_60" data-name="Path 60" d="M22.964,115.747A42.672,42.672,0,0,1,21.7,106.9C28.019,109.428,28.019,110.692,22.964,115.747Z" transform="translate(0 221.282)" fill-rule="evenodd"/>
      <path id="Path_61" data-name="Path 61" d="M39.5,131.38c3.792-.632,5.687,0,5.055,3.792,0,1.264-1.9,2.528-2.528,2.528C38.236,137.067,40.764,133.907,39.5,131.38Z" transform="translate(94.683 350.361)" fill-rule="evenodd"/>
      <path id="Path_62" data-name="Path 62" d="M37.9,146.776c1.9-2.528,3.792-4.424,5.687-2.528,1.264,1.264.632,3.16.632,6.319C41.06,149.3,39.8,148.04,37.9,146.776Z" transform="translate(86.172 415.852)" fill-rule="evenodd"/>
      <path id="Path_63" data-name="Path 63" d="M94.051,80.728c-1.264,1.264-1.9,2.528-3.16,3.792L87.1,78.832l.632-.632A18.924,18.924,0,0,0,94.051,80.728Z" transform="translate(347.881 68.619)" fill-rule="evenodd"/>
      <path id="Path_64" data-name="Path 64" d="M32.683,109.81c-2.528,0-5.055.632-7.583.632v-1.9c2.528-1.264,5.055-2.528,8.215-.632A2.322,2.322,0,0,0,32.683,109.81Z" transform="translate(18.086 221.532)" fill-rule="evenodd"/>
      <path id="Path_65" data-name="Path 65" d="M91.1,167.915c0-3.16.632-5.687.632-8.215C96.155,164.123,96.155,164.755,91.1,167.915Z" transform="translate(369.158 502.14)" fill-rule="evenodd"/>
      <path id="Path_66" data-name="Path 66" d="M61.6,104.4h6.951C66.655,109.455,66.655,109.455,61.6,104.4Z" transform="translate(212.239 207.984)" fill-rule="evenodd"/>
      <path id="Path_67" data-name="Path 67" d="M71.5,169.051a68.89,68.89,0,0,1,8.215-6.951C79.083,165.892,77.187,169.051,71.5,169.051Z" transform="translate(264.9 514.906)" fill-rule="evenodd"/>
      <path id="Path_68" data-name="Path 68" d="M37.012,91a36.266,36.266,0,0,1-5.687,5.055C30.693,91.632,30.693,91.632,37.012,91Z" transform="translate(49.776 136.706)" fill-rule="evenodd"/>
      <path id="Path_69" data-name="Path 69" d="M58.683,123.97a78.88,78.88,0,0,0-7.583,5.055C51.732,123.97,51.732,123.338,58.683,123.97Z" transform="translate(156.387 311.008)" fill-rule="evenodd"/>
      <path id="Path_70" data-name="Path 70" d="M93,79.5a59.625,59.625,0,0,1-1.9,5.687s-1.9,0-2.528-.632C87.943,82.028,88.575,80.132,93,79.5Z" transform="translate(354.621 75.534)" fill-rule="evenodd"/>
      <path id="Path_71" data-name="Path 71" d="M27.7,105.4H37.811C31.492,108.56,31.492,108.56,27.7,105.4Z" transform="translate(31.916 213.303)" fill-rule="evenodd"/>
      <path id="Path_72" data-name="Path 72" d="M97.46,158.3c1.9,5.687,1.264,5.687-3.16,5.687C95.564,162.091,96.2,160.2,97.46,158.3Z" transform="translate(386.18 494.693)" fill-rule="evenodd"/>
      <path id="Path_73" data-name="Path 73" d="M64.9,170.951A25.923,25.923,0,0,1,65.532,164C69.955,167.16,69.955,167.16,64.9,170.951Z" transform="translate(229.793 525.013)" fill-rule="evenodd"/>
      <path id="Path_74" data-name="Path 74" d="M55.228,103.255c-.632-1.9-1.264-3.792-2.528-5.055,2.528.632,5.687,1.264,4.424,4.423C56.492,102.624,55.86,103.255,55.228,103.255Z" transform="translate(164.898 175.004)" fill-rule="evenodd"/>
      <path id="Path_75" data-name="Path 75" d="M56.315,89.726c-3.16-.632-5.687-.632-7.583-1.264a.619.619,0,0,0-.632-.632C50,84.67,50,84.67,56.315,89.726Z" transform="translate(140.429 108.279)" fill-rule="evenodd"/>
      <path id="Path_76" data-name="Path 76" d="M96.6,80.115c1.264-2.528,2.528-5.055,3.792-8.215C101.023,78.219,101.023,78.219,96.6,80.115Z" transform="translate(398.414 35.107)" fill-rule="evenodd"/>
      <path id="Path_77" data-name="Path 77" d="M33.333,123.4c-.632,2.528-1.264,4.423-1.9,6.951C28.91,126.56,28.91,126.56,33.333,123.4Z" transform="translate(42.712 309.05)" fill-rule="evenodd"/>
      <path id="Path_78" data-name="Path 78" d="M57.987,127.5c-1.9,1.264-3.792,3.792-5.687-1.264,1.9,0,3.792,0,5.055-.632A2.321,2.321,0,0,1,57.987,127.5Z" transform="translate(162.77 320.753)" fill-rule="evenodd"/>
      <path id="Path_79" data-name="Path 79" d="M90.655,79.9c-1.264,3.16-2.528,4.424-5.055,1.264C88.128,80.532,89.392,79.9,90.655,79.9Z" transform="translate(339.902 77.662)" fill-rule="evenodd"/>
      <path id="Path_80" data-name="Path 80" d="M90.724,68.7c-1.264.632-1.9,1.9-2.528,1.264-.632,0-1.9-.632-1.9-1.264s1.264-1.9,1.264-1.9C88.2,66.8,88.828,68.064,90.724,68.7Z" transform="translate(343.626 7.979)" fill-rule="evenodd"/>
      <path id="Path_81" data-name="Path 81" d="M78.419,108H72.1c1.9-2.528,1.9-2.528,6.319,0Z" transform="translate(268.092 217.027)" fill-rule="evenodd"/>
      <path id="Path_82" data-name="Path 82" d="M82.9,79.7c5.055,1.264,3.792,3.792,3.792,6.951C85.428,84.124,84.164,82.86,82.9,79.7Z" transform="translate(325.54 76.598)" fill-rule="evenodd"/>
      <path id="Path_83" data-name="Path 83" d="M45.5,134.136c0,1.264-.632,3.16-.632,4.423H43.6a10.754,10.754,0,0,1,.632-4.423A.875.875,0,0,1,45.5,134.136Z" transform="translate(116.492 364.666)" fill-rule="evenodd"/>
      <path id="Path_84" data-name="Path 84" d="M71.128,75.767C70.5,74.5,68.6,73.239,68.6,72.607c.632-1.9,1.9-1.264,3.16,0a2.321,2.321,0,0,1,.632,1.9C72.392,75.135,71.76,75.135,71.128,75.767Z" transform="translate(249.474 32.504)" fill-rule="evenodd"/>
      <path id="Path_85" data-name="Path 85" d="M86.837,67.936c0,1.264-.632,3.16-.632,5.055-4.423-2.528-.632-3.792-.632-5.055C85.573,67.3,86.205,67.936,86.837,67.936Z" transform="translate(331.714 12.53)" fill-rule="evenodd"/>
      <path id="Path_86" data-name="Path 86" d="M72.7,71.3c3.792,0,3.792,0,4.423,3.792C75.86,74.46,74.6,73.2,72.7,71.3Z" transform="translate(271.283 31.916)" fill-rule="evenodd"/>
      <path id="Path_87" data-name="Path 87" d="M79.7,106.4c0,1.264-.632,3.16-.632,4.424H77.8V106.4Z" transform="translate(298.412 218.623)" fill-rule="evenodd"/>
      <path id="Path_88" data-name="Path 88" d="M86.9,170.923c0-1.9.632-3.16.632-4.423C89.428,169.028,89.428,169.028,86.9,170.923Z" transform="translate(346.817 538.311)" fill-rule="evenodd"/>
      <path id="Path_89" data-name="Path 89" d="M63.4,173.523a27.482,27.482,0,0,1,3.792-4.423l1.264,1.264c-1.264,1.264-2.528,3.16-3.792,4.424C64.664,174.155,64.664,173.523,63.4,173.523Z" transform="translate(221.814 552.142)" fill-rule="evenodd"/>
      <path id="Path_90" data-name="Path 90" d="M76.517,111.6l1.9,3.792C73.99,116.024,74.621,114.128,76.517,111.6Z" transform="translate(283.896 246.283)" fill-rule="evenodd"/>
      <path id="Path_91" data-name="Path 91" d="M54.892,127.464c-1.264,0-2.528.632-3.792.632v-1.264c1.264,0,2.528-.632,3.792-.632Z" transform="translate(156.387 323.944)" fill-rule="evenodd"/>
      <path id="Path_92" data-name="Path 92" d="M78.664,86.4l1.9,3.792c-.632,0-.632.632-1.264.632l-1.9-3.792A1.957,1.957,0,0,1,78.664,86.4Z" transform="translate(296.284 112.237)" fill-rule="evenodd"/>
      <path id="Path_93" data-name="Path 93" d="M86.428,180.464a4.777,4.777,0,0,0-2.528-.632c.632,0,1.264-.632,1.9-.632C85.164,179.2,85.8,179.832,86.428,180.464Z" transform="translate(330.859 605.866)" fill-rule="evenodd"/>
      <path id="Path_94" data-name="Path 94" d="M36.6,120.555V115.5C39.128,118.66,39.128,118.66,36.6,120.555Z" transform="translate(79.257 267.028)" fill-rule="evenodd"/>
    </g>
  </g>
</svg>
