<svg id="Component_3_1" data-name="Component 3 – 1" xmlns="http://www.w3.org/2000/svg" width="186" height="186" viewBox="0 0 186 186">
  <circle id="Ellipse_143" data-name="Ellipse 143" cx="93" cy="93" r="93" fill="#518ef7" opacity="0.2"/>
  <g id="Data_analysis-research-analysis-report-presentation" data-name="Data analysis-research-analysis-report-presentation" transform="translate(50.883 54.441)">
    <path id="Path_1319" data-name="Path 1319" d="M34.319,17.823H47.5A1.319,1.319,0,0,0,48.823,16.5,14.522,14.522,0,0,0,34.319,2,1.319,1.319,0,0,0,33,3.319V16.5A1.319,1.319,0,0,0,34.319,17.823ZM35.637,4.71A11.894,11.894,0,0,1,46.114,15.186H35.637Z" transform="translate(9.877 0)" fill="#518ef7"/>
    <path id="Path_1320" data-name="Path 1320" d="M50.727,4.637h8.684V2h-9.23a1.318,1.318,0,0,0-.932.386L45.293,6.342l1.865,1.865Z" transform="translate(13.794 0)" fill="#518ef7"/>
    <path id="Path_1321" data-name="Path 1321" d="M58,2h5.274V4.637H58Z" transform="translate(17.843 0)" fill="#518ef7"/>
    <path id="Path_1322" data-name="Path 1322" d="M20.254,8.207l1.865-1.865L18.163,2.386A1.319,1.319,0,0,0,17.23,2H8V4.637h8.684Z" transform="translate(1.912)" fill="#518ef7"/>
    <path id="Path_1323" data-name="Path 1323" d="M2,2H7.274V4.637H2Z" transform="translate(0 0)" fill="#518ef7"/>
    <path id="Path_1324" data-name="Path 1324" d="M50,8H60.549v2.637H50Z" transform="translate(15.294 1.912)" fill="#518ef7"/>
    <path id="Path_1325" data-name="Path 1325" d="M60,8h2.637v2.637H60Z" transform="translate(18.48 1.912)" fill="#518ef7"/>
    <path id="Path_1326" data-name="Path 1326" d="M2,8H17.823v2.637H2Z" transform="translate(0 1.912)" fill="#518ef7"/>
    <path id="Path_1327" data-name="Path 1327" d="M27.684,36.863H19V39.5h9.23a1.318,1.318,0,0,0,.932-.386l3.956-3.956-1.865-1.865Z" transform="translate(5.417 9.971)" fill="#518ef7"/>
    <path id="Path_1328" data-name="Path 1328" d="M13,36h5.274v2.637H13Z" transform="translate(3.505 10.833)" fill="#518ef7"/>
    <path id="Path_1329" data-name="Path 1329" d="M13,30H28.823v2.637H13Z" transform="translate(3.505 8.921)" fill="#518ef7"/>
    <path id="Path_1330" data-name="Path 1330" d="M78.887,36.328a17.125,17.125,0,0,0-27.928-13.3A14.427,14.427,0,0,0,51.2,20.5a1.319,1.319,0,0,0-1.319-1.319H38.01V7.319A1.319,1.319,0,0,0,36.691,6,14.519,14.519,0,0,0,22.753,16.549h-7.16A6.593,6.593,0,0,0,9,23.142V57.426a6.593,6.593,0,0,0,6.593,6.593H34.054v7.912H30.1a3.968,3.968,0,0,0-3.956,3.956v2.637a1.319,1.319,0,0,0,1.319,1.319H51.2a1.319,1.319,0,0,0,1.319-1.319V75.887a3.968,3.968,0,0,0-3.956-3.956H44.6V64.019H55.152v9.23a6.593,6.593,0,1,0,13.186,0V57.426a1.319,1.319,0,0,0-1.319-1.319H65.7V53A17.175,17.175,0,0,0,78.887,36.328ZM35.372,8.716V20.5a1.319,1.319,0,0,0,1.319,1.319H48.479A11.868,11.868,0,1,1,35.372,8.716ZM48.559,74.568a1.319,1.319,0,0,1,1.319,1.319v1.319h-21.1V75.887A1.319,1.319,0,0,1,30.1,74.568ZM36.691,71.931V64.019h5.274v7.912ZM56.47,56.108a1.319,1.319,0,0,0-1.319,1.319v3.956H15.593a3.968,3.968,0,0,1-3.956-3.956V56.108H52.514V53.47H11.637V23.142a3.968,3.968,0,0,1,3.956-3.956h6.659c-.04.435-.066.87-.066,1.319A14.49,14.49,0,0,0,45.1,32.306a16.878,16.878,0,0,0-.5,4.022A17.175,17.175,0,0,0,57.789,53v3.112ZM65.7,73.25a3.956,3.956,0,1,1-7.912,0v-14.5H65.7ZM60.426,56.108V53.4c.435.026.87.066,1.319.066s.883-.04,1.319-.066v2.7Zm1.319-5.274a14.5,14.5,0,1,1,14.5-14.5A14.5,14.5,0,0,1,61.745,50.833Z" transform="translate(2.23 1.274)" fill="#518ef7"/>
    <path id="Path_1331" data-name="Path 1331" d="M51.868,20A11.868,11.868,0,1,0,63.735,31.868,11.868,11.868,0,0,0,51.868,20Zm0,21.1a9.23,9.23,0,1,1,9.23-9.23,9.23,9.23,0,0,1-9.23,9.23Z" transform="translate(12.108 5.735)" fill="#518ef7"/>
    <path id="Path_1332" data-name="Path 1332" d="M44,30.593h2.637a3.956,3.956,0,0,1,3.956-3.956V24A6.6,6.6,0,0,0,44,30.593Z" transform="translate(13.382 7.01)" fill="#518ef7"/>
    <path id="Path_1333" data-name="Path 1333" d="M48,48h2.637v2.637H48Z" transform="translate(14.657 14.657)" fill="#518ef7"/>
    <path id="Path_1334" data-name="Path 1334" d="M48,52h2.637v7.912H48Z" transform="translate(14.657 15.931)" fill="#518ef7"/>
  </g>
</svg>
