<svg xmlns="http://www.w3.org/2000/svg" xmlns:xlink="http://www.w3.org/1999/xlink" width="132.001" height="134.539" viewBox="0 0 132.001 134.539">
  <defs>
    <linearGradient id="linear-gradient" x1="0.5" x2="0.5" y2="1" gradientUnits="objectBoundingBox">
      <stop offset="0" stop-color="#fff"/>
      <stop offset="1" stop-color="#f6f6ff"/>
    </linearGradient>
  </defs>
  <path id="Subtraction_1" data-name="Subtraction 1" d="M823,232.538a64.509,64.509,0,0,1-25.688-5.287,65.737,65.737,0,0,1-20.979-14.417,67.142,67.142,0,0,1-14.146-21.383,68.68,68.68,0,0,1,0-52.369A67.13,67.13,0,0,1,776.333,117.7a65.728,65.728,0,0,1,20.979-14.415,65.064,65.064,0,0,1,51.376,0A65.729,65.729,0,0,1,869.668,117.7a67.13,67.13,0,0,1,14.146,21.382,68.678,68.678,0,0,1,0,52.369,67.144,67.144,0,0,1-14.146,21.383,65.739,65.739,0,0,1-20.979,14.417A64.507,64.507,0,0,1,823,232.538Z" transform="translate(-757 -97.999)" fill="url(#linear-gradient)"/>
</svg>
