<svg width="36" height="40" viewBox="0 0 36 40" fill="none" xmlns="http://www.w3.org/2000/svg">
<rect width="36" height="40" fill="#E5E5E5"/>
<path d="M0 0H29C30.8565 0 32.637 0.737498 33.9497 2.05025C35.2625 3.36301 36 5.14348 36 7V33C36 34.8565 35.2625 36.637 33.9497 37.9497C32.637 39.2625 30.8565 40 29 40H0V0Z" fill="#71BF44"/>
<path d="M1 0.5H29C29.8536 0.5 30.6988 0.668127 31.4874 0.994783C32.2761 1.32144 32.9926 1.80023 33.5962 2.40381C34.1998 3.00739 34.6786 3.72394 35.0052 4.51256C35.3319 5.30117 35.5 6.14641 35.5 7V33C35.5 34.7239 34.8152 36.3772 33.5962 37.5962C32.3772 38.8152 30.7239 39.5 29 39.5H1C0.867392 39.5 0.740215 39.4473 0.646447 39.3536C0.552678 39.2598 0.5 39.1326 0.5 39V1C0.5 0.867392 0.552678 0.740215 0.646447 0.646447C0.740215 0.552678 0.867392 0.5 1 0.5V0.5Z" stroke="#EBEBEB"/>
<path d="M22.54 23.18C22.54 23.82 22.38 24.4333 22.06 25.02C21.74 25.5933 21.2667 26.0733 20.64 26.46C20.0267 26.8467 19.2867 27.0667 18.42 27.12V28.74H17.34V27.12C16.1267 27.0133 15.14 26.6267 14.38 25.96C13.62 25.28 13.2333 24.42 13.22 23.38H15.16C15.2133 23.94 15.42 24.4267 15.78 24.84C16.1533 25.2533 16.6733 25.5133 17.34 25.62V20.62C16.4467 20.3933 15.7267 20.16 15.18 19.92C14.6333 19.68 14.1667 19.3067 13.78 18.8C13.3933 18.2933 13.2 17.6133 13.2 16.76C13.2 15.68 13.5733 14.7867 14.32 14.08C15.08 13.3733 16.0867 12.98 17.34 12.9V11.24H18.42V12.9C19.5533 12.9933 20.4667 13.36 21.16 14C21.8533 14.6267 22.2533 15.4467 22.36 16.46H20.42C20.3533 15.9933 20.1467 15.5733 19.8 15.2C19.4533 14.8133 18.9933 14.56 18.42 14.44V19.32C19.3 19.5467 20.0133 19.78 20.56 20.02C21.12 20.2467 21.5867 20.6133 21.96 21.12C22.3467 21.6267 22.54 22.3133 22.54 23.18ZM15.06 16.66C15.06 17.3133 15.2533 17.8133 15.64 18.16C16.0267 18.5067 16.5933 18.7933 17.34 19.02V14.4C16.6467 14.4667 16.0933 14.6933 15.68 15.08C15.2667 15.4533 15.06 15.98 15.06 16.66ZM18.42 25.64C19.14 25.56 19.7 25.3 20.1 24.86C20.5133 24.42 20.72 23.8933 20.72 23.28C20.72 22.6267 20.52 22.1267 20.12 21.78C19.72 21.42 19.1533 21.1333 18.42 20.92V25.64Z" fill="white"/>
</svg>
