<svg width="39" height="30" viewBox="0 0 39 30" fill="none" xmlns="http://www.w3.org/2000/svg">
<path d="M21.7 8.2H17.2C16.7582 8.2 16.4 8.55817 16.4 9V29.16C16.4 29.6018 16.7582 29.96 17.2 29.96H21.7C22.1418 29.96 22.5 29.6018 22.5 29.16V9C22.5 8.55817 22.1418 8.2 21.7 8.2Z" fill="#F36F21"/>
<path d="M21.7 0H17.2C16.7582 0 16.4 0.358172 16.4 0.8V5.34C16.4 5.78183 16.7582 6.14 17.2 6.14H21.7C22.1418 6.14 22.5 5.78183 22.5 5.34V0.8C22.5 0.358172 22.1418 0 21.7 0Z" fill="#008FD5"/>
<path d="M29.9 23.8H25.4C24.9582 23.8 24.6 24.1582 24.6 24.6V29.14C24.6 29.5818 24.9582 29.94 25.4 29.94H29.9C30.3418 29.94 30.7 29.5818 30.7 29.14V24.6C30.7 24.1582 30.3418 23.8 29.9 23.8Z" fill="#FDB725"/>
<path d="M29.9 0H25.4C24.9582 0 24.6 0.358172 24.6 0.8V20.96C24.6 21.4018 24.9582 21.76 25.4 21.76H29.9C30.3418 21.76 30.7 21.4018 30.7 20.96V0.8C30.7 0.358172 30.3418 0 29.9 0Z" fill="#008FD5"/>
<path d="M13.5 0H9C8.55817 0 8.2 0.358172 8.2 0.8V14.2C8.2 14.6418 8.55817 15 9 15H13.5C13.9418 15 14.3 14.6418 14.3 14.2V0.8C14.3 0.358172 13.9418 0 13.5 0Z" fill="#48B6E2"/>
<path d="M13.5 17H9C8.55817 17 8.2 17.3582 8.2 17.8V29.13C8.2 29.5718 8.55817 29.93 9 29.93H13.5C13.9418 29.93 14.3 29.5718 14.3 29.13V17.8C14.3 17.3582 13.9418 17 13.5 17Z" fill="#71BF44"/>
<path d="M5.3 11.9H0.8C0.358172 11.9 0 12.2582 0 12.7V29.14C0 29.5818 0.358172 29.94 0.8 29.94H5.3C5.74183 29.94 6.1 29.5818 6.1 29.14V12.7C6.1 12.2582 5.74183 11.9 5.3 11.9Z" fill="#FDB725"/>
<path d="M5.3 0H0.8C0.358172 0 0 0.358172 0 0.8V9.05C0 9.49183 0.358172 9.85 0.8 9.85H5.3C5.74183 9.85 6.1 9.49183 6.1 9.05V0.8C6.1 0.358172 5.74183 0 5.3 0Z" fill="#008FD5"/>
<path d="M38.1 19.4H33.6C33.1582 19.4 32.8 19.7582 32.8 20.2V29.21C32.8 29.6518 33.1582 30.01 33.6 30.01H38.1C38.5418 30.01 38.9 29.6518 38.9 29.21V20.2C38.9 19.7582 38.5418 19.4 38.1 19.4Z" fill="#71BF44"/>
<path d="M38.1 0.0999985H33.6C33.1582 0.0999985 32.8 0.458171 32.8 0.899998V16.66C32.8 17.1018 33.1582 17.46 33.6 17.46H38.1C38.5418 17.46 38.9 17.1018 38.9 16.66V0.899998C38.9 0.458171 38.5418 0.0999985 38.1 0.0999985Z" fill="#48B6E2"/>
</svg>
