<svg xmlns="http://www.w3.org/2000/svg" width="70" height="70" viewBox="0 0 70 70">
  <g id="rich" transform="translate(0 -0.436)">
    <circle id="Ellipse_100" data-name="Ellipse 100" cx="35" cy="35" r="35" transform="translate(0 0.436)" fill="#ffe17d"/>
    <path id="Path_39" data-name="Path 39" d="M127.678,291.271a82.639,82.639,0,0,1-19.2-2.211,1.1,1.1,0,0,0-1.2,1.457c2.739,9.669,10.825,16.684,20.393,16.684s17.653-7.014,20.393-16.684a1.1,1.1,0,0,0-1.2-1.457A82.639,82.639,0,0,1,127.678,291.271Z" transform="translate(-92.495 -249.247)" fill="#9c6846"/>
    <path id="Path_40" data-name="Path 40" d="M127.688,296.815a100.4,100.4,0,0,0,18.61-1.793,25.278,25.278,0,0,0,1.771-4.507,1.1,1.1,0,0,0-1.2-1.457,84.459,84.459,0,0,1-38.395,0,1.1,1.1,0,0,0-1.2,1.457,25.268,25.268,0,0,0,1.769,4.5A100.387,100.387,0,0,0,127.688,296.815Z" transform="translate(-92.494 -249.246)" fill="#7d5046"/>
    <path id="Path_41" data-name="Path 41" d="M208.1,301.763a84.979,84.979,0,0,1-18.163,0v13.01a9.082,9.082,0,1,0,18.163,0V301.763Z" transform="translate(-163.827 -260.227)" fill="#bee86e"/>
    <path id="Path_42" data-name="Path 42" d="M40.3,114.762A35.186,35.186,0,0,1,13,57.376a35.187,35.187,0,1,0,49.5,49.5A35.039,35.039,0,0,1,40.3,114.762Z" transform="translate(0 -49.434)" fill="#ffd164"/>
    <g id="Group_13" data-name="Group 13" transform="translate(13.346 12.258)">
      <path id="Path_43" data-name="Path 43" d="M98.51,97.292a1.418,1.418,0,0,1-.932-2.489,31.175,31.175,0,0,1,11.944-5.983,1.419,1.419,0,0,1,.679,2.756,28.823,28.823,0,0,0-10.762,5.37A1.411,1.411,0,0,1,98.51,97.292Z" transform="translate(-97.091 -88.78)" fill="#aa7346"/>
      <path id="Path_44" data-name="Path 44" d="M324.509,97.291a1.41,1.41,0,0,1-.928-.346,28.829,28.829,0,0,0-10.762-5.37,1.419,1.419,0,0,1,.679-2.756A31.175,31.175,0,0,1,325.442,94.8a1.418,1.418,0,0,1-.932,2.489Z" transform="translate(-282.233 -88.779)" fill="#aa7346"/>
      <path id="Path_45" data-name="Path 45" d="M130.888,144.495a1.419,1.419,0,1,0,2.838,0c0-1.9-1.877-3.392-4.541-3.789v-.964a1.419,1.419,0,1,0-2.838,0v.964c-2.663.4-4.541,1.888-4.541,3.789,0,2.644,2.439,3.672,4.541,4.278v3.014c-1.079-.249-1.662-.727-1.7-.91a1.419,1.419,0,0,0-2.838,0c0,1.9,1.877,3.392,4.541,3.789v.964a1.419,1.419,0,1,0,2.838,0v-.964c2.663-.4,4.541-1.888,4.541-3.789,0-2.644-2.439-3.672-4.541-4.278v-3.014C130.268,143.837,130.851,144.317,130.888,144.495Zm-6.243.006c.036-.182.62-.663,1.7-.913v2.2C124.976,145.3,124.644,144.906,124.644,144.5Zm6.243,6.374c-.036.182-.62.663-1.7.913v-2.2C130.555,150.077,130.888,150.469,130.888,150.874Z" transform="translate(-118.409 -131.512)" fill="#aa7346"/>
      <path id="Path_46" data-name="Path 46" d="M310.862,146.6v-3.014c1.083.25,1.666.73,1.7.907a1.419,1.419,0,1,0,2.838,0c0-1.9-1.877-3.392-4.541-3.789v-.964a1.419,1.419,0,1,0-2.838,0v.964c-2.663.4-4.541,1.888-4.541,3.789,0,2.644,2.439,3.672,4.541,4.278v3.014c-1.079-.249-1.662-.727-1.7-.91a1.419,1.419,0,0,0-2.838,0c0,1.9,1.877,3.392,4.541,3.789v.964a1.419,1.419,0,0,0,2.838,0v-.964c2.663-.4,4.541-1.888,4.541-3.789C315.4,148.236,312.964,147.207,310.862,146.6Zm-4.541-2.1c.036-.182.62-.663,1.7-.913v2.2C306.653,145.3,306.321,144.905,306.321,144.5Zm4.541,7.287v-2.2c1.371.486,1.7.878,1.7,1.284C312.528,151.055,311.945,151.536,310.862,151.786Z" transform="translate(-275.112 -131.511)" fill="#aa7346"/>
    </g>
    <path id="Path_47" data-name="Path 47" d="M228.644,336.914v-2.978c.7.226,1.135.625,1.135.925a1.135,1.135,0,0,0,2.27,0c0-1.6-1.429-2.889-3.406-3.256v-.115a1.135,1.135,0,1,0-2.27,0v.115c-1.976.367-3.406,1.659-3.406,3.256,0,2.234,1.875,3.162,3.406,3.694v2.978c-.7-.226-1.135-.625-1.135-.925a1.135,1.135,0,0,0-2.27,0c0,1.6,1.429,2.889,3.406,3.256v.115a1.135,1.135,0,1,0,2.27,0v-.115c1.976-.367,3.406-1.659,3.406-3.256C232.049,338.373,230.175,337.445,228.644,336.914Zm-3.406-2.053c0-.3.431-.7,1.135-.925v2.174C225.451,335.69,225.238,335.332,225.238,334.86Zm3.406,6.672v-2.174c.923.419,1.135.777,1.135,1.249C229.779,340.907,229.348,341.306,228.644,341.532Z" transform="translate(-192.318 -284.889)" fill="#fff"/>
    <path id="Path_48" data-name="Path 48" d="M189.935,301.765v2.7c3.007.286,6.035.444,9.085.444s6.073-.157,9.078-.443v-2.706a84.982,84.982,0,0,1-18.163,0Z" transform="translate(-163.826 -260.227)" fill="#afd755"/>
  </g>
</svg>
