<svg xmlns="http://www.w3.org/2000/svg" width="70" height="70" viewBox="0 0 70 70">
  <g id="emoji" transform="translate(0 0.225)">
    <circle id="Ellipse_96" data-name="Ellipse 96" cx="35" cy="35" r="35" transform="translate(0 -0.225)" fill="#ffe17d"/>
    <path id="Path_22" data-name="Path 22" d="M39.95,114.265A34.881,34.881,0,0,1,12.883,57.376a34.882,34.882,0,1,0,49.07,49.07A34.735,34.735,0,0,1,39.95,114.265Z" transform="translate(0 -49.554)" fill="#ffd164"/>
    <path id="Path_23" data-name="Path 23" d="M134.633,307.488a83.23,83.23,0,0,1-17.974-1.918.977.977,0,0,0-1.119,1.264,19.831,19.831,0,0,0,38.186,0,.977.977,0,0,0-1.119-1.264A83.226,83.226,0,0,1,134.633,307.488Z" transform="translate(-99.756 -263.906)" fill="#9c6846"/>
    <path id="Path_24" data-name="Path 24" d="M134.644,312.3a101.232,101.232,0,0,0,17.424-1.556,20.988,20.988,0,0,0,1.659-3.91.977.977,0,0,0-1.119-1.264,85.189,85.189,0,0,1-35.948,0,.977.977,0,0,0-1.119,1.264,20.994,20.994,0,0,0,1.657,3.906A101.242,101.242,0,0,0,134.644,312.3Z" transform="translate(-99.756 -263.907)" fill="#7d5046"/>
    <path id="Path_25" data-name="Path 25" d="M98.505,147.853c1.913-2.4,6.442-8.861,3.859-13.25a5.121,5.121,0,0,0-8.582-.277,1.276,1.276,0,0,1-1.464.48,5.121,5.121,0,0,0-6.755,5.3c.514,5.066,7.986,7.592,10.951,8.4A1.908,1.908,0,0,0,98.505,147.853Z" transform="translate(-73.882 -114.12)" fill="#e6646e"/>
    <path id="SVGCleanerId_0" d="M301.926,147.853c-1.913-2.4-6.442-8.861-3.859-13.25a5.121,5.121,0,0,1,8.582-.277,1.276,1.276,0,0,0,1.464.48,5.121,5.121,0,0,1,6.755,5.3c-.514,5.066-7.986,7.592-10.951,8.4A1.908,1.908,0,0,1,301.926,147.853Z" transform="translate(-256.778 -114.12)" fill="#e6646e"/>
    <path id="Path_26" data-name="Path 26" d="M99.486,162.932c-2.965-.807-10.436-3.333-10.951-8.4a4.968,4.968,0,0,1,.325-2.3,5.354,5.354,0,0,0-.777.358,5.087,5.087,0,0,0-2.521,4.878c.514,5.066,7.986,7.592,10.951,8.4a1.908,1.908,0,0,0,1.992-.652c.44-.553,1.019-1.327,1.618-2.235A1.884,1.884,0,0,1,99.486,162.932Z" transform="translate(-73.882 -131.486)" fill="#dc4655"/>
    <g id="Group_10" data-name="Group 10" transform="translate(40.512 18.009)">
      <path id="SVGCleanerId_0_1_" d="M301.926,147.853c-1.913-2.4-6.442-8.861-3.859-13.25a5.121,5.121,0,0,1,8.582-.277,1.276,1.276,0,0,0,1.464.48,5.121,5.121,0,0,1,6.755,5.3c-.514,5.066-7.986,7.592-10.951,8.4A1.908,1.908,0,0,1,301.926,147.853Z" transform="translate(-297.291 -132.129)" fill="#e6646e"/>
    </g>
    <path id="Path_27" data-name="Path 27" d="M305.7,147.165c-1.913-2.4-6.442-8.862-3.859-13.25a4.967,4.967,0,0,1,1.6-1.649c-.156-.032-.3-.085-.463-.1a5.088,5.088,0,0,0-4.919,2.441c-2.583,4.389,1.946,10.846,3.859,13.25a1.908,1.908,0,0,0,1.992.652c.656-.179,1.538-.447,2.511-.8A1.883,1.883,0,0,1,305.7,147.165Z" transform="translate(-256.777 -114.12)" fill="#dc4655"/>
  </g>
</svg>
