<svg xmlns="http://www.w3.org/2000/svg" width="171.573" height="128.791" viewBox="0 0 171.573 128.791">
  <path id="Path_20" data-name="Path 20" d="M48.14-84.074A73.016,73.016,0,0,0,54.825-53.1a87.96,87.96,0,0,0,18.494,26.07,115.113,115.113,0,0,0,28.3,20.054A140.027,140.027,0,0,0,137.715,5.5V-23.021q-16.043-2.674-24.956-8.467A40.951,40.951,0,0,1,98.5-47.977q10.7-3.119,19.608-12.7a33.086,33.086,0,0,0,8.913-23.4A37.388,37.388,0,0,0,123.9-99.226a40.322,40.322,0,0,0-8.467-12.478,40.322,40.322,0,0,0-12.478-8.467A37.389,37.389,0,0,0,87.8-123.291a37.389,37.389,0,0,0-15.152,3.119,43.185,43.185,0,0,0-12.7,8.467,38.532,38.532,0,0,0-8.69,12.478A37.388,37.388,0,0,0,48.14-84.074Zm-82,0a74.694,74.694,0,0,0,6.462,31.2A85.484,85.484,0,0,0-9.125-27.032,110.7,110.7,0,0,0,19.174-7.2a159.366,159.366,0,0,0,36.1,12.7V-23.021a79.3,79.3,0,0,1-23.619-8.467,38.035,38.035,0,0,1-15.6-16.489q13.369-3.119,21.168-12.7t7.8-23.4A37.388,37.388,0,0,0,41.9-99.226a38.533,38.533,0,0,0-8.69-12.478,43.185,43.185,0,0,0-12.7-8.467,37.389,37.389,0,0,0-15.152-3.119,37.389,37.389,0,0,0-15.152,3.119A40.322,40.322,0,0,0-22.271-111.7a40.321,40.321,0,0,0-8.467,12.478A37.389,37.389,0,0,0-33.858-84.074Z" transform="translate(33.858 123.291)" fill="#fcbf1e" opacity="0.46"/>
</svg>
