<svg xmlns="http://www.w3.org/2000/svg" width="186.032" height="139.645" viewBox="0 0 186.032 139.645">
  <path id="Path_21" data-name="Path 21" d="M63.265-80.769a79.17,79.17,0,0,1-7.248,33.582A95.372,95.372,0,0,1,35.964-18.92,124.814,124.814,0,0,1,5.281,2.824a151.827,151.827,0,0,1-39.139,13.53V-14.571q17.4-2.9,27.059-9.181A44.4,44.4,0,0,0,8.664-41.63Q-2.933-45.013-12.6-55.4t-9.664-25.368A40.539,40.539,0,0,1-18.879-97.2,43.72,43.72,0,0,1-9.7-110.728a43.719,43.719,0,0,1,13.53-9.181,40.54,40.54,0,0,1,16.429-3.382,40.54,40.54,0,0,1,16.429,3.382,46.824,46.824,0,0,1,13.771,9.181A41.78,41.78,0,0,1,59.883-97.2,40.539,40.539,0,0,1,63.265-80.769Zm88.909,0a80.988,80.988,0,0,1-7.006,33.824A92.687,92.687,0,0,1,125.356-18.92a120.027,120.027,0,0,1-30.683,21.5A172.8,172.8,0,0,1,55.534,16.354V-14.571a85.978,85.978,0,0,0,25.61-9.181A41.24,41.24,0,0,0,98.056-41.63Q83.56-45.013,75.1-55.4T66.648-80.769A40.539,40.539,0,0,1,70.03-97.2a41.78,41.78,0,0,1,9.422-13.53,46.824,46.824,0,0,1,13.771-9.181,40.54,40.54,0,0,1,16.429-3.382,40.54,40.54,0,0,1,16.429,3.382,43.72,43.72,0,0,1,13.53,9.181,43.72,43.72,0,0,1,9.181,13.53A40.54,40.54,0,0,1,152.174-80.769Z" transform="translate(33.858 123.291)" fill="#fcbf1e" opacity="0.46"/>
</svg>
