<svg id="Component_4_1" data-name="Component 4 – 1" xmlns="http://www.w3.org/2000/svg" width="50" height="50" viewBox="0 0 50 50">
  <circle id="Ellipse_130" data-name="Ellipse 130" cx="25" cy="25" r="25" fill="#5784f7" opacity="0.2"/>
  <path id="iconfinder_palette_4964030" d="M20.81,14.067a1.844,1.844,0,1,0-1.844-1.844A1.82,1.82,0,0,0,20.81,14.067Zm-3.689-4.9a1.844,1.844,0,1,0-1.844-1.844A1.82,1.82,0,0,0,17.121,9.168Zm-6.109,0A1.844,1.844,0,1,0,9.168,7.323,1.82,1.82,0,0,0,11.012,9.168Zm-3.689,4.9a1.844,1.844,0,1,0-1.844-1.844A1.82,1.82,0,0,0,7.323,14.067ZM14.067,3c6.11,0,11.067,4.438,11.067,9.857a6.125,6.125,0,0,1-6.168,6.11H16.833a1.82,1.82,0,0,0-1.844,1.844,1.861,1.861,0,0,0,.461,1.21,2.015,2.015,0,0,1,.461,1.268,1.82,1.82,0,0,1-1.844,1.844A11.067,11.067,0,0,1,14.067,3Z" transform="translate(11 11)" fill="#5784f7"/>
</svg>
