<svg id="Component_1_1" data-name="Component 1 – 1" xmlns="http://www.w3.org/2000/svg" width="26" height="26" viewBox="0 0 26 26">
  <circle id="Ellipse_145" data-name="Ellipse 145" cx="13" cy="13" r="13" fill="#5784f7" opacity="0.3"/>
  <g id="user" transform="translate(7.388 6.181)">
    <path id="Path_1335" data-name="Path 1335" d="M90.316,6.57a3.178,3.178,0,0,0,2.323-.962A3.179,3.179,0,0,0,93.6,3.285,3.179,3.179,0,0,0,92.639.962a3.284,3.284,0,0,0-4.645,0,3.178,3.178,0,0,0-.962,2.322,3.178,3.178,0,0,0,.962,2.323A3.179,3.179,0,0,0,90.316,6.57ZM88.559,1.528a2.485,2.485,0,0,1,3.515,0A2.375,2.375,0,0,1,92.8,3.285a2.375,2.375,0,0,1-.728,1.757,2.484,2.484,0,0,1-3.515,0,2.374,2.374,0,0,1-.728-1.757,2.374,2.374,0,0,1,.728-1.757Zm0,0" transform="translate(-84.713 0)" fill="#5784f7"/>
    <path id="Path_1336" data-name="Path 1336" d="M11.35,251.215a8.114,8.114,0,0,0-.111-.862,6.789,6.789,0,0,0-.212-.866,4.28,4.28,0,0,0-.356-.808,3.046,3.046,0,0,0-.537-.7,2.368,2.368,0,0,0-.772-.485,2.666,2.666,0,0,0-.985-.178,1,1,0,0,0-.534.226c-.16.1-.347.225-.556.359a3.187,3.187,0,0,1-.72.317,2.794,2.794,0,0,1-1.76,0,3.176,3.176,0,0,1-.719-.317c-.207-.132-.394-.253-.557-.359A1,1,0,0,0,3,247.316a2.663,2.663,0,0,0-.985.178,2.366,2.366,0,0,0-.772.485,3.047,3.047,0,0,0-.537.7,4.288,4.288,0,0,0-.356.808,6.806,6.806,0,0,0-.212.866,8.058,8.058,0,0,0-.11.862c-.018.26-.027.531-.027.805a2.265,2.265,0,0,0,.673,1.713,2.421,2.421,0,0,0,1.733.632H8.972a2.421,2.421,0,0,0,1.733-.632,2.264,2.264,0,0,0,.673-1.713c0-.275-.009-.546-.028-.806Zm-1.2,1.94a1.63,1.63,0,0,1-1.182.412H2.406a1.63,1.63,0,0,1-1.182-.412A1.479,1.479,0,0,1,.8,252.021c0-.256.008-.508.025-.75a7.268,7.268,0,0,1,.1-.776,6,6,0,0,1,.186-.764,3.491,3.491,0,0,1,.29-.657,2.258,2.258,0,0,1,.395-.517,1.571,1.571,0,0,1,.513-.319,1.839,1.839,0,0,1,.629-.121c.028.015.078.043.159.1.164.107.354.229.563.363a3.96,3.96,0,0,0,.9.4,3.593,3.593,0,0,0,2.252,0,3.964,3.964,0,0,0,.9-.4c.214-.137.4-.256.563-.363.081-.053.131-.081.159-.1a1.841,1.841,0,0,1,.63.121,1.573,1.573,0,0,1,.513.319,2.253,2.253,0,0,1,.395.517,3.479,3.479,0,0,1,.29.657,5.987,5.987,0,0,1,.186.764,7.329,7.329,0,0,1,.1.776h0c.017.241.025.493.026.75a1.479,1.479,0,0,1-.425,1.134Zm0,0" transform="translate(0 -240.729)" fill="#5784f7"/>
  </g>
</svg>
