<svg id="Component_1_1" data-name="Component 1 – 1" xmlns="http://www.w3.org/2000/svg" width="26" height="26" viewBox="0 0 26 26">
  <circle id="Ellipse_146" data-name="Ellipse 146" cx="13" cy="13" r="13" fill="#5784f7" opacity="0.3"/>
  <g id="comment" transform="translate(7.755 3.564)">
    <g id="Group_1168" data-name="Group 1168" transform="translate(0 4.011)">
      <g id="Group_1167" data-name="Group 1167">
        <path id="Path_1337" data-name="Path 1337" d="M10.645,12.312l-.62-1.806A4.517,4.517,0,0,0,6.043,4.012,4.512,4.512,0,0,0,1.458,8.465a3.288,3.288,0,0,0-1,4.04L.032,13.749a.588.588,0,0,0,.553.778.592.592,0,0,0,.192-.032l1.244-.427a3.3,3.3,0,0,0,1.406.317h.005a3.283,3.283,0,0,0,2.655-1.35,4.527,4.527,0,0,0,1.865-.456l1.806.621a.7.7,0,0,0,.229.038.7.7,0,0,0,.658-.925ZM3.433,13.749h0a2.659,2.659,0,0,1-1.235-.307.318.318,0,0,0-.252-.02l-1.275.438L1.1,12.585a.318.318,0,0,0-.02-.252,2.651,2.651,0,0,1,.432-3.074,4.53,4.53,0,0,0,3.776,3.726A2.644,2.644,0,0,1,3.433,13.749Zm6.6-1.166a.058.058,0,0,1-.064.015l-1.933-.664a.318.318,0,0,0-.252.02,3.884,3.884,0,0,1-1.8.448H5.97A3.892,3.892,0,0,1,2.094,8.587,3.877,3.877,0,0,1,6.033,4.647,3.878,3.878,0,0,1,9.4,10.334a.318.318,0,0,0-.02.252l.664,1.933A.058.058,0,0,1,10.029,12.583Z" transform="translate(0 -4.011)" fill="#5784f7"/>
      </g>
    </g>
    <g id="Group_1170" data-name="Group 1170" transform="translate(3.758 6.838)">
      <g id="Group_1169" data-name="Group 1169" transform="translate(0 0)">
        <path id="Path_1338" data-name="Path 1338" d="M184.2,139.512h-3.788a.318.318,0,1,0,0,.636H184.2a.318.318,0,1,0,0-.636Z" transform="translate(-180.094 -139.512)" fill="#5784f7"/>
      </g>
    </g>
    <g id="Group_1172" data-name="Group 1172" transform="translate(3.758 8.146)">
      <g id="Group_1171" data-name="Group 1171">
        <path id="Path_1339" data-name="Path 1339" d="M184.2,202.183h-3.788a.318.318,0,1,0,0,.636H184.2a.318.318,0,1,0,0-.636Z" transform="translate(-180.094 -202.183)" fill="#5784f7"/>
      </g>
    </g>
    <g id="Group_1174" data-name="Group 1174" transform="translate(3.758 9.454)">
      <g id="Group_1173" data-name="Group 1173">
        <path id="Path_1340" data-name="Path 1340" d="M182.741,264.852h-2.33a.318.318,0,1,0,0,.636h2.33a.318.318,0,1,0,0-.636Z" transform="translate(-180.093 -264.852)" fill="#5784f7"/>
      </g>
    </g>
  </g>
</svg>
