<svg id="Icon_awesome-arrow-alt-circle-right" data-name="Icon awesome-arrow-alt-circle-right" xmlns="http://www.w3.org/2000/svg" width="65.717" height="65.717" viewBox="0 0 65.717 65.717">
  <path id="Icon_awesome-arrow-alt-circle-right-2" data-name="Icon awesome-arrow-alt-circle-right" d="M33.421.563A32.858,32.858,0,1,1,.563,33.421,32.853,32.853,0,0,1,33.421.563ZM18.052,39.251H33.421v9.394a1.591,1.591,0,0,0,2.716,1.126L51.281,34.547a1.575,1.575,0,0,0,0-2.239L36.137,17.071A1.59,1.59,0,0,0,33.421,18.2v9.394H18.052a1.6,1.6,0,0,0-1.59,1.59v8.48A1.6,1.6,0,0,0,18.052,39.251Z" transform="translate(-0.563 -0.563)" fill="#ff9503"/>
</svg>
