<svg id="Component_1_1" data-name="Component 1 – 1" xmlns="http://www.w3.org/2000/svg" width="21.713" height="21.713" viewBox="0 0 21.713 21.713">
  <path id="Path_13568" data-name="Path 13568" d="M12.856,2A10.839,10.839,0,0,0,3.132,17.662L2.041,22.025a1.357,1.357,0,0,0,1.646,1.646L8.05,22.58A10.852,10.852,0,1,0,12.856,2Z" transform="translate(-1.999 -2)" fill="#713bdb"/>
  <path id="Path_13569" data-name="Path 13569" d="M11,17.514V12.086A1.086,1.086,0,0,1,12.086,11h0a1.086,1.086,0,0,1,1.086,1.086v5.428A1.086,1.086,0,0,1,12.086,18.6h0A1.086,1.086,0,0,1,11,17.514Z" transform="translate(-1.229 -1.23)" fill="#fff"/>
  <circle id="Ellipse_521" data-name="Ellipse 521" cx="1.628" cy="1.628" r="1.628" transform="translate(9.228 4.342)" fill="#fff"/>
</svg>
