<svg id="Component_1_1" data-name="Component 1 – 1" xmlns="http://www.w3.org/2000/svg" width="21" height="21" viewBox="0 0 21 21">
  <path id="Path_13576" data-name="Path 13576" d="M10.5,0A10.5,10.5,0,1,1,0,10.5,10.5,10.5,0,0,1,10.5,0Z" fill="#713bdb"/>
  <path id="Path_13563" data-name="Path 13563" d="M15.435,14.233l-1.226-1.585A3.162,3.162,0,0,1,13.563,11L13.121,6.05A1.051,1.051,0,0,0,12.07,5h0a1.051,1.051,0,0,0-1.05,1.05l-.4,5.132a3.15,3.15,0,0,0,1.1,2.648l2.226,1.888a1.049,1.049,0,0,0,1.485,0h0A1.049,1.049,0,0,0,15.435,14.233Z" transform="translate(-1.565 -1.849)" fill="#fff"/>
</svg>
