<svg id="Component_1_1" data-name="Component 1 – 1" xmlns="http://www.w3.org/2000/svg" width="21" height="22.256" viewBox="0 0 21 22.256">
  <path id="Path_13570" data-name="Path 13570" d="M17.515,20.837a2.755,2.755,0,0,1,2.376-.182,1.573,1.573,0,0,0,1.772-.478,11.091,11.091,0,0,0,1.8-3.121,1.64,1.64,0,0,0-.52-1.823,2.752,2.752,0,0,1,0-4.211,1.637,1.637,0,0,0,.52-1.823,11.08,11.08,0,0,0-1.8-3.121A1.573,1.573,0,0,0,19.89,5.6a2.752,2.752,0,0,1-3.721-2.155A1.555,1.555,0,0,0,14.9,2.155a10.935,10.935,0,0,0-3.665,0A1.556,1.556,0,0,0,9.959,3.443,2.754,2.754,0,0,1,6.237,5.6a1.573,1.573,0,0,0-1.772.478A11.088,11.088,0,0,0,2.663,9.2a1.636,1.636,0,0,0,.52,1.822,2.755,2.755,0,0,1,0,4.213,1.637,1.637,0,0,0-.52,1.823,11.08,11.08,0,0,0,1.8,3.121,1.573,1.573,0,0,0,1.772.478,2.752,2.752,0,0,1,3.721,2.155A1.555,1.555,0,0,0,11.231,24.1a10.935,10.935,0,0,0,3.665,0,1.553,1.553,0,0,0,1.272-1.289A2.751,2.751,0,0,1,17.515,20.837Z" transform="translate(-2.564 -2)" fill="#713bdb"/>
  <path id="Path_13571" data-name="Path 13571" d="M12.451,8A4.451,4.451,0,1,0,16.9,12.451,4.451,4.451,0,0,0,12.451,8Z" transform="translate(-1.952 -1.323)" fill="#fff"/>
</svg>
