<svg width="290" height="290" viewBox="0 0 290 290" fill="none" xmlns="http://www.w3.org/2000/svg">
<g clip-path="url(#clip0)">
<path opacity="0.6" d="M289.813 142.108C291.305 224.353 224.353 291.305 142.109 289.813C64.7134 288.507 1.49152 225.285 -0.000441343 147.703C-1.4924 65.4589 65.4594 -1.4929 147.704 -0.000937255C225.286 1.49102 288.508 64.7129 289.813 142.108Z" fill="url(#paint0_radial)" fill-opacity="0.1"/>
<path opacity="0.11" d="M144.907 232C224.834 232 289.628 194.593 289.628 148.45C289.628 102.307 224.834 64.9003 144.907 64.9003C64.9805 64.9003 0.187012 102.307 0.187012 148.45C0.187012 194.593 64.9805 232 144.907 232Z" fill="url(#paint1_linear)" fill-opacity="0.3"/>
<path opacity="0.11" d="M259.602 116.187C243.377 180.341 176.798 246.92 112.644 263.145C52.0326 278.624 14.92 241.325 30.3991 180.9C46.6242 116.746 113.016 50.1672 177.357 33.9421C237.782 18.463 274.894 55.7621 259.602 116.187Z" fill="url(#paint2_linear)" fill-opacity="0.8"/>
<path opacity="0.11" d="M177.357 263.145C113.016 246.92 46.6242 180.341 30.3991 116.187C14.92 55.7621 52.0326 18.463 112.644 33.9421C176.798 50.1672 243.377 116.746 259.602 180.9C274.894 241.325 237.782 278.624 177.357 263.145Z" fill="url(#paint3_linear)" fill-opacity="0.9"/>
<path opacity="0.11" d="M144.907 289.441C191.051 289.441 228.457 224.647 228.457 144.72C228.457 64.7935 191.051 0 144.907 0C98.764 0 61.3574 64.7935 61.3574 144.72C61.3574 224.647 98.764 289.441 144.907 289.441Z" fill="url(#paint4_linear)" fill-opacity="0.7"/>
<path d="M161.202 240.289C157.84 234.427 150.274 232.473 144.39 235.963C138.506 239.312 136.545 246.849 140.047 252.711C143.55 258.573 150.975 260.527 156.859 257.037C162.603 253.688 164.565 246.151 161.202 240.289Z" fill="#826AF7"/>
<path d="M187.242 185.936C185.377 182.765 181.087 181.646 177.917 183.511C174.746 185.376 173.627 189.666 175.492 192.836C177.357 196.006 181.647 197.125 184.817 195.26C187.988 193.395 189.107 189.293 187.242 185.936Z" fill="#826AF7" fill-opacity="0.7"/>
<path d="M132.039 186.495C130.92 184.817 128.682 184.071 127.004 185.19C125.325 186.309 124.579 188.547 125.698 190.225C126.817 191.904 129.055 192.65 130.733 191.531C132.412 190.598 132.971 188.174 132.039 186.495Z" fill="#826AF7" fill-opacity="0.7"/>
<path d="M100.521 174.373C98.283 170.643 93.4341 169.338 89.5177 171.576C85.7878 173.813 84.4824 178.662 86.7203 182.579C88.9583 186.309 93.8071 187.614 97.7235 185.376C101.453 183.138 102.759 178.289 100.521 174.373Z" fill="#826AF7" fill-opacity="0.7"/>
<path d="M184.79 164.881C189.669 160.448 190.03 152.9 185.598 148.022C181.166 143.143 173.618 142.781 168.739 147.214C163.86 151.646 163.498 159.194 167.931 164.073C172.363 168.951 179.911 169.313 184.79 164.881Z" fill="#826AF7" fill-opacity="0.7"/>
<path d="M167.287 130.547C165.982 128.309 162.998 127.563 160.76 128.868C158.522 130.174 157.776 133.158 159.081 135.396C160.387 137.633 163.371 138.379 165.609 137.074C167.847 135.768 168.593 132.971 167.287 130.547Z" fill="#826AF7"/>
<path d="M156.843 44.3858C155.91 42.7074 153.859 42.1479 152.18 43.0804C150.502 44.0128 149.943 46.0643 150.875 47.7428C151.807 49.4212 153.859 49.9807 155.537 49.0482C157.216 48.1157 157.775 45.8778 156.843 44.3858Z" fill="#826AF7" fill-opacity="0.7"/>
<path d="M180.901 67.1382C179.595 64.9003 176.798 64.1543 174.56 65.4598C172.322 66.7653 171.576 69.5627 172.882 71.8006C174.187 74.0386 176.985 74.7846 179.222 73.4791C181.46 72.1736 182.206 69.1897 180.901 67.1382Z" fill="#826AF7" fill-opacity="0.7"/>
<path d="M172.695 77.582C172.136 76.6495 171.203 76.463 170.271 77.0225C169.338 77.582 169.152 78.5145 169.711 79.4469C170.271 80.3794 171.203 80.5659 172.136 80.0064C172.882 79.4469 173.255 78.328 172.695 77.582Z" fill="#826AF7" fill-opacity="0.7"/>
<path d="M196.94 146.399C196.194 145.28 194.888 144.907 193.583 145.466C192.464 146.212 192.091 147.518 192.65 148.823C193.396 149.942 194.702 150.315 196.007 149.756C197.126 149.01 197.499 147.704 196.94 146.399Z" fill="#826AF7" fill-opacity="0.7"/>
<path d="M73.8527 147.145C72.3607 144.534 68.8173 143.601 66.2064 145.093C63.5954 146.585 62.6629 150.129 64.1549 152.74C65.6469 155.35 69.1903 156.283 71.8012 154.791C74.5986 153.299 75.3446 149.942 73.8527 147.145Z" fill="#826AF7" fill-opacity="0.7"/>
<path d="M89.8912 126.63C88.7722 124.579 86.1613 124.019 84.2963 125.138C82.2449 126.257 81.6854 128.868 82.8044 130.733C83.9234 132.785 86.5343 133.344 88.3992 132.225C90.4507 131.106 91.0102 128.495 89.8912 126.63Z" fill="#826AF7"/>
</g>
<defs>
<radialGradient id="paint0_radial" cx="0" cy="0" r="1" gradientUnits="userSpaceOnUse" gradientTransform="translate(-0.00044285 138.307) rotate(15.3988) scale(273.032)">
<stop stop-color="#DBDCEE"/>
<stop offset="1" stop-color="#0011D7"/>
</radialGradient>
<linearGradient id="paint1_linear" x1="42.5915" y1="89.4422" x2="144.964" y2="266.742" gradientUnits="userSpaceOnUse">
<stop stop-color="white"/>
<stop offset="0.052626" stop-color="#E8EAFB"/>
<stop offset="0.2032" stop-color="#ABB1F2"/>
<stop offset="0.353" stop-color="#7780EA"/>
<stop offset="0.4983" stop-color="#4C58E3"/>
<stop offset="0.6383" stop-color="#2B39DE"/>
<stop offset="0.7715" stop-color="#1323DA"/>
<stop offset="0.8952" stop-color="#0516D8"/>
<stop offset="1" stop-color="#0011D7"/>
</linearGradient>
<linearGradient id="paint2_linear" x1="30.7821" y1="179.134" x2="228.53" y2="232.126" gradientUnits="userSpaceOnUse">
<stop stop-color="white"/>
<stop offset="0.052626" stop-color="#E8EAFB"/>
<stop offset="0.2032" stop-color="#ABB1F2"/>
<stop offset="0.353" stop-color="#7780EA"/>
<stop offset="0.4983" stop-color="#4C58E3"/>
<stop offset="0.6383" stop-color="#2B39DE"/>
<stop offset="0.7715" stop-color="#1323DA"/>
<stop offset="0.8952" stop-color="#0516D8"/>
<stop offset="1" stop-color="#0011D7"/>
</linearGradient>
<linearGradient id="paint3_linear" x1="114.363" y1="34.3712" x2="61.3716" y2="232.119" gradientUnits="userSpaceOnUse">
<stop stop-color="white"/>
<stop offset="0.052626" stop-color="#E8EAFB"/>
<stop offset="0.2032" stop-color="#ABB1F2"/>
<stop offset="0.353" stop-color="#7780EA"/>
<stop offset="0.4983" stop-color="#4C58E3"/>
<stop offset="0.6383" stop-color="#2B39DE"/>
<stop offset="0.7715" stop-color="#1323DA"/>
<stop offset="0.8952" stop-color="#0516D8"/>
<stop offset="1" stop-color="#0011D7"/>
</linearGradient>
<linearGradient id="paint4_linear" x1="204.055" y1="42.3998" x2="26.755" y2="144.773" gradientUnits="userSpaceOnUse">
<stop stop-color="white"/>
<stop offset="0.052626" stop-color="#E8EAFB"/>
<stop offset="0.2032" stop-color="#ABB1F2"/>
<stop offset="0.353" stop-color="#7780EA"/>
<stop offset="0.4983" stop-color="#4C58E3"/>
<stop offset="0.6383" stop-color="#2B39DE"/>
<stop offset="0.7715" stop-color="#1323DA"/>
<stop offset="0.8952" stop-color="#0516D8"/>
<stop offset="1" stop-color="#0011D7"/>
</linearGradient>
<clipPath id="clip0">
<rect width="290" height="290" fill="white"/>
</clipPath>
</defs>
</svg>
