<svg width="188" height="357" viewBox="0 0 188 357" fill="none" xmlns="http://www.w3.org/2000/svg">
<g clip-path="url(#clip0)">
<path d="M56.5399 282.3C77.3178 270.312 110.882 270.312 131.66 282.3C135.056 284.298 137.853 286.295 140.051 288.693C151.839 276.905 149.042 261.722 131.66 251.732C110.882 239.745 77.3178 239.745 56.5399 251.732C39.1584 261.722 36.3613 277.105 48.1488 288.693C50.3465 286.295 53.1435 284.298 56.5399 282.3Z" fill="#5351AF"/>
<path d="M174.015 273.509C170.219 269.913 165.624 266.716 160.429 263.52C152.238 258.725 142.648 255.129 132.659 252.531C152.038 264.718 151.439 283.698 130.861 295.685C109.683 307.873 75.5197 307.873 54.3422 295.685C34.5632 284.298 33.3645 266.117 50.746 253.93C42.3549 256.527 34.5632 259.724 27.5707 263.719C22.1764 266.716 17.7811 270.113 13.9851 273.709H0V302.079C0 316.064 9.19022 329.849 27.5707 340.438C64.3316 361.615 123.868 361.615 160.429 340.438C178.81 329.849 188 315.864 188 302.079V273.709H174.015V273.509Z" fill="url(#paint0_linear)"/>
<path opacity="0.7" d="M160.43 263.52C152.238 258.725 142.649 255.129 132.659 252.531C152.039 264.718 151.439 283.698 130.861 295.685C120.672 301.679 107.286 304.676 93.9004 304.876V356.421C117.875 356.421 142.049 351.027 160.43 340.438C178.81 329.849 188 315.864 188 302.079V273.709H174.015C170.219 269.913 165.824 266.516 160.43 263.52Z" fill="#826AF7"/>
<path d="M160.428 237.348C123.667 216.17 64.1301 216.17 27.569 237.348C-9.19193 258.525 -9.19193 292.889 27.569 314.066C64.3298 335.243 123.867 335.243 160.428 314.066C197.189 292.889 197.189 258.525 160.428 237.348ZM131.658 297.883C110.481 310.07 76.3171 310.07 55.1396 297.883C33.9622 285.696 33.9622 265.917 55.1396 253.73C76.3171 241.543 110.481 241.543 131.658 253.73C152.636 265.917 152.636 285.696 131.658 297.883Z" fill="url(#paint1_linear)"/>
<path d="M160.429 311.269C123.669 332.446 64.1319 332.446 27.5708 311.269C9.78976 301.08 0.59954 287.694 0.000177989 274.308C-0.599184 288.693 8.59104 303.277 27.5708 314.066C64.3317 335.243 123.868 335.243 160.429 314.066C179.409 303.078 188.6 288.693 188 274.308C187.401 287.694 178.211 301.08 160.429 311.269Z" fill="white"/>
<path d="M131.66 250.733C110.483 238.546 76.3189 238.546 55.1415 250.733C43.9534 257.126 38.7589 265.717 39.3582 274.308C39.9576 266.716 45.1521 259.324 55.1415 253.73C76.3189 241.543 110.483 241.543 131.66 253.73C141.649 259.524 146.844 266.916 147.443 274.308C148.043 265.917 142.848 257.326 131.66 250.733Z" fill="white"/>
<path d="M156.234 237.348C122.07 217.569 66.7293 217.569 32.5656 237.348C-1.59804 257.126 -1.59804 289.092 32.5656 308.871C66.7293 328.65 122.07 328.65 156.234 308.871C190.398 289.092 190.398 257.126 156.234 237.348ZM131.261 294.487C110.882 306.274 77.7176 306.274 57.3393 294.487C36.9609 282.699 36.9609 263.52 57.3393 251.732C77.7176 239.945 110.882 239.945 131.261 251.732C151.639 263.52 151.639 282.699 131.261 294.487Z" fill="url(#paint2_linear)"/>
<path opacity="0.5" d="M146.644 272.51V0H42.1553V272.91C42.1553 280.701 47.15 288.493 57.5389 294.487C77.9172 306.274 111.082 306.274 131.46 294.487C141.849 288.493 146.844 280.502 146.644 272.51Z" fill="url(#paint3_linear)"/>
<path opacity="0.4" d="M66.729 66.9288C66.729 65.3305 68.1275 63.932 69.7258 63.932C71.3241 63.932 72.7226 65.3305 72.7226 66.9288C72.7226 68.5271 71.3241 69.9256 69.7258 69.9256C68.1275 69.9256 66.729 68.5271 66.729 66.9288Z" fill="#826AF7"/>
<path opacity="0.4" d="M119.873 205.981C119.873 204.383 121.271 202.984 122.869 202.984C124.468 202.984 125.866 204.383 125.866 205.981C125.866 207.579 124.468 208.978 122.869 208.978C121.271 208.978 119.873 207.779 119.873 205.981Z" fill="#826AF7"/>
<path opacity="0.4" d="M118.474 106.487C120.902 106.487 122.87 104.519 122.87 102.091C122.87 99.6639 120.902 97.6961 118.474 97.6961C116.047 97.6961 114.079 99.6639 114.079 102.091C114.079 104.519 116.047 106.487 118.474 106.487Z" fill="#3CD695"/>
<path opacity="0.8" d="M125.267 28.7694C127.032 28.7694 128.463 27.3382 128.463 25.5728C128.463 23.8074 127.032 22.3762 125.267 22.3762C123.501 22.3762 122.07 23.8074 122.07 25.5728C122.07 27.3382 123.501 28.7694 125.267 28.7694Z" fill="#826AF7"/>
<path opacity="0.8" d="M64.1199 163.907C64.1199 161.31 66.3175 159.112 68.9148 159.112C71.512 159.112 73.7097 161.31 73.7097 163.907C73.7097 166.504 71.512 168.702 68.9148 168.702C66.3175 168.702 64.1199 166.704 64.1199 163.907Z" fill="#FF7FB8"/>
<path opacity="0.8" d="M83.9107 141.05C85.6761 141.05 87.1073 139.619 87.1073 137.853C87.1073 136.088 85.6761 134.657 83.9107 134.657C82.1453 134.657 80.7141 136.088 80.7141 137.853C80.7141 139.619 82.1453 141.05 83.9107 141.05Z" fill="#826AF7"/>
</g>
<defs>
<linearGradient id="paint0_linear" x1="0" y1="304.294" x2="187.994" y2="304.294" gradientUnits="userSpaceOnUse">
<stop stop-color="#BCBEFF"/>
<stop offset="0.056707" stop-color="#B6B6FE"/>
<stop offset="0.3185" stop-color="#A095FB"/>
<stop offset="0.5693" stop-color="#8F7DF9"/>
<stop offset="0.8023" stop-color="#856FF7"/>
<stop offset="1" stop-color="#826AF7"/>
</linearGradient>
<linearGradient id="paint1_linear" x1="-0.00156266" y1="275.786" x2="187.993" y2="275.786" gradientUnits="userSpaceOnUse">
<stop stop-color="#C0BFF6"/>
<stop offset="0.2938" stop-color="#C5C4F7"/>
<stop offset="0.6399" stop-color="#D3D2F9"/>
<stop offset="1" stop-color="#E9E9FD"/>
</linearGradient>
<linearGradient id="paint2_linear" x1="6.83139" y1="273.109" x2="181.833" y2="273.109" gradientUnits="userSpaceOnUse">
<stop stop-color="#C0BFF6"/>
<stop offset="0.2938" stop-color="#C5C4F7"/>
<stop offset="0.6399" stop-color="#D3D2F9"/>
<stop offset="1" stop-color="#E9E9FD"/>
</linearGradient>
<linearGradient id="paint3_linear" x1="94.3322" y1="0" x2="94.3322" y2="303.283" gradientUnits="userSpaceOnUse">
<stop stop-color="white" stop-opacity="0"/>
<stop offset="0.1861" stop-color="#FCFCFF" stop-opacity="0.1861"/>
<stop offset="0.3493" stop-color="#F3F1FE" stop-opacity="0.3493"/>
<stop offset="0.5038" stop-color="#E4DFFD" stop-opacity="0.5038"/>
<stop offset="0.6531" stop-color="#CFC6FC" stop-opacity="0.6531"/>
<stop offset="0.7985" stop-color="#B3A5FA" stop-opacity="0.7985"/>
<stop offset="0.9393" stop-color="#927DF8" stop-opacity="0.9393"/>
<stop offset="1" stop-color="#826AF7"/>
</linearGradient>
<clipPath id="clip0">
<rect width="188" height="356.221" fill="white"/>
</clipPath>
</defs>
</svg>
