<svg xmlns="http://www.w3.org/2000/svg" width="49.441" height="49.441" viewBox="0 0 49.441 49.441">
  <path id="Icon_awesome-arrow-circle-right" data-name="Icon awesome-arrow-circle-right" d="M25.283.562A24.72,24.72,0,1,1,.562,25.283,24.716,24.716,0,0,1,25.283.562ZM22.4,14.876l7.526,7.217h-18.2a2.387,2.387,0,0,0-2.392,2.392V26.08a2.387,2.387,0,0,0,2.392,2.392h18.2L22.4,35.689a2.4,2.4,0,0,0-.04,3.419l1.1,1.086a2.382,2.382,0,0,0,3.379,0L40.065,26.977a2.382,2.382,0,0,0,0-3.379L26.838,10.361a2.382,2.382,0,0,0-3.379,0l-1.1,1.086a2.407,2.407,0,0,0,.04,3.429Z" transform="translate(-0.563 -0.563)" fill="#113751"/>
</svg>
