<svg xmlns="http://www.w3.org/2000/svg" width="186" height="177.998" viewBox="0 0 186 177.998">
  <path id="Path_49" data-name="Path 49" d="M185.773,118.394c-7.341,22.33-13.153,45.271-25.389,65.766-1.223,2.141-5.2,2.753-6.117,0-8.871-21.106-18.047-41.907-23.859-63.931a3.853,3.853,0,0,1,6.424-3.671,146.334,146.334,0,0,0,16.518,14.377c-.612-45.271.918-97.884-52.919-111.955-23.859-6.118-50.472-2.753-70.354,12.541-20.8,16.212-25.39,42.824-23.86,67.6,0,2.447-3.671,3.059-4.282.612C-10,44.369,34.97,1.239,90.03,8.886,117.254,12.556,140.2,25.4,151.819,51.4c10.4,23.248,9.788,51.083,9.177,76.472a101.7,101.7,0,0,1,18.965-13.459C183.02,112.582,187,115.029,185.773,118.394Zm-27.53,20.188a2.741,2.741,0,0,1-3.671-1.835l-.305-.306a48.551,48.551,0,0,1-13.153-6.73c4.588,14.989,10.706,29.671,16.518,44.048,7.953-14.989,12.541-31.2,17.742-47.107C169.866,131.241,164.666,135.829,158.243,138.582Z" transform="translate(0 -8.005)"/>
</svg>
