<svg xmlns="http://www.w3.org/2000/svg" width="30.698" height="31.504" viewBox="0 0 30.698 31.504">
  <path id="Icon_awesome-arrow-up" data-name="Icon awesome-arrow-up" d="M2.454,15.641.893,17.2a1.681,1.681,0,0,0,0,2.384L14.555,33.255a1.681,1.681,0,0,0,2.384,0L30.6,19.593a1.681,1.681,0,0,0,0-2.384l-1.561-1.561a1.689,1.689,0,0,0-2.412.028l-8.065,8.466V3.934a1.683,1.683,0,0,0-1.687-1.688h-2.25a1.683,1.683,0,0,0-1.687,1.688V24.142L4.866,15.669a1.677,1.677,0,0,0-2.412-.028Z" transform="translate(-0.397 -2.246)" fill="#2697d3"/>
</svg>
