<?xml version="1.0"?>
<svg xmlns="http://www.w3.org/2000/svg" xmlns:xlink="http://www.w3.org/1999/xlink" xmlns:svgjs="http://svgjs.com/svgjs" version="1.1" width="512" height="512" x="0" y="0" viewBox="0 0 512 512" style="enable-background:new 0 0 512 512" xml:space="preserve" class=""><g>
<g xmlns="http://www.w3.org/2000/svg">
	<g>
		<path d="M361.6,251.349c-1.259-2.624-3.541-4.608-6.315-5.504c-2.752-0.896-67.733-21.845-99.285-21.845    c-5.397,0-9.963,4.053-10.603,9.408l-21.333,181.333c-0.64,5.525,3.051,10.624,8.491,11.712l53.333,10.667    c0.704,0.149,1.408,0.213,2.112,0.213c4.373,0,8.405-2.688,9.984-6.912l64-170.667C363.008,257.023,362.88,253.973,361.6,251.349z    " fill="#c6c4ce" data-original="#000000" style="" class=""/>
	</g>
</g>
<g xmlns="http://www.w3.org/2000/svg">
	<g>
		<path d="M341.632,133.397l-43.947-95.211c-2.155-4.651-7.253-7.104-12.267-5.867l-42.667,10.667    c-5.141,1.28-8.555,6.144-8.021,11.413l6.869,68.8c0.469,4.779,4.096,8.661,8.832,9.451c28.395,4.8,55.019,10.048,79.104,15.616    c0.811,0.171,1.6,0.277,2.411,0.277c3.157,0,6.229-1.408,8.277-3.947C342.784,141.439,343.339,137.087,341.632,133.397z" fill="#c6c4ce" data-original="#000000" style="" class=""/>
	</g>
</g>
<g xmlns="http://www.w3.org/2000/svg">
	<g>
		<path d="M245.333,458.666H10.667C4.779,458.666,0,463.445,0,469.333c0,5.888,4.779,10.667,10.667,10.667h234.667    c5.888,0,10.667-4.779,10.667-10.667C256,463.445,251.221,458.666,245.333,458.666z" fill="#c6c4ce" data-original="#000000" style="" class=""/>
	</g>
</g>
<g xmlns="http://www.w3.org/2000/svg">
	<g>
		<path d="M491.157,247.338c-10.965,6.955-35.925,19.328-75.157,19.328c-5.888,0-10.667-4.779-10.667-10.667    s4.779-10.667,10.667-10.667c29.205,0,48.832-7.829,59.157-13.376c-43.669-35.947-114.027-54.699-141.995-60.992    c-76.331-18.347-164.352-28.971-187.563-31.595l-40.064-80.149c-2.24-4.459-7.275-6.805-12.117-5.568L50.752,64.319    c-4.757,1.195-8.085,5.44-8.085,10.347v60.8c-10.24-1.899-23.531-2.496-32.725,3.947C5.397,142.613,0,148.757,0,159.999    c0,4.843,0,19.008,37.781,44.885l-15.915,47.723c-1.067,3.264-0.533,6.848,1.472,9.621c2.005,2.795,5.227,4.437,8.661,4.437    h53.333c4.032,0,7.723-2.283,9.536-5.888l9.643-19.285c32.043,14.592,79.765,33.088,138.475,46.251    c5.803,1.344,11.456-2.325,12.736-8.064v-0.043l76.693,16.832c0,0.043-0.043,0.064-0.043,0.107    c-1.195,5.781,2.517,11.413,8.277,12.608c0.896,0.192,1.707,0.341,2.603,0.512l18.731-49.941c1.024-2.709,0.896-5.76-0.384-8.363    c-1.259-2.624-3.563-4.629-6.315-5.525c-3.307-1.067-18.987-6.101-37.995-11.072c-5.696-1.493-9.109-7.317-7.616-13.013    c1.493-5.717,7.339-9.045,13.013-7.616c19.584,5.141,35.755,10.304,39.147,11.413c8.277,2.667,15.168,8.704,18.965,16.533    c3.776,7.829,4.203,16.981,1.152,25.131l-17.515,46.699c44.117,8.533,76.096,12.757,98.688,12.757c19.648,0,32.32-3.157,40-9.408    c5.803-4.736,8.875-11.179,8.875-18.624C512,279.039,503.872,262.037,491.157,247.338z" fill="#c6c4ce" data-original="#000000" style="" class=""/>
	</g>
</g>
<g xmlns="http://www.w3.org/2000/svg">
</g>
<g xmlns="http://www.w3.org/2000/svg">
</g>
<g xmlns="http://www.w3.org/2000/svg">
</g>
<g xmlns="http://www.w3.org/2000/svg">
</g>
<g xmlns="http://www.w3.org/2000/svg">
</g>
<g xmlns="http://www.w3.org/2000/svg">
</g>
<g xmlns="http://www.w3.org/2000/svg">
</g>
<g xmlns="http://www.w3.org/2000/svg">
</g>
<g xmlns="http://www.w3.org/2000/svg">
</g>
<g xmlns="http://www.w3.org/2000/svg">
</g>
<g xmlns="http://www.w3.org/2000/svg">
</g>
<g xmlns="http://www.w3.org/2000/svg">
</g>
<g xmlns="http://www.w3.org/2000/svg">
</g>
<g xmlns="http://www.w3.org/2000/svg">
</g>
<g xmlns="http://www.w3.org/2000/svg">
</g>
</g></svg>
