<?xml version="1.0"?>
<svg xmlns="http://www.w3.org/2000/svg" xmlns:xlink="http://www.w3.org/1999/xlink" xmlns:svgjs="http://svgjs.com/svgjs" version="1.1" width="512" height="512" x="0" y="0" viewBox="0 0 64 64" style="enable-background:new 0 0 512 512" xml:space="preserve" class=""><g><path xmlns="http://www.w3.org/2000/svg" d="m17 59h4v2h-4z" fill="#05164d" data-original="#000000" style="" class=""/><path xmlns="http://www.w3.org/2000/svg" d="m43 59h4v2h-4z" fill="#05164d" data-original="#000000" style="" class=""/><path xmlns="http://www.w3.org/2000/svg" d="m27 8a3 3 0 0 1 3-3h4a3 3 0 0 1 3 3v1h2v-1a5.007 5.007 0 0 0 -5-5h-4a5.006 5.006 0 0 0 -5 5v1h2z" fill="#05164d" data-original="#000000" style="" class=""/><path xmlns="http://www.w3.org/2000/svg" d="m14 55a2 2 0 0 0 2 2h32a2 2 0 0 0 2-2v-2h-36z" fill="#05164d" data-original="#000000" style="" class=""/><path xmlns="http://www.w3.org/2000/svg" d="m49 11h-34a2 2 0 0 0 -2 2v16a4 4 0 0 0 4 4h1v-4a1 1 0 0 1 1-1h6a1 1 0 0 1 1 1v4h12v-4a1 1 0 0 1 1-1h6a1 1 0 0 1 1 1v4h1a4 4 0 0 0 4-4v-16a2 2 0 0 0 -2-2zm-17 17a6 6 0 1 1 6-6 6.006 6.006 0 0 1 -6 6z" fill="#05164d" data-original="#000000" style="" class=""/><path xmlns="http://www.w3.org/2000/svg" d="m30 7a1 1 0 0 0 -1 1v1h6v-1a1 1 0 0 0 -1-1z" fill="#05164d" data-original="#000000" style="" class=""/><path xmlns="http://www.w3.org/2000/svg" d="m44 36v-6h-4v6a2 2 0 0 0 4 0z" fill="#05164d" data-original="#000000" style="" class=""/><path xmlns="http://www.w3.org/2000/svg" d="m46 35v1a4 4 0 0 1 -8 0v-1h-12v1a4 4 0 0 1 -8 0v-1h-1a5.958 5.958 0 0 1 -3-.812v16.812h36v-16.812a5.958 5.958 0 0 1 -3 .812z" fill="#05164d" data-original="#000000" style="" class=""/><circle xmlns="http://www.w3.org/2000/svg" cx="32" cy="22" r="4" fill="#05164d" data-original="#000000" style="" class=""/><path xmlns="http://www.w3.org/2000/svg" d="m24 36v-6h-4v6a2 2 0 0 0 4 0z" fill="#05164d" data-original="#000000" style="" class=""/></g></svg>
