<svg id="Capa_1" enable-background="new 0 0 512 512" height="512" viewBox="0 0 512 512" width="512" xmlns="http://www.w3.org/2000/svg"><g><g><path d="m497 391.5h-482c-8.284 0-15-6.716-15-15v-60.25c0-8.284 6.716-15 15-15 24.951 0 45.25-20.299 45.25-45.25s-20.299-45.25-45.25-45.25c-8.284 0-15-6.716-15-15v-60.25c0-8.284 6.716-15 15-15h482c8.284 0 15 6.716 15 15v60.25c0 8.284-6.716 15-15 15-24.951 0-45.25 20.299-45.25 45.25s20.299 45.25 45.25 45.25c8.284 0 15 6.716 15 15v60.25c0 8.284-6.716 15-15 15z" fill="#0c83fa"/></g><path d="m497 120.5h-240.993v271h240.993c8.284 0 15-6.716 15-15v-60.25c0-8.284-6.716-15-15-15-24.951 0-45.25-20.299-45.25-45.25s20.299-45.25 45.25-45.25c8.284 0 15-6.716 15-15v-60.25c0-8.284-6.716-15-15-15z" fill="#3d6dcc"/><g><path d="m216.001 210.75h-120.501c-8.284 0-15-6.716-15-15s6.716-15 15-15h120.501c8.284 0 15 6.716 15 15s-6.716 15-15 15z" fill="#1b3b6b"/></g><g><path d="m216.001 331.25h-120.501c-8.284 0-15-6.716-15-15s6.716-15 15-15h120.501c8.284 0 15 6.716 15 15s-6.716 15-15 15z" fill="#1b3b6b"/></g><g><path d="m216.001 271h-120.501c-8.284 0-15-6.716-15-15s6.716-15 15-15h120.501c8.284 0 15 6.716 15 15s-6.716 15-15 15z" fill="#1b3b6b"/></g><path d="m391.226 231.639-19.851-6.589v-29.3c0-8.284-6.716-15-15-15s-15 6.716-15 15v29.299l-19.851 6.589c-7.862 2.61-12.12 11.1-9.511 18.962 2.61 7.862 11.1 12.119 18.962 9.511l10.399-3.452v23.253l-10.669 10.669c-5.858 5.858-5.858 15.355 0 21.213 5.857 5.858 15.355 5.858 21.213 0l4.456-4.456 4.456 4.456c2.929 2.929 6.768 4.394 10.606 4.394s7.678-1.464 10.606-4.394c5.858-5.858 5.858-15.355 0-21.213l-10.669-10.669v-23.253l10.399 3.452c1.568.521 3.161.768 4.728.768 6.287 0 12.145-3.984 14.234-10.278 2.612-7.863-1.646-16.352-9.508-18.962z" fill="#12254c"/></g></svg>