<svg xmlns="http://www.w3.org/2000/svg" width="360" height="94" viewBox="0 0 360 94">
    <defs>
        <linearGradient id="prefix__a" x1="62.642%" x2="61.504%" y1="46.956%" y2="54.858%">
            <stop offset="0%" stop-color="#FFF"/>
            <stop offset="50.979%" stop-color="#FFC679"/>
            <stop offset="100%" stop-color="#FE5814"/>
        </linearGradient>
    </defs>
    <path fill="url(#prefix__a)" d="M107.628 40c13.999 0 26.113 8.24 31.937 20.227 4.765-2.338 10.28-3.674 16.16-3.674 13.855 0 25.696 7.42 30.44 17.89 6.767-12.426 19.849-20.846 34.877-20.846 17.331 0 32.074 11.199 37.529 26.825 4.568-1.65 9.782-2.586 15.319-2.586 11.512 0 21.633 4.044 27.449 10.153 3.109-15.946 15.825-27.888 31.04-27.888 13.551 0 25.12 9.475 29.685 22.815 4.893-5.678 13.4-9.747 23.38-10.75 2.716-8.857 10.46-17.826 21.535-23.69 17.807-9.427 37.485-7.253 43.952 4.855 6.466 12.108-2.728 29.566-20.536 38.993-2.49 1.318-5.016 2.41-7.538 3.278-1.142 11.541-15.294 20.662-32.584 20.662-11.566 0-21.728-4.081-27.53-10.238-3.995 14.488-16.079 25.018-30.365 25.018-13.036 0-24.238-8.768-29.135-21.31-5.306 7.368-16.457 12.442-29.353 12.442-7.779 0-14.922-1.846-20.53-4.927C246.137 127.394 234.353 134 221.041 134c-19.414 0-35.58-14.052-39.082-32.64-5.95 6.891-15.486 11.357-26.235 11.357-9.644 0-18.312-3.594-24.29-9.31-6.309 5.788-14.655 9.31-23.807 9.31C87.95 112.717 72 96.439 72 76.358 72 56.278 87.951 40 107.628 40z" transform="translate(-82 -40)"/>
</svg>
