<svg width="381" height="94" viewBox="0 0 381 94" fill="none" xmlns="http://www.w3.org/2000/svg">
<path d="M35.628 0C49.627 0 61.741 8.24 67.565 20.227C72.33 17.889 77.845 16.553 83.725 16.553C97.58 16.553 109.421 23.973 114.165 34.443C120.932 22.017 134.014 13.597 149.042 13.597C166.373 13.597 181.116 24.796 186.571 40.422C191.139 38.772 196.353 37.836 201.89 37.836C213.402 37.836 223.523 41.88 229.339 47.989C232.448 32.043 245.164 20.101 260.379 20.101C273.93 20.101 285.499 29.576 290.064 42.916C294.957 37.238 303.464 33.169 313.444 32.166C316.16 23.309 323.904 14.34 334.979 8.476C352.786 -0.950998 372.464 1.223 378.931 13.331C385.397 25.439 376.203 42.897 358.395 52.324C355.905 53.642 353.379 54.734 350.857 55.602C349.715 67.143 335.563 76.264 318.273 76.264C306.707 76.264 296.545 72.183 290.743 66.026C286.748 80.514 274.664 91.044 260.378 91.044C247.342 91.044 236.14 82.276 231.243 69.734C225.937 77.102 214.786 82.176 201.89 82.176C194.111 82.176 186.968 80.33 181.36 77.249C174.137 87.394 162.353 94 149.041 94C129.627 94 113.461 79.948 109.959 61.36C104.009 68.251 94.473 72.717 83.724 72.717C74.08 72.717 65.412 69.123 59.434 63.407C53.125 69.195 44.779 72.717 35.627 72.717C15.95 72.717 0 56.439 0 36.358C0 16.278 15.951 0 35.628 0Z" fill="url(#paint0_linear)"/>
<defs>
<linearGradient id="paint0_linear" x1="158.5" y1="-235.5" x2="368.674" y2="179.126" gradientUnits="userSpaceOnUse">
<stop stop-color="white"/>
<stop offset="0.50979" stop-color="#FFC679"/>
<stop offset="1" stop-color="#FE5814"/>
</linearGradient>
</defs>
</svg>
