<svg id="Component_12_2" data-name="Component 12 – 2" xmlns="http://www.w3.org/2000/svg" width="86.421" height="86.422" viewBox="0 0 86.421 86.422">
  <g id="Component_11_4" data-name="Component 11 – 4">
    <circle id="Ellipse_118" data-name="Ellipse 118" cx="41.522" cy="41.522" r="41.522" transform="translate(1.689 1.689)" fill="#fddf6d"/>
    <path id="Path_52" data-name="Path 52" d="M60.426,109.227A41.52,41.52,0,0,1,32.652,36.843,41.525,41.525,0,1,0,79.3,104.7,41.347,41.347,0,0,1,60.426,109.227Z" transform="translate(-8.318 -30.624)" fill="#fcc56b"/>
    <circle id="Ellipse_119" data-name="Ellipse 119" cx="7.917" cy="7.917" r="7.917" transform="translate(45.312 53.071)" fill="#7f184c"/>
    <path id="Path_53" data-name="Path 53" d="M83.127,26.636a11.174,11.174,0,0,0-4.156-5.73,13.407,13.407,0,0,0-10.635-2.515,12.012,12.012,0,0,0-8.072,6.4,15.449,15.449,0,0,0-1.547,10.027C60.17,42.212,67.451,46.5,73.724,46.5c.29,0,.579-.009.865-.028A1.689,1.689,0,1,0,74.37,43.1a12.594,12.594,0,0,1-7.689-2.2,10.688,10.688,0,0,1-4.647-6.737,12.184,12.184,0,0,1,1.217-7.794A8.7,8.7,0,0,1,69.042,21.7a10.127,10.127,0,0,1,7.906,1.915,8.8,8.8,0,0,1,2.1,2.2q.471.967.887,1.952a5.937,5.937,0,0,1,.183,1.073,8.1,8.1,0,0,1-2.249,5.864,6.628,6.628,0,0,1-4.6,2.365,6.042,6.042,0,0,1-4.714-2.4,5.766,5.766,0,0,1-1.127-4.332,3.485,3.485,0,0,1,1.045-2.04,3.271,3.271,0,0,1,2.088-.766h.007c1.572,0,3.3,1.236,3.421,2.433.017.2,0,.991-.39,1.249-.188.124-.557.231-.736.1a.634.634,0,0,1-.182-.618,1.689,1.689,0,0,0-3.325-.6,3.888,3.888,0,0,0,6.108,3.935,4.862,4.862,0,0,0,1.886-4.4c-.268-2.636-3.053-5.466-6.773-5.477a6.661,6.661,0,0,0-4.338,1.609,6.807,6.807,0,0,0-2.122,3.9A9.1,9.1,0,0,0,65.859,36.7a9.4,9.4,0,0,0,7.46,3.737,9.99,9.99,0,0,0,7.048-3.465A12.494,12.494,0,0,0,82.1,34.542,39.835,39.835,0,1,1,63.912,9.173,1.689,1.689,0,1,0,65.67,6.288,43.156,43.156,0,1,0,83.127,26.636Z"/>
    <path id="Path_54" data-name="Path 54" d="M268.055,323.628a9.6,9.6,0,1,0-9.6-9.6A9.616,9.616,0,0,0,268.055,323.628Zm0-15.831a6.226,6.226,0,1,1-6.226,6.226A6.233,6.233,0,0,1,268.055,307.8Z" transform="translate(-214.826 -253.035)"/>
    <path id="Path_55" data-name="Path 55" d="M174.065,118.03a1.69,1.69,0,0,0-1.962,1.362,3.888,3.888,0,0,0,6.109,3.935,4.861,4.861,0,0,0,1.886-4.4c-.268-2.636-3.053-5.466-6.773-5.477a6.659,6.659,0,0,0-4.338,1.609,6.809,6.809,0,0,0-2.122,3.9,9.1,9.1,0,0,0,1.743,7.049,9.383,9.383,0,0,0,7.46,3.737,9.99,9.99,0,0,0,7.048-3.466,11.524,11.524,0,0,0,3.122-8.4,10.656,10.656,0,0,0-4.516-7.669,13.406,13.406,0,0,0-10.635-2.515,12.013,12.013,0,0,0-8.072,6.4,15.45,15.45,0,0,0-1.547,10.027c1.452,7.393,8.733,11.681,15.005,11.681.29,0,.579-.009.865-.028a1.689,1.689,0,0,0-.219-3.371,12.6,12.6,0,0,1-7.689-2.2,10.688,10.688,0,0,1-4.647-6.737A12.185,12.185,0,0,1,166,115.681,8.7,8.7,0,0,1,171.792,111a10.127,10.127,0,0,1,7.906,1.915,7.344,7.344,0,0,1,3.171,5.22A8.1,8.1,0,0,1,180.62,124a6.628,6.628,0,0,1-4.605,2.365,6.04,6.04,0,0,1-4.714-2.4,5.765,5.765,0,0,1-1.126-4.331,3.486,3.486,0,0,1,1.045-2.04,3.324,3.324,0,0,1,2.1-.766c1.572,0,3.3,1.236,3.421,2.433.017.2,0,.991-.389,1.249-.188.124-.558.231-.736.1a.634.634,0,0,1-.182-.618A1.69,1.69,0,0,0,174.065,118.03Z" transform="translate(-133.995 -89.307)"/>
  </g>
  <circle id="Ellipse_120" data-name="Ellipse 120" cx="1.689" cy="1.689" r="1.689" transform="translate(68.168 9.822)"/>
</svg>
