<svg id="Component_13_2" data-name="Component 13 – 2" xmlns="http://www.w3.org/2000/svg" width="90.409" height="92" viewBox="0 0 90.409 92">
  <ellipse id="Ellipse_121" data-name="Ellipse 121" cx="41.222" cy="41.222" rx="41.222" ry="41.222" transform="translate(6.288 7.88)" fill="#fddf6d"/>
  <path id="Path_56" data-name="Path 56" d="M32.5,140.739A41.22,41.22,0,0,0,60.074,68.878,41.225,41.225,0,1,1,13.76,136.242,41.046,41.046,0,0,0,32.5,140.739Z" transform="translate(6.176 -56.502)" fill="#fcc56b"/>
  <g id="Group_31" data-name="Group 31" transform="translate(1.678 1.677)">
    <path id="Path_57" data-name="Path 57" d="M42.257,10.933,37.237,21.1a2.87,2.87,0,0,1-2.162,1.57L23.852,24.305a2.871,2.871,0,0,0-1.591,4.9l8.122,7.917a2.871,2.871,0,0,1,.826,2.541L29.291,50.839a2.871,2.871,0,0,0,4.166,3.027L43.5,48.588a2.87,2.87,0,0,1,2.672,0l10.039,5.278a2.871,2.871,0,0,0,4.166-3.027L58.455,39.66a2.871,2.871,0,0,1,.826-2.541L67.4,29.2a2.871,2.871,0,0,0-1.591-4.9L54.587,22.674a2.871,2.871,0,0,1-2.162-1.57l-5.02-10.17A2.871,2.871,0,0,0,42.257,10.933Z" transform="translate(17.411 -9.333)" fill="#ff0"/>
    <path id="Path_58" data-name="Path 58" d="M342.605,89.225l-3.255,6.594a1.862,1.862,0,0,1-1.4,1.018l-7.277,1.057a1.861,1.861,0,0,0-1.032,3.175l5.266,5.133a1.862,1.862,0,0,1,.535,1.648L334.2,115.1a1.861,1.861,0,0,0,2.7,1.962l6.509-3.422a1.861,1.861,0,0,1,1.732,0l6.509,3.422a1.861,1.861,0,0,0,2.7-1.962l-1.243-7.247a1.862,1.862,0,0,1,.535-1.648l5.266-5.133a1.862,1.862,0,0,0-1.032-3.175L350.6,96.837a1.861,1.861,0,0,1-1.4-1.018l-3.254-6.594A1.861,1.861,0,0,0,342.605,89.225Z" transform="translate(-329.077 -74.018)" fill="#ff0"/>
  </g>
  <g id="Group_32" data-name="Group 32" transform="translate(11.952 14.938)">
    <path id="Path_59" data-name="Path 59" d="M107.03,83.784l-2.053,4.159a1.174,1.174,0,0,1-.884.642l-4.59.667a1.174,1.174,0,0,0-.651,2l3.321,3.237a1.174,1.174,0,0,1,.338,1.039l-.784,4.571a1.174,1.174,0,0,0,1.7,1.238l4.105-2.158a1.175,1.175,0,0,1,1.093,0l4.105,2.158a1.174,1.174,0,0,0,1.7-1.238l-.784-4.571a1.175,1.175,0,0,1,.338-1.039l3.321-3.237a1.174,1.174,0,0,0-.651-2l-4.59-.667a1.175,1.175,0,0,1-.884-.642l-2.053-4.159A1.175,1.175,0,0,0,107.03,83.784Z" transform="translate(-56.116 -83.13)" fill="#fc4c59"/>
    <path id="Path_60" data-name="Path 60" d="M390.639,143.247l-1.054,2.136a.6.6,0,0,1-.454.33l-2.357.342a.6.6,0,0,0-.334,1.029l1.706,1.663a.6.6,0,0,1,.174.534l-.4,2.348a.6.6,0,0,0,.875.636l2.108-1.109a.6.6,0,0,1,.561,0l2.108,1.109a.6.6,0,0,0,.875-.636l-.4-2.348a.6.6,0,0,1,.174-.534l1.706-1.663a.6.6,0,0,0-.334-1.029l-2.357-.342a.6.6,0,0,1-.454-.33l-1.054-2.136A.6.6,0,0,0,390.639,143.247Z" transform="translate(-386.257 -132.169)" fill="#fc4c59"/>
  </g>
  <path id="Path_61" data-name="Path 61" d="M213.774,348.577h0a16.686,16.686,0,0,0,16.686-16.686H197.088A16.686,16.686,0,0,0,213.774,348.577Z" transform="translate(-174.669 -272.254)" fill="#7f184c"/>
  <path id="Path_62" data-name="Path 62" d="M244.975,331.891v2.6a1.988,1.988,0,0,1-1.988,1.988H221.734a1.988,1.988,0,0,1-1.988-1.988v-2.6Z" transform="translate(-193.256 -272.254)" fill="#f2f2f2"/>
  <path id="Path_63" data-name="Path 63" d="M222.71,379.745a15.161,15.161,0,0,1,13.574.382,16.655,16.655,0,0,1-13.243,6.54h0a16.623,16.623,0,0,1-6.687-1.4A15.13,15.13,0,0,1,222.71,379.745Z" transform="translate(-183.955 -310.345)" fill="#fc4c59"/>
  <path id="Path_64" data-name="Path 64" d="M5.5,29.929a3.538,3.538,0,0,1,1.961-6.036l7.277-1.057a.185.185,0,0,0,.139-.1l3.254-6.594a3.538,3.538,0,0,1,6.346,0h0a42.6,42.6,0,0,1,12.64-7.31,1.677,1.677,0,0,1,1.159,3.147,39.289,39.289,0,0,0-12.267,7.266l1.722,3.489a.184.184,0,0,0,.139.1l7.277,1.057a3.538,3.538,0,0,1,1.961,6.035l-5.266,5.133a.185.185,0,0,0-.053.163l1.243,7.247A3.534,3.534,0,0,1,27.9,46.2l-6.509-3.422a.184.184,0,0,0-.171,0L14.708,46.2a3.521,3.521,0,0,1-2.232.359c-.054.845-.084,1.691-.084,2.539A39.545,39.545,0,1,0,85.879,28.8l-1.912,1.864a1.194,1.194,0,0,0-.343,1.057L85.54,42.9a4.542,4.542,0,0,1-6.6,4.795L68.9,42.416a1.194,1.194,0,0,0-1.111,0L57.752,47.694a4.548,4.548,0,0,1-6.6-4.794l1.917-11.178a1.2,1.2,0,0,0-.343-1.057l-8.122-7.917a4.548,4.548,0,0,1,2.521-7.757L58.35,13.359a1.2,1.2,0,0,0,.9-.653l1.108-2.246a39.774,39.774,0,0,0-8.42-.9,1.677,1.677,0,1,1,0-3.354,43.086,43.086,0,0,1,9.948,1.162l2.384-4.83a4.548,4.548,0,0,1,8.156,0l5.02,10.171a1.194,1.194,0,0,0,.9.653L89.568,14.99a4.548,4.548,0,0,1,2.52,7.758L88.342,26.4a42.9,42.9,0,1,1-79.3,22.7,43.171,43.171,0,0,1,.915-8.839l.864-5.037a.185.185,0,0,0-.053-.164ZM90.049,19.122a1.163,1.163,0,0,0-.964-.813L77.862,16.678a4.546,4.546,0,0,1-3.424-2.488L69.418,4.02a1.194,1.194,0,0,0-2.142,0l-5.02,10.17a4.547,4.547,0,0,1-3.424,2.488L47.609,18.309a1.194,1.194,0,0,0-.662,2.037l8.122,7.917a4.548,4.548,0,0,1,1.308,4.026L54.459,43.466a1.194,1.194,0,0,0,1.733,1.259l10.039-5.278a4.547,4.547,0,0,1,4.233,0L80.5,44.725a1.194,1.194,0,0,0,1.733-1.259L80.317,32.288a4.547,4.547,0,0,1,1.308-4.026l8.122-7.916A1.164,1.164,0,0,0,90.049,19.122ZM13.105,32.66a3.538,3.538,0,0,1,1.018,3.132l-.816,4.758a1.7,1.7,0,0,1-.029.19c-.009.042-.017.085-.026.128L12.88,43.04a.184.184,0,0,0,.268.194l6.509-3.422a3.538,3.538,0,0,1,3.293,0l6.509,3.422a.184.184,0,0,0,.268-.194l-1.243-7.248A3.538,3.538,0,0,1,29.5,32.66l5.266-5.133a.185.185,0,0,0-.1-.315l-7.277-1.057a3.539,3.539,0,0,1-2.664-1.936l-2.284-4.628-.019-.038-.951-1.928a.184.184,0,0,0-.331,0L17.882,24.22a3.539,3.539,0,0,1-2.664,1.935L7.941,27.213a.185.185,0,0,0-.1.315Z" transform="translate(-4.427)"/>
  <path id="Path_65" data-name="Path 65" d="M224.482,324.235a18.363,18.363,0,1,1-36.726,0,1.677,1.677,0,0,1,1.677-1.677H222.8A1.677,1.677,0,0,1,224.482,324.235ZM191.2,325.912a15.01,15.01,0,0,0,29.832,0Z" transform="translate(-167.014 -264.599)"/>
  <ellipse id="Ellipse_122" data-name="Ellipse 122" cx="1.677" cy="1.677" rx="1.677" ry="1.677" transform="translate(37.754 7.052)"/>
</svg>
