<svg width="128" height="135" viewBox="0 0 128 135" fill="none" xmlns="http://www.w3.org/2000/svg">
<g id="services-cyber-security 1">
<g id="Group">
<path id="Vector" d="M127.218 133.978H0.732C0.328 133.978 0 133.65 0 133.246C0 132.842 0.328 132.514 0.732 132.514H127.218C127.623 132.514 127.95 132.842 127.95 133.246C127.95 133.65 127.623 133.978 127.218 133.978Z" fill="black"/>
<g id="services-cyber-security-img-lock">
<path id="Vector_2" d="M45.384 46.947H13.03C11.009 46.947 9.37 45.307 9.37 43.287V24.943C9.37 22.922 11.009 21.283 13.03 21.283H45.384C47.404 21.283 49.044 22.922 49.044 24.943V43.287C49.044 45.307 47.404 46.947 45.384 46.947V46.947ZM13.03 22.747C11.817 22.747 10.834 23.73 10.834 24.943V43.287C10.834 44.499 11.817 45.483 13.03 45.483H45.384C46.596 45.483 47.579 44.499 47.579 43.287V24.943C47.579 23.73 46.596 22.747 45.384 22.747H13.03Z" fill="black"/>
<g id="services-cyber-security-img-lock-top">
<path id="Vector_3" fill-rule="evenodd" clip-rule="evenodd" d="M39.3959 22.015V15.752C39.3959 10.125 34.8339 5.563 29.2059 5.563C23.5789 5.563 19.0179 10.125 19.0179 15.753V22.015H39.3959V22.015Z" stroke="black" stroke-width="1.464"/>
<path id="Vector_4" fill-rule="evenodd" clip-rule="evenodd" d="M29.207 1C37.647 1 44.49 7.843 44.49 16.284V22.015H13.923V16.284C13.923 7.843 20.766 1 29.207 1Z" stroke="black" stroke-width="1.464"/>
</g>
<path id="services-cyber-security-img-keyhole" d="M31.2119 41.215H27.2019V37.565C25.2999 36.632 24.2919 34.512 24.7719 32.449C25.2509 30.386 27.0889 28.925 29.2069 28.925C31.3249 28.925 33.1629 30.385 33.6419 32.449C34.1209 34.512 33.1139 36.632 31.2119 37.565V41.215ZM28.6649 39.751H29.7479V36.563L30.2359 36.39C31.6539 35.888 32.5049 34.438 32.2499 32.955C31.9959 31.472 30.7099 30.389 29.2059 30.389C27.7019 30.389 26.4159 31.472 26.1619 32.955C25.9069 34.438 26.7579 35.888 28.1759 36.39L28.6639 36.563L28.6649 39.751V39.751Z" fill="black"/>
</g>
<g id="Group_2">
<path id="Vector_5" d="M83.778 112.797H44.172L54.537 99.024H73.413L83.778 112.797V112.797ZM47.105 111.333H80.845L72.683 100.488H55.262L47.105 111.333Z" fill="black"/>
<path id="Vector_6" d="M97.7419 120.437H30.2089C28.9959 120.437 28.0129 119.454 28.0129 118.241V113.444C28.0129 112.231 28.9959 111.248 30.2089 111.248H97.7419C98.9539 111.248 99.9369 112.231 99.9369 113.444V118.241C99.9369 119.454 98.9539 120.437 97.7419 120.437V120.437ZM30.2089 112.712C29.8049 112.712 29.4769 113.04 29.4769 113.444V118.241C29.4769 118.646 29.8049 118.973 30.2089 118.973H97.7419C98.1459 118.973 98.4739 118.646 98.4739 118.241V113.444C98.4739 113.04 98.1459 112.712 97.7419 112.712H30.2089V112.712Z" fill="black"/>
<path id="Vector_7" d="M10.4 94.804C11.1506 94.804 11.759 94.1956 11.759 93.445C11.759 92.6944 11.1506 92.086 10.4 92.086C9.64946 92.086 9.04102 92.6944 9.04102 93.445C9.04102 94.1956 9.64946 94.804 10.4 94.804Z" fill="black"/>
<path id="Vector_8" d="M16.512 94.804C17.2625 94.804 17.871 94.1956 17.871 93.445C17.871 92.6944 17.2625 92.086 16.512 92.086C15.7614 92.086 15.153 92.6944 15.153 93.445C15.153 94.1956 15.7614 94.804 16.512 94.804Z" fill="black"/>
<path id="Vector_9" d="M10.17 84.863C9.766 84.863 9.438 84.535 9.438 84.131V52.509C9.438 52.105 9.766 51.777 10.17 51.777C10.574 51.777 10.902 52.105 10.902 52.509V84.131C10.902 84.535 10.574 84.863 10.17 84.863ZM73.74 88.349H115.832C116.236 88.349 116.564 88.021 116.564 87.617C116.564 87.212 116.236 86.885 115.832 86.885H75.236C74.771 87.385 74.273 87.872 73.74 88.349V88.349ZM1.61 94.175V88.349H52.878C53.283 88.349 53.61 88.021 53.61 87.617V87.583C53.377 87.359 53.145 87.128 52.915 86.889H0.145996V94.179C0.145996 94.584 0.473996 94.912 0.877996 94.912C1.283 94.912 1.61 94.584 1.61 94.18V94.175V94.175ZM59.952 99.109H5.054C4.034 99.108 3.069 98.654 2.418 97.87C2.157 97.571 1.704 97.535 1.398 97.79C1.094 98.044 1.048 98.496 1.294 98.807C2.224 99.927 3.604 100.574 5.059 100.573H59.959C60.362 100.573 60.69 100.245 60.69 99.841C60.69 99.436 60.362 99.109 59.958 99.109H59.952Z" fill="black"/>
<path id="Vector_10" d="M120.224 86.884C119.819 86.884 119.492 87.212 119.492 87.617C119.492 88.021 119.819 88.349 120.224 88.349H126.34V95.669C126.338 97.564 124.801 99.1 122.906 99.103H64.347C63.943 99.103 63.615 99.431 63.615 99.835C63.615 100.239 63.943 100.567 64.347 100.567H122.906C125.607 100.564 127.798 98.376 127.804 95.674V86.891L120.224 86.884ZM63.571 94.379L63.379 94.323C63.204 94.273 59.034 93.055 54.719 89.539C50.725 86.286 45.878 80.377 45.458 70.706V55.538L46.245 55.598C47.14 55.668 48.053 55.701 48.956 55.701C54.77 55.701 60.201 54.273 63.131 51.978L63.581 51.624L64.032 51.978C66.96 54.275 72.392 55.701 78.206 55.701C79.378 55.701 80.549 55.644 81.692 55.531L82.496 55.451V70.677C82.496 70.869 82.469 75.441 80.153 80.666C78.015 85.506 73.433 91.806 63.757 94.33L63.571 94.379ZM46.92 70.662C47.097 74.692 48.091 78.367 49.879 81.585C51.348 84.203 53.304 86.515 55.642 88.398C59.229 91.326 62.762 92.581 63.596 92.853C67.526 91.796 70.881 90.001 73.569 87.514C75.798 85.431 77.578 82.914 78.798 80.118C80.994 75.17 81.03 70.715 81.03 70.671V57.056C80.098 57.128 79.15 57.163 78.205 57.163C72.267 57.163 66.861 55.789 63.58 53.463C60.3 55.787 54.893 57.163 48.955 57.163C48.279 57.163 47.596 57.144 46.92 57.108V70.662ZM119.46 30.814H119.382C118.978 30.814 118.65 30.487 118.65 30.083C118.65 29.679 118.978 29.351 119.382 29.351H119.459C119.864 29.351 120.191 29.679 120.191 30.083C120.191 30.487 119.864 30.815 119.459 30.815L119.46 30.814ZM114.99 30.814H109.134C108.73 30.814 108.402 30.487 108.402 30.083C108.402 29.679 108.73 29.351 109.134 29.351H114.99C115.394 29.351 115.722 29.679 115.722 30.083C115.722 30.487 115.394 30.814 114.99 30.814ZM104.742 30.814H98.886C98.482 30.814 98.154 30.487 98.154 30.083C98.154 29.679 98.482 29.351 98.886 29.351H104.742C105.146 29.351 105.474 29.679 105.474 30.083C105.474 30.487 105.146 30.814 104.742 30.814ZM94.494 30.814H88.64C88.235 30.814 87.908 30.487 87.908 30.083C87.908 29.679 88.235 29.351 88.64 29.351H94.495C94.9 29.351 95.227 29.679 95.227 30.083C95.227 30.487 94.9 30.815 94.495 30.815L94.494 30.814ZM84.247 30.814H78.39C77.986 30.814 77.658 30.487 77.658 30.083C77.658 29.679 77.986 29.351 78.39 29.351H84.246C84.65 29.351 84.978 29.679 84.978 30.083C84.978 30.487 84.65 30.815 84.246 30.815L84.247 30.814ZM73.999 30.814H68.143C67.739 30.814 67.411 30.487 67.411 30.083C67.411 29.679 67.739 29.351 68.143 29.351H74C74.404 29.351 74.732 29.679 74.732 30.083C74.732 30.487 74.404 30.815 74 30.815L73.999 30.814Z" fill="black"/>
<path id="Vector_11" d="M122.774 24.108H48.334C48.415 24.379 48.457 24.66 48.457 24.943V25.573H122.774C124.795 25.573 126.434 27.211 126.434 29.233V95.364C126.434 97.385 124.795 99.024 122.774 99.024H5.17698C3.15498 99.024 1.51698 97.385 1.51698 95.364V29.232C1.51698 27.211 3.15498 25.572 5.17698 25.572H10.247V24.942C10.248 24.66 10.29 24.379 10.371 24.108H5.17698C2.34698 24.108 0.0529785 26.402 0.0529785 29.232V95.364C0.0529785 98.194 2.34698 100.488 5.17698 100.488H122.774C125.604 100.488 127.898 98.194 127.898 95.364V29.232C127.898 26.402 125.604 24.108 122.774 24.108V24.108Z" fill="black"/>
</g>
<g id="services-cyber-security-img-cloud">
<path id="Vector_12" d="M68.66 71.189C69.983 71.113 71.24 71.776 71.924 72.911C72.609 74.046 72.609 75.467 71.924 76.601C71.24 77.737 69.983 78.4 68.66 78.324H58.292C56.752 78.324 55.502 77.074 55.502 75.534C55.502 73.994 56.752 72.744 58.292 72.744H58.492C58.206 70.395 59.859 68.249 62.205 67.923C64.551 67.598 66.725 69.213 67.089 71.554C67.579 71.312 68.119 71.187 68.666 71.188L68.659 71.19L68.66 71.189Z" fill="#FE5814"/>
<path id="Vector_13" d="M68.872 79.062H58.292C56.459 79.062 54.932 77.656 54.782 75.829C54.632 74.001 55.909 72.365 57.718 72.067C57.763 69.587 59.592 67.503 62.044 67.137C64.496 66.773 66.854 68.234 67.617 70.593C69.211 70.12 70.935 70.602 72.052 71.833C73.17 73.064 73.483 74.827 72.858 76.367C72.234 77.908 70.782 78.955 69.122 79.06C69.037 79.059 68.952 79.062 68.872 79.062V79.062ZM58.292 73.477C57.156 73.477 56.235 74.397 56.235 75.534C56.235 76.67 57.156 77.59 58.292 77.59H68.707C68.817 77.597 68.926 77.597 69.035 77.59C70.06 77.548 70.983 76.956 71.45 76.042C71.916 75.127 71.852 74.032 71.284 73.178C70.716 72.323 69.731 71.841 68.707 71.918H68.659C68.226 71.918 67.8 72.019 67.413 72.21L66.503 72.658L66.357 71.654C66.196 70.364 65.353 69.26 64.15 68.764C62.947 68.27 61.571 68.46 60.548 69.264C59.525 70.066 59.013 71.358 59.208 72.644L59.324 73.477H58.293H58.292Z" fill="black"/>
</g>
</g>
</g>
</svg>
