<svg width="156" height="131" viewBox="0 0 156 131" fill="none" xmlns="http://www.w3.org/2000/svg">
<g id="services-cloud-services 1">
<g id="Group">
<path id="Vector" d="M154.33 130H0.888977C0.398977 130 0.000976562 129.602 0.000976562 129.112C0.000976562 128.622 0.398977 128.224 0.888977 128.224H154.332C154.822 128.224 155.22 128.622 155.22 129.112C155.22 129.602 154.822 130 154.332 130H154.33Z" fill="black"/>
<g id="services-cloud-services-img-left-bar">
<path id="Vector_2" d="M33.413 81.161C32.923 81.161 32.525 80.763 32.525 80.273V31.539C32.525 31.049 32.923 30.651 33.413 30.651C33.903 30.651 34.301 31.048 34.301 31.539V80.273C34.301 80.763 33.904 81.161 33.413 81.161V81.161Z" fill="black"/>
<path id="Vector_3" d="M33.532 89.234C34.4422 89.234 35.18 88.4962 35.18 87.586C35.18 86.6758 34.4422 85.938 33.532 85.938C32.6219 85.938 31.884 86.6758 31.884 87.586C31.884 88.4962 32.6219 89.234 33.532 89.234Z" fill="black"/>
</g>
<g id="services-cloud-services-img-top-cloud">
<path id="Vector_4" d="M51.1479 15.888C51.1479 13.926 52.7379 12.336 54.6999 12.336H58.5359C55.6759 4.173 47.0959 -0.495003 38.6879 1.539C30.2809 3.573 24.7829 11.646 25.9699 20.214H25.1999C19.2239 20.214 14.3799 25.058 14.3799 31.034C14.3799 37.008 19.2239 41.852 25.1999 41.852H51.1479V15.888Z" fill="#FE5814"/>
<path id="Vector_5" d="M51.0599 40.964H25.1999C19.7149 40.964 15.2689 36.518 15.2689 31.034C15.2689 25.548 19.7149 21.102 25.1999 21.102H26.9939L26.8539 20.092C25.7319 11.9 31.0549 4.21 39.1169 2.376C47.1779 0.542999 55.3039 5.175 57.8339 13.046H59.6899C57.1939 4.28 48.4569 -1.163 39.4899 0.459999C30.5219 2.083 24.2469 10.243 24.9799 19.327C18.5539 19.439 13.4179 24.714 13.4789 31.143C13.5389 37.573 18.7729 42.75 25.2019 42.74H51.0599V40.964Z" fill="black"/>
</g>
<g id="services-cloud-services-img-right-bar">
<path id="Vector_6" d="M124.756 89.945C124.265 89.945 123.867 89.548 123.867 89.057V40.314C123.867 39.824 124.265 39.426 124.755 39.426C125.245 39.426 125.643 39.824 125.643 40.314V89.057C125.643 89.547 125.246 89.945 124.755 89.945H124.756Z" fill="black"/>
<path id="Vector_7" d="M124.638 34.656C125.548 34.656 126.286 33.9182 126.286 33.008C126.286 32.0978 125.548 31.36 124.638 31.36C123.728 31.36 122.99 32.0978 122.99 33.008C122.99 33.9182 123.728 34.656 124.638 34.656Z" fill="black"/>
</g>
<g id="services-cloud-services-img-stack">
<path id="Vector_8" d="M108.334 93.142H54.7C52.248 93.142 50.26 91.154 50.26 88.702V15.888C50.26 13.436 52.248 11.448 54.7 11.448H108.334C110.786 11.448 112.774 13.436 112.774 15.888V88.702C112.774 91.154 110.786 93.142 108.334 93.142ZM54.7 13.224C53.229 13.224 52.036 14.416 52.036 15.888V88.702C52.036 90.173 53.229 91.366 54.7 91.366H108.334C109.805 91.366 110.998 90.173 110.998 88.702V15.888C110.998 14.416 109.805 13.224 108.334 13.224H54.7Z" fill="black"/>
<path id="Vector_9" d="M51.1479 29.03H111.886V30.806H51.1479V29.03ZM51.1479 48.21H111.886V49.986H51.1479V48.21ZM51.1479 67.39H111.886V69.166H51.1479V67.39Z" fill="black"/>
<path id="Vector_10" d="M67.1191 23.645C68.0292 23.645 68.7671 22.9072 68.7671 21.997C68.7671 21.0868 68.0292 20.349 67.1191 20.349C66.2089 20.349 65.4711 21.0868 65.4711 21.997C65.4711 22.9072 66.2089 23.645 67.1191 23.645Z" fill="black"/>
<path id="Vector_11" d="M59.681 23.645C60.5911 23.645 61.329 22.9072 61.329 21.997C61.329 21.0868 60.5911 20.349 59.681 20.349C58.7708 20.349 58.033 21.0868 58.033 21.997C58.033 22.9072 58.7708 23.645 59.681 23.645Z" fill="black"/>
<path id="Vector_12" d="M74.5571 23.645C75.4672 23.645 76.2051 22.9072 76.2051 21.997C76.2051 21.0868 75.4672 20.349 74.5571 20.349C73.6469 20.349 72.9091 21.0868 72.9091 21.997C72.9091 22.9072 73.6469 23.645 74.5571 23.645Z" fill="black"/>
<path id="Vector_13" d="M96.422 41.227C97.3322 41.227 98.07 40.4892 98.07 39.579C98.07 38.6688 97.3322 37.931 96.422 37.931C95.5119 37.931 94.774 38.6688 94.774 39.579C94.774 40.4892 95.5119 41.227 96.422 41.227Z" fill="black"/>
<path id="Vector_14" d="M88.985 41.227C89.8952 41.227 90.633 40.4892 90.633 39.579C90.633 38.6688 89.8952 37.931 88.985 37.931C88.0749 37.931 87.337 38.6688 87.337 39.579C87.337 40.4892 88.0749 41.227 88.985 41.227Z" fill="black"/>
<path id="Vector_15" d="M103.86 41.227C104.77 41.227 105.508 40.4892 105.508 39.579C105.508 38.6688 104.77 37.931 103.86 37.931C102.95 37.931 102.212 38.6688 102.212 39.579C102.212 40.4892 102.95 41.227 103.86 41.227Z" fill="black"/>
<path id="Vector_16" d="M66.054 60.407C66.9642 60.407 67.702 59.6692 67.702 58.759C67.702 57.8488 66.9642 57.111 66.054 57.111C65.1438 57.111 64.406 57.8488 64.406 58.759C64.406 59.6692 65.1438 60.407 66.054 60.407Z" fill="black"/>
<path id="Vector_17" d="M58.616 60.407C59.5262 60.407 60.264 59.6692 60.264 58.759C60.264 57.8488 59.5262 57.111 58.616 57.111C57.7059 57.111 56.968 57.8488 56.968 58.759C56.968 59.6692 57.7059 60.407 58.616 60.407Z" fill="black"/>
</g>
<g id="services-cloud-services-img-cloud">
<path id="Vector_18" d="M119.041 75.095C126.663 74.67 133.896 78.495 137.835 85.035C141.774 91.573 141.774 99.755 137.835 106.295C133.895 112.834 126.663 116.658 119.041 116.233H59.231C50.417 116.141 43.318 108.968 43.318 100.151C43.318 91.335 50.416 84.161 59.232 84.069H60.382C58.749 70.519 68.274 58.158 81.793 56.285C95.313 54.41 107.84 63.717 109.951 77.2C112.779 75.808 115.889 75.087 119.041 75.094V75.095Z" fill="white"/>
<path id="Vector_19" d="M120.232 117.157C119.828 117.157 119.421 117.147 119.018 117.123H59.2319C49.9269 117.028 42.4349 109.458 42.4349 100.153C42.4349 90.848 49.9269 83.278 59.2319 83.183H59.3779C58.0179 69.37 67.7839 56.94 81.5259 54.99C95.2669 53.04 108.105 62.263 110.642 75.908C113.286 74.789 116.127 74.211 118.998 74.208H119.014C130.864 73.528 141.022 82.583 141.702 94.433C142.382 106.283 133.326 116.442 121.476 117.121C121.058 117.144 120.643 117.157 120.232 117.157V117.157ZM59.2319 84.957C50.9039 85.047 44.2019 91.823 44.2019 100.151C44.2019 108.479 50.9039 115.255 59.2319 115.345H119.091C119.848 115.389 120.608 115.389 121.366 115.345C128.398 114.939 134.679 110.812 137.843 104.519C141.007 98.226 140.573 90.723 136.705 84.836C132.837 78.949 126.123 75.573 119.091 75.98H118.998C115.998 75.983 113.038 76.673 110.344 77.995L109.241 78.539L109.063 77.32C107.942 68.724 102.298 61.39 94.2739 58.105C86.2519 54.821 77.0839 56.091 70.2559 61.433C63.4289 66.775 59.9899 75.367 61.2479 83.945L61.3879 84.955L59.2319 84.957V84.957Z" fill="black"/>
</g>
</g>
</g>
</svg>
