<svg width="168" height="130" viewBox="0 0 168 130" fill="none" xmlns="http://www.w3.org/2000/svg">
<g id="services-managed-it-solutions 1">
<g id="Group">
<path id="services-managed-it-solutions-img-backscreen" d="M166.863 6.589V5.959C166.859 2.67 164.197 0.007 160.91 0H48.54C45.25 0.004 42.585 2.67 42.581 5.959V6.589C42.551 6.855 42.535 7.123 42.535 7.39V97.658C42.535 101.593 45.725 104.782 49.658 104.782H159.791C163.725 104.782 166.915 101.592 166.915 97.658V7.387C166.912 7.12 166.895 6.854 166.863 6.589V6.589ZM44.357 6.698C44.704 4.038 46.97 2.047 49.653 2.046H159.79C162.47 2.049 164.734 4.038 165.081 6.696V21.393H44.362L44.357 6.698ZM159.79 103H49.658C46.708 103 44.316 100.608 44.316 97.657V23.174H165.134V97.658C165.134 100.609 162.742 103.001 159.791 103.001L159.79 103Z" fill="black"/>
<g id="Group_2">
<path id="Vector" d="M137.248 11.935H27.115C23.6726 11.935 20.882 14.7256 20.882 18.168V108.439C20.882 111.881 23.6726 114.672 27.115 114.672H137.248C140.69 114.672 143.481 111.881 143.481 108.439V18.168C143.481 14.7256 140.69 11.935 137.248 11.935Z" fill="white"/>
<path id="Vector_2" d="M137.248 115.563H27.115C23.181 115.563 19.991 112.373 19.991 108.439V18.164C19.991 14.231 23.181 11.041 27.115 11.041H137.248C141.182 11.041 144.371 14.231 144.371 18.164V108.439C144.371 112.374 141.181 115.563 137.248 115.563ZM27.115 12.821C24.164 12.821 21.772 15.213 21.772 18.163V108.438C21.772 111.389 24.164 113.781 27.115 113.781H137.248C140.198 113.781 142.59 111.389 142.59 108.438V18.164C142.59 15.214 140.198 12.822 137.248 12.822H27.115V12.821Z" fill="black"/>
<path id="Vector_3" d="M26 12.43H138.37C141.169 12.43 143.438 14.7 143.438 17.498V33.821H20.928V17.501C20.928 16.156 21.462 14.866 22.413 13.915C23.364 12.964 24.655 12.43 26 12.431V12.43Z" fill="white"/>
<path id="Vector_4" d="M144.325 34.713H20.038V17.501C20.041 14.209 22.708 11.542 26 11.54H138.37C141.659 11.544 144.324 14.209 144.328 17.498L144.325 34.713V34.713ZM21.818 32.933H142.545V17.5C142.543 15.195 140.676 13.325 138.371 13.32H26C23.694 13.323 21.825 15.192 21.822 17.498L21.818 32.933V32.933Z" fill="black"/>
<path id="Vector_5" d="M31.4009 24.78C32.3139 24.78 33.0539 24.0399 33.0539 23.127C33.0539 22.2141 32.3139 21.474 31.4009 21.474C30.488 21.474 29.7479 22.2141 29.7479 23.127C29.7479 24.0399 30.488 24.78 31.4009 24.78Z" fill="black"/>
<path id="Vector_6" d="M37.523 24.78C38.4359 24.78 39.176 24.0399 39.176 23.127C39.176 22.2141 38.4359 21.474 37.523 21.474C36.6101 21.474 35.87 22.2141 35.87 23.127C35.87 24.0399 36.6101 24.78 37.523 24.78Z" fill="black"/>
<path id="Vector_7" d="M43.644 24.78C44.5569 24.78 45.297 24.0399 45.297 23.127C45.297 22.2141 44.5569 21.474 43.644 21.474C42.731 21.474 41.991 22.2141 41.991 23.127C41.991 24.0399 42.731 24.78 43.644 24.78Z" fill="black"/>
</g>
<path id="Vector_8" d="M166.915 129.988H13.052C12.56 129.988 12.162 129.588 12.162 129.098C12.162 128.605 12.56 128.207 13.052 128.207H166.915C167.406 128.207 167.805 128.605 167.805 129.097C167.805 129.589 167.406 129.987 166.915 129.987V129.988Z" fill="black"/>
<g id="Group_3">
<g id="services-managed-it-solutions-img-left-tool">
<path id="Vector_9" d="M158.526 93.642L130.89 66L130.801 65.916C133.171 58.731 130.911 50.826 125.098 45.982C119.287 41.137 111.105 40.337 104.464 43.962C104.7 44.136 104.922 44.328 105.13 44.536L114.94 54.346C117.198 56.604 117.198 60.264 114.94 62.522C112.683 64.78 109.022 64.78 106.765 62.522L96.949 52.712C96.826 52.589 96.71 52.46 96.592 52.329C93.477 58.995 94.623 66.876 99.51 72.378C104.396 77.88 112.086 79.949 119.074 77.643L119.157 77.733L146.8 105.368C148.355 106.923 150.464 107.797 152.664 107.797C154.863 107.797 156.972 106.923 158.527 105.367C160.082 103.813 160.956 101.704 160.956 99.504C160.956 97.305 160.082 95.196 158.526 93.641V93.642Z" fill="white"/>
<path id="Vector_10" d="M152.662 108.688C150.225 108.695 147.887 107.726 146.169 105.999L118.822 78.651C111.529 80.825 103.639 78.516 98.668 72.753C93.698 66.99 92.572 58.846 95.793 51.951C95.922 51.676 96.183 51.485 96.484 51.446C96.786 51.406 97.086 51.524 97.282 51.757C97.383 51.878 97.479 51.985 97.577 52.083L107.384 61.893C108.62 63.129 110.421 63.612 112.108 63.159C113.796 62.707 115.115 61.389 115.567 59.701C116.019 58.013 115.537 56.212 114.301 54.977L104.491 45.167C104.315 44.99 104.126 44.827 103.926 44.68C103.681 44.5 103.546 44.207 103.566 43.904C103.586 43.601 103.759 43.329 104.026 43.182C110.899 39.432 119.356 40.199 125.442 45.124C131.528 50.05 134.042 58.161 131.806 65.665L159.155 93.012C161.778 95.638 162.562 99.586 161.141 103.015C159.721 106.445 156.374 108.682 152.661 108.683V108.688H152.662ZM119.074 76.753C119.315 76.753 119.547 76.851 119.714 77.025L119.789 77.103L147.428 104.738C150.318 107.628 155.005 107.628 157.895 104.738C160.786 101.848 160.786 97.161 157.895 94.271L130.254 66.63L130.174 66.553C129.929 66.315 129.842 65.959 129.949 65.636C132.13 59.018 130.189 51.736 125.001 47.083C119.814 42.43 112.365 41.288 106.021 44.173L115.564 53.715C117.25 55.401 117.908 57.858 117.291 60.161C116.674 62.465 114.875 64.263 112.571 64.881C110.269 65.498 107.811 64.839 106.125 63.153L96.888 53.916C94.494 60.242 95.948 67.38 100.625 72.264C105.302 77.149 112.369 78.912 118.792 76.795C118.883 76.766 118.978 76.752 119.074 76.753Z" fill="black"/>
</g>
<g id="services-managed-it-solutions-img-right-tool">
<path id="Vector_11" d="M162.998 45.782L157.758 41.848L148.588 49.709L151.201 51.668C151.148 51.728 151.095 51.789 151.045 51.855L139.55 67.118L143.814 70.324L155.308 55.06C155.36 54.993 155.406 54.922 155.45 54.85L159.065 57.562L162.998 45.782V45.782Z" fill="white"/>
<path id="Vector_12" d="M143.816 71.232C143.624 71.232 143.436 71.17 143.282 71.054L139.019 67.848C138.829 67.707 138.705 67.496 138.672 67.262C138.638 67.028 138.699 66.791 138.841 66.602L149.946 51.844L148.055 50.42C147.838 50.257 147.708 50.006 147.699 49.736C147.69 49.466 147.805 49.206 148.01 49.031L157.181 41.17C157.498 40.899 157.961 40.884 158.294 41.134L163.535 45.064C163.842 45.294 163.966 45.695 163.845 46.058L159.918 57.855C159.828 58.125 159.613 58.337 159.34 58.423C159.067 58.508 158.77 58.457 158.54 58.285L155.645 56.115L144.527 70.875C144.385 71.065 144.173 71.189 143.939 71.221C143.899 71.228 143.857 71.231 143.816 71.232V71.232ZM140.8 66.958L143.649 69.095L154.606 54.542C154.636 54.502 154.669 54.455 154.702 54.402C154.834 54.188 155.049 54.04 155.295 53.993C155.541 53.946 155.795 54.005 155.995 54.156L158.622 56.127L161.959 46.117L157.805 43.001L150.01 49.666L151.737 50.961C151.937 51.111 152.065 51.339 152.089 51.588C152.113 51.837 152.031 52.084 151.864 52.27C151.828 52.309 151.793 52.35 151.759 52.395L140.799 66.958H140.8Z" fill="black"/>
<path id="Vector_13" d="M147.23 71.0964L138.708 64.6786C137.529 63.7913 135.855 64.0272 134.967 65.2056L110.634 97.5205C109.746 98.699 109.982 100.374 111.161 101.261L119.684 107.679C120.862 108.566 122.537 108.33 123.424 107.152L147.757 74.8368C148.645 73.6584 148.409 71.9838 147.23 71.0964Z" fill="white"/>
<path id="Vector_14" d="M121.289 109.103C120.519 109.104 119.768 108.854 119.152 108.391L110.629 101.98C109.059 100.797 108.743 98.565 109.925 96.993L134.257 64.67C135.44 63.099 137.672 62.784 139.243 63.966L147.766 70.377C149.336 71.56 149.652 73.792 148.47 75.364L124.138 107.685C123.464 108.58 122.408 109.105 121.288 109.103H121.289ZM137.104 65.031C136.544 65.031 136.016 65.295 135.68 65.744L111.348 98.054C110.758 98.842 110.918 99.958 111.705 100.548L120.228 106.958C120.605 107.242 121.08 107.364 121.548 107.298C122.015 107.23 122.438 106.981 122.721 106.603L147.048 74.3C147.332 73.923 147.454 73.448 147.387 72.98C147.32 72.513 147.07 72.09 146.692 71.807L138.169 65.397C137.863 65.163 137.489 65.035 137.104 65.031V65.031Z" fill="black"/>
</g>
</g>
<g id="services-managed-it-solutions-img-cloud">
<path id="Vector_15" d="M45.11 55.419C49.556 55.165 53.777 57.392 56.077 61.206C58.377 65.019 58.377 69.793 56.077 73.606C53.777 77.42 49.556 79.647 45.11 79.393H10.258C5.13204 79.323 1.01404 75.147 1.01404 70.021C1.01404 64.895 5.13204 60.721 10.258 60.65H10.925C9.92204 52.725 15.48 45.468 23.392 44.372C31.304 43.276 38.626 48.749 39.814 56.648C41.461 55.837 43.274 55.418 45.11 55.421V55.419V55.419Z" fill="#FE5814"/>
<path id="Vector_16" d="M45.803 80.303C45.563 80.303 45.323 80.303 45.09 80.283H10.258C4.65602 80.277 0.0940236 75.781 0.00602357 70.181C-0.0809764 64.58 4.33802 59.943 9.93702 59.763C9.35702 51.663 15.137 44.493 23.177 43.342C31.213 42.19 38.774 47.446 40.493 55.384C41.959 54.824 43.515 54.534 45.084 54.532C52.195 54.129 58.288 59.566 58.691 66.678C59.095 73.789 53.657 79.881 46.546 80.285C46.3 80.295 46.051 80.303 45.802 80.303H45.803ZM10.258 61.538C5.62102 61.605 1.89802 65.383 1.89802 70.019C1.89802 74.656 5.62102 78.433 10.258 78.501H45.162C49.28 78.74 53.192 76.678 55.324 73.146C57.454 69.614 57.454 65.192 55.324 61.66C53.192 58.128 49.28 56.067 45.162 56.306H45.085C43.394 56.308 41.725 56.697 40.207 57.442L39.102 57.987L38.923 56.766C37.713 49.442 30.886 44.417 23.533 45.436C16.18 46.456 10.979 53.15 11.807 60.526L11.947 61.54L10.257 61.538H10.258Z" fill="black"/>
</g>
</g>
</g>
</svg>
