<svg width="156" height="131" viewBox="0 0 156 131" fill="none" xmlns="http://www.w3.org/2000/svg">
<g id="services-data-analytics 1">
<g id="Group">
<g id="Group_2">
<path id="Vector" fill-rule="evenodd" clip-rule="evenodd" d="M29.615 69.135H51.222V84.34H29.615V69.135ZM29.615 84.34H51.222V99.545H29.615V84.34ZM51.223 84.34H72.83V99.545H51.223V84.34ZM72.83 84.34H94.437V99.545H72.83V84.34ZM94.437 84.34H116.044V99.545H94.437V84.34ZM29.615 99.545H51.222V114.75H29.615V99.545ZM51.223 99.545H72.83V114.75H51.223V99.545ZM72.83 99.545H94.437V114.75H72.83V99.545ZM94.437 99.545H116.044V114.75H94.437V99.545ZM68.142 69.446C68.142 66.828 70.238 64.693 72.855 64.644V61.844H51.248V77.049H72.855V74.246C70.239 74.197 68.143 72.063 68.142 69.446V69.446ZM99.189 76.737C99.189 74.12 97.094 71.984 94.477 71.936V69.135H116.084V84.34H94.477V81.537C97.093 81.489 99.189 79.354 99.189 76.737V76.737Z" stroke="black" stroke-width="1.778" stroke-linecap="round" stroke-linejoin="round"/>
</g>
<g id="Group_3">
<path id="Vector_2" d="M44.536 20.643C44.536 20.643 49.91 24.424 51.602 28.207C53.293 31.989 55.336 39.702 56.03 41.392C56.723 43.082 58.164 45.919 58.32 48.658C58.429 50.614 58.534 52.795 58.941 54.705C59.389 56.805 61.326 58.665 62.427 60.451C62.427 60.451 58.553 64.087 54.18 56.307C54.18 56.307 52.427 51.763 50.111 51.861C47.864 51.962 46.316 53.839 45.368 55.697C44.986 56.467 44.664 57.267 44.406 58.089C44.051 59.156 44.36 59.962 44.549 61.043L44.963 63.42L45.484 66.415C52.985 69.215 50.641 71.573 50.641 71.573C50.641 71.573 47.984 71.457 47.038 71.457C46.092 71.457 44.935 70.975 44.935 70.975C44.935 70.975 43.137 70.264 41.792 69.668C40.725 69.188 40.439 67.908 40.439 67.908L37.727 59.705L34.89 68.597C39.719 78.441 34.48 78.711 34.48 78.711C34.48 78.711 30.812 69.529 30.464 68.396C30.254 67.684 30.184 66.939 30.256 66.2L32.39 57.73L28.696 62.097L27.549 66.492C29.303 74.578 25.152 73.332 25.152 73.332C25.152 73.332 24.032 69.113 23.694 68.094C23.488 67.381 23.411 66.638 23.466 65.898C23.466 65.898 23.628 62.61 23.758 61.144C23.91 59.41 24.705 58.523 24.705 58.523L30.115 51.053L26.203 51.913L23.926 54.413C23.926 58.742 21.314 58.517 21.314 58.517C21.314 58.517 21.074 56.303 20.919 54.746C20.765 53.188 21.31 52.496 21.31 52.496C21.31 52.496 21.904 51.228 22.523 50.107C22.938 49.401 23.525 48.811 24.231 48.395L31.243 44.858L34.977 32.168L34.007 31.2L44.537 20.643H44.536Z" fill="white"/>
<path id="Vector_3" d="M34.472 79.591C34.109 79.591 33.782 79.369 33.647 79.031C33.497 78.654 29.962 69.803 29.607 68.656C29.36 67.821 29.279 66.946 29.367 66.081C29.371 66.047 29.377 66.013 29.387 65.98L30.581 61.231L29.496 62.514L28.454 66.511C29.196 70.068 28.936 72.366 27.659 73.545C26.903 74.213 25.859 74.453 24.887 74.181C24.592 74.093 24.363 73.857 24.284 73.559C24.274 73.516 23.167 69.355 22.842 68.373C22.6 67.551 22.509 66.692 22.572 65.837C22.586 65.563 22.739 62.496 22.865 61.066C23.025 59.246 23.8 58.21 23.998 57.972L28.02 52.418L26.656 52.716L24.794 54.756C24.739 56.492 24.261 57.779 23.393 58.581C22.808 59.134 22.026 59.428 21.222 59.398C20.798 59.361 20.46 59.03 20.414 58.608C20.414 58.587 20.172 56.373 20.019 54.829C19.865 53.246 20.316 52.357 20.523 52.046C20.658 51.763 21.179 50.671 21.73 49.674C22.224 48.817 22.934 48.106 23.79 47.611L23.814 47.598L30.482 44.233L33.957 32.421L33.359 31.824C33.012 31.477 33.012 30.914 33.359 30.567L43.909 20.017C44.214 19.712 44.695 19.671 45.049 19.919C45.276 20.079 50.643 23.887 52.414 27.847C53.51 30.293 54.751 34.363 55.656 37.337C56.17 39.021 56.613 40.476 56.853 41.057C56.965 41.331 57.099 41.633 57.241 41.962C58.015 43.741 59.074 46.167 59.21 48.614L59.226 48.893C59.326 50.713 59.439 52.773 59.813 54.525C60.078 55.77 61.008 56.995 61.907 58.187C62.352 58.775 62.813 59.385 63.184 59.99C63.406 60.35 63.344 60.816 63.037 61.105C62.031 61.96 60.703 62.336 59.398 62.136C57.245 61.806 55.228 59.992 53.401 56.744C53.381 56.707 53.361 56.669 53.346 56.629C52.846 55.341 51.403 52.704 50.146 52.755C48.217 52.843 46.91 54.626 46.155 56.108C45.792 56.838 45.489 57.594 45.245 58.372C45.038 59.008 45.139 59.506 45.294 60.26C45.336 60.465 45.379 60.676 45.418 60.899L46.032 64.419L46.268 65.775C49.648 67.1 51.465 68.521 51.81 70.111C51.984 70.856 51.778 71.639 51.26 72.202C51.084 72.378 50.842 72.472 50.593 72.462C50.567 72.462 47.945 72.346 47.037 72.346C45.97 72.346 44.777 71.871 44.6 71.798C44.424 71.726 42.742 71.069 41.428 70.478C40.087 69.876 39.663 68.475 39.583 68.151L37.741 62.581L35.838 68.521C37.883 72.789 38.344 75.939 37.208 77.871C36.64 78.844 35.639 79.484 34.518 79.591H34.472V79.591ZM31.122 66.355C31.072 66.953 31.133 67.556 31.3 68.133C31.552 68.953 33.827 74.699 34.993 77.626C35.283 77.469 35.523 77.233 35.683 76.946C36.144 76.132 36.548 74.018 34.083 68.981C33.983 68.775 33.965 68.538 34.035 68.32L36.871 59.428C36.989 59.061 37.329 58.811 37.714 58.809C38.098 58.811 38.439 59.056 38.563 59.419L41.275 67.623C41.284 67.651 41.292 67.681 41.298 67.71C41.298 67.71 41.509 68.565 42.148 68.852C43.457 69.439 45.232 70.134 45.249 70.141H45.267C45.545 70.257 46.405 70.555 47.029 70.555C47.718 70.555 49.249 70.614 50.09 70.648C50.093 70.578 50.085 70.508 50.067 70.442C49.947 69.985 49.233 68.759 45.171 67.24C44.875 67.13 44.66 66.87 44.606 66.56L44.284 64.706L43.67 61.186C43.635 60.982 43.595 60.788 43.556 60.602C43.378 59.759 43.201 58.887 43.556 57.802C43.829 56.945 44.17 56.112 44.574 55.307C45.966 52.579 47.865 51.087 50.069 50.987C51.374 50.933 52.609 51.801 53.757 53.574C54.235 54.321 54.644 55.111 54.981 55.932C56.494 58.599 58.116 60.148 59.668 60.378C60.179 60.456 60.702 60.39 61.177 60.186C60.96 59.883 60.727 59.572 60.485 59.254C59.468 57.907 58.416 56.515 58.07 54.89C57.668 52.996 57.55 50.862 57.442 48.987L57.426 48.707C57.309 46.574 56.323 44.321 55.603 42.661C55.455 42.321 55.317 42.007 55.201 41.724C54.929 41.064 54.49 39.644 53.956 37.846C53.067 34.918 51.842 30.91 50.793 28.564C49.548 25.77 46.035 22.889 44.623 21.806L35.244 31.193L35.586 31.534C35.816 31.764 35.902 32.102 35.81 32.414L32.075 45.104C32.005 45.338 31.842 45.534 31.623 45.646L24.629 49.174C24.076 49.51 23.613 49.976 23.283 50.533C22.685 51.613 22.102 52.855 22.097 52.868C22.074 52.926 22.042 52.98 22 53.028C21.947 53.117 21.684 53.616 21.785 54.655C21.871 55.517 21.983 56.593 22.066 57.372C22.118 57.334 22.168 57.292 22.214 57.248C22.747 56.741 23.018 55.759 23.018 54.402C23.018 54.181 23.1 53.967 23.248 53.803L25.525 51.303C25.649 51.166 25.813 51.072 25.993 51.033L29.905 50.173C30.266 50.094 30.638 50.246 30.84 50.555C31.042 50.864 31.033 51.265 30.816 51.564L25.406 59.034C25.388 59.058 25.369 59.082 25.349 59.104C25.331 59.126 24.746 59.83 24.624 61.212C24.497 62.643 24.337 65.898 24.336 65.932C24.334 65.965 24.336 65.956 24.336 65.969C24.292 66.587 24.355 67.209 24.522 67.806C24.789 68.612 25.511 71.286 25.835 72.496C26.067 72.476 26.285 72.378 26.455 72.22C26.811 71.886 27.531 70.675 26.663 66.67C26.631 66.534 26.631 66.393 26.663 66.257L27.813 61.863C27.843 61.733 27.905 61.611 27.99 61.507L31.684 57.139C31.951 56.822 32.401 56.732 32.77 56.921C33.138 57.111 33.327 57.529 33.226 57.931L31.122 66.355V66.355Z" fill="black"/>
<path id="Vector_4" d="M33.094 31.607L44.536 20.295C44.746 20.089 44.863 19.808 44.863 19.515C44.863 19.222 44.745 18.941 44.536 18.735L37.641 11.915C37.203 11.485 36.501 11.485 36.064 11.915L24.622 23.227C24.412 23.433 24.295 23.714 24.295 24.007C24.295 24.3 24.413 24.581 24.622 24.787L31.517 31.605C31.954 32.035 32.656 32.036 33.094 31.607V31.607Z" fill="white"/>
<path id="Vector_5" d="M32.304 32.818C31.772 32.822 31.261 32.614 30.882 32.24L23.996 25.43C23.618 25.058 23.406 24.55 23.406 24.019C23.406 23.488 23.618 22.979 23.996 22.607L35.438 11.294C36.223 10.523 37.482 10.523 38.268 11.294L45.162 18.111C45.54 18.483 45.753 18.992 45.753 19.523C45.753 20.053 45.54 20.563 45.163 20.935L33.719 32.247C33.341 32.617 32.832 32.822 32.303 32.818H32.304ZM36.852 12.486C36.791 12.486 36.732 12.509 36.688 12.552L25.253 23.862C25.213 23.901 25.19 23.954 25.19 24.01C25.19 24.065 25.213 24.119 25.253 24.157L32.148 30.976C32.239 31.063 32.384 31.063 32.475 30.976L43.918 19.663C43.958 19.625 43.981 19.571 43.981 19.516C43.981 19.46 43.959 19.406 43.918 19.368L37.018 12.552C36.974 12.509 36.914 12.485 36.853 12.486H36.852Z" fill="black"/>
</g>
<path id="Vector_6" d="M154.542 129.956H0.889C0.399 129.956 0 129.557 0 129.066C0 128.576 0.398 128.177 0.89 128.177H154.542C155.032 128.177 155.431 128.575 155.431 129.067C155.431 129.557 155.033 129.956 154.541 129.956H154.542Z" fill="black"/>
<g id="services-data-analytics-img-right-hand">
<path id="Vector_7" d="M133.459 42.466C133.347 42.173 132.909 41.043 132.436 40.01C132.008 39.117 131.352 38.353 130.534 37.794L130.509 37.78L124.131 33.917L121.558 21.874L121.78 21.684L121.807 21.714C122.531 22.543 123.786 22.639 124.627 21.929L132.022 15.649C132.428 15.307 132.679 14.816 132.719 14.286C132.759 13.756 132.586 13.233 132.237 12.833L121.69 0.690007C120.965 -0.138993 119.71 -0.233993 118.87 0.475007L111.475 6.74501C110.847 7.27601 110.612 8.13901 110.885 8.91501C109.362 9.89301 105.211 12.753 103.502 15.905C102.223 18.26 100.676 22.226 99.547 25.121C98.907 26.763 98.354 28.181 98.071 28.741C97.937 29.004 97.783 29.297 97.614 29.614C96.707 31.323 95.466 33.664 95.145 36.094L95.108 36.37C94.87 38.177 94.599 40.224 94.094 41.941C93.739 43.156 92.714 44.314 91.727 45.434C91.238 45.987 90.733 46.56 90.315 47.134C90.067 47.476 90.093 47.944 90.378 48.256C91.313 49.187 92.606 49.666 93.922 49.567C96.093 49.402 98.243 47.747 100.312 44.648C100.335 44.613 100.356 44.576 100.374 44.538C100.73 43.825 101.15 43.147 101.629 42.511C102.459 41.429 103.274 40.848 103.859 40.921C105.779 41.154 106.945 43.037 107.592 44.566C107.898 45.322 108.144 46.1 108.327 46.894C108.485 47.545 108.347 48.032 108.135 48.772C108.078 48.973 108.017 49.179 107.957 49.398L107.067 52.916L106.742 54.196C103.271 55.263 101.352 56.538 100.886 58.098C100.654 58.83 100.8 59.63 101.277 60.232C101.44 60.422 101.674 60.533 101.923 60.542C101.95 60.542 104.573 60.629 105.48 60.698C106.547 60.78 107.768 60.398 107.95 60.342C108.131 60.287 109.858 59.757 111.215 59.275C112.598 58.777 113.127 57.412 113.232 57.095L115.492 51.682L116.931 57.748C114.567 61.852 113.868 64.954 114.853 66.967C115.345 67.979 116.294 68.694 117.403 68.886C117.782 68.934 118.148 68.737 118.316 68.395C118.494 68.039 122.693 59.475 123.134 58.358C123.444 57.545 123.591 56.679 123.569 55.809C123.567 55.775 123.563 55.74 123.557 55.706L122.728 50.862L123.712 52.224L124.448 56.288C123.438 59.773 123.521 62.088 124.704 63.362C125.409 64.084 126.432 64.4 127.421 64.2C127.723 64.133 127.969 63.915 128.071 63.624C128.085 63.583 129.506 59.517 129.904 58.562C130.207 57.762 130.364 56.912 130.366 56.056C130.366 55.783 130.453 52.711 130.437 51.274C130.417 49.448 129.727 48.356 129.548 48.104L125.961 42.26L127.299 42.662L128.997 44.84C128.919 46.574 129.29 47.894 130.103 48.753C130.646 49.345 131.403 49.697 132.205 49.731C132.63 49.727 132.993 49.423 133.071 49.005C133.071 48.984 133.484 46.795 133.752 45.271C134.022 43.713 133.639 42.793 133.459 42.466V42.466ZM112.625 8.10201L120.02 1.83201C120.062 1.79701 120.115 1.77801 120.17 1.77801C120.237 1.77801 120.302 1.80601 120.347 1.85701L130.889 14.007C130.927 14.048 130.945 14.103 130.941 14.159C130.937 14.215 130.909 14.266 130.866 14.302L123.472 20.574C123.374 20.655 123.229 20.644 123.144 20.549L112.602 8.39801C112.565 8.35601 112.547 8.30101 112.552 8.24601C112.556 8.19101 112.582 8.13901 112.625 8.10401V8.10201ZM131.997 44.97C131.846 45.825 131.652 46.889 131.51 47.659C131.47 47.625 131.433 47.589 131.398 47.55C130.895 47.017 130.686 46.002 130.788 44.63C130.807 44.41 130.744 44.19 130.61 44.015L128.531 41.347C128.418 41.203 128.263 41.097 128.086 41.043L124.243 39.889C123.89 39.783 123.509 39.906 123.283 40.199C123.059 40.49 123.037 40.891 123.23 41.205L128.044 49.069C128.057 49.092 128.072 49.114 128.088 49.135C128.111 49.165 128.641 49.912 128.658 51.299C128.673 52.736 128.586 55.994 128.586 56.028V56.064C128.583 56.684 128.473 57.3 128.261 57.883C127.934 58.667 127.016 61.278 126.594 62.46C126.364 62.423 126.154 62.31 125.997 62.139C125.671 61.783 125.042 60.515 126.212 56.589C126.252 56.454 126.26 56.313 126.235 56.176L125.426 51.706C125.401 51.578 125.348 51.456 125.271 51.351L121.921 46.715C121.68 46.375 121.235 46.248 120.851 46.409C120.467 46.57 120.246 46.977 120.321 47.387L121.791 55.934C121.794 56.534 121.687 57.13 121.476 57.693C121.161 58.491 118.453 64.05 117.069 66.878C116.8 66.703 116.585 66.457 116.447 66.167C116.037 65.325 115.773 63.19 118.64 58.32C118.756 58.123 118.792 57.888 118.74 57.664L116.587 48.594C116.499 48.219 116.178 47.944 115.794 47.914H115.721C115.363 47.914 115.04 48.129 114.901 48.459L111.572 56.432C111.561 56.459 111.55 56.487 111.542 56.515C111.542 56.515 111.262 57.355 110.608 57.582C109.26 58.068 107.436 58.626 107.418 58.632H107.4C107.114 58.726 106.234 58.959 105.611 58.911C104.927 58.859 103.394 58.801 102.552 58.771C102.554 58.71 102.564 58.651 102.581 58.592C102.686 58.237 103.367 56.992 107.717 55.747C108.021 55.659 108.255 55.417 108.332 55.11L108.78 53.343L109.67 49.825C109.721 49.625 109.774 49.434 109.828 49.251C110.064 48.424 110.31 47.568 110.039 46.461C109.835 45.576 109.559 44.71 109.218 43.869C108.037 41.043 106.257 39.409 104.06 39.144C102.771 38.988 101.468 39.761 100.185 41.442C99.652 42.152 99.184 42.907 98.785 43.7C97.084 46.236 95.362 47.647 93.806 47.79C93.285 47.834 92.761 47.727 92.298 47.483C92.537 47.197 92.794 46.905 93.061 46.604C94.178 45.34 95.332 44.031 95.801 42.438C96.346 40.586 96.625 38.466 96.869 36.598L96.906 36.322C97.186 34.209 98.339 32.032 99.182 30.441C99.36 30.111 99.517 29.809 99.655 29.535C99.977 28.899 100.516 27.515 101.201 25.762C102.314 22.916 103.838 19.004 105.063 16.749C106.525 14.065 110.243 11.459 111.731 10.492L120.366 20.556L120 20.871C119.753 21.083 119.64 21.413 119.708 21.731L122.463 34.668C122.514 34.908 122.663 35.117 122.873 35.244L129.575 39.294C130.103 39.67 130.531 40.171 130.82 40.752C131.332 41.874 131.82 43.158 131.825 43.17C131.842 43.23 131.871 43.287 131.908 43.337C131.956 43.427 132.177 43.946 131.998 44.97H131.997Z" fill="black"/>
<g id="Group_4">
<path id="Vector_8" d="M95.6481 52.013C97.4701 51.909 99.1991 52.821 100.141 54.383C101.083 55.946 101.083 57.901 100.141 59.463C99.1991 61.026 97.4701 61.939 95.6481 61.835H81.3681C79.2471 61.835 77.5281 60.115 77.5281 57.995C77.5281 55.873 79.2471 54.154 81.3681 54.154H81.6421C81.2301 50.906 83.5071 47.932 86.7501 47.484C89.9921 47.034 92.9921 49.277 93.4781 52.514C94.1531 52.182 94.8961 52.009 95.6481 52.011V52.013V52.013Z" fill="#FE5814"/>
<path id="Vector_9" d="M95.9331 62.733H81.3681C78.8821 62.74 76.8141 60.822 76.6371 58.342C76.4591 55.862 78.2321 53.668 80.6941 53.322C80.7071 49.928 83.1971 47.052 86.5541 46.556C89.9121 46.059 93.1281 48.089 94.1241 51.333C96.2771 50.648 98.6321 51.266 100.171 52.919C101.711 54.573 102.159 56.966 101.321 59.064C100.485 61.163 98.5131 62.591 96.2581 62.731L95.9331 62.733V62.733ZM81.3681 55.045C79.7381 55.045 78.4161 56.366 78.4161 57.996C78.4161 59.626 79.7381 60.947 81.3681 60.947H95.7001C95.8551 60.956 96.0101 60.956 96.1661 60.947C98.3881 60.819 100.085 58.913 99.9561 56.691C99.8281 54.468 97.9221 52.771 95.7001 52.9H95.6461C95.0301 52.896 94.4201 53.036 93.8681 53.31L92.7641 53.855L92.5861 52.635C92.3951 50.785 91.2091 49.186 89.4941 48.467C87.7791 47.747 85.8081 48.021 84.3541 49.181C82.9001 50.341 82.1961 52.203 82.5171 54.036L82.6571 55.048L81.3671 55.046L81.3681 55.045Z" fill="black"/>
</g>
</g>
</g>
</g>
</svg>
