<svg width="166" height="130" viewBox="0 0 166 130" fill="none" xmlns="http://www.w3.org/2000/svg">
<g id="services-digital-solutions 1">
<g id="Group">
<path id="Vector" d="M164.92 129.83H0.949C0.425 129.83 0 129.404 0 128.88C0 128.356 0.425 127.931 0.949 127.931H164.919C165.444 127.931 165.869 128.356 165.869 128.881C165.869 129.404 165.444 129.829 164.919 129.829L164.92 129.83Z" fill="black"/>
<g id="Group_2">
<path id="Vector_2" d="M107.661 107.416H63.7111L75.2881 92.044H96.0921L107.661 107.416ZM67.5151 105.518H103.858L95.1451 93.942H76.2271L67.5151 105.518Z" fill="black"/>
<path id="Vector_3" d="M122.356 115.785H49.016C47.444 115.785 46.17 114.511 46.17 112.939V108.278C46.17 106.705 47.444 105.431 49.017 105.431H122.356C123.928 105.431 125.202 106.705 125.202 108.278V112.938C125.202 114.511 123.928 115.785 122.356 115.785V115.785ZM49.016 107.329C48.493 107.329 48.068 107.754 48.068 108.278V112.938C48.068 113.463 48.493 113.888 49.017 113.888H122.356C122.88 113.888 123.304 113.463 123.304 112.938V108.278C123.304 107.754 122.88 107.328 122.356 107.328H49.016V107.329ZM149.358 94.038H73.445C72.921 94.038 72.496 93.614 72.496 93.089C72.496 92.565 72.921 92.141 73.446 92.141H149.358C151.815 92.137 153.807 90.146 153.81 87.688V80.657H117.628C117.104 80.657 116.679 80.232 116.679 79.708C116.679 79.184 117.104 78.759 117.629 78.759H155.706V87.689C155.702 91.193 152.862 94.033 149.358 94.039V94.038ZM67.752 94.038H22.015C18.509 94.034 15.669 91.194 15.665 87.688V78.76H30.325C30.849 78.76 31.274 79.185 31.274 79.709C31.274 80.233 30.849 80.658 30.325 80.658H17.565V87.689C17.567 90.146 19.558 92.137 22.015 92.142H67.752C68.276 92.142 68.701 92.566 68.701 93.09C68.701 93.615 68.276 94.04 67.751 94.04L67.752 94.038ZM111.935 80.657H36.022C35.498 80.657 35.073 80.232 35.073 79.708C35.073 79.184 35.498 78.759 36.023 78.759H111.935C112.459 78.759 112.884 79.184 112.884 79.708C112.884 80.232 112.459 80.657 111.934 80.657H111.935Z" fill="black"/>
<path id="Vector_4" d="M154.757 11.654V14.33H153.825C153.883 14.629 153.912 14.932 153.912 15.236V87.299C153.912 89.919 151.788 92.044 149.168 92.044H22.204C19.584 92.044 17.46 89.92 17.46 87.299V15.238C17.46 14.934 17.49 14.631 17.547 14.332H16.615V11.654C15.927 12.723 15.562 13.967 15.562 15.238V87.299C15.562 90.968 18.536 93.942 22.204 93.942H149.168C152.836 93.942 155.81 90.968 155.81 87.299V15.238C155.81 13.967 155.446 12.723 154.757 11.654Z" fill="black"/>
<path id="Vector_5" d="M155.706 15.28H15.666V6.35C15.672 2.845 18.51 0.005 22.015 0H149.358C152.863 0.004 155.704 2.845 155.708 6.35L155.706 15.28V15.28ZM17.566 13.38H153.808V6.35C153.805 3.892 151.814 1.901 149.358 1.897H22.015C19.558 1.901 17.567 3.892 17.565 6.349L17.566 13.38V13.38Z" fill="black"/>
<path id="Vector_6" d="M25.6281 9.40201C26.6006 9.40201 27.3891 8.61358 27.3891 7.641C27.3891 6.66843 26.6006 5.88 25.6281 5.88C24.6555 5.88 23.8671 6.66843 23.8671 7.641C23.8671 8.61358 24.6555 9.40201 25.6281 9.40201Z" fill="black"/>
<path id="Vector_7" d="M32.153 9.40201C33.1255 9.40201 33.914 8.61358 33.914 7.641C33.914 6.66843 33.1255 5.88 32.153 5.88C31.1804 5.88 30.392 6.66843 30.392 7.641C30.392 8.61358 31.1804 9.40201 32.153 9.40201Z" fill="black"/>
<path id="Vector_8" d="M38.6751 9.40201C39.6476 9.40201 40.4361 8.61358 40.4361 7.641C40.4361 6.66843 39.6476 5.88 38.6751 5.88C37.7025 5.88 36.9141 6.66843 36.9141 7.641C36.9141 8.61358 37.7025 9.40201 38.6751 9.40201Z" fill="black"/>
<path id="Vector_9" d="M130.759 68.34H38.905C37.333 68.34 36.058 67.066 36.058 65.493V23.173C36.058 21.6 37.333 20.326 38.905 20.326H130.759C132.331 20.326 133.606 21.6 133.606 23.172V65.493C133.606 67.066 132.331 68.34 130.759 68.34ZM38.905 22.223C38.381 22.223 37.956 22.648 37.956 23.173V65.493C37.956 66.017 38.381 66.443 38.906 66.443H130.759C131.283 66.443 131.708 66.017 131.708 65.493V23.173C131.708 22.648 131.283 22.223 130.759 22.223H38.905V22.223Z" fill="black"/>
<path id="Vector_10" d="M93.2921 40.941C95.7041 40.766 98.0111 41.952 99.2701 44.016C100.529 46.08 100.529 48.674 99.2701 50.738C98.0101 52.801 95.7041 53.988 93.2931 53.812H74.5821C71.8591 53.738 69.6901 51.508 69.6901 48.783C69.6901 46.058 71.8601 43.829 74.5831 43.754H74.9421C74.4011 39.5 77.3821 35.602 81.6301 35.012C85.8781 34.422 89.8101 37.359 90.4491 41.6C91.3341 41.164 92.3091 40.939 93.2951 40.941H93.2921Z" fill="#FE5814"/>
<path id="Vector_11" d="M93.6641 54.77C93.5321 54.77 93.3991 54.77 93.2661 54.76H74.5841C71.4071 54.764 68.7811 52.284 68.6041 49.112C68.4281 45.94 70.7621 43.184 73.9201 42.835C73.8381 38.418 77.0521 34.629 81.4231 33.988C85.7941 33.346 89.9611 36.053 91.1521 40.308C93.8921 39.344 96.9411 40.062 98.9621 42.147C100.985 44.231 101.61 47.301 100.564 50.01C99.5191 52.719 96.9941 54.572 94.0951 54.758C93.9421 54.767 93.8091 54.771 93.6651 54.771L93.6641 54.77ZM74.5841 44.697C72.3791 44.764 70.6261 46.571 70.6261 48.777C70.6261 50.984 72.3791 52.791 74.5841 52.857H93.3491C95.4101 53.016 97.3861 52.006 98.4651 50.243C99.5441 48.48 99.5441 46.261 98.4651 44.498C97.3861 42.735 95.4101 41.725 93.3491 41.883H93.2811C92.4441 41.886 91.6191 42.081 90.8691 42.453L89.6901 43.033L89.5001 41.731C89.1631 39.296 87.5531 37.226 85.2761 36.301C82.9981 35.376 80.4001 35.736 78.4601 37.245C76.5201 38.755 75.5331 41.185 75.8701 43.619L76.0201 44.699L74.5841 44.697V44.697Z" fill="black"/>
</g>
<g id="Group_3">
<path id="services-digital-solutions-img-tab" d="M51.052 26.597H7.92899C4.26071 26.597 1.28699 29.5707 1.28699 33.239V94.438C1.28699 98.1063 4.26071 101.08 7.92899 101.08H51.052C54.7203 101.08 57.694 98.1063 57.694 94.438V33.239C57.694 29.5707 54.7203 26.597 51.052 26.597Z" fill="white"/>
<path id="Vector_12" d="M51.051 102.028H7.92999C3.73799 102.028 0.338989 98.628 0.338989 94.436V33.24C0.337989 29.047 3.73699 25.65 7.92899 25.65H51.051C55.244 25.65 58.643 29.048 58.643 33.24V94.437C58.643 98.63 55.243 102.029 51.051 102.029V102.028ZM7.92999 27.546C4.78599 27.546 2.23699 30.096 2.23699 33.239V94.436C2.23699 97.581 4.78599 100.13 7.92999 100.13H51.052C54.197 100.13 56.746 97.58 56.746 94.436V33.24C56.746 30.096 54.196 27.547 51.052 27.547H7.92999V27.546Z" fill="black"/>
<path id="Vector_13" d="M6.53992 26.404H52.0999C53.5339 26.404 54.9089 26.972 55.9219 27.986C56.9349 28.999 57.5039 30.374 57.5039 31.806V40.893H1.13892V31.807C1.13892 30.374 1.70692 29 2.71992 27.987C3.73292 26.972 5.10692 26.403 6.53992 26.403V26.404Z" fill="white"/>
<path id="Vector_14" d="M58.4529 41.842H0.189941V31.807C0.193941 28.3 3.03494 25.46 6.53994 25.457H52.0999C55.6069 25.46 58.4489 28.301 58.4529 31.807V41.842V41.842ZM2.08794 39.944H56.5549V31.807C56.5519 29.349 54.5599 27.357 52.1029 27.354H6.53994C4.08194 27.358 2.08994 29.35 2.08794 31.807V39.944Z" fill="black"/>
<path id="Vector_15" d="M7.92 35.668C8.78764 35.668 9.491 34.9646 9.491 34.097C9.491 33.2294 8.78764 32.526 7.92 32.526C7.05236 32.526 6.349 33.2294 6.349 34.097C6.349 34.9646 7.05236 35.668 7.92 35.668Z" fill="black"/>
<path id="Vector_16" d="M13.7399 35.668C14.6076 35.668 15.3109 34.9646 15.3109 34.097C15.3109 33.2294 14.6076 32.526 13.7399 32.526C12.8723 32.526 12.1689 33.2294 12.1689 34.097C12.1689 34.9646 12.8723 35.668 13.7399 35.668Z" fill="black"/>
<path id="Vector_17" d="M19.561 35.668C20.4286 35.668 21.132 34.9646 21.132 34.097C21.132 33.2294 20.4286 32.526 19.561 32.526C18.6934 32.526 17.99 33.2294 17.99 34.097C17.99 34.9646 18.6934 35.668 19.561 35.668Z" fill="black"/>
<path id="Vector_18" d="M24.167 74.564H22.292C21.768 74.564 21.343 74.139 21.343 73.615C21.343 73.091 21.768 72.666 22.292 72.666H24.167C24.691 72.666 25.116 73.091 25.116 73.616C25.116 74.139 24.691 74.564 24.166 74.564H24.167ZM16.598 74.564H9.00798C8.48298 74.564 8.05798 74.139 8.05798 73.615C8.05798 73.091 8.48298 72.666 9.00798 72.666H16.598C17.123 72.666 17.548 73.091 17.548 73.616C17.548 74.139 17.123 74.564 16.598 74.564V74.564ZM47.026 79.138H39.435C38.911 79.138 38.485 78.713 38.485 78.189C38.485 77.665 38.911 77.24 39.435 77.24H47.026C47.55 77.24 47.975 77.665 47.975 78.19C47.975 78.713 47.55 79.138 47.026 79.138V79.138ZM33.741 79.138H26.151C25.626 79.138 25.201 78.713 25.201 78.189C25.201 77.665 25.626 77.24 26.151 77.24H33.741C34.265 77.24 34.691 77.665 34.691 78.19C34.691 78.713 34.265 79.138 33.741 79.138V79.138ZM20.457 79.138H12.865C12.341 79.138 11.917 78.713 11.917 78.189C11.917 77.665 12.341 77.24 12.865 77.24H20.457C20.981 77.24 21.406 77.665 21.406 78.19C21.406 78.713 20.981 79.138 20.456 79.138H20.457ZM24.167 83.708H16.576C16.052 83.708 15.626 83.283 15.626 82.759C15.626 82.235 16.052 81.81 16.576 81.81H24.166C24.691 81.81 25.116 82.235 25.116 82.76C25.116 83.283 24.691 83.708 24.166 83.708H24.167ZM10.882 83.708H9.00698C8.48298 83.708 8.05798 83.283 8.05798 82.759C8.05798 82.235 8.48298 81.81 9.00798 81.81H10.882C11.406 81.81 11.832 82.235 11.832 82.76C11.832 83.283 11.406 83.708 10.882 83.708V83.708ZM42.758 65.453H16.075C14.502 65.453 13.228 64.178 13.228 62.606V49.638C13.228 48.066 14.502 46.792 16.075 46.792H42.758C43.513 46.792 44.237 47.092 44.771 47.626C45.305 48.159 45.605 48.883 45.605 49.638V62.606C45.605 64.178 44.33 65.453 42.758 65.453ZM16.075 48.69C15.551 48.69 15.125 49.114 15.125 49.638V62.606C15.125 63.13 15.551 63.556 16.075 63.556H42.758C43.282 63.556 43.707 63.13 43.707 62.606V49.638C43.707 49.114 43.282 48.69 42.757 48.69H16.076H16.075Z" fill="black"/>
</g>
<g id="Group_4">
<path id="services-digital-solutions-img-mobile" d="M156.759 36.742H130.569C126.901 36.742 123.927 39.7157 123.927 43.384V94.815C123.927 98.4833 126.901 101.457 130.569 101.457H156.759C160.427 101.457 163.401 98.4833 163.401 94.815V43.384C163.401 39.7157 160.427 36.742 156.759 36.742Z" fill="white"/>
<path id="Vector_19" d="M156.759 102.406H130.569C126.378 102.406 122.978 99.007 122.978 94.815V43.385C122.978 39.191 126.377 35.792 130.569 35.792H156.759C160.952 35.792 164.35 39.191 164.35 43.383V94.813C164.35 96.827 163.55 98.758 162.127 100.182C160.703 101.605 158.772 102.405 156.759 102.405V102.406ZM130.569 37.691C127.425 37.691 124.876 40.24 124.876 43.384V94.814C124.876 97.959 127.425 100.508 130.569 100.508H156.759C159.903 100.508 162.452 97.959 162.452 94.815V43.385C162.452 40.24 159.903 37.691 156.759 37.691H130.569V37.691Z" fill="black"/>
<path id="Vector_20" d="M136.832 36.647H150.496V39.998C150.496 40.978 149.703 41.771 148.724 41.771H138.604C137.626 41.771 136.832 40.977 136.832 39.998V36.647V36.647Z" fill="white"/>
<path id="Vector_21" d="M148.724 42.719H138.604C137.102 42.719 135.884 41.501 135.884 39.999V35.697H151.445V39.997C151.445 41.5 150.226 42.717 148.724 42.719V42.719ZM137.781 37.597V39.999C137.781 40.454 138.15 40.823 138.605 40.823H148.724C149.179 40.823 149.547 40.454 149.547 39.999V37.596H137.781V37.597ZM152.158 82.159H148.454C147.93 82.159 147.505 81.733 147.505 81.209C147.505 80.685 147.93 80.26 148.455 80.26H152.161C152.685 80.26 153.11 80.685 153.11 81.21C153.11 81.733 152.685 82.158 152.16 82.158H152.159L152.158 82.159ZM142.758 82.159H135.168C134.644 82.159 134.218 81.733 134.218 81.209C134.218 80.685 134.644 80.26 135.168 80.26H142.758C143.283 80.26 143.708 80.685 143.708 81.21C143.708 81.733 143.283 82.158 142.758 82.158V82.159ZM152.158 88.99H144.568C144.043 88.99 143.618 88.566 143.618 88.041C143.618 87.517 144.043 87.093 144.568 87.093H152.158C152.683 87.093 153.108 87.517 153.108 88.041C153.108 88.566 152.683 88.991 152.158 88.991V88.99ZM138.874 88.99H135.17C134.645 88.99 134.22 88.566 134.22 88.041C134.22 87.517 134.645 87.093 135.17 87.093H138.876C139.4 87.093 139.825 87.517 139.825 88.041C139.825 88.566 139.4 88.991 138.876 88.991H138.874V88.99ZM150.306 71.756H137.022C135.45 71.756 134.175 70.482 134.175 68.91V53.917C134.175 52.345 135.45 51.07 137.022 51.07H150.306C151.879 51.07 153.153 52.345 153.153 53.917V68.91C153.153 70.482 151.879 71.756 150.306 71.756V71.756ZM137.022 52.969C136.498 52.969 136.072 53.394 136.072 53.918V68.911C136.072 69.435 136.498 69.86 137.022 69.86H150.306C150.831 69.86 151.256 69.435 151.256 68.91V53.918C151.256 53.394 150.831 52.969 150.306 52.969H137.022Z" fill="black"/>
</g>
</g>
</g>
</svg>
