<svg id="Component_7_1" data-name="Component 7 – 1" xmlns="http://www.w3.org/2000/svg" width="30.539" height="26.842" viewBox="0 0 30.539 26.842">
  <path id="Path_9227" data-name="Path 9227" d="M.893,165.3H24.276a.9.9,0,0,0,.573-.207c.225-.188,5.348-4.6,5.66-14.109H5.4C5.086,159.624.367,163.683.318,163.723A.9.9,0,0,0,.893,165.3Z" transform="translate(0 -143.83)" fill="#3eb4ff"/>
  <path id="Path_9228" data-name="Path 9228" d="M115.193,32.777H110.72v-.895a.895.895,0,1,0-1.789,0v.895H104.4v-.895a.895.895,0,0,0-1.789,0v.895H98.134v-.895a.895.895,0,1,0-1.789,0v.895H91.871a.886.886,0,0,0-.895.895v2.684h25.112V33.672A.886.886,0,0,0,115.193,32.777Z" transform="translate(-85.549 -30.988)" fill="#3eb4ff"/>
  <path id="Path_9229" data-name="Path 9229" d="M111.548,304.564a2.693,2.693,0,0,1-1.722.625H90.977v2.684a.894.894,0,0,0,.895.895h23.323a.894.894,0,0,0,.895-.895v-10.03A17.734,17.734,0,0,1,111.548,304.564Z" transform="translate(-85.55 -281.925)" fill="#3eb4ff"/>
</svg>
