<svg id="Component_6_1" data-name="Component 6 – 1" xmlns="http://www.w3.org/2000/svg" width="27.109" height="27.111" viewBox="0 0 27.109 27.111">
  <path id="Path_9224" data-name="Path 9224" d="M23.343,27.112H4.69A4.228,4.228,0,0,1,.908,20.993L10.234,2.339a4.228,4.228,0,0,1,7.566,0l9.326,18.654a4.228,4.228,0,0,1-3.782,6.119Zm0,0" transform="translate(-0.462 0)" fill="#fd363d"/>
  <path id="Path_9225" data-name="Path 9225" d="M241.744,128.2a.846.846,0,0,1,.846.846V139.2a.846.846,0,1,1-1.691,0V129.049A.846.846,0,0,1,241.744,128.2Zm0,0" transform="translate(-228.189 -121.427)" fill="#fff"/>
  <path id="Path_9226" data-name="Path 9226" d="M240.9,384.2h1.691v1.691H240.9Zm0,0" transform="translate(-228.189 -363.895)" fill="#fff"/>
</svg>
