<svg xmlns="http://www.w3.org/2000/svg" xmlns:xlink="http://www.w3.org/1999/xlink" width="48.947" height="37.616" viewBox="0 0 48.947 37.616">
  <defs>
    <filter id="Path_9212" x="0" y="1.166" width="36.493" height="36.45" filterUnits="userSpaceOnUse">
      <feOffset dy="3" input="SourceAlpha"/>
      <feGaussianBlur stdDeviation="3" result="blur"/>
      <feFlood flood-color="#713bdb" flood-opacity="0.251"/>
      <feComposite operator="in" in2="blur"/>
      <feComposite in="SourceGraphic"/>
    </filter>
  </defs>
  <g id="Component_2_1" data-name="Component 2 – 1" transform="translate(9)">
    <path id="Path_9210" data-name="Path 9210" d="M223.516,254.739v.215l.086,3.99h-.429c-1.073,0-2.06-.043-3-.129h-.215a8.805,8.805,0,0,0,.429-2.789,8.684,8.684,0,0,0-.215-1.845h.215c.9.086,1.8.129,2.789.129l.386.215A.467.467,0,0,0,223.516,254.739Z" transform="translate(-201.891 -239.763)" fill="#a172ff"/>
    <g id="Component_1_1" data-name="Component 1 – 1">
      <path id="Path_9205" data-name="Path 9205" d="M281.16,317.919v4.548c0,1.545-4.119,2.832-9.182,2.832s-9.1-1.244-9.1-2.789V322l-.086-3.6h.043c.687,1.33,4.462,2.36,9.01,2.36s9.225-1.287,9.225-2.832h.086Z" transform="translate(-241.213 -298.267)" fill="#8353e3"/>
      <path id="Path_9206" data-name="Path 9206" d="M164.3,112.074v4.505h-.086c0,1.588-4.248,2.832-9.268,2.832a22.021,22.021,0,0,1-5.792-.644l-.086.086a10.025,10.025,0,0,0-3.175-1.759v-.086l-.129-4.763c.3,1.459,4.291,2.617,9.139,2.617s9.311-1.244,9.311-2.789Z" transform="translate(-133.796 -109.327)" fill="#a172ff"/>
      <path id="Path_9207" data-name="Path 9207" d="M164.3,81.457h0c0,1.545-4.248,2.789-9.311,2.789s-8.882-1.158-9.182-2.617c0-.043-.043-.129-.043-.172,0-1.545,4.119-2.832,9.225-2.832C160.1,78.583,164.3,79.87,164.3,81.457Z" transform="translate(-133.797 -78.624)" fill="#713bdb"/>
      <path id="Path_9208" data-name="Path 9208" d="M261.88,268.518h0l-.043-.944-.086-3.862c.3,1.459,4.291,2.617,9.139,2.617s9.139-1.244,9.268-2.746h.043v4.462h-.086c0,1.545-4.162,2.832-9.225,2.832S262.566,269.848,261.88,268.518Z" transform="translate(-240.254 -248.394)" fill="#a172ff"/>
      <path id="Path_9209" data-name="Path 9209" d="M188.608,314.552a9.207,9.207,0,0,0,2.531-3.947h.215c.944.086,1.888.129,2.918.129h.429v.944l.086,3.6h-.472a22.231,22.231,0,0,1-5.578-.6Z" transform="translate(-173.118 -291.553)" fill="#8353e3"/>
      <path id="Path_9211" data-name="Path 9211" d="M186.083,169.119a22.02,22.02,0,0,0,5.792.644c5.02,0,9.268-1.244,9.268-2.832h.086v5.063c-4.677,0-8.5,1.116-8.967,2.531l-.386-.215q-1.416,0-2.7-.129h-.215a8.66,8.66,0,0,0-2.961-5.02Z" transform="translate(-170.722 -159.679)" fill="#8353e3"/>
      <g transform="matrix(1, 0, 0, 1, -9, 0)" filter="url(#Path_9212)">
        <path id="Path_9212-2" data-name="Path 9212" d="M18.321,173.22h0a9.391,9.391,0,0,0-3.046-5.106,8.153,8.153,0,0,0-3.261-1.8,8.289,8.289,0,0,0-2.7-.429,9.225,9.225,0,1,0-.172,18.45,9.412,9.412,0,0,0,6.35-2.446,9.317,9.317,0,0,0,2.574-4.076,8.545,8.545,0,0,0,.429-2.746C18.493,174.464,18.321,173.821,18.321,173.22Z" transform="translate(9 -158.72)" fill="#713bdb"/>
      </g>
      <path id="Path_9213" data-name="Path 9213" d="M280.158,231.37v.086c-.129,1.5-4.291,2.746-9.268,2.746s-8.839-1.158-9.139-2.617v-.215a.545.545,0,0,1,.043-.257c.472-1.416,4.291-2.531,8.967-2.531h.129C275.953,228.581,280.158,229.825,280.158,231.37Z" transform="translate(-240.254 -216.266)" fill="#713bdb"/>
      <path id="Path_9214" data-name="Path 9214" d="M78.354,201.286a1.416,1.416,0,1,1,1.416-1.416.858.858,0,1,0,1.716,0,3.167,3.167,0,0,0-2.274-3v-.343a.858.858,0,1,0-1.716,0v.343a3,3,0,0,0-2.274,3A3.15,3.15,0,0,0,78.354,203a1.416,1.416,0,1,1,0,2.832h0a1.429,1.429,0,0,1-1.416-1.416.858.858,0,1,0-1.716,0,3.128,3.128,0,0,0,2.274,3v.686a.858.858,0,0,0,1.716,0v-.686a3.094,3.094,0,0,0,2.1-3.9A3.129,3.129,0,0,0,78.354,201.286Z" transform="translate(-69.042 -186.053)" fill="#fff"/>
    </g>
  </g>
</svg>
