<?xml version="1.0" encoding="UTF-8"?>
<!DOCTYPE svg PUBLIC "-//W3C//DTD SVG 1.1//EN" "http://www.w3.org/Graphics/SVG/1.1/DTD/svg11.dtd">
<!-- Creator: CorelDRAW 2019 (64-Bit) -->
<svg xmlns="http://www.w3.org/2000/svg" xml:space="preserve" width="729px" height="363px" version="1.1" style="shape-rendering:geometricPrecision; text-rendering:geometricPrecision; image-rendering:optimizeQuality; fill-rule:evenodd; clip-rule:evenodd"
viewBox="0 0 97.07 48.42"
 xmlns:xlink="http://www.w3.org/1999/xlink"
 xmlns:xodm="http://www.corel.com/coreldraw/odm/2003">
 <defs>
  <style type="text/css">
   <![CDATA[
    .fil0 {fill:#FEFEFE;fill-rule:nonzero}
   ]]>
  </style>
 </defs>
 <g id="Layer_x0020_1">
  <metadata id="CorelCorpID_0Corel-Layer"/>
  <path class="fil0" d="M54.47 14.73c0.38,2.27 -1.15,4.41 -3.41,4.78 -0.41,0.07 -0.82,0.08 -1.21,0.03 -1.77,-0.23 -3.26,-1.59 -3.57,-3.44l-0.85 -5.1 4.1 -0.68c0.19,-0.03 0.39,-0.05 0.58,-0.05 1.63,0 3.59,1.06 4.05,2.61l0.31 1.85zm-1.3 -7.76c-0.27,-1.63 -1.18,-3.08 -2.52,-4.04 -1.34,-0.96 -3.01,-1.35 -4.64,-1.07l-7.77 1.29c-2.26,0.38 -3.78,2.52 -3.41,4.78 0.31,1.85 1.8,3.21 3.57,3.44 0.39,0.05 0.8,0.04 1.21,-0.03l9.81 -1.64c2.26,-0.37 4.4,1.15 4.78,3.42l-1.03 -6.15zm1.44 -1.76c1.09,1.42 3.12,1.68 4.54,0.59 1.41,-1.09 1.67,-3.13 0.58,-4.54 -1.09,-1.42 -3.12,-1.68 -4.54,-0.59 -1.41,1.1 -1.67,3.13 -0.58,4.54z"/>
  <path class="fil0" d="M38.8 33.62c-0.59,-0.52 -1.3,-0.9 -2.13,-1.15 -0.82,-0.24 -1.71,-0.37 -2.68,-0.37 -0.91,0 -1.73,0.1 -2.47,0.29 -0.74,0.19 -1.35,0.45 -1.85,0.77 -0.32,0.22 -0.57,0.47 -0.76,0.74 -0.18,0.28 -0.27,0.63 -0.27,1.06l0 11.53c0,0.4 0.04,0.73 0.14,0.98 0.1,0.24 0.24,0.44 0.43,0.59 0.2,0.14 0.43,0.24 0.71,0.28 0.28,0.05 0.6,0.08 0.95,0.08l1.85 0 0 -4.23c0.59,0.21 1.23,0.31 1.92,0.31 0.92,0 1.74,-0.13 2.49,-0.39 0.74,-0.25 1.38,-0.64 1.91,-1.16 0.53,-0.52 0.94,-1.17 1.23,-1.93 0.28,-0.77 0.43,-1.67 0.43,-2.7 0,-1.07 -0.17,-1.99 -0.51,-2.77 -0.33,-0.78 -0.8,-1.42 -1.39,-1.93zm-4.76 7.66c-0.25,0 -0.49,-0.03 -0.72,-0.1 -0.22,-0.06 -0.43,-0.14 -0.62,-0.24l0 -5.28c0.17,-0.1 0.38,-0.18 0.62,-0.25 0.24,-0.08 0.51,-0.11 0.82,-0.11 0.77,0 1.36,0.25 1.76,0.74 0.41,0.5 0.62,1.26 0.62,2.28 0,1.97 -0.83,2.96 -2.48,2.96zm-8.2 -13.39c0.39,0.39 0.58,0.88 0.58,1.45 0,0.57 -0.19,1.06 -0.58,1.45 -0.38,0.4 -0.89,0.59 -1.53,0.59 -0.63,0 -1.14,-0.19 -1.53,-0.59 -0.39,-0.39 -0.58,-0.88 -0.58,-1.45 0,-0.57 0.19,-1.06 0.58,-1.45 0.39,-0.39 0.9,-0.59 1.53,-0.59 0.64,0 1.15,0.2 1.53,0.59zm-13.39 2.16l0 1.21c0,0.63 -0.14,1.07 -0.43,1.35 -0.28,0.27 -0.64,0.41 -1.09,0.41l-2.67 0 0 11.31 -1.94 0c-0.37,0 -0.69,-0.03 -0.97,-0.08 -0.28,-0.06 -0.52,-0.16 -0.71,-0.3 -0.2,-0.15 -0.34,-0.35 -0.44,-0.6 -0.09,-0.26 -0.14,-0.6 -0.14,-1.01l0 -9.32 -3.59 0c-0.26,0 -0.47,-0.22 -0.47,-0.48l0 -1.21c0,-0.62 0.14,-1.07 0.42,-1.34 0.28,-0.27 0.64,-0.41 1.09,-0.41l10.46 0c0.26,0 0.48,0.21 0.48,0.47zm8.21 5.31c-3.53,0.03 -3.76,0.54 -3.76,0.54l0 8.43 -1.82 0c-0.35,0 -0.67,-0.02 -0.95,-0.07 -0.28,-0.05 -0.52,-0.15 -0.71,-0.29 -0.19,-0.14 -0.34,-0.34 -0.44,-0.59 -0.11,-0.25 -0.16,-0.57 -0.16,-0.97l0 -7.21c0,-0.37 0.07,-0.68 0.2,-0.95 0.14,-0.26 0.34,-0.5 0.59,-0.71 0.26,-0.2 0.58,-0.39 0.95,-0.56 0.38,-0.17 0.78,-0.32 1.22,-0.45 0.43,-0.12 0.88,-0.22 1.34,-0.3 0.47,-0.07 0.93,-0.1 1.39,-0.1 0.77,0 1.38,0.14 1.83,0.44 0.45,0.3 0.67,0.78 0.67,1.45l0 1.01c-0.01,0.18 -0.16,0.33 -0.35,0.33zm5.54 -2c0.1,0.25 0.15,0.58 0.15,0.98l0 9.99 -1.82 0c-0.35,0 -0.67,-0.02 -0.95,-0.07 -0.28,-0.05 -0.52,-0.15 -0.71,-0.29 -0.19,-0.14 -0.34,-0.34 -0.44,-0.59 -0.11,-0.25 -0.16,-0.57 -0.16,-0.97l0 -9.52c0,-0.26 0.21,-0.48 0.47,-0.48l1.36 0c0.35,0 0.66,0.03 0.94,0.08 0.28,0.04 0.52,0.14 0.71,0.28 0.2,0.15 0.34,0.35 0.45,0.59zm57.89 0.49l0 1.06c0,0.56 -0.13,0.97 -0.38,1.22 -0.25,0.25 -0.58,0.37 -0.99,0.37l-2.09 0 0 3.63c0,0.41 0.13,0.71 0.39,0.89 0.27,0.17 0.64,0.26 1.12,0.26 0.24,0 1.95,0 1.95,0l0 1.15c0,0.61 -0.23,1.11 -0.69,1.49 -0.46,0.39 -1.26,0.58 -2.41,0.58 -1.41,0 -2.5,-0.32 -3.26,-0.96 -0.76,-0.64 -1.14,-1.68 -1.14,-3.12l0 -10.05c0,-0.27 0.21,-0.48 0.47,-0.48l1.33 0c0.71,0 1.25,0.13 1.65,0.37 0.39,0.25 0.59,0.78 0.59,1.58l0 1.54 2.98 0c0.26,0 0.48,0.21 0.48,0.47zm-11.27 -0.68c-0.5,-0.36 -1.11,-0.63 -1.82,-0.8 -0.72,-0.18 -1.51,-0.27 -2.37,-0.27 -0.77,0 -1.38,0.15 -1.83,0.45 -0.44,0.29 -0.67,0.78 -0.67,1.45l0 1.02 0 0c0.04,0.19 0.23,0.31 0.42,0.27l0 0c0.49,-0.09 0.99,-0.14 1.5,-0.14 0.77,0 1.36,0.1 1.77,0.3 0.41,0.2 0.61,0.54 0.61,1l0 0.17 -3.15 0.34c-1.37,0.14 -2.39,0.51 -3.05,1.1 -0.65,0.59 -0.98,1.44 -0.98,2.55 0,0.65 0.13,1.23 0.39,1.73 0.27,0.49 0.64,0.9 1.13,1.22 0.49,0.32 1.08,0.56 1.76,0.72 0.68,0.16 1.44,0.24 2.29,0.24 1.89,0 3.36,-0.31 4.4,-0.93 0.32,-0.2 0.6,-0.42 0.83,-0.69 0.23,-0.26 0.35,-0.6 0.35,-1.02l0 -5.38c0,-0.75 -0.14,-1.41 -0.41,-1.96 -0.28,-0.55 -0.66,-1.01 -1.17,-1.37zm-2.36 8.06c-0.16,0.1 -0.41,0.17 -0.74,0.23 -0.33,0.06 -0.63,0.08 -0.9,0.08 -0.59,0 -1.01,-0.1 -1.26,-0.3 -0.25,-0.2 -0.37,-0.46 -0.37,-0.78 0,-0.32 0.14,-0.56 0.43,-0.72 0.29,-0.16 0.66,-0.25 1.11,-0.29l1.73 -0.14 0 1.92zm-17.73 -7.43c-0.55,-0.54 -1.21,-0.96 -1.98,-1.25 -0.77,-0.3 -1.63,-0.45 -2.57,-0.45 -0.95,0 -1.8,0.15 -2.57,0.43 -0.77,0.29 -1.43,0.71 -1.98,1.24 -0.56,0.54 -0.99,1.19 -1.29,1.96 -0.3,0.77 -0.46,1.63 -0.46,2.57 0,0.96 0.16,1.83 0.46,2.6 0.3,0.76 0.73,1.42 1.29,1.95 0.55,0.54 1.21,0.95 1.98,1.24 0.77,0.29 1.62,0.43 2.57,0.43 0.94,0 1.8,-0.13 2.57,-0.41 0.77,-0.27 1.43,-0.67 1.98,-1.2 0.55,-0.52 0.98,-1.18 1.29,-1.95 0.3,-0.78 0.45,-1.67 0.45,-2.66 0,-0.93 -0.15,-1.78 -0.45,-2.55 -0.31,-0.76 -0.74,-1.42 -1.29,-1.95zm-2.98 6.74c-0.36,0.52 -0.87,0.79 -1.55,0.79 -0.67,0 -1.19,-0.26 -1.57,-0.78 -0.38,-0.52 -0.57,-1.27 -0.57,-2.25 0,-0.96 0.19,-1.7 0.56,-2.22 0.37,-0.52 0.89,-0.78 1.56,-0.78 0.67,0 1.19,0.26 1.56,0.78 0.37,0.52 0.55,1.26 0.55,2.22 0,0.96 -0.18,1.71 -0.54,2.24zm47.16 -4.48c-0.17,-0.66 -0.47,-1.25 -0.9,-1.78 -0.42,-0.52 -0.96,-0.97 -1.61,-1.33 -0.64,-0.36 -1.39,-0.62 -2.22,-0.75 -0.75,-0.13 -1.49,-0.13 -2.24,-0.02 -0.75,0.12 -1.44,0.37 -2.07,0.76 -0.63,0.39 -1.18,0.94 -1.64,1.63 -0.47,0.7 -0.78,1.57 -0.95,2.61 -0.18,1.06 -0.16,2.01 0.05,2.86 0.21,0.84 0.57,1.57 1.08,2.19 0.51,0.62 1.14,1.13 1.89,1.52 0.76,0.39 1.62,0.77 3.28,0.77 0.65,0 1.24,-0.08 1.79,-0.26 0.73,-0.24 1.14,-0.72 1.26,-1.43 0.05,-0.32 0,-1.39 0,-1.39 0,0 -2.31,0.06 -2.99,-0.02 -0.7,-0.08 -1.27,-0.16 -1.76,-0.51 -0.5,-0.35 -0.79,-0.8 -0.88,-1.35l6 0.08c0.55,0.01 1,-0.1 1.35,-0.33 0.34,-0.24 0.56,-0.63 0.65,-1.16 0.12,-0.73 0.09,-1.43 -0.09,-2.09zm-7.76 0.8c0.06,-0.25 0.15,-0.49 0.28,-0.72 0.12,-0.23 0.29,-0.43 0.5,-0.6 0.2,-0.17 0.45,-0.29 0.75,-0.37 0.3,-0.09 0.64,-0.1 1.02,-0.03 0.58,0.09 1,0.32 1.25,0.69 0.25,0.36 0.37,0.71 0.36,1.03l-4.16 0zm-25.58 -1.5c-3.53,0.03 -3.76,0.54 -3.76,0.54l0 8.43 -1.82 0c-0.35,0 -0.67,-0.02 -0.95,-0.07 -0.28,-0.05 -0.52,-0.15 -0.71,-0.29 -0.19,-0.14 -0.34,-0.34 -0.44,-0.59 -0.11,-0.25 -0.16,-0.57 -0.16,-0.97l0 -7.21c0,-0.37 0.07,-0.68 0.2,-0.95 0.14,-0.26 0.34,-0.5 0.59,-0.71 0.26,-0.2 0.58,-0.39 0.95,-0.56 0.38,-0.17 0.78,-0.32 1.22,-0.45 0.43,-0.12 0.88,-0.22 1.34,-0.3 0.46,-0.07 0.93,-0.1 1.39,-0.1 0.77,0 1.38,0.14 1.83,0.44 0.45,0.3 0.67,0.78 0.67,1.45l0 1.01c-0.01,0.18 -0.16,0.33 -0.35,0.33z"/>
 </g>
</svg>
