<?xml version="1.0" encoding="UTF-8"?>
<!DOCTYPE svg PUBLIC "-//W3C//DTD SVG 1.1//EN" "http://www.w3.org/Graphics/SVG/1.1/DTD/svg11.dtd">
<!-- Creator: CorelDRAW 2019 (64-Bit) -->
<svg xmlns="http://www.w3.org/2000/svg" xml:space="preserve" width="729px" height="363px" version="1.1" style="shape-rendering:geometricPrecision; text-rendering:geometricPrecision; image-rendering:optimizeQuality; fill-rule:evenodd; clip-rule:evenodd"
viewBox="0 0 58.01 28.93"
 xmlns:xlink="http://www.w3.org/1999/xlink"
 xmlns:xodm="http://www.corel.com/coreldraw/odm/2003">
 <defs>
  <style type="text/css">
   <![CDATA[
    .fil3 {fill:#13A38D;fill-rule:nonzero}
    .fil2 {fill:url(#id0)}
    .fil1 {fill:url(#id1)}
    .fil0 {fill:url(#id2)}
   ]]>
  </style>
  <linearGradient id="id0" gradientUnits="userSpaceOnUse" x1="32.45" y1="-0.51" x2="35.88" y2="-0.51">
   <stop offset="0" style="stop-opacity:1; stop-color:#84C7AE"/>
   <stop offset="1" style="stop-opacity:1; stop-color:#13A38D"/>
  </linearGradient>
  <linearGradient id="id1" gradientUnits="userSpaceOnUse" xlink:href="#id0" x1="20.97" y1="0.65" x2="32.39" y2="0.65">
  </linearGradient>
  <linearGradient id="id2" gradientUnits="userSpaceOnUse" x1="32.27" y1="4.79" x2="34.01" y2="10.45">
   <stop offset="0" style="stop-opacity:1; stop-color:#492F6E"/>
   <stop offset="0.45098" style="stop-opacity:1; stop-color:#492F6E"/>
   <stop offset="1" style="stop-opacity:1; stop-color:#8965A8"/>
  </linearGradient>
 </defs>
 <g id="Layer_x0020_1">
  <metadata id="CorelCorpID_0Corel-Layer"/>
  <path class="fil0" d="M26.68 3.76l0.98 5.86c0.18,1.11 1.07,1.92 2.13,2.06l0 0c0.23,0.03 0.48,0.02 0.72,-0.02l0 0c1.36,-0.22 2.27,-1.5 2.04,-2.86l0 0 -0.77 -4.64c-0.17,-0.97 -0.71,-1.84 -1.51,-2.41l0 0c-0.62,-0.44 -1.35,-0.68 -2.09,-0.69 -1.05,0.43 -1.7,1.54 -1.5,2.7l0 0z"/>
  <path class="fil1" d="M27.49 1.11l-4.64 0.77c-1.35,0.23 -2.26,1.51 -2.03,2.86l0 0c0.18,1.11 1.07,1.92 2.12,2.05l0 0c0.24,0.03 0.48,0.03 0.73,-0.01l0 0 5.86 -0.98c1.36,-0.23 2.63,0.69 2.86,2.04l-0.61 -3.68c-0.17,-0.97 -0.71,-1.84 -1.51,-2.41l0 0c-0.64,-0.45 -1.39,-0.69 -2.16,-0.69l0 0c-0.21,0 -0.41,0.02 -0.62,0.05l0 0z"/>
  <path class="fil2" d="M32.98 0.4c-0.84,0.66 -1,1.87 -0.35,2.71l0 0c0.66,0.85 1.87,1.01 2.71,0.35l0 0c0.85,-0.65 1.01,-1.86 0.35,-2.71l0 0c-0.38,-0.49 -0.95,-0.75 -1.53,-0.75l0 0c-0.41,0 -0.83,0.13 -1.18,0.4l0 0z"/>
  <path class="fil3" d="M23.19 20.09c-0.36,-0.31 -0.78,-0.54 -1.28,-0.68 -0.49,-0.15 -1.02,-0.23 -1.6,-0.23 -0.54,0 -1.03,0.06 -1.47,0.18 -0.45,0.11 -0.81,0.26 -1.11,0.46 -0.19,0.13 -0.34,0.28 -0.45,0.44 -0.11,0.16 -0.17,0.37 -0.17,0.63l0 6.89c0,0.24 0.03,0.44 0.09,0.58 0.06,0.15 0.14,0.27 0.26,0.36 0.11,0.08 0.25,0.14 0.42,0.17 0.17,0.03 0.36,0.04 0.57,0.04l1.1 0 0 -2.52c0.36,0.12 0.74,0.18 1.15,0.18 0.55,0 1.04,-0.07 1.49,-0.23 0.44,-0.15 0.82,-0.38 1.14,-0.69 0.31,-0.32 0.56,-0.7 0.73,-1.16 0.17,-0.46 0.26,-1 0.26,-1.61 0,-0.64 -0.1,-1.19 -0.3,-1.66 -0.2,-0.46 -0.48,-0.85 -0.83,-1.15zm-2.85 4.58c-0.15,0 -0.29,-0.02 -0.43,-0.06 -0.13,-0.04 -0.26,-0.09 -0.37,-0.14l0 -3.16c0.1,-0.06 0.23,-0.11 0.37,-0.15 0.15,-0.05 0.31,-0.07 0.49,-0.07 0.46,0 0.81,0.15 1.06,0.45 0.24,0.29 0.36,0.75 0.36,1.36 0,1.18 -0.49,1.77 -1.48,1.77zm-4.9 -8c0.23,0.23 0.35,0.52 0.35,0.86 0,0.35 -0.12,0.64 -0.35,0.87 -0.23,0.24 -0.53,0.35 -0.91,0.35 -0.38,0 -0.69,-0.11 -0.92,-0.35 -0.23,-0.23 -0.34,-0.52 -0.34,-0.87 0,-0.34 0.11,-0.63 0.34,-0.86 0.23,-0.24 0.54,-0.36 0.92,-0.36 0.38,0 0.68,0.12 0.91,0.36zm-8 1.29l0 0.72c0,0.37 -0.09,0.64 -0.25,0.8 -0.17,0.17 -0.39,0.25 -0.66,0.25l-1.59 0 0 6.76 -1.16 0c-0.22,0 -0.42,-0.02 -0.59,-0.05 -0.16,-0.03 -0.3,-0.09 -0.42,-0.18 -0.11,-0.08 -0.2,-0.2 -0.26,-0.36 -0.05,-0.15 -0.08,-0.35 -0.08,-0.6l0 -5.57 -2.15 0c-0.15,0 -0.28,-0.13 -0.28,-0.28l0 -0.73c0,-0.37 0.08,-0.64 0.25,-0.8 0.17,-0.16 0.39,-0.24 0.65,-0.24l6.25 0c0.16,0 0.29,0.12 0.29,0.28zm4.91 3.17c-2.12,0.02 -2.25,0.33 -2.25,0.33l0 5.03 -1.09 0c-0.21,0 -0.4,-0.01 -0.57,-0.04 -0.16,-0.03 -0.31,-0.09 -0.42,-0.17 -0.11,-0.09 -0.2,-0.21 -0.27,-0.36 -0.06,-0.14 -0.09,-0.34 -0.09,-0.58l0 -4.3c0,-0.22 0.04,-0.41 0.12,-0.57 0.08,-0.16 0.2,-0.3 0.35,-0.43 0.16,-0.12 0.35,-0.23 0.57,-0.33 0.23,-0.1 0.47,-0.19 0.73,-0.27 0.26,-0.07 0.52,-0.13 0.8,-0.18 0.28,-0.04 0.56,-0.06 0.83,-0.06 0.46,0 0.83,0.09 1.09,0.26 0.27,0.18 0.41,0.47 0.41,0.87l0 0.6c-0.01,0.11 -0.1,0.2 -0.21,0.2zm3.31 -1.19c0.06,0.15 0.09,0.34 0.09,0.58l0 5.97 -1.09 0c-0.21,0 -0.4,-0.01 -0.57,-0.04 -0.17,-0.03 -0.31,-0.09 -0.42,-0.17 -0.12,-0.09 -0.21,-0.21 -0.27,-0.36 -0.06,-0.14 -0.09,-0.34 -0.09,-0.58l0 -5.69c0,-0.15 0.12,-0.28 0.28,-0.28l0.81 0c0.21,0 0.4,0.01 0.57,0.04 0.16,0.03 0.3,0.09 0.42,0.18 0.11,0.08 0.2,0.2 0.27,0.35zm34.59 0.29l0 0.63c0,0.34 -0.08,0.58 -0.23,0.73 -0.14,0.15 -0.34,0.22 -0.59,0.22l-1.25 0 0 2.17c0,0.25 0.08,0.42 0.24,0.53 0.15,0.11 0.38,0.16 0.66,0.16 0.15,0 1.17,0 1.17,0l0 0.69c0,0.36 -0.14,0.66 -0.41,0.89 -0.27,0.23 -0.76,0.34 -1.44,0.34 -0.85,0 -1.5,-0.19 -1.95,-0.57 -0.46,-0.39 -0.68,-1.01 -0.68,-1.87l0 -6c0,-0.16 0.12,-0.29 0.28,-0.29l0.79 0c0.43,0 0.75,0.08 0.99,0.23 0.23,0.14 0.35,0.46 0.35,0.94l0 0.91 1.78 0c0.16,0 0.29,0.13 0.29,0.29zm-6.73 -0.41c-0.31,-0.21 -0.67,-0.37 -1.09,-0.48 -0.43,-0.1 -0.9,-0.16 -1.42,-0.16 -0.46,0 -0.82,0.09 -1.09,0.27 -0.27,0.18 -0.4,0.47 -0.4,0.87l0 0.61 0 0c0.02,0.11 0.14,0.18 0.25,0.16l0 0c0.29,-0.05 0.59,-0.08 0.9,-0.08 0.46,0 0.81,0.06 1.05,0.18 0.25,0.12 0.37,0.31 0.37,0.59l0 0.1 -1.88 0.2c-0.83,0.09 -1.43,0.31 -1.83,0.66 -0.39,0.36 -0.58,0.87 -0.58,1.53 0,0.39 0.07,0.73 0.23,1.03 0.16,0.3 0.38,0.54 0.68,0.73 0.29,0.19 0.64,0.34 1.04,0.43 0.41,0.1 0.87,0.15 1.38,0.15 1.13,0 2,-0.19 2.62,-0.56 0.19,-0.12 0.36,-0.26 0.5,-0.41 0.14,-0.16 0.21,-0.36 0.21,-0.61l0 -3.22c0,-0.45 -0.08,-0.84 -0.25,-1.17 -0.16,-0.33 -0.39,-0.6 -0.69,-0.82zm-1.42 4.82c-0.09,0.06 -0.24,0.1 -0.44,0.14 -0.19,0.03 -0.37,0.05 -0.53,0.05 -0.36,0 -0.61,-0.06 -0.76,-0.18 -0.15,-0.12 -0.22,-0.28 -0.22,-0.47 0,-0.19 0.09,-0.34 0.26,-0.43 0.17,-0.1 0.39,-0.15 0.66,-0.17l1.03 -0.09 0 1.15zm-10.59 -4.44c-0.33,-0.33 -0.72,-0.57 -1.18,-0.75 -0.46,-0.18 -0.98,-0.27 -1.54,-0.27 -0.56,0 -1.08,0.09 -1.54,0.26 -0.46,0.17 -0.85,0.42 -1.18,0.74 -0.33,0.32 -0.59,0.71 -0.77,1.17 -0.18,0.46 -0.27,0.97 -0.27,1.54 0,0.57 0.09,1.09 0.27,1.55 0.18,0.46 0.44,0.85 0.77,1.17 0.33,0.32 0.72,0.57 1.18,0.74 0.46,0.17 0.98,0.26 1.54,0.26 0.56,0 1.08,-0.09 1.54,-0.25 0.46,-0.16 0.85,-0.4 1.18,-0.72 0.33,-0.31 0.59,-0.7 0.77,-1.17 0.18,-0.46 0.27,-0.99 0.27,-1.58 0,-0.56 -0.09,-1.06 -0.27,-1.52 -0.18,-0.46 -0.44,-0.85 -0.77,-1.17zm-1.78 4.02c-0.21,0.32 -0.52,0.48 -0.93,0.48 -0.4,0 -0.71,-0.16 -0.94,-0.47 -0.22,-0.31 -0.33,-0.76 -0.33,-1.34 0,-0.58 0.11,-1.02 0.33,-1.33 0.22,-0.31 0.53,-0.47 0.93,-0.47 0.4,0 0.71,0.16 0.93,0.47 0.22,0.31 0.33,0.75 0.33,1.33 0,0.57 -0.1,1.02 -0.32,1.33zm28.18 -2.67c-0.1,-0.4 -0.28,-0.75 -0.54,-1.06 -0.25,-0.32 -0.57,-0.58 -0.96,-0.8 -0.38,-0.22 -0.83,-0.37 -1.33,-0.45 -0.44,-0.07 -0.89,-0.08 -1.33,-0.01 -0.45,0.07 -0.86,0.22 -1.24,0.45 -0.38,0.24 -0.71,0.56 -0.98,0.98 -0.28,0.41 -0.47,0.93 -0.57,1.56 -0.1,0.63 -0.09,1.2 0.03,1.7 0.13,0.51 0.34,0.95 0.65,1.32 0.3,0.37 0.68,0.67 1.13,0.9 0.45,0.24 0.96,0.47 1.95,0.47 0.39,0 0.75,-0.05 1.08,-0.16 0.43,-0.15 0.68,-0.43 0.75,-0.86 0.03,-0.18 0,-0.83 0,-0.83 0,0 -1.38,0.04 -1.79,-0.01 -0.42,-0.05 -0.76,-0.09 -1.05,-0.3 -0.3,-0.21 -0.47,-0.48 -0.53,-0.81l3.59 0.05c0.33,0.01 0.6,-0.06 0.8,-0.2 0.21,-0.14 0.34,-0.37 0.39,-0.7 0.08,-0.43 0.06,-0.84 -0.05,-1.24zm-4.64 0.48c0.04,-0.15 0.09,-0.29 0.17,-0.43 0.07,-0.14 0.17,-0.26 0.3,-0.36 0.12,-0.1 0.27,-0.18 0.45,-0.23 0.18,-0.04 0.38,-0.05 0.61,-0.01 0.34,0.05 0.59,0.19 0.74,0.41 0.15,0.22 0.22,0.42 0.22,0.62l-2.49 0zm-15.28 -0.9c-2.11,0.02 -2.25,0.33 -2.25,0.33l0 5.03 -1.09 0c-0.21,0 -0.4,-0.01 -0.56,-0.04 -0.17,-0.03 -0.31,-0.09 -0.43,-0.17 -0.11,-0.09 -0.2,-0.21 -0.26,-0.36 -0.07,-0.14 -0.1,-0.34 -0.1,-0.58l0 -4.3c0,-0.22 0.04,-0.41 0.12,-0.57 0.09,-0.16 0.2,-0.3 0.36,-0.43 0.15,-0.12 0.34,-0.23 0.56,-0.33 0.23,-0.1 0.47,-0.19 0.73,-0.27 0.26,-0.07 0.52,-0.13 0.8,-0.18 0.28,-0.04 0.56,-0.06 0.84,-0.06 0.45,0 0.82,0.09 1.09,0.26 0.26,0.18 0.4,0.47 0.4,0.87l0 0.6c-0.01,0.11 -0.1,0.2 -0.21,0.2z"/>
 </g>
</svg>
