<svg id="Group_37" data-name="Group 37" xmlns="http://www.w3.org/2000/svg" width="131.681" height="131.681" viewBox="0 0 131.681 131.681">
  <circle id="Ellipse_6" data-name="Ellipse 6" cx="65.84" cy="65.84" r="65.84" transform="translate(0 0)" fill="#fff"/>
  <g id="flash" transform="translate(49.03 36.899)">
    <g id="Group_16" data-name="Group 16" transform="translate(0)">
      <path id="Path_9" data-name="Path 9" d="M150.245,23.858a1.159,1.159,0,0,0-1.05-.67H135.455L149.015,1.78a1.16,1.16,0,0,0-.98-1.78H129.484a1.16,1.16,0,0,0-1.038.641L111.055,35.424a1.16,1.16,0,0,0,1.038,1.678h11.922L111.024,67.955a1.16,1.16,0,0,0,1.956,1.2l37.1-44.058A1.161,1.161,0,0,0,150.245,23.858Z" transform="translate(-110.933 0)" fill="#13a38d"/>
    </g>
  </g>
</svg>
