<svg id="Group_42" data-name="Group 42" xmlns="http://www.w3.org/2000/svg" width="131.681" height="131.681" viewBox="0 0 131.681 131.681">
  <circle id="Ellipse_7" data-name="Ellipse 7" cx="65.84" cy="65.84" r="65.84" fill="#fff"/>
  <g id="Group_17" data-name="Group 17" transform="translate(35.021 30.819)">
    <path id="Path_16" data-name="Path 16" d="M75.875,282.854A15.131,15.131,0,0,1,63.628,289.1H56.571a5.638,5.638,0,0,1-5.3-3.714,17.9,17.9,0,0,1-2.85-1.126,19.193,19.193,0,0,1-5.323-3.94,22.729,22.729,0,0,0-17.824,22.191v1.42a3.536,3.536,0,0,0,3.536,3.536H83.665a3.536,3.536,0,0,0,3.536-3.536v-1.42A22.712,22.712,0,0,0,75.875,282.854Z" transform="translate(-25.274 -237.892)" fill="#13a38d"/>
    <path id="Path_17" data-name="Path 17" d="M95.634,35.144a4.024,4.024,0,0,0,3.527-2.085l.055.147.016.044a15.713,15.713,0,0,0,8.86,9.328,5.631,5.631,0,0,1,4.773-2.639h7.056a3.95,3.95,0,0,0,1.933-.52,7.975,7.975,0,0,0,2.28-2.633,20.347,20.347,0,0,0,1.764-3.73,4.046,4.046,0,0,0,1.113,1.282v1.73a7.1,7.1,0,0,1-7.091,7.091h-7.056a2.415,2.415,0,0,0,0,4.831h7.056a11.935,11.935,0,0,0,11.922-11.922v-1.73a4.02,4.02,0,0,0,1.61-3.221V21.041a4.019,4.019,0,0,0-1.671-3.265,19.312,19.312,0,0,0-38.5,0,4.019,4.019,0,0,0-1.671,3.265V31.118A4.028,4.028,0,0,0,95.634,35.144Zm16.9-30.313a14.5,14.5,0,0,1,14.41,13.045,4.041,4.041,0,0,0-1.131,1.4c-2.279-5.947-7.367-10.087-13.279-10.087-6.039,0-11.045,4.282-13.27,10.063l-.009.024a4.04,4.04,0,0,0-1.131-1.4A14.5,14.5,0,0,1,112.53,4.831Z" transform="translate(-81.567)" fill="#13a38d"/>
  </g>
</svg>
