<svg xmlns="http://www.w3.org/2000/svg" width="131.681" height="131.681" viewBox="0 0 131.681 131.681">
  <g id="Group_40" data-name="Group 40" transform="translate(0)">
    <circle id="Ellipse_8" data-name="Ellipse 8" cx="65.84" cy="65.84" r="65.84" fill="#fff"/>
    <path id="Path_13" data-name="Path 13" d="M282.7.395a16.074,16.074,0,1,0,16.074,16.074A16.073,16.073,0,0,0,282.7.395Zm-.075,14.924a5.36,5.36,0,0,1,1.019,10.621v1.5a1.141,1.141,0,0,1-2.283,0V25.887a5.367,5.367,0,0,1-4.1-5.208,1.141,1.141,0,0,1,2.283,0,3.077,3.077,0,1,0,3.077-3.078,5.359,5.359,0,0,1-1.264-10.568V5.594a1.141,1.141,0,0,1,2.283,0V6.98a5.368,5.368,0,0,1,4.341,5.262,1.141,1.141,0,0,1-2.283,0,3.079,3.079,0,0,0-3.027-3.074,1.1,1.1,0,0,1-.172.014c-.036,0-.071,0-.106-.005a3.075,3.075,0,0,0,.229,6.143Zm0,0" transform="translate(-195.137 29.023)" fill="#13a38d"/>
    <path id="Path_15" data-name="Path 15" d="M98.34,88.981H84.517a1.141,1.141,0,1,1,0-2.283H97.089a18.081,18.081,0,0,1-1.663-7.628,18.95,18.95,0,0,1,.394-3.786H65.1l-.3,44.84H93.589a1.041,1.041,0,0,1,1.083,1.08v5.776a7.857,7.857,0,0,0,7.843,7.818h.025a7.8,7.8,0,0,0,7.785-7.8V97.178a18.1,18.1,0,0,1-11.984-8.2Zm-22.2,25.5a3.882,3.882,0,1,1,4.013-3.88A3.952,3.952,0,0,1,76.143,114.478Zm0-11.339a3.882,3.882,0,1,1,4.013-3.88A3.952,3.952,0,0,1,76.143,103.139Zm0-11.338a3.882,3.882,0,1,1,4.013-3.88A3.952,3.952,0,0,1,76.143,91.8Zm25.764,20.008H84.517a1.141,1.141,0,0,1,0-2.283h17.391a1.141,1.141,0,1,1,0,2.283Zm1.141-12.555a1.141,1.141,0,0,1-1.141,1.141H84.517a1.141,1.141,0,0,1,0-2.283h17.391A1.142,1.142,0,0,1,103.049,99.254Zm0,0" transform="translate(-26.217 -33.656)" fill="#13a38d"/>
  </g>
</svg>
