<svg xmlns="http://www.w3.org/2000/svg" width="32.81" height="32.81" viewBox="0 0 32.81 32.81">
  <g id="neutal-01-01" transform="translate(-16.21 -16.81)">
    <path id="Path_68" data-name="Path 68" d="M32.615,16.81a16.4,16.4,0,1,0,16.4,16.4A16.424,16.424,0,0,0,32.615,16.81Zm0,29.6A13.194,13.194,0,1,1,45.809,33.215,13.209,13.209,0,0,1,32.615,46.409Z" transform="translate(0 0)" fill="#fbb03b"/>
    <ellipse id="Ellipse_41" data-name="Ellipse 41" cx="2.4" cy="4.014" rx="2.4" ry="4.014" transform="translate(24.756 25.727)" fill="#fbb03b"/>
    <path id="Path_69" data-name="Path 69" d="M295.741,143.78c-1.369,0-2.4,1.726-2.4,4.014s1.03,4.014,2.4,4.014,2.4-1.726,2.4-4.014S297.108,143.78,295.741,143.78Z" transform="translate(-257.668 -118.053)" fill="#fbb03b"/>
    <path id="Path_70" data-name="Path 70" d="M154.784,296.575H143.8a2.1,2.1,0,1,0,0,4.2h10.981a2.1,2.1,0,1,0,0-4.2Z" transform="translate(-116.677 -260.118)" fill="#fbb03b"/>
  </g>
</svg>
