<svg xmlns="http://www.w3.org/2000/svg" width="32" height="32" viewBox="0 0 32 32">
    <defs>
        <linearGradient id="prefix__a" x1="8.392%" x2="91.608%" y1="91.608%" y2="8.391%">
            <stop offset="0%" stop-color="#FD9714"/>
            <stop offset="100%" stop-color="#FE5814"/>
        </linearGradient>
        <linearGradient id="prefix__b" x1="8.392%" x2="91.608%" y1="91.608%" y2="8.391%">
            <stop offset="0%" stop-color="#FD9714"/>
            <stop offset="100%" stop-color="#FE5814"/>
        </linearGradient>
    </defs>
    <g fill="none">
        <path fill="url(#prefix__a)" d="M31.904 9.403c-.078-1.703-.349-2.866-.744-3.883-.402-1.068-1.032-2.035-1.846-2.834-.799-.814-1.766-1.445-2.834-1.846C25.463.444 24.3.174 22.597.097 20.89.019 20.345 0 16 0c-4.345 0-4.89.019-6.597.096C7.7.174 6.537.445 5.52.84c-1.068.402-2.035 1.032-2.834 1.846C1.872 3.485 1.24 4.452.84 5.519.444 6.537.174 7.7.097 9.403.019 11.11 0 11.655 0 16c0 4.345.019 4.89.097 6.597.077 1.703.348 2.866.743 3.883.402 1.068 1.032 2.035 1.846 2.834.799.814 1.766 1.444 2.834 1.846 1.017.395 2.18.666 3.884.744C11.11 31.98 11.655 32 16 32c4.345 0 4.89-.019 6.597-.096 1.703-.078 2.866-.349 3.884-.744 2.149-.831 3.848-2.53 4.679-4.68.396-1.017.666-2.18.744-3.883C31.98 20.89 32 20.345 32 16c0-4.345-.019-4.89-.096-6.597zm-2.88 13.063c-.071 1.56-.332 2.407-.551 2.97-.538 1.396-1.641 2.499-3.037 3.037-.563.22-1.41.48-2.97.55-1.687.078-2.194.094-6.466.094-4.273 0-4.779-.016-6.466-.093-1.56-.071-2.407-.332-2.97-.55-.695-.257-1.324-.666-1.84-1.198-.532-.516-.94-1.144-1.197-1.84-.22-.563-.48-1.41-.55-2.97-.078-1.687-.094-2.194-.094-6.466s.016-4.778.093-6.465c.071-1.56.332-2.408.55-2.971.257-.695.667-1.324 1.198-1.84.516-.532 1.145-.94 1.84-1.197.563-.22 1.41-.48 2.97-.55 1.688-.078 2.194-.094 6.466-.094s4.778.016 6.465.093c1.56.071 2.407.332 2.971.551.695.257 1.324.666 1.84 1.197.531.516.94 1.145 1.197 1.84.219.563.48 1.41.55 2.97.078 1.688.094 2.194.094 6.466s-.016 4.778-.093 6.466z"/>
        <path fill="url(#prefix__b)" d="M16 7.784c-4.538 0-8.216 3.678-8.216 8.216 0 4.538 3.678 8.216 8.216 8.216 4.538 0 8.216-3.678 8.216-8.216 0-4.538-3.678-8.216-8.216-8.216zm0 13.55c-2.946-.001-5.333-2.389-5.333-5.334 0-2.946 2.387-5.333 5.333-5.333s5.333 2.387 5.333 5.333c0 2.945-2.388 5.333-5.333 5.333zM26.46 7.46c0 1.06-.859 1.92-1.92 1.92-1.06 0-1.92-.86-1.92-1.92 0-1.061.86-1.92 1.92-1.92 1.061 0 1.92.859 1.92 1.92z"/>
    </g>
</svg>
