<svg width="1004" height="352" viewBox="0 0 1004 352" fill="none" xmlns="http://www.w3.org/2000/svg">
<path d="M974.264 22.5043C990.424 22.7963 1003.3 35.214 1003.03 50.2395C1002.86 59.613 997.616 67.7865 989.77 72.5396C991.251 76.9991 992.01 81.7526 991.921 86.6748C991.709 98.4038 986.722 108.998 978.723 116.866L975.443 298.411L673.672 293.822C666.169 296.46 658.053 298.1 649.541 298.543C636.883 299.199 624.821 297.126 614.131 292.916L608.045 292.822C608.734 292.301 609.454 291.774 610.201 291.244C606.92 289.742 603.788 288.034 600.828 286.135C592.144 305.636 570.766 320.057 545.094 321.39C512.217 323.096 484.132 302.718 480.116 275.164C473.813 281.14 466.061 285.64 457.443 288.114C479.809 300.601 495.973 311.594 505.933 321.093L138.577 313.226L143.13 61.1744C131.463 58.1061 122.944 47.1854 123.176 34.3435C123.447 19.318 135.597 7.3525 150.313 7.61836C164.353 7.87201 175.657 19.165 176.431 33.2493C180.418 31.9391 184.673 31.2679 189.084 31.3476C211.014 31.7438 228.458 50.57 228.045 73.3982C227.981 76.9846 227.479 80.4581 226.594 83.7617C228.717 83.506 230.886 83.3932 233.091 83.433C256.776 83.8609 275.865 101.709 277.184 123.936C286.11 117.536 296.838 113.893 308.321 114.101C338.619 114.648 362.7 141.797 362.105 174.737C361.972 182.106 360.614 189.14 358.25 195.614L358.483 195.612L359.113 195.619C373.227 195.874 385.416 203.456 391.815 214.517C400.483 195.305 420.236 182.069 442.975 182.479C471.18 182.989 494.036 204.316 496.625 231.27C507.418 221.238 522.532 214.619 539.529 213.737C551.957 213.091 563.699 215.603 573.717 220.463C581.456 193.565 609.067 172.789 642.95 171.031C671.746 169.537 697.454 182.175 710.952 201.936C719.463 189.688 736.533 181.502 756.053 181.855C758.008 181.89 759.934 182.01 761.827 182.209C761.67 180.934 761.559 179.643 761.492 178.337C759.955 148.61 781.839 123.311 810.374 121.83C823.371 121.155 835.505 125.539 845.012 133.322C850.2 114.72 868.137 101.187 889.212 101.568C892.722 101.631 896.131 102.077 899.397 102.862C896.963 97.3452 895.67 91.2829 895.785 84.9379C896.234 60.088 918.118 40.331 944.666 40.8107C945.136 40.8192 945.605 40.8346 946.071 40.8561C950.058 29.9843 961.24 22.269 974.264 22.5043V22.5043Z" fill="url(#paint0_linear)"/>
<path d="M951.878 9.61902C969.893 9.79807 984.363 23.5186 984.197 40.2647C984.093 50.7112 978.318 59.8673 969.615 65.235C971.306 70.1921 972.195 75.4812 972.14 80.9679C972.011 94.0373 966.549 105.888 957.705 114.726L955.696 316.933L619.609 314.553C611.17 317.634 602.017 319.583 592.398 320.16C578.156 321.015 564.568 318.762 552.527 314.077L546.225 314.032C546.94 313.484 547.682 312.93 548.452 312.372C544.791 310.731 541.291 308.858 537.983 306.774C528.479 328.584 504.779 344.848 476.174 346.565C439.54 348.764 408.046 326.31 403.322 295.641C396.4 302.31 387.873 307.37 378.371 310.217C403.333 323.906 421.395 335.992 432.559 346.474L23.1129 341.032L25.9033 60.2788C12.782 57.0262 3.10211 44.8914 3.24499 30.5151C3.41143 13.7689 16.8467 0.325795 33.2549 0.488875C48.9071 0.644442 61.6087 13.1263 62.6008 28.8139C67.0329 27.3179 71.771 26.531 76.6877 26.5798C101.139 26.8228 120.754 47.6448 120.501 73.0866C120.461 77.0844 119.932 80.9583 118.976 84.648C121.342 84.3435 123.759 84.1985 126.216 84.2229C152.622 84.4854 174.063 104.201 175.734 128.957C185.627 121.746 197.554 117.59 210.356 117.717C244.136 118.053 271.224 148.087 270.859 184.8C270.777 193.012 269.329 200.863 266.752 208.099L267.012 208.094L267.714 208.096C283.449 208.253 297.106 216.592 304.34 228.859C313.829 207.373 335.728 192.443 361.079 192.695C392.524 193.008 418.196 216.567 421.328 246.58C433.269 235.303 450.056 227.789 468.995 226.653C482.843 225.822 495.956 228.513 507.165 233.838C515.551 203.794 546.141 180.394 583.894 178.128C615.981 176.202 644.753 190.053 659.979 211.951C669.356 198.226 688.309 188.949 710.074 189.166C712.252 189.187 714.4 189.304 716.511 189.51C716.326 188.088 716.191 186.649 716.104 185.196C714.121 152.084 738.288 123.694 770.082 121.786C784.563 120.917 798.129 125.691 808.798 134.278C814.414 113.503 834.286 98.2597 857.783 98.4932C861.696 98.5321 865.501 98.997 869.148 99.8443C866.385 93.7165 864.888 86.9713 864.959 79.9017C865.234 52.206 889.45 29.9926 919.048 30.2868C919.573 30.292 920.094 30.3042 920.615 30.3234C924.961 18.1729 937.355 9.47469 951.878 9.61902Z" fill="url(#paint1_linear)"/>
<defs>
<linearGradient id="paint0_linear" x1="697.5" y1="34" x2="618.104" y2="309.834" gradientUnits="userSpaceOnUse">
<stop stop-color="white"/>
<stop offset="0.399211" stop-color="#FFC679"/>
<stop offset="1" stop-color="#FE5814"/>
</linearGradient>
<linearGradient id="paint1_linear" x1="618.034" y1="6.30097" x2="613.664" y2="446.006" gradientUnits="userSpaceOnUse">
<stop stop-color="white"/>
<stop offset="0.50979" stop-color="#FFC679"/>
<stop offset="1" stop-color="#FFF5F1"/>
</linearGradient>
</defs>
</svg>
