<svg width="512" height="512" viewBox="0 0 512 512" fill="none" xmlns="http://www.w3.org/2000/svg">
<path d="M376 120C359.431 120 346 106.569 346 90V30C346 13.431 359.431 0 376 0C392.569 0 406 13.431 406 30V90C406 106.569 392.569 120 376 120Z" fill="#C6C4CE"/>
<path d="M457 60H436V90C436 123.084 409.084 150 376 150C342.916 150 316 123.084 316 90V60H196V90C196 123.084 169.084 150 136 150C102.916 150 76 123.084 76 90V60H55C24.673 60 0 84.673 0 115V182H512V115C512 84.673 487.327 60 457 60Z" fill="#C6C4CE"/>
<path d="M136 120C119.431 120 106 106.569 106 90V30C106 13.431 119.431 0 136 0C152.569 0 166 13.431 166 30V90C166 106.569 152.569 120 136 120Z" fill="#C6C4CE"/>
<path d="M0 212V457C0 487.327 24.673 512 55 512H457C487.327 512 512 487.327 512 457V212H0ZM271.764 407C271.764 440.084 244.848 467 211.764 467C181.996 467 156.451 444.795 152.341 415.35C151.958 412.603 151.764 409.794 151.764 407C151.764 398.716 158.48 392 166.764 392C175.048 392 181.764 398.716 181.764 407C181.764 408.412 181.862 409.826 182.054 411.204C184.105 425.91 196.878 437 211.764 437C228.306 437 241.764 423.542 241.764 407C241.764 390.458 228.306 377 211.764 377C203.48 377 196.764 370.284 196.764 362C196.764 353.716 203.48 347 211.764 347C228.306 347 241.764 333.542 241.764 317C241.764 300.458 228.306 287 211.764 287C197.458 287 185.078 297.165 182.327 311.169C180.729 319.298 172.838 324.592 164.718 322.997C156.589 321.4 151.293 313.516 152.89 305.387C158.396 277.35 183.156 257 211.764 257C244.848 257 271.764 283.916 271.764 317C271.764 334.908 263.868 350.997 251.387 362C263.868 373.003 271.764 389.092 271.764 407V407ZM360.236 452C360.236 460.284 353.52 467 345.236 467C336.952 467 330.236 460.284 330.236 452V287H306.763C298.479 287 291.763 280.284 291.763 272C291.763 263.716 298.479 257 306.763 257H345.236C353.52 257 360.236 263.716 360.236 272V452Z" fill="#C6C4CE"/>
<rect x="71" y="242" width="392" height="252" fill="#C6C4CE"/>
<rect x="69" y="60" width="385" height="114" fill="#C6C4CE"/>
</svg>
