<?xml version="1.0" encoding="iso-8859-1"?>
<!-- Generator: Adobe Illustrator 19.0.0, SVG Export Plug-In . SVG Version: 6.00 Build 0)  -->
<svg version="1.1" id="Capa_1" xmlns="http://www.w3.org/2000/svg" xmlns:xlink="http://www.w3.org/1999/xlink" x="0px" y="0px"
	 viewBox="0 0 512 512" style="enable-background:new 0 0 512 512;" xml:space="preserve">
<path style="fill:#DEECF1;" d="M286,0h-60C135.099,0,61,75.099,61,166v180c0,90.899,74.099,166,165,166h60
	c90.901,0,165-75.101,165-166V166C451,75.099,376.901,0,286,0z"/>
<path style="fill:#C6E2E7;" d="M451,166v180c0,90.899-74.099,166-165,166h-30V0h30C376.901,0,451,75.099,451,166z"/>
<path style="fill:#00ABE9;" d="M391,166v165l-10.499,60c-17.1,35.4-52.8,60-94.501,60h-60c-57.9,0-105-47.1-105-105v-75l30-178.5
	C170.2,73.3,196.601,61,226,61h60C343.9,61,391,108.1,391,166z"/>
<path style="fill:#1A96E2;" d="M391,166v165l-10.499,60c-17.1,35.4-52.8,60-94.501,60h-30V61h30C343.9,61,391,108.1,391,166z"/>
<g>
	<path style="fill:#96FFF6;" d="M331,211c0,32.999-27.001,60-60,60H121V166c0-28.5,11.4-54.3,30-73.5c4.799-0.901,9.901-1.5,15-1.5
		c36.301,0,66.599,25.8,73.5,60H271C303.999,151,331,177.999,331,211z"/>
	<path style="fill:#96FFF6;" d="M391,331v15c0,16.199-3.9,31.199-10.499,45H271c-5.4,0-10.499-1.5-15-4.2c-9-5.099-15-14.7-15-25.8
		s6-20.7,15-25.8c4.501-2.701,9.6-4.2,15-4.2H391z"/>
</g>
<g>
	<path style="fill:#3DD1D1;" d="M271,271h-15V151h15c32.999,0,60,26.999,60,60C331,243.999,303.999,271,271,271z"/>
	<path style="fill:#3DD1D1;" d="M391,331v15c0,16.199-3.9,31.199-10.499,45H271c-5.4,0-10.499-1.5-15-4.2v-51.6
		c4.501-2.701,9.6-4.2,15-4.2H391z"/>
</g>
<g>
</g>
<g>
</g>
<g>
</g>
<g>
</g>
<g>
</g>
<g>
</g>
<g>
</g>
<g>
</g>
<g>
</g>
<g>
</g>
<g>
</g>
<g>
</g>
<g>
</g>
<g>
</g>
<g>
</g>
</svg>
