<svg width="512" height="512" viewBox="0 0 512 512" fill="none" xmlns="http://www.w3.org/2000/svg">
<g clip-path="url(#clip0)">
<path d="M186.667 375.723V474.667C186.667 481.579 191.104 487.701 197.675 489.877C199.317 490.411 201.003 490.667 202.667 490.667C207.659 490.667 212.48 488.32 215.552 484.139L273.429 405.376L186.667 375.723Z" fill="#C6C4CE"/>
<path d="M505.28 2.96533C500.373 -0.512002 493.931 -0.981335 488.597 1.81333L8.59734 252.48C2.92267 255.445 -0.426664 261.504 0.0426695 267.883C0.533336 274.283 4.77867 279.744 10.816 281.813L144.256 327.424L428.437 84.4373L208.533 349.376L432.171 425.813C433.835 426.368 435.584 426.667 437.333 426.667C440.235 426.667 443.115 425.877 445.653 424.341C449.707 421.867 452.459 417.707 453.163 413.035L511.829 18.368C512.704 12.3947 510.187 6.464 505.28 2.96533Z" fill="#C6C4CE"/>
</g>
<defs>
<clipPath id="clip0">
<rect width="512" height="512" fill="white"/>
</clipPath>
</defs>
</svg>
