<svg width="466" height="320" viewBox="0 0 466 320" fill="none" xmlns="http://www.w3.org/2000/svg">
<g id="full-time-model 1" clip-path="url(#clip0)">
<g id="Group">
<path id="full-time-model-img-top-inner-cloud" fill-rule="evenodd" clip-rule="evenodd" d="M433 72C432.08 72 431.208 72.192 430.312 72.272C422.595 50.192 400.086 36.889 377.022 40.777C353.957 44.664 337.053 64.61 337 88C337 88.504 337.064 88.992 337.072 89.496C334.489 88.531 331.757 88.026 329 88C315.745 88 305 98.745 305 112C305 125.255 315.745 136 329 136H433C450.673 136 465 121.673 465 104C465 86.327 450.673 72 433 72Z" fill="url(#paint0_linear)"/>
<path id="Vector" d="M233 288C312.529 288 377 223.529 377 144C377 64.471 312.529 0 233 0C153.471 0 89 64.471 89 144C89 223.529 153.471 288 233 288Z" fill="url(#paint1_linear)"/>
<path id="full-time-model-img-bottom-outer-cloud" fill-rule="evenodd" clip-rule="evenodd" d="M265 240C259.077 240.039 253.237 241.406 247.912 244C235.684 226.904 213.72 219.806 193.8 226.512C181.586 202.949 156.083 189.384 129.718 192.425C103.352 195.467 81.608 214.483 75.08 240.208C74.352 240.168 73.704 240 73 240C53.39 240.026 36.706 254.296 33.64 273.664C24.64 270.126 14.394 272.336 7.65296 279.27C0.910959 286.204 -1.01004 296.507 2.77996 305.405C6.56996 314.303 15.329 320.056 25 320H265C287.091 320 305 302.091 305 280C305 257.909 287.091 240 265 240Z" fill="url(#paint2_linear)"/>
<path id="full-time-model-img-bottom-inner-cloud" d="M265 240C259.077 240.039 253.237 241.406 247.912 244C235.684 226.904 213.72 219.806 193.8 226.512C182.203 204.106 158.506 190.625 133.32 192.105C108.135 193.585 86.18 209.75 77.288 233.36C91.879 219.631 112.065 213.542 131.814 216.912C151.564 220.282 168.587 232.722 177.8 250.512C197.72 243.806 219.684 250.904 231.912 268C245.68 261.354 262.039 263.184 273.998 272.708C285.958 282.232 291.403 297.765 288.008 312.672C302.311 302.665 308.458 284.529 303.189 267.887C297.921 251.246 282.456 239.953 265 240Z" fill="url(#paint3_linear)" stroke="white" stroke-width="2"/>
<path id="full-time-model-img-top-outer-cloud" d="M433 72C432.08 72 431.208 72.192 430.312 72.272C425.424 58.139 414.22 47.096 400.018 42.412C385.816 37.728 370.241 39.94 357.904 48.392C376.421 50.272 392.175 62.701 398.312 80.272C399.208 80.192 400.08 80 401 80C414.338 79.952 426.296 88.213 430.971 100.705C435.647 113.196 432.051 127.278 421.96 136H433C450.673 136 465 121.673 465 104C465 86.327 450.673 72 433 72Z" fill="url(#paint4_linear)" stroke="white" stroke-width="2"/>
<g id="Group_2">
<path id="full-time-model-img-stars" d="M389 288H385V284C385 279.582 381.418 276 377 276C372.582 276 369 279.582 369 284V288H365C360.582 288 357 291.582 357 296C357 300.418 360.582 304 365 304H369V308C369 312.418 372.582 316 377 316C381.418 316 385 312.418 385 308V304H389C393.418 304 397 300.418 397 296C397 291.582 393.418 288 389 288ZM53 48H49V44C49 39.582 45.418 36 41 36C36.582 36 33 39.582 33 44V48H29C24.582 48 21 51.582 21 56C21 60.418 24.582 64 29 64H33V68C33 72.418 36.582 76 41 76C45.418 76 49 72.418 49 68V64H53C57.418 64 61 60.418 61 56C61 51.582 57.418 48 53 48ZM37 184H33V180C33 175.582 29.418 172 25 172C20.582 172 17 175.582 17 180V184H13C8.582 184 5 187.582 5 192C5 196.418 8.582 200 13 200H17V204C17 208.418 20.582 212 25 212C29.418 212 33 208.418 33 204V200H37C41.418 200 45 196.418 45 192C45 187.582 41.418 184 37 184Z" fill="url(#paint5_linear)"/>
</g>
</g>
</g>
<defs>
<linearGradient id="paint0_linear" x1="335.488" y1="70.8287" x2="484.271" y2="187.441" gradientUnits="userSpaceOnUse">
<stop stop-color="#343434"/>
<stop offset="1"/>
</linearGradient>
<linearGradient id="paint1_linear" x1="120.749" y1="82.944" x2="354.306" y2="266.23" gradientUnits="userSpaceOnUse">
<stop stop-color="#FD9714"/>
<stop offset="1" stop-color="#FD5714"/>
</linearGradient>
<linearGradient id="paint2_linear" x1="-324.376" y1="256.017" x2="272.941" y2="319.345" gradientUnits="userSpaceOnUse">
<stop offset="0.00069" stop-color="#D5D5D5"/>
<stop offset="1" stop-color="#343434"/>
</linearGradient>
<linearGradient id="paint3_linear" x1="210.238" y1="250.562" x2="224.421" y2="220.912" gradientUnits="userSpaceOnUse">
<stop stop-color="#343434"/>
<stop offset="1"/>
</linearGradient>
<linearGradient id="paint4_linear" x1="420.417" y1="83.9658" x2="433.574" y2="37.4337" gradientUnits="userSpaceOnUse">
<stop stop-color="#343434"/>
<stop offset="1"/>
</linearGradient>
<linearGradient id="paint5_linear" x1="-211.835" y1="36" x2="204.312" y2="373.607" gradientUnits="userSpaceOnUse">
<stop stop-color="#D5D5D5"/>
<stop offset="1"/>
</linearGradient>
<clipPath id="clip0">
<rect width="466" height="320" fill="white"/>
</clipPath>
</defs>
</svg>
