<svg id="Component_1_1" data-name="Component 1 – 1" xmlns="http://www.w3.org/2000/svg" width="134" height="134" viewBox="0 0 134 134">
  <circle id="Ellipse_127" data-name="Ellipse 127" cx="67" cy="67" r="67" fill="#5784f7" opacity="0.2"/>
  <g id="export" transform="translate(35.357 33.663)">
    <path id="Path_1063" data-name="Path 1063" d="M31.542,45.5H23.167a2.8,2.8,0,0,1-2.792-2.792V28.75H13.4a1.4,1.4,0,0,1-.988-2.384L26.366,12.408a1.4,1.4,0,0,1,1.974,0L42.3,26.366a1.4,1.4,0,0,1-.985,2.384H34.333V42.708A2.8,2.8,0,0,1,31.542,45.5ZM16.766,25.958h5.005a1.4,1.4,0,0,1,1.4,1.4V42.708h8.375V27.354a1.4,1.4,0,0,1,1.4-1.4h5.005L27.354,15.37Z" transform="translate(19.707 21.499)" fill="#5784f7"/>
    <path id="Path_1064" data-name="Path 1064" d="M24.728,16.749C12.937,16.749,1,13.874,1,8.375S12.937,0,24.728,0,48.457,2.875,48.457,8.375,36.52,16.749,24.728,16.749Zm0-13.958C11.949,2.792,3.792,6.1,3.792,8.375s8.157,5.583,20.937,5.583S45.665,10.65,45.665,8.375,37.508,2.792,24.728,2.792Z" fill="#5784f7"/>
    <path id="Path_1065" data-name="Path 1065" d="M18.4,23.437a1.4,1.4,0,0,1-1.4-1.4V3.9a1.4,1.4,0,1,1,2.792,0V22.041A1.4,1.4,0,0,1,18.4,23.437Z" transform="translate(28.665 4.479)" fill="#5784f7"/>
    <path id="Path_1066" data-name="Path 1066" d="M24.728,56.936C12.937,56.936,1,54.06,1,48.561V3.9a1.4,1.4,0,0,1,2.792,0V48.561c0,2.275,8.157,5.583,20.937,5.583a60.106,60.106,0,0,0,8.182-.516,1.4,1.4,0,1,1,.385,2.764A62.132,62.132,0,0,1,24.728,56.936Z" transform="translate(0 4.479)" fill="#5784f7"/>
    <path id="Path_1067" data-name="Path 1067" d="M24.728,24.271C12.937,24.271,1,21.4,1,15.9a1.4,1.4,0,1,1,2.792,0c0,2.275,8.157,5.583,20.937,5.583a1.4,1.4,0,1,1,0,2.792Z" transform="translate(0 25.978)" fill="#5784f7"/>
    <path id="Path_1068" data-name="Path 1068" d="M24.728,20.271C12.937,20.271,1,17.4,1,11.9a1.4,1.4,0,1,1,2.792,0c0,2.275,8.157,5.583,20.937,5.583a61.651,61.651,0,0,0,8.026-.491,1.4,1.4,0,0,1,.366,2.766,64.279,64.279,0,0,1-8.391.516Z" transform="translate(0 18.812)" fill="#5784f7"/>
    <path id="Path_1069" data-name="Path 1069" d="M24.728,16.271C12.937,16.271,1,13.4,1,7.9a1.4,1.4,0,1,1,2.792,0c0,2.275,8.157,5.583,20.937,5.583S45.665,10.171,45.665,7.9a1.4,1.4,0,1,1,2.792,0C48.457,13.4,36.52,16.271,24.728,16.271Z" transform="translate(0 11.645)" fill="#5784f7"/>
  </g>
</svg>
