<svg id="Component_1_1" data-name="Component 1 – 1" xmlns="http://www.w3.org/2000/svg" width="134" height="134" viewBox="0 0 134 134">
  <circle id="Ellipse_126" data-name="Ellipse 126" cx="67" cy="67" r="67" fill="#5784f7" opacity="0.2"/>
  <g id="business-and-finance_1_" data-name="business-and-finance (1)" transform="translate(29.315 29.677)">
    <g id="Group_784" data-name="Group 784" transform="translate(37.833 0)">
      <g id="Group_783" data-name="Group 783" transform="translate(0 0)">
        <path id="Path_1061" data-name="Path 1061" d="M270.53,11.679l-.015-.015A29.3,29.3,0,0,0,249.923,3.15,1.528,1.528,0,0,0,248.4,4.673v27.6a1.515,1.515,0,0,0,1.523,1.508h27.6a1.515,1.515,0,0,0,1.523-1.508A29.23,29.23,0,0,0,270.53,11.679ZM251.446,6.242a25.411,25.411,0,0,1,8.225,1.843l-8.225,8.225Zm0,14.378L262.6,9.471a26.316,26.316,0,0,1,4.615,3.259L251.446,28.509Zm2.071,10.113,15.855-15.855a27.111,27.111,0,0,1,3.275,4.6L261.392,30.733Zm12.185,0,8.346-8.346a25.9,25.9,0,0,1,1.9,8.346Z" transform="translate(-248.4 -3.15)" fill="#5784f7"/>
      </g>
    </g>
    <g id="Group_786" data-name="Group 786" transform="translate(0 10.067)">
      <g id="Group_785" data-name="Group 785" transform="translate(0)">
        <path id="Path_1062" data-name="Path 1062" d="M74.143,93.313H57.877a1.544,1.544,0,0,0-1.462,1.6v1.9H30.675V70.772a1.541,1.541,0,0,0-1.538-1.523A28.935,28.935,0,0,0,8.514,77.778a29.161,29.161,0,0,0,27.811,48.83,11.874,11.874,0,0,0-1.447,5.712,1.515,1.515,0,0,0,1.523,1.508H57.374a1.515,1.515,0,0,0,1.523-1.508,12.023,12.023,0,0,0-9.382-11.712,8.945,8.945,0,0,0,6-9.885c.32-.67.594-1.356.9-2.041v3.168a1.476,1.476,0,0,0,.914,1.4,1.442,1.442,0,0,0,.564.122,1.538,1.538,0,0,0,1.066-.472l3.4-3.442H74.143a1.424,1.424,0,0,0,1.462-1.371V94.913A1.544,1.544,0,0,0,74.143,93.313ZM55.714,130.781H38.046a8.964,8.964,0,0,1,17.668,0ZM46.88,117.972a5.7,5.7,0,1,1,5.7-5.7A5.7,5.7,0,0,1,46.88,117.972Zm6.884-11.088a8.737,8.737,0,1,0-10.433,13.357,25.719,25.719,0,0,1-14.21,4.188,26.065,26.065,0,0,1-1.493-52.089V98.37a1.476,1.476,0,0,0,1.447,1.493H55.151A25.756,25.756,0,0,1,53.765,106.884Zm18.795-.472H61.73a1.531,1.531,0,0,0-1.051.472l-1.218,1.295V96.36h13.1Z" transform="translate(0 -69.249)" fill="#5784f7"/>
      </g>
    </g>
  </g>
</svg>
