<svg width="90" height="90" viewBox="0 0 90 90" fill="none" xmlns="http://www.w3.org/2000/svg">
<g id="process-ci 1">
<g id="Group">
<path id="process-ci-img-outer-arrow" d="M71.535 67.446C76.554 62.208 79.985 55.656 81.432 48.547C81.464 48.387 81.432 48.22 81.341 48.084C81.251 47.948 81.109 47.854 80.948 47.822L79.773 47.591C80.166 45.432 80.364 43.242 80.364 41.048C80.351 27.024 72.232 14.271 59.53 8.325L51.282 0.177003C51.125 0.023003 50.899 -0.035997 50.687 0.022003C50.475 0.080003 50.311 0.246003 50.255 0.459003L49.541 3.197C48.557 3.007 47.551 2.899 47.42 2.884C40.208 2.108 32.923 3.392 26.411 6.586C26.264 6.659 26.152 6.786 26.1 6.942C26.047 7.097 26.059 7.266 26.132 7.412L27.077 9.309C24.021 10.972 21.22 13.069 18.761 15.531C11.97 22.283 8.16197 31.471 8.18697 41.048C8.18697 43.328 8.39997 45.602 8.82397 47.841V47.852L7.21197 59.426C7.18197 59.643 7.26997 59.86 7.44297 59.996C7.61697 60.13 7.84897 60.162 8.05197 60.08L10.67 59.016C11.109 59.921 11.62 60.789 11.688 60.902C15.377 67.149 20.761 72.222 27.216 75.534C27.362 75.608 27.531 75.621 27.687 75.571C27.843 75.52 27.971 75.409 28.045 75.263L30.258 70.871C30.41 70.57 30.291 70.201 29.99 70.048C24.579 67.265 20.066 63.008 16.97 57.768C16.77 57.429 16.569 57.075 16.37 56.708L18.883 55.697C19.087 55.614 19.231 55.43 19.261 55.212C19.291 54.994 19.204 54.777 19.031 54.642L10.041 47.634C9.62897 45.464 9.42397 43.262 9.42497 41.054C9.39897 31.806 13.074 22.931 19.63 16.408C21.994 14.039 24.685 12.022 27.622 10.418L28.323 11.823C28.473 12.126 28.841 12.25 29.144 12.101C34.61 9.422 40.722 8.345 46.774 8.994C47.165 9.034 47.571 9.086 47.984 9.145L47.299 11.765C47.243 11.978 47.305 12.204 47.462 12.358C47.618 12.513 47.845 12.572 48.057 12.514L59.097 9.482C71.32 15.242 79.124 27.536 79.137 41.048C79.137 43.163 78.945 45.273 78.566 47.353L76.12 46.871C75.788 46.806 75.466 47.021 75.398 47.352C74.178 53.312 71.297 58.805 67.088 63.197C66.815 63.483 66.528 63.772 66.228 64.057L64.571 61.914C64.437 61.741 64.221 61.652 64.003 61.681C63.785 61.711 63.6 61.854 63.516 62.057L59.084 72.869C59.001 73.073 59.032 73.305 59.167 73.479C59.301 73.652 59.518 73.741 59.736 73.711L71.311 72.155C71.529 72.125 71.714 71.982 71.797 71.78C71.88 71.577 71.85 71.345 71.716 71.171L69.989 68.937C70.747 68.267 71.444 67.541 71.535 67.446V67.446ZM15.224 55.846C15.02 55.93 14.875 56.116 14.846 56.334C14.816 56.552 14.906 56.77 15.081 56.904C15.355 57.424 15.636 57.924 15.915 58.397C19.023 63.657 23.512 67.967 28.893 70.859L27.23 74.154C21.221 70.944 16.21 66.144 12.745 60.279C12.305 59.536 11.904 58.769 11.545 57.984C11.41 57.68 11.058 57.538 10.751 57.664L8.57697 58.544L9.89697 49.077L17.434 54.953L15.224 55.847V55.846ZM48.759 11.046L49.361 8.741C49.418 8.527 49.355 8.299 49.197 8.144C49.039 7.989 48.81 7.931 48.597 7.992C48.016 7.901 47.447 7.826 46.903 7.768C40.83 7.115 34.693 8.136 29.158 10.718L27.51 7.416C33.675 4.517 40.517 3.369 47.29 4.096C48.15 4.187 49.003 4.324 49.848 4.506C50.174 4.584 50.502 4.386 50.586 4.062L51.178 1.792L57.978 8.508L48.758 11.047L48.759 11.046ZM68.76 68.37C68.502 68.581 68.46 68.96 68.663 69.223L70.098 71.078L60.631 72.36L64.255 63.518L65.712 65.402C65.847 65.577 66.066 65.666 66.284 65.635C66.503 65.605 66.688 65.459 66.77 65.254C67.194 64.852 67.6 64.447 67.982 64.049C72.205 59.638 75.142 54.156 76.475 48.197L80.098 48.91C78.627 55.561 75.357 61.68 70.644 66.599C70.048 67.223 69.419 67.814 68.76 68.37Z" fill="black"/>
<path id="Vector" d="M88.11 15.659H65.98C65.3007 15.659 64.75 16.2097 64.75 16.889V39.019C64.75 39.6983 65.3007 40.249 65.98 40.249H88.11C88.7893 40.249 89.34 39.6983 89.34 39.019V16.889C89.34 16.2097 88.7893 15.659 88.11 15.659Z" fill="#FE5814"/>
<path id="Vector_2" d="M86.512 33.671H73.305C70.157 33.671 67.605 31.12 67.605 27.971C67.605 24.824 70.157 22.273 73.305 22.273H80.812C83.958 22.277 86.507 24.826 86.511 27.971V33.671H86.512ZM73.305 23.502C70.835 23.502 68.835 25.503 68.835 27.972C68.835 30.441 70.835 32.442 73.305 32.442H85.28V27.972C85.277 25.505 83.278 23.506 80.81 23.503L73.304 23.502H73.305Z" fill="black"/>
<path id="Vector_3" d="M77.058 28.976C77.6103 28.976 78.058 28.5269 78.058 27.973C78.058 27.4191 77.6103 26.97 77.058 26.97C76.5057 26.97 76.058 27.4191 76.058 27.973C76.058 28.5269 76.5057 28.976 77.058 28.976Z" fill="black"/>
<path id="Vector_4" d="M72.5291 28.976C73.0813 28.976 73.5291 28.5269 73.5291 27.973C73.5291 27.4191 73.0813 26.97 72.5291 26.97C71.9768 26.97 71.5291 27.4191 71.5291 27.973C71.5291 28.5269 71.9768 28.976 72.5291 28.976Z" fill="black"/>
<path id="Vector_5" d="M81.589 28.976C82.1413 28.976 82.589 28.5269 82.589 27.973C82.589 27.4191 82.1413 26.97 81.589 26.97C81.0367 26.97 80.589 27.4191 80.589 27.973C80.589 28.5269 81.0367 28.976 81.589 28.976Z" fill="black"/>
<path id="Vector_6" d="M55.895 65.295H33.765C33.0857 65.295 32.535 65.8457 32.535 66.525V88.655C32.535 89.3343 33.0857 89.885 33.765 89.885H55.895C56.5743 89.885 57.125 89.3343 57.125 88.655V66.525C57.125 65.8457 56.5743 65.295 55.895 65.295Z" fill="#FE5814"/>
<path id="Vector_7" d="M41.353 83.418C41.199 83.418 41.051 83.36 40.939 83.254L40.899 83.216L36.393 78.714C36.097 78.418 35.931 78.017 35.931 77.599C35.931 77.18 36.097 76.779 36.393 76.483L40.914 71.962L40.954 71.924C41.114 71.774 41.344 71.722 41.554 71.787C41.764 71.851 41.923 72.023 41.972 72.237C42.021 72.451 41.952 72.675 41.791 72.825L37.264 77.352C37.198 77.417 37.161 77.506 37.161 77.598C37.16 77.69 37.196 77.778 37.261 77.844L41.765 82.348C41.954 82.518 42.017 82.788 41.925 83.026C41.832 83.264 41.602 83.419 41.347 83.417L41.353 83.418V83.418ZM48.301 83.42C48.049 83.421 47.822 83.267 47.729 83.032C47.636 82.797 47.696 82.53 47.881 82.357L47.891 82.349L52.394 77.845C52.46 77.78 52.496 77.691 52.495 77.599C52.495 77.507 52.457 77.419 52.392 77.353L47.871 72.833C47.751 72.721 47.679 72.567 47.673 72.403C47.667 72.239 47.727 72.079 47.839 71.959C48.069 71.716 48.452 71.702 48.699 71.927L48.736 71.963L53.257 76.484C53.553 76.78 53.72 77.181 53.72 77.6C53.72 78.018 53.553 78.42 53.257 78.716L48.754 83.219L48.717 83.255C48.604 83.36 48.456 83.42 48.301 83.421V83.42ZM43.634 83.42C43.447 83.421 43.269 83.336 43.152 83.19C43.036 83.043 42.992 82.851 43.034 82.668L45.428 72.256C45.504 71.925 45.834 71.718 46.165 71.794C46.496 71.87 46.703 72.2 46.627 72.531L44.233 82.944C44.169 83.223 43.92 83.421 43.634 83.421V83.42Z" fill="black"/>
<path id="Vector_8" d="M23.36 15.72H1.23C0.55069 15.72 0 16.2707 0 16.95V39.08C0 39.7593 0.55069 40.31 1.23 40.31H23.36C24.0393 40.31 24.59 39.7593 24.59 39.08V16.95C24.59 16.2707 24.0393 15.72 23.36 15.72Z" fill="#FE5814"/>
<path id="Vector_9" d="M8.03195 30.434C7.81795 30.434 7.61795 30.322 7.50695 30.138C7.39595 29.954 7.38795 29.726 7.48695 29.535L9.61795 25.437C9.71495 25.252 9.89995 25.128 10.1079 25.109C10.3169 25.09 10.5199 25.179 10.6479 25.344L12.3179 27.488L13.3729 25.141C13.4579 24.954 13.6289 24.821 13.8319 24.788C14.0339 24.754 14.2389 24.822 14.3799 24.971L15.7829 26.458L19.3809 22.523C19.5219 22.34 19.7549 22.252 19.9819 22.295C20.2099 22.338 20.3939 22.505 20.4579 22.728C20.5219 22.951 20.4559 23.19 20.2869 23.348L16.2429 27.775C16.1279 27.901 15.9649 27.973 15.7939 27.975C15.6229 27.976 15.4589 27.906 15.3419 27.782L14.1119 26.482L13.0139 28.923C12.9249 29.119 12.7399 29.255 12.5259 29.28C12.3119 29.305 12.0999 29.216 11.9679 29.046L10.2679 26.855L8.57795 30.102C8.47295 30.306 8.26195 30.434 8.03195 30.434V30.434Z" fill="black"/>
<path id="Vector_10" d="M20.246 34.532H4.344C4.004 34.532 3.729 34.257 3.729 33.917V22.114C3.729 21.774 4.004 21.499 4.344 21.499C4.684 21.499 4.959 21.774 4.959 22.114V33.302H20.246C20.586 33.302 20.861 33.578 20.861 33.917C20.861 34.257 20.586 34.532 20.246 34.532V34.532ZM46.755 56.294H41.803C41.103 56.291 40.499 55.804 40.348 55.121L39.932 53.211C39.532 53.068 39.139 52.905 38.754 52.719L37.109 53.776C36.519 54.152 35.749 54.069 35.251 53.577L31.747 50.073C31.255 49.576 31.173 48.805 31.548 48.215L32.605 46.57C32.423 46.186 32.26 45.792 32.114 45.392L30.203 44.977C29.523 44.824 29.037 44.222 29.033 43.525V38.57C29.036 37.87 29.523 37.267 30.205 37.115L32.116 36.7C32.259 36.3 32.422 35.907 32.608 35.522L31.55 33.877C31.175 33.287 31.258 32.516 31.75 32.019L35.254 28.515C35.751 28.023 36.522 27.94 37.111 28.315L38.757 29.373C39.141 29.191 39.535 29.027 39.934 28.881L40.35 26.971C40.503 26.291 41.106 25.806 41.803 25.802H46.758C47.458 25.806 48.061 26.292 48.213 26.975L48.628 28.886C49.028 29.029 49.421 29.192 49.806 29.378L51.451 28.32C52.041 27.945 52.812 28.028 53.309 28.52L56.813 32.024C57.305 32.521 57.388 33.292 57.013 33.882L55.955 35.527C56.137 35.911 56.3 36.305 56.447 36.705L58.357 37.12C59.04 37.272 59.527 37.875 59.53 38.575V43.525C59.527 44.224 59.04 44.828 58.357 44.979L56.434 45.396C56.292 45.796 56.128 46.189 55.943 46.574L57 48.219C57.375 48.809 57.293 49.579 56.8 50.077L53.297 53.581C52.8 54.073 52.029 54.156 51.439 53.78L49.794 52.723C49.409 52.905 49.016 53.068 48.616 53.214L48.2 55.125C48.048 55.803 47.45 56.287 46.755 56.295V56.294ZM38.675 51.31L38.99 51.47C39.524 51.741 40.078 51.97 40.648 52.157L40.983 52.267L41.548 54.859C41.574 54.979 41.679 55.063 41.801 55.064H46.756C46.877 55.063 46.983 54.978 47.009 54.859L47.572 52.266L47.908 52.157C48.478 51.971 49.031 51.741 49.565 51.47L49.88 51.31L52.113 52.746C52.215 52.811 52.35 52.797 52.436 52.711L55.94 49.207C56.026 49.12 56.04 48.986 55.975 48.883L54.539 46.65L54.699 46.335C54.969 45.801 55.199 45.247 55.386 44.678L55.496 44.342L58.088 43.779C58.207 43.753 58.292 43.648 58.292 43.526V38.57C58.292 38.448 58.207 38.343 58.088 38.317L55.495 37.754L55.385 37.418C55.2 36.848 54.97 36.294 54.698 35.76L54.538 35.446L55.975 33.212C56.04 33.109 56.025 32.975 55.94 32.888L52.437 29.384C52.35 29.299 52.216 29.284 52.113 29.35L49.88 30.786L49.565 30.626C49.031 30.355 48.477 30.125 47.908 29.939L47.572 29.829L47.009 27.236C46.983 27.117 46.877 27.033 46.756 27.032H41.803C41.682 27.032 41.576 27.117 41.55 27.236L40.986 29.829L40.65 29.939C40.08 30.125 39.527 30.355 38.993 30.626L38.678 30.786L36.443 29.35C36.34 29.285 36.206 29.3 36.119 29.384L32.615 32.888C32.529 32.975 32.515 33.11 32.581 33.213L34.017 35.446L33.857 35.76C33.586 36.294 33.356 36.849 33.17 37.418L33.06 37.752L30.467 38.315C30.349 38.342 30.264 38.447 30.263 38.569V43.524C30.263 43.645 30.348 43.75 30.467 43.777L33.06 44.34L33.17 44.674C33.356 45.244 33.586 45.798 33.857 46.332L34.017 46.647L32.582 48.883C32.517 48.986 32.531 49.12 32.616 49.206L36.12 52.71C36.207 52.796 36.342 52.81 36.445 52.745L38.675 51.309V51.31ZM44.277 46.91C41.907 46.91 39.769 45.481 38.862 43.291C37.955 41.101 38.456 38.581 40.132 36.904C41.809 35.228 44.33 34.726 46.52 35.634C48.71 36.541 50.138 38.678 50.138 41.048C50.135 44.283 47.513 46.905 44.278 46.909H44.277V46.91ZM44.277 36.417C41.719 36.417 39.645 38.49 39.645 41.048C39.645 43.606 41.719 45.68 44.277 45.68C46.835 45.68 48.909 43.606 48.909 41.048C48.906 38.492 46.835 36.42 44.279 36.417H44.277V36.417Z" fill="black"/>
</g>
</g>
</svg>
