<svg width="105" height="90" viewBox="0 0 105 90" fill="none" xmlns="http://www.w3.org/2000/svg">
<g id="process-execution 1">
<g id="Group">
<path id="Vector" d="M15.232 63.72H71.747C72.137 63.72 72.454 63.404 72.454 63.014C72.454 62.624 72.137 62.308 71.747 62.308H15.232C14.842 62.308 14.526 62.624 14.526 63.014C14.526 63.404 14.842 63.721 15.232 63.721V63.72Z" fill="black"/>
<path id="Vector_2" d="M99.684 0H4.727C2.117 0.003 0.003 2.118 0 4.727V68.666C0 69.199 0.086 69.728 0.256 70.234C0.831 72.271 2.687 73.678 4.804 73.683H38.854C38.958 73.682 39.06 73.658 39.154 73.613H42.792C42.885 73.658 42.987 73.682 43.092 73.683H43.344L36.962 82.16H24.906C23.736 82.16 22.786 83.109 22.786 84.28V87.754C22.786 88.924 23.736 89.873 24.906 89.873H79.506C80.676 89.873 81.624 88.924 81.624 87.753V84.283C81.624 83.113 80.676 82.164 79.505 82.164H67.451L61.069 73.687H99.608C101.725 73.684 103.583 72.276 104.158 70.238C104.328 69.731 104.413 69.2 104.411 68.666V4.727C104.408 2.117 102.293 0.003 99.684 0ZM68.513 83.577H79.503C79.893 83.577 80.21 83.893 80.21 84.284V87.754C80.21 88.144 79.894 88.46 79.504 88.46H24.906C24.516 88.46 24.2 88.144 24.2 87.754V84.284C24.2 83.894 24.516 83.577 24.906 83.577H35.896L35.845 83.647H68.565L68.513 83.577V83.577ZM65.687 82.164H38.73L45.112 73.687H59.3L65.687 82.164V82.164ZM102.998 62.308H75.986C75.596 62.308 75.279 62.624 75.279 63.014C75.279 63.404 75.596 63.721 75.986 63.721H102.921V68.948C102.921 69.238 102.883 69.528 102.808 69.808C102.32 71.237 100.977 72.198 99.466 72.198H4.946C3.436 72.198 2.094 71.238 1.605 69.81C1.53 69.53 1.492 69.241 1.492 68.951V63.721H10.994C11.384 63.721 11.7 63.404 11.7 63.014C11.7 62.624 11.384 62.308 10.994 62.308H1.413V11.485H102.998V62.308V62.308ZM1.413 4.728C1.415 2.898 2.898 1.415 4.727 1.413H99.684C101.514 1.415 102.996 2.898 102.998 4.727V9.955H1.413V4.727V4.728Z" fill="black"/>
<path id="Vector_3" d="M7.49398 6.993C8.21803 6.993 8.80498 6.40873 8.80498 5.688C8.80498 4.96726 8.21803 4.383 7.49398 4.383C6.76994 4.383 6.18298 4.96726 6.18298 5.688C6.18298 6.40873 6.76994 6.993 7.49398 6.993Z" fill="black"/>
<path id="Vector_4" d="M12.351 6.993C13.0751 6.993 13.662 6.40873 13.662 5.688C13.662 4.96726 13.0751 4.383 12.351 4.383C11.627 4.383 11.04 4.96726 11.04 5.688C11.04 6.40873 11.627 6.993 12.351 6.993Z" fill="black"/>
<path id="Vector_5" d="M17.207 6.993C17.931 6.993 18.518 6.40873 18.518 5.688C18.518 4.96726 17.931 4.383 17.207 4.383C16.483 4.383 15.896 4.96726 15.896 5.688C15.896 6.40873 16.483 6.993 17.207 6.993Z" fill="black"/>
<path id="Vector_6" d="M94.874 21.454H56.868C56.478 21.454 56.162 21.138 56.162 20.748C56.162 20.358 56.478 20.042 56.868 20.042H94.874C95.264 20.042 95.581 20.358 95.581 20.748C95.581 21.138 95.265 21.454 94.874 21.454ZM54.537 21.456H48.885C48.495 21.456 48.179 21.14 48.179 20.749C48.179 20.359 48.495 20.043 48.885 20.043H54.537C54.927 20.043 55.243 20.359 55.243 20.749C55.243 21.139 54.927 21.456 54.537 21.456ZM44.647 21.456H38.995C38.605 21.456 38.289 21.14 38.289 20.749C38.289 20.359 38.605 20.043 38.995 20.043H44.647C45.037 20.043 45.353 20.359 45.353 20.749C45.353 21.139 45.037 21.456 44.647 21.456ZM94.874 28.519H63.51C63.12 28.519 62.803 28.203 62.803 27.812C62.803 27.422 63.119 27.106 63.51 27.106H94.875C95.265 27.106 95.582 27.422 95.582 27.812C95.582 28.202 95.266 28.519 94.875 28.519H94.874ZM59.553 28.52H58.776C58.386 28.52 58.069 28.204 58.069 27.814C58.069 27.424 58.385 27.107 58.776 27.107H59.556C59.947 27.107 60.263 27.424 60.263 27.814C60.263 28.204 59.947 28.52 59.557 28.52H59.553ZM54.533 28.52H48.885C48.495 28.52 48.179 28.204 48.179 27.814C48.179 27.424 48.495 27.107 48.885 27.107H54.537C54.927 27.107 55.243 27.424 55.243 27.814C55.243 28.204 54.927 28.52 54.537 28.52H54.533V28.52ZM44.643 28.52H38.995C38.605 28.52 38.289 28.204 38.289 27.814C38.289 27.424 38.605 27.107 38.995 27.107H44.647C45.037 27.107 45.353 27.424 45.353 27.814C45.353 28.204 45.037 28.52 44.647 28.52H44.643V28.52ZM45.353 42.508H39.702C39.312 42.508 38.995 42.191 38.995 41.801C38.995 41.411 39.312 41.095 39.702 41.095H45.353C45.743 41.095 46.06 41.411 46.06 41.801C46.06 42.191 45.743 42.508 45.353 42.508V42.508ZM35.463 42.508H29.812C29.422 42.508 29.105 42.191 29.105 41.801C29.105 41.411 29.421 41.095 29.812 41.095H35.463C35.853 41.095 36.17 41.411 36.17 41.801C36.17 42.191 35.853 42.508 35.463 42.508ZM25.573 42.508H19.922C19.532 42.508 19.215 42.191 19.215 41.801C19.215 41.411 19.531 41.095 19.922 41.095H25.573C25.963 41.095 26.279 41.411 26.279 41.801C26.279 42.191 25.963 42.508 25.573 42.508ZM15.683 42.508H10.03C9.63997 42.508 9.32397 42.191 9.32397 41.801C9.32397 41.411 9.63997 41.095 10.03 41.095H15.682C16.072 41.095 16.388 41.411 16.388 41.801C16.388 42.191 16.072 42.508 15.682 42.508H15.683ZM47.967 49.078H10.031C9.64097 49.078 9.32497 48.761 9.32497 48.371C9.32497 47.981 9.64097 47.665 10.031 47.665H47.967C48.357 47.665 48.673 47.981 48.673 48.371C48.673 48.761 48.357 49.078 47.967 49.078ZM50.369 55.647H48.179C47.789 55.647 47.473 55.331 47.473 54.941C47.473 54.551 47.789 54.235 48.179 54.235H50.369C50.759 54.235 51.075 54.551 51.075 54.941C51.075 55.331 50.759 55.647 50.369 55.647ZM43.936 55.647H35.463C35.073 55.647 34.757 55.331 34.757 54.941C34.757 54.551 35.073 54.235 35.463 54.235H43.94C44.33 54.235 44.647 54.551 44.647 54.941C44.647 55.331 44.33 55.647 43.94 55.647H43.936ZM31.22 55.647H22.747C22.357 55.647 22.041 55.331 22.041 54.941C22.041 54.551 22.357 54.235 22.747 54.235H31.224C31.614 54.235 31.931 54.551 31.931 54.941C31.931 55.331 31.615 55.647 31.224 55.647H31.22ZM18.504 55.647H10.031C9.64097 55.647 9.32497 55.331 9.32497 54.941C9.32497 54.551 9.64097 54.235 10.031 54.235H18.509C18.899 54.235 19.215 54.551 19.215 54.941C19.215 55.331 18.899 55.647 18.509 55.647H18.504Z" fill="black"/>
<path id="process-execution-img-left-arrow" d="M15.754 31.648C15.574 31.648 15.401 31.579 15.27 31.456L15.23 31.416L9.90998 26.104C9.19098 25.384 9.19098 24.218 9.90998 23.497L15.246 18.161L15.289 18.121C15.471 17.939 15.738 17.872 15.984 17.944C16.231 18.016 16.418 18.217 16.474 18.467C16.531 18.717 16.447 18.979 16.255 19.15L16.242 19.163L10.913 24.496C10.745 24.665 10.745 24.937 10.913 25.106L16.241 30.433C16.448 30.633 16.513 30.938 16.406 31.205C16.299 31.472 16.041 31.647 15.754 31.648V31.648Z" fill="black"/>
<path id="Vector_7" d="M23.947 31.648C23.657 31.648 23.397 31.472 23.29 31.203C23.183 30.933 23.251 30.626 23.462 30.428L23.476 30.415L28.792 25.1C28.959 24.931 28.959 24.659 28.792 24.49L23.447 19.146C23.262 18.974 23.183 18.716 23.24 18.47C23.296 18.224 23.48 18.027 23.721 17.953C23.963 17.879 24.225 17.939 24.411 18.112L24.453 18.152L29.792 23.492C30.511 24.212 30.511 25.378 29.792 26.099L24.475 31.415L24.433 31.456C24.301 31.58 24.127 31.649 23.947 31.648V31.648ZM18.438 31.655C18.223 31.655 18.018 31.558 17.885 31.389C17.75 31.221 17.7 31.001 17.749 30.791L20.574 18.499C20.631 18.253 20.814 18.055 21.056 17.981C21.297 17.907 21.56 17.968 21.744 18.14C21.929 18.312 22.008 18.57 21.952 18.815L19.126 31.107C19.052 31.427 18.767 31.655 18.438 31.655V31.655Z" fill="black"/>
<g id="process-execution-img-stack">
<path id="Vector_8" d="M69.3621 56.166H93.8501V63.045H69.3621V56.166ZM69.3621 67.667H93.8501V74.546H69.3621V67.667ZM69.3621 44.667H93.8501V51.546H69.3621V44.667Z" fill="#FE5814"/>
<path id="Vector_9" d="M97.983 56.872H65.23C64.06 56.872 63.11 55.924 63.11 54.753V52.96C63.11 51.79 64.06 50.84 65.23 50.84H97.982C99.152 50.84 100.101 51.79 100.101 52.96V54.754C100.101 55.924 99.152 56.874 97.981 56.874L97.983 56.872ZM65.231 52.252C64.841 52.252 64.524 52.569 64.524 52.959V54.753C64.524 55.143 64.841 55.459 65.231 55.459H97.983C98.373 55.459 98.689 55.143 98.689 54.753V52.96C98.689 52.57 98.373 52.253 97.983 52.253H65.23L65.231 52.252ZM97.983 45.373H65.23C64.06 45.373 63.11 44.424 63.11 43.253V41.46C63.11 40.29 64.06 39.341 65.23 39.341H97.982C99.152 39.341 100.101 40.29 100.101 41.461V43.255C100.101 44.425 99.152 45.374 97.981 45.374L97.983 45.373ZM65.231 40.753C64.841 40.753 64.524 41.069 64.524 41.459V43.254C64.524 43.644 64.841 43.96 65.231 43.96H97.983C98.373 43.96 98.689 43.644 98.689 43.254V41.459C98.689 41.069 98.373 40.753 97.983 40.753H65.23H65.231ZM97.983 68.373H65.23C64.06 68.373 63.11 67.424 63.11 66.253V64.46C63.11 63.29 64.06 62.341 65.23 62.341H97.982C99.152 62.341 100.101 63.29 100.101 64.461V66.255C100.101 67.425 99.152 68.375 97.981 68.375L97.983 68.373ZM65.231 63.753C64.841 63.753 64.524 64.069 64.524 64.459V66.254C64.524 66.644 64.841 66.96 65.231 66.96H97.983C98.373 66.96 98.689 66.644 98.689 66.254V64.459C98.689 64.069 98.373 63.753 97.983 63.753H65.23H65.231ZM97.983 79.873H65.23C64.06 79.873 63.11 78.923 63.11 77.753V75.96C63.11 74.79 64.06 73.84 65.23 73.84H97.982C99.152 73.84 100.101 74.79 100.101 75.96V77.754C100.101 78.924 99.152 79.874 97.981 79.874L97.983 79.873ZM65.231 75.253C64.841 75.253 64.524 75.569 64.524 75.959V77.753C64.524 78.143 64.841 78.46 65.231 78.46H97.983C98.373 78.46 98.689 78.143 98.689 77.753V75.96C98.689 75.57 98.373 75.253 97.983 75.253H65.23H65.231Z" fill="black"/>
</g>
</g>
</g>
</svg>
