<svg width="75" height="90" viewBox="0 0 75 90" fill="none" xmlns="http://www.w3.org/2000/svg">
<g id="process-contract 1">
<g id="Group">
<path id="process-contract-img-hand" d="M62.6161 65.83L54.5171 52.163C54.2801 51.763 53.8931 51.473 53.4421 51.357C52.9911 51.241 52.5121 51.31 52.1121 51.547L50.1421 52.715C48.6791 53.585 48.0861 55.403 48.7551 56.968C47.9351 57.368 46.9871 57.407 46.1381 57.077L44.0611 56.265C43.2931 55.962 42.4501 55.909 41.6501 56.113L38.4761 56.917C38.3211 56.956 38.1691 57.004 38.0201 57.062L37.9611 57.027C36.0711 55.943 34.9631 55.612 33.0051 56.369L31.1681 57.079C30.2261 57.446 29.1681 57.359 28.2981 56.84L27.5901 56.422C27.9311 54.975 27.2931 53.474 26.0151 52.716L24.0451 51.549C23.6451 51.311 23.1651 51.243 22.7151 51.359C22.2641 51.474 21.8771 51.764 21.6391 52.164L13.5431 65.83C13.3061 66.23 13.2371 66.71 13.3531 67.16C13.4681 67.612 13.7581 67.999 14.1591 68.236L16.1291 69.403C16.6501 69.713 17.2461 69.877 17.8521 69.877C18.5821 69.877 19.2921 69.644 19.8791 69.211L20.7971 69.753L19.7141 71.263C19.0011 72.253 18.9941 73.587 19.6991 74.584C20.4021 75.582 21.6611 76.023 22.8341 75.684C22.8391 75.796 22.8501 75.908 22.8681 76.02C23.0951 77.403 24.2901 78.418 25.6911 78.42C25.9611 78.419 26.2301 78.38 26.4891 78.306C26.5561 79.835 27.8131 81.041 29.3431 81.044C29.5011 81.044 29.6581 81.031 29.8131 81.006C30.1681 80.947 30.5091 80.822 30.8181 80.636C31.1251 81.923 32.2731 82.831 33.5951 82.833C33.7531 82.833 33.9101 82.82 34.0651 82.795C34.8161 82.674 35.4871 82.257 35.9291 81.639L35.9731 81.577L38.4861 83.066C39.1691 83.466 39.9831 83.578 40.7491 83.375C41.4851 83.185 42.1131 82.705 42.4891 82.044C42.7671 81.551 42.8911 80.986 42.8451 80.422L43.3051 80.694C43.9881 81.095 44.8021 81.207 45.5681 81.004C46.3041 80.814 46.9321 80.334 47.3081 79.673C47.5941 79.168 47.7181 78.589 47.6661 78.012C48.2631 78.255 48.9231 78.299 49.5461 78.135C50.8731 77.792 51.7601 76.545 51.6481 75.18C52.3301 75.577 53.1411 75.687 53.9041 75.485C54.6421 75.296 55.2731 74.815 55.6501 74.153C56.3071 72.981 56.0661 71.509 55.0701 70.607C55.1231 70.572 55.1761 70.537 55.2301 70.504L56.8581 69.552C57.3111 69.765 57.8071 69.876 58.3081 69.876C58.9151 69.876 59.5101 69.712 60.0321 69.402L62.0021 68.235C62.4021 67.997 62.6921 67.611 62.8081 67.159C62.9231 66.709 62.8551 66.229 62.6181 65.829L62.6161 65.83V65.83ZM16.7541 68.343L14.7841 67.176C14.6641 67.106 14.5781 66.99 14.5441 66.855C14.5091 66.72 14.5301 66.577 14.6011 66.457L22.6991 52.791C22.7701 52.671 22.8861 52.585 23.0211 52.551C23.1561 52.516 23.2991 52.536 23.4181 52.608L25.3881 53.775C25.8831 54.067 26.2401 54.544 26.3831 55.1C26.5251 55.657 26.4411 56.247 26.1481 56.74L19.7211 67.587C19.1101 68.614 17.7821 68.952 16.7541 68.343V68.343ZM21.0881 74.253C20.3581 73.725 20.1921 72.706 20.7181 71.974L21.9931 70.2C22.5251 69.485 23.5321 69.329 24.2561 69.848C24.9801 70.368 25.1541 71.372 24.6471 72.105L23.3671 73.884C22.8401 74.616 21.8201 74.784 21.0871 74.258V74.253H21.0881ZM24.7421 76.876C24.0121 76.348 23.8461 75.328 24.3721 74.596L25.6471 72.822L27.0531 70.865C27.3051 70.512 27.6881 70.275 28.1151 70.206C28.2051 70.191 28.2941 70.184 28.3841 70.184C28.9961 70.186 29.5551 70.529 29.8341 71.074C30.1121 71.618 30.0641 72.272 29.7071 72.769L27.0271 76.502C26.7751 76.857 26.3921 77.096 25.9631 77.167C25.5331 77.238 25.0931 77.136 24.7411 76.882L24.7421 76.876V76.876ZM28.3961 79.499C27.6661 78.971 27.5011 77.952 28.0261 77.22L30.7071 73.487C31.2441 72.786 32.2401 72.637 32.9571 73.153C33.6751 73.668 33.8531 74.659 33.3601 75.392L32.1721 77.047L31.2721 78.304L30.6751 79.136C30.1471 79.866 29.1271 80.032 28.3951 79.506L28.3961 79.499V79.499ZM33.8581 81.579C33.2061 81.687 32.5541 81.391 32.2051 80.829C31.8571 80.268 31.8811 79.552 32.2651 79.015L33.1581 77.773C33.6921 77.063 34.6961 76.91 35.4181 77.428C36.1381 77.946 36.3141 78.946 35.8121 79.678L34.9201 80.92C34.6681 81.273 34.2861 81.51 33.8581 81.58V81.579ZM54.5701 73.545C54.3561 73.918 54.0011 74.188 53.5851 74.294C53.1411 74.413 52.6671 74.349 52.2701 74.118L50.2571 72.925L49.6291 73.983C50.3951 74.44 50.6561 75.423 50.2181 76.2C50.0041 76.572 49.6481 76.842 49.2331 76.948C48.7871 77.068 48.3131 77.003 47.9141 76.77L46.2781 75.8L45.6501 76.86C46.4151 77.316 46.6761 78.3 46.2391 79.076C46.0251 79.448 45.6691 79.718 45.2541 79.824C44.8081 79.944 44.3331 79.879 43.9351 79.646L41.4551 78.166L40.8261 79.225C41.5911 79.682 41.8521 80.665 41.4151 81.441C41.2011 81.813 40.8451 82.083 40.4301 82.189C39.9841 82.309 39.5101 82.244 39.1111 82.011L36.6891 80.573L36.8131 80.397C37.4371 79.528 37.5251 78.384 37.0411 77.43C36.5571 76.476 35.5811 75.872 34.5111 75.863C35.0901 74.851 34.9971 73.589 34.2761 72.673C33.5551 71.757 32.3501 71.369 31.2301 71.693C31.2251 71.58 31.2141 71.468 31.1961 71.356C31.0081 70.213 30.1501 69.296 29.0221 69.032C27.8941 68.767 26.7181 69.209 26.0421 70.15L26.0081 70.198C25.7081 69.351 25.0281 68.694 24.1711 68.424C23.3141 68.154 22.3811 68.302 21.6491 68.824L20.7321 68.282L20.7791 68.209L27.0921 57.552L27.6711 57.893C28.8631 58.603 30.3171 58.725 31.6111 58.221L33.4481 57.511C34.7341 57.018 35.3971 57.041 36.8131 57.793C35.9751 58.541 35.4961 59.611 35.4961 60.735V64.972C35.4971 65.912 36.2581 66.673 37.1961 66.675C39.0201 66.68 40.6001 65.417 41.0001 63.64L49.4301 68.632L50.4011 69.207L53.9941 71.335C54.7541 71.793 55.0121 72.773 54.5761 73.546H54.5711L54.5701 73.545ZM54.5961 69.443C54.3731 69.575 54.1621 69.725 53.9661 69.893L52.4111 68.973L49.0861 67.003L46.9761 65.746L39.8551 61.529V62.791C39.8551 64.257 38.6661 65.445 37.2001 65.445C36.9401 65.444 36.7311 65.233 36.7311 64.974V60.738C36.7321 59.496 37.5771 58.414 38.7821 58.112L41.9581 57.308C42.5081 57.168 43.0881 57.204 43.6161 57.413L45.6911 58.228C46.8831 58.693 48.2171 58.628 49.3581 58.048L55.3781 68.208C55.4931 68.402 55.6271 68.584 55.7781 68.752L54.5961 69.442V69.443ZM61.6081 66.857C61.5721 66.993 61.4831 67.109 61.3611 67.179L59.3911 68.346C58.3621 68.954 57.0351 68.614 56.4251 67.586L50.0001 56.74C49.7071 56.246 49.6231 55.656 49.7651 55.1C49.9071 54.544 50.2651 54.067 50.7591 53.774L52.7291 52.607C52.8491 52.537 52.9921 52.516 53.1271 52.551C53.2621 52.585 53.3771 52.672 53.4481 52.792L61.5471 66.458C61.6221 66.576 61.6471 66.718 61.6151 66.855L61.6091 66.858L61.6081 66.857Z" fill="black"/>
<path id="Vector" d="M67.8941 14.709C67.6671 14.205 67.3501 13.746 66.9601 13.355L54.7131 1.10799C54.3211 0.717988 53.8631 0.401988 53.3591 0.174988C53.1331 0.0689881 52.8661 0.112988 52.6851 0.284988H11.7861C9.81805 0.284988 8.20605 1.92499 8.20605 3.93999V86.343C8.20605 88.36 9.81805 90 11.7971 90H64.1951C66.1761 90 67.7871 88.36 67.7871 86.344V15.38C67.9571 15.2 68.0001 14.934 67.8951 14.709H67.8941V14.709ZM53.7241 1.87099L53.8471 1.98299L66.0951 14.231C66.1341 14.27 66.1711 14.311 66.2071 14.354H58.3741C55.8071 14.352 53.7271 12.271 53.7241 9.70399V1.87099ZM64.1901 88.77H11.8001C10.4981 88.77 9.44005 87.683 9.44005 86.346V3.93999C9.44005 2.60299 10.4981 1.51599 11.8001 1.51599H52.4941V9.69799C52.4971 12.945 55.1291 15.576 58.3751 15.579H66.5571V86.345C66.5571 87.682 65.5001 88.769 64.1971 88.769H64.1901V88.77Z" fill="black"/>
<path id="Vector_2" d="M28.1664 35.3293C28.7973 35.2789 29.2679 34.7265 29.2174 34.0956C29.1669 33.4647 28.6146 32.9942 27.9837 33.0446C27.3528 33.0951 26.8822 33.6475 26.9327 34.2784C26.9832 34.9093 27.5355 35.3798 28.1664 35.3293Z" fill="black"/>
<path id="Vector_3" d="M47.155 34.572H31.917C31.577 34.572 31.302 34.296 31.302 33.956C31.302 33.616 31.577 33.341 31.917 33.341H47.155C47.495 33.341 47.77 33.616 47.77 33.956C47.77 34.296 47.495 34.572 47.155 34.572ZM51.71 41.22H33.166C32.826 41.22 32.55 40.945 32.55 40.605C32.55 40.265 32.826 39.989 33.166 39.989H51.71C52.05 39.989 52.326 40.265 52.326 40.605C52.326 40.945 52.05 41.22 51.71 41.22Z" fill="black"/>
<path id="Vector_4" d="M33.166 41.221H33.0601C32.7201 41.221 32.444 40.946 32.444 40.606C32.444 40.266 32.7201 39.99 33.0601 39.99H33.166C33.506 39.99 33.781 40.266 33.781 40.606C33.781 40.946 33.506 41.221 33.166 41.221ZM29.366 41.221H24.442C24.102 41.221 23.826 40.946 23.826 40.606C23.826 40.266 24.102 39.99 24.442 39.99H29.366C29.706 39.99 29.982 40.266 29.982 40.606C29.982 40.946 29.706 41.221 29.366 41.221ZM43.092 47.377H41.6791C41.3391 47.377 41.064 47.102 41.064 46.762C41.064 46.422 41.3391 46.146 41.6791 46.146H43.092C43.432 46.146 43.7071 46.422 43.7071 46.762C43.7071 47.102 43.432 47.377 43.092 47.377ZM37.981 47.377H33.056C32.716 47.377 32.4411 47.102 32.4411 46.762C32.4411 46.422 32.716 46.146 33.056 46.146H37.981C38.321 46.146 38.597 46.422 38.597 46.762C38.597 47.102 38.321 47.377 37.981 47.377ZM44.786 28.006C44.373 28.006 43.9881 27.798 43.7611 27.453L38.078 18.819L32.3951 27.456C32.1411 27.838 31.695 28.047 31.239 27.999C30.782 27.95 30.391 27.651 30.223 27.224L29.4501 25.234L27.3151 25.311C26.8561 25.326 26.427 25.084 26.202 24.684C25.977 24.284 25.993 23.792 26.244 23.407L32.8161 13.42H43.3381L49.91 23.405C50.16 23.789 50.177 24.282 49.952 24.682C49.727 25.082 49.2981 25.323 48.8391 25.308L46.704 25.231L45.931 27.221C45.747 27.695 45.2911 28.006 44.7831 28.006H44.786V28.006ZM30.2801 23.969L31.3701 26.777L38.077 16.579L44.788 26.777L45.8741 23.97L48.884 24.08L42.676 14.651H33.48L27.272 24.082L30.282 23.969H30.2801Z" fill="black"/>
<path id="Vector_5" d="M38.017 17.359C41.3826 17.359 44.111 14.6306 44.111 11.265C44.111 7.89937 41.3826 5.17099 38.017 5.17099C34.6513 5.17099 31.923 7.89937 31.923 11.265C31.923 14.6306 34.6513 17.359 38.017 17.359Z" fill="#FE5814"/>
<path id="Vector_6" d="M38.017 17.975C34.311 17.975 31.307 14.971 31.307 11.265C31.307 7.55999 34.311 4.55499 38.017 4.55499C41.723 4.55499 44.727 7.55999 44.727 11.265C44.723 14.97 41.721 17.971 38.017 17.975ZM38.017 5.78699C34.991 5.78699 32.537 8.23999 32.537 11.265C32.537 14.291 34.991 16.745 38.017 16.745C41.043 16.745 43.495 14.291 43.495 11.265C43.492 8.24099 41.041 5.78999 38.017 5.78699V5.78699Z" fill="black"/>
<g id="process-contract-img-right-bar">
<path id="Vector_7" d="M73.94 78.593C73.993 77.964 73.5261 77.4111 72.8971 77.358C72.2681 77.305 71.7151 77.7719 71.6621 78.4009C71.609 79.03 72.076 79.5829 72.705 79.6359C73.334 79.689 73.887 79.2221 73.94 78.593Z" fill="black"/>
<path id="Vector_8" d="M72.798 75.3C72.458 75.3 72.182 75.024 72.182 74.684V59.442C72.182 59.102 72.458 58.826 72.798 58.826C73.138 58.826 73.413 59.102 73.413 59.442V74.684C73.413 75.024 73.138 75.3 72.798 75.3Z" fill="black"/>
</g>
<g id="process-contract-img-left-bar">
<path id="Vector_9" d="M1.36205 14.1989C1.99108 14.1459 2.45801 13.593 2.40496 12.9639C2.35192 12.3349 1.79899 11.868 1.16996 11.921C0.540935 11.9741 0.0740051 12.527 0.127047 13.156C0.180089 13.785 0.733017 14.252 1.36205 14.1989Z" fill="black"/>
<path id="Vector_10" d="M1.26602 32.726C0.926024 32.726 0.650024 32.451 0.650024 32.111V16.867C0.650024 16.527 0.926024 16.252 1.26602 16.252C1.60602 16.252 1.88102 16.527 1.88102 16.867V32.111C1.88102 32.451 1.60602 32.726 1.26602 32.726V32.726Z" fill="black"/>
</g>
</g>
</g>
</svg>
