<svg width="88" height="91" viewBox="0 0 88 91" fill="none" xmlns="http://www.w3.org/2000/svg">
<g id="process-resource-selection 1">
<g id="Group">
<path id="Vector" d="M18.023 37.05H5.68799V24.715H9.04799C9.21699 23.281 10.432 22.2 11.876 22.2C13.319 22.2 14.534 23.281 14.703 24.715H18.023V28.367C19.466 28.525 20.559 29.745 20.559 31.197C20.559 32.649 19.466 33.868 18.022 34.027V37.05H18.023ZM6.93799 35.8H16.773V32.675L17.489 32.78C17.565 32.791 17.642 32.796 17.719 32.796C18.318 32.798 18.868 32.465 19.143 31.932C19.418 31.4 19.371 30.758 19.023 30.271C18.673 29.784 18.081 29.533 17.489 29.621L16.774 29.726V25.965H13.364L13.457 25.258C13.467 25.187 13.471 25.116 13.471 25.045C13.488 24.465 13.187 23.921 12.687 23.625C12.187 23.33 11.565 23.33 11.065 23.625C10.565 23.921 10.264 24.465 10.28 25.045C10.28 25.116 10.285 25.187 10.294 25.257L10.386 25.964H6.93799V35.8Z" fill="black"/>
<path id="Vector_2" d="M85.25 17.25H73.75V12.625C73.75 9.864 71.511 7.625 68.75 7.625H17.5C14.739 7.625 12.5 9.864 12.5 12.625V16.5H1.875C0.839 16.5 0 17.34 0 18.375V40.875C0 41.911 0.84 42.75 1.875 42.75H24.375C25.411 42.75 26.25 41.91 26.25 40.875V18.375C26.25 17.339 25.41 16.5 24.375 16.5H13.75V12.625C13.75 10.554 15.429 8.875 17.5 8.875H68.75C70.821 8.875 72.5 10.554 72.5 12.625V17.25H62.75C61.714 17.25 60.875 18.09 60.875 19.125V41.625C60.875 42.661 61.715 43.5 62.75 43.5H85.25C86.286 43.5 87.125 42.66 87.125 41.625V19.125C87.125 18.089 86.285 17.25 85.25 17.25ZM25 18.375V40.875C25 41.22 24.72 41.5 24.375 41.5H1.875C1.53 41.5 1.25 41.22 1.25 40.875V18.375C1.25 18.03 1.53 17.75 1.875 17.75H24.375C24.72 17.75 25 18.03 25 18.375ZM85.875 41.625C85.875 41.97 85.595 42.25 85.25 42.25H62.75C62.405 42.25 62.125 41.97 62.125 41.625V19.125C62.125 18.78 62.405 18.5 62.75 18.5H85.25C85.595 18.5 85.875 18.78 85.875 19.125V41.625Z" fill="black"/>
<path id="Vector_3" d="M78.897 29.119V25.465H75.577C75.409 24.031 74.194 22.95 72.751 22.95C71.307 22.95 70.091 24.031 69.924 25.465H66.562V37.8H78.897V34.778C80.341 34.62 81.434 33.4 81.434 31.948C81.434 30.496 80.341 29.277 78.897 29.118V29.119ZM78.592 33.544C78.516 33.544 78.44 33.538 78.364 33.528L77.647 33.423V36.547H67.812V26.715H71.262L71.169 26.008C71.086 25.391 71.368 24.783 71.891 24.448C72.415 24.114 73.086 24.114 73.61 24.448C74.134 24.783 74.416 25.391 74.332 26.008L74.239 26.715H77.647V30.473L78.362 30.368C78.955 30.279 79.547 30.53 79.896 31.018C80.245 31.505 80.291 32.146 80.016 32.678C79.742 33.211 79.192 33.545 78.592 33.542V33.544Z" fill="black"/>
<path id="Vector_4" d="M54.75 0H32.25C31.56 0 31 0.56 31 1.25V23.75C31 24.44 31.56 25 32.25 25H54.75C55.44 25 56 24.44 56 23.75V1.25C56 0.918 55.868 0.6 55.634 0.366C55.399 0.132 55.082 0 54.75 0ZM47.642 16.765C47.531 16.771 47.419 16.771 47.307 16.765H38.887C37.637 16.765 36.624 15.751 36.624 14.501C36.624 13.251 37.637 12.238 38.888 12.238H39.048C38.782 10.31 40.128 8.532 42.055 8.265C43.982 7.998 45.761 9.345 46.028 11.271C47.08 10.698 48.375 10.822 49.298 11.586C50.222 12.349 50.588 13.598 50.224 14.739C49.859 15.881 48.836 16.685 47.641 16.771L47.643 16.765H47.642Z" fill="#FE5814"/>
<path id="Vector_5" d="M47.475 17.395H38.888C37.387 17.398 36.134 16.252 36.003 14.757C35.873 13.262 36.909 11.917 38.388 11.66C38.436 9.64399 39.928 7.95399 41.922 7.65599C43.917 7.35799 45.837 8.53799 46.472 10.453C47.779 10.075 49.186 10.477 50.094 11.489C51.003 12.5 51.252 13.943 50.736 15.201C50.221 16.459 49.031 17.311 47.674 17.394C47.61 17.392 47.542 17.395 47.475 17.395ZM38.888 12.863C37.982 12.863 37.248 13.596 37.248 14.501C37.248 15.406 37.982 16.14 38.888 16.14H47.343C47.991 16.179 48.626 15.939 49.086 15.48C49.546 15.02 49.788 14.386 49.75 13.738C49.676 12.484 48.601 11.526 47.347 11.598H47.31C46.963 11.596 46.62 11.675 46.31 11.83L45.534 12.213L45.409 11.355C45.275 10.323 44.597 9.44199 43.634 9.04699C42.67 8.65199 41.569 8.80499 40.75 9.44699C39.93 10.088 39.517 11.12 39.669 12.15L39.768 12.861L38.888 12.863ZM60.813 45C59.526 45 58.415 45.468 57.757 46.191C57.147 45.49 56.133 45.031 55 45.031C53.867 45.031 52.867 45.485 52.25 46.178C51.608 45.448 50.529 44.97 49.307 44.97C48.507 44.961 47.721 45.18 47.041 45.603C47.091 41.643 47.066 32.783 46.995 30.727V30.664L46.98 30.602C46.591 28.997 45.391 27.376 43.19 27.64C41.625 27.828 40 29.089 40 30.875V58.638L38.94 61.5H37.889C37.6 60.053 36.901 56.655 36.564 55.98C36.529 55.795 36.509 55.607 36.504 55.419C36.414 54.044 36.225 51.179 32.246 48.248C30.246 46.775 28.515 46.393 27.095 47.11C25.5 47.916 25 49.785 25 50.375C25 50.965 25.535 51.72 26.85 53.458C27.405 54.191 28.225 55.28 28.374 55.666C28.31 56 28.349 56.943 29.135 61.238C29.606 63.81 30.135 66.45 30.26 67.01C30.51 68.135 34.651 76.984 35.37 78.51V81.25H36.62V78.235L36.561 78.11C34.686 74.123 31.652 67.51 31.481 66.735C31.08 64.929 29.525 56.881 29.599 55.916C29.782 55.333 29.297 54.62 27.849 52.698C27.247 51.904 26.349 50.708 26.253 50.348C26.27 50.015 26.643 48.733 27.66 48.222C28.861 47.615 30.41 48.446 31.506 49.252C35.017 51.839 35.174 54.219 35.256 55.502C35.285 55.942 35.306 56.259 35.441 56.53C35.674 56.995 36.354 60.155 36.761 62.245L36.86 62.745H39.81L41.25 58.862V30.875C41.25 30.036 42.049 29.036 43.34 28.881C43.901 28.814 45.25 28.872 45.752 30.836C45.825 33.086 45.847 42.925 45.786 46.28C45.786 46.296 45.786 46.736 45.78 47.384C45.76 47.499 45.75 47.616 45.75 47.734V54.133H47V47.735C47 46.914 48.059 46.22 49.313 46.22C50.566 46.22 51.625 46.914 51.625 47.735V53.875H52.875V47.765C52.875 46.96 53.849 46.281 55 46.281C56.151 46.281 57.125 46.961 57.125 47.765V53.875H58.375V47.75C58.375 46.937 59.491 46.25 60.813 46.25C62.133 46.25 63.25 46.938 63.25 47.75V69.147C63.125 71.047 62.68 72.987 62.305 73.22L62.197 73.287L58.794 78.125L58.75 81.241L60 81.259L60.039 78.534L63.09 74.192C64.131 73.345 64.422 70.442 64.5 69.206V47.75C64.5 46.208 62.876 45 60.813 45Z" fill="black"/>
<path id="Vector_6" d="M60.875 80.875H33.5C32.8096 80.875 32.25 81.4346 32.25 82.125V88.75C32.25 89.4404 32.8096 90 33.5 90H60.875C61.5654 90 62.125 89.4404 62.125 88.75V82.125C62.125 81.4346 61.5654 80.875 60.875 80.875Z" fill="#FE5814"/>
<g id="process-resource-selection-img-left-block">
<path id="Vector_7" d="M13.2255 53.0399C13.8639 52.9861 14.3377 52.4249 14.2839 51.7865C14.2301 51.1481 13.6689 50.6743 13.0305 50.7281C12.3921 50.7819 11.9183 51.3431 11.9721 51.9815C12.0259 52.6198 12.5871 53.0937 13.2255 53.0399Z" fill="black"/>
<path id="Vector_8" d="M13.125 71.851C12.78 71.851 12.5 71.571 12.5 71.226V55.75C12.5 55.405 12.78 55.125 13.125 55.125C13.47 55.125 13.75 55.405 13.75 55.75V71.226C13.75 71.571 13.47 71.851 13.125 71.851Z" fill="black"/>
</g>
<g id="process-resource-selection-img-right-block">
<path id="Vector_9" d="M75.1599 70.1675C75.2137 69.5291 74.7398 68.9679 74.1014 68.9141C73.4631 68.8603 72.9019 69.3341 72.8481 69.9725C72.7942 70.6109 73.2681 71.1721 73.9065 71.2259C74.5449 71.2797 75.106 70.8058 75.1599 70.1675Z" fill="black"/>
<path id="Vector_10" d="M74 66.825C73.655 66.825 73.375 66.545 73.375 66.2V50.725C73.375 50.38 73.655 50.1 74 50.1C74.345 50.1 74.625 50.38 74.625 50.725V66.2C74.625 66.545 74.345 66.825 74 66.825Z" fill="black"/>
</g>
</g>
</g>
</svg>
