<svg width="74" height="90" viewBox="0 0 74 90" fill="none" xmlns="http://www.w3.org/2000/svg">
<g id="process-proposal 1">
<g id="Group">
<path id="Vector" d="M26.9667 28.1504C27.5926 28.1003 28.0595 27.5523 28.0094 26.9263C27.9593 26.3004 27.4113 25.8335 26.7854 25.8836C26.1594 25.9337 25.6926 26.4817 25.7426 27.1077C25.7927 27.7336 26.3408 28.2005 26.9667 28.1504Z" fill="black"/>
<path id="Vector_2" d="M45.783 27.426H30.663C30.326 27.426 30.053 27.153 30.053 26.816C30.053 26.478 30.326 26.205 30.663 26.205H45.783C46.12 26.205 46.393 26.478 46.393 26.815C46.393 27.153 46.12 27.426 45.783 27.426Z" fill="black"/>
<path id="Vector_3" d="M26.9376 35.5644C27.5636 35.5143 28.0304 34.9663 27.9804 34.3403C27.9303 33.7144 27.3823 33.2475 26.7563 33.2976C26.1304 33.3477 25.6635 33.8957 25.7136 34.5217C25.7637 35.1476 26.3117 35.6145 26.9376 35.5644Z" fill="black"/>
<path id="Vector_4" d="M45.783 34.814H30.663C30.326 34.814 30.053 34.541 30.053 34.204C30.053 33.866 30.326 33.594 30.663 33.594H45.783C46.12 33.594 46.393 33.866 46.393 34.204C46.393 34.541 46.12 34.814 45.783 34.814Z" fill="black"/>
<path id="Vector_5" d="M26.9087 42.9784C27.5347 42.9283 28.0015 42.3803 27.9514 41.7543C27.9013 41.1284 27.3533 40.6615 26.7274 40.7116C26.1014 40.7617 25.6346 41.3097 25.6847 41.9357C25.7347 42.5616 26.2828 43.0285 26.9087 42.9784Z" fill="black"/>
<path id="Vector_6" d="M45.783 42.202H30.663C30.326 42.202 30.053 41.929 30.053 41.592C30.053 41.255 30.326 40.982 30.663 40.982H45.783C46.12 40.982 46.393 41.255 46.393 41.592C46.393 41.929 46.12 42.202 45.783 42.202Z" fill="black"/>
<g id="Group_2">
<path id="Vector_7" d="M64.703 60.527H65.123V53.078C64.987 53.159 64.847 53.233 64.703 53.299V60.527ZM58.796 53.138C58.605 53.032 58.419 52.917 58.239 52.792V60.527H58.797V53.137L58.796 53.138Z" fill="black"/>
<path id="Vector_8" d="M63.902 69.582V76.714C63.902 78.737 62.262 80.377 60.239 80.377H13.373C11.35 80.377 9.70904 78.737 9.70904 76.714V10.964C9.70904 8.94 11.349 7.3 13.373 7.3H23.068V9.742H17.013C15.434 9.744 14.155 11.023 14.153 12.602V73.56C14.155 75.138 15.434 76.417 17.012 76.42H56.6C58.178 76.417 59.457 75.138 59.459 73.56V69.583H58.236V73.56C58.236 74.464 57.503 75.197 56.599 75.198H17.013C16.109 75.197 15.377 74.464 15.376 73.56V12.602C15.377 11.699 16.109 10.966 17.013 10.965H23.068V15.483H50.544V10.965H56.6C57.504 10.966 58.236 11.699 58.237 12.602V42.155C58.619 41.89 59.029 41.668 59.459 41.492V12.602C59.457 11.024 58.178 9.746 56.599 9.744H50.544V7.3H60.239C62.262 7.3 63.902 8.94 63.902 10.964V41.318C64.327 41.456 64.736 41.638 65.124 41.861V10.966C65.124 8.268 62.937 6.081 60.239 6.081H50.526C50.404 5.173 49.629 4.495 48.712 4.494H45.537V1.832C45.537 0.82 44.717 0 43.706 0H29.906C28.896 0 28.076 0.82 28.076 1.832V4.492H24.901C23.984 4.492 23.209 5.171 23.087 6.079H13.373C10.675 6.079 8.48804 8.266 8.48804 10.964V76.714C8.48804 79.411 10.675 81.598 13.373 81.598H60.239C62.937 81.598 65.124 79.411 65.124 76.714V69.582H63.902ZM29.296 4.492V1.832C29.296 1.495 29.569 1.222 29.906 1.222H43.706C44.043 1.222 44.316 1.495 44.316 1.832V6.646C44.316 6.983 44.043 7.256 43.706 7.256H29.906C29.569 7.256 29.296 6.983 29.296 6.646V4.49V4.492ZM24.289 6.323C24.289 5.986 24.562 5.713 24.899 5.713H28.075V6.646C28.075 7.657 28.895 8.477 29.906 8.477H43.706C44.717 8.477 45.537 7.657 45.537 6.646V5.713H48.712C49.05 5.713 49.322 5.986 49.322 6.323V14.261H24.29V6.323H24.289Z" fill="black"/>
<path id="Vector_9" d="M70.339 70.193H53.166C51.7081 70.191 50.526 69.009 50.524 67.551V63.812C50.525 63.047 51.145 62.427 51.91 62.426H55.32C55.392 61.021 56.552 59.918 57.959 59.916H58.191V53.487C55.473 51.805 54.221 48.509 55.135 45.447C56.05 42.383 58.905 40.314 62.1 40.398C65.296 40.482 68.038 42.698 68.791 45.804C69.544 48.911 68.121 52.136 65.319 53.674V59.915H65.551C66.958 59.917 68.118 61.02 68.19 62.425H71.597C72.362 62.425 72.982 63.045 72.983 63.811V67.551C72.981 69.009 71.799 70.191 70.34 70.193H70.339ZM51.909 63.647C51.817 63.647 51.743 63.721 51.743 63.812V67.552C51.745 68.335 52.38 68.97 53.163 68.972H70.339C71.123 68.97 71.758 68.335 71.759 67.552V63.812C71.759 63.721 71.686 63.647 71.595 63.647H66.966V62.56C66.965 61.776 66.33 61.141 65.546 61.14H64.093V52.92L64.44 52.754C66.882 51.586 68.206 48.897 67.644 46.249C67.082 43.601 64.78 41.682 62.074 41.607C59.368 41.532 56.962 43.319 56.254 45.932C55.544 48.545 56.718 51.303 59.091 52.605L59.407 52.78V61.14H57.954C57.17 61.141 56.535 61.776 56.534 62.56V63.648H51.908L51.909 63.647Z" fill="black"/>
<path id="Vector_10" d="M55.922 62.426H67.577V63.647H55.922V62.426Z" fill="black"/>
</g>
<path id="Vector_11" d="M22.81 56.757H2.444C1.09422 56.757 0 57.8512 0 59.201V79.469C0 80.8188 1.09422 81.913 2.444 81.913H22.81C24.1598 81.913 25.254 80.8188 25.254 79.469V59.201C25.254 57.8512 24.1598 56.757 22.81 56.757Z" fill="#FE5814"/>
<g id="process-proposal-img-batch">
<path id="Vector_12" d="M23.5221 69.931C23.5221 68.997 22.5781 68.199 22.3491 67.339C22.1041 66.446 22.5211 65.285 22.0691 64.504C21.6171 63.724 20.3951 63.491 19.7491 62.849C19.1031 62.206 18.8841 60.99 18.0931 60.529C17.3011 60.067 16.1501 60.487 15.2581 60.249C14.3961 60.018 13.5981 59.074 12.6651 59.074C11.7311 59.074 10.9321 60.018 10.0701 60.247C9.17705 60.492 8.01605 60.075 7.23505 60.527C6.45505 60.979 6.22205 62.201 5.58005 62.847C4.93705 63.493 3.72005 63.712 3.26005 64.503C2.79805 65.295 3.21805 66.446 2.98005 67.338C2.74905 68.2 1.80505 68.998 1.80505 69.931C1.80505 70.866 2.74905 71.664 2.98005 72.525C3.22405 73.418 2.80705 74.579 3.26005 75.359C3.71105 76.139 4.93405 76.373 5.58005 77.015C6.22605 77.658 6.44405 78.874 7.23505 79.335C8.02705 79.797 9.17805 79.377 10.0701 79.615C10.9321 79.846 11.7301 80.79 12.6641 80.79C13.5981 80.79 14.3961 79.846 15.2571 79.615C16.1501 79.371 17.3111 79.787 18.0921 79.335C18.8721 78.884 19.1051 77.661 19.7471 77.015C20.3901 76.369 21.6071 76.151 22.0671 75.359C22.5291 74.569 22.1091 73.417 22.3471 72.525C22.5781 71.665 23.5221 70.865 23.5221 69.931V69.931ZM12.6681 77.683C8.38805 77.683 4.91605 74.213 4.91605 69.931C4.91605 65.65 8.38705 62.179 12.6681 62.179C16.9501 62.179 20.4201 65.65 20.4201 69.931C20.4161 74.211 16.9481 77.679 12.6681 77.683Z" fill="white"/>
<path id="Vector_13" d="M12.667 81.397C11.949 81.397 11.348 81.013 10.818 80.677C10.495 80.47 10.188 80.276 9.91605 80.203C9.62305 80.124 9.24805 80.139 8.85205 80.155C8.23405 80.179 7.53305 80.209 6.93405 79.862C6.33405 79.515 6.00005 78.885 5.71305 78.332C5.53205 77.984 5.36005 77.656 5.15305 77.448C4.94505 77.238 4.61605 77.068 4.26805 76.888C3.71605 76.598 3.09105 76.277 2.73905 75.666C2.38705 75.056 2.42005 74.369 2.44205 73.75C2.45805 73.353 2.47205 72.977 2.39505 72.684C2.32105 72.41 2.12705 72.105 1.92105 71.781C1.58305 71.251 1.20105 70.649 1.20105 69.933C1.20105 69.216 1.58405 68.613 1.92105 68.083C2.12705 67.76 2.32105 67.453 2.39505 67.181C2.47305 66.888 2.45805 66.513 2.44205 66.118C2.41705 65.5 2.38905 64.798 2.73505 64.199C3.08205 63.599 3.71205 63.265 4.26505 62.978C4.61405 62.798 4.94105 62.625 5.15005 62.418C5.35805 62.21 5.53005 61.881 5.71005 61.533C5.99805 60.981 6.32005 60.356 6.93105 60.004C7.54105 59.653 8.22905 59.687 8.84705 59.711C9.24405 59.727 9.62005 59.743 9.91305 59.664C10.188 59.591 10.493 59.396 10.818 59.19C11.348 58.853 11.949 58.47 12.666 58.47C13.383 58.47 13.985 58.854 14.515 59.191C14.838 59.398 15.145 59.591 15.417 59.665C15.71 59.743 16.0841 59.728 16.4811 59.713C17.0991 59.687 17.8 59.659 18.399 60.006C18.999 60.353 19.3341 60.983 19.6201 61.536C19.8011 61.884 19.973 62.211 20.181 62.42C20.389 62.629 20.7171 62.8 21.0651 62.98C21.6171 63.269 22.242 63.591 22.594 64.202C22.946 64.812 22.912 65.5 22.887 66.118C22.871 66.515 22.857 66.889 22.935 67.184C23.008 67.457 23.202 67.763 23.409 68.086C23.747 68.616 24.129 69.217 24.129 69.935C24.129 70.653 23.7461 71.254 23.409 71.784C23.202 72.107 23.008 72.414 22.935 72.686C22.857 72.979 22.871 73.354 22.887 73.75C22.913 74.368 22.941 75.069 22.594 75.668C22.247 76.268 21.617 76.603 21.064 76.89C20.716 77.07 20.389 77.242 20.18 77.45C19.971 77.658 19.8001 77.986 19.6201 78.334C19.3311 78.886 19.0091 79.511 18.3981 79.864C17.7881 80.214 17.1 80.181 16.482 80.156C16.085 80.14 15.709 80.124 15.416 80.204C15.142 80.277 14.837 80.471 14.514 80.678C13.986 81.013 13.385 81.397 12.667 81.397ZM9.32105 78.92C9.62805 78.914 9.93305 78.948 10.231 79.022C10.686 79.144 11.086 79.399 11.474 79.646C11.901 79.918 12.306 80.176 12.667 80.176C13.029 80.176 13.433 79.918 13.86 79.646C14.247 79.401 14.648 79.144 15.103 79.022C15.577 78.9 16.063 78.914 16.535 78.934C17.03 78.954 17.4981 78.973 17.7901 78.804C18.0821 78.636 18.3081 78.212 18.5401 77.768C18.7561 77.354 18.98 76.925 19.32 76.584C19.66 76.244 20.0881 76.021 20.5021 75.805C20.9471 75.573 21.3671 75.355 21.5401 75.055C21.7141 74.754 21.69 74.293 21.67 73.798C21.651 73.328 21.6321 72.841 21.7591 72.368C21.8861 71.896 22.136 71.514 22.383 71.126C22.655 70.698 22.913 70.294 22.913 69.933C22.913 69.571 22.6551 69.167 22.3841 68.739C22.1401 68.352 21.882 67.952 21.761 67.496C21.639 67.024 21.654 66.536 21.673 66.066C21.693 65.569 21.713 65.102 21.543 64.81C21.375 64.518 20.952 64.292 20.507 64.06C20.093 63.844 19.664 63.62 19.324 63.28C18.983 62.939 18.7611 62.512 18.5441 62.098C18.3131 61.653 18.0941 61.233 17.7941 61.06C17.4941 60.886 17.0331 60.91 16.5371 60.929C16.0671 60.949 15.581 60.968 15.108 60.841C14.636 60.714 14.253 60.464 13.865 60.217C13.438 59.945 13.034 59.687 12.672 59.687C12.311 59.687 11.906 59.943 11.479 60.216C11.091 60.46 10.69 60.718 10.233 60.84C9.77705 60.962 9.27305 60.947 8.80305 60.928C8.30605 60.908 7.83905 60.888 7.54705 61.058C7.25505 61.226 7.02905 61.649 6.79705 62.094C6.58105 62.508 6.35705 62.936 6.01705 63.277C5.67605 63.617 5.24905 63.84 4.83505 64.057C4.39005 64.288 3.97005 64.507 3.79705 64.807C3.62305 65.107 3.64505 65.571 3.66405 66.065C3.68305 66.535 3.70305 67.021 3.57605 67.494C3.44905 67.966 3.19805 68.349 2.95205 68.737C2.67905 69.164 2.42205 69.569 2.42205 69.93C2.42205 70.292 2.67905 70.696 2.95205 71.123C3.19605 71.51 3.45305 71.911 3.57605 72.366C3.69805 72.84 3.68305 73.327 3.66405 73.798C3.64405 74.293 3.62405 74.761 3.79305 75.053C3.96105 75.345 4.38505 75.571 4.83005 75.803C5.24405 76.019 5.67205 76.243 6.01305 76.583C6.35305 76.923 6.57605 77.351 6.79305 77.765C7.02405 78.21 7.24305 78.63 7.54305 78.803C7.84305 78.977 8.30305 78.953 8.80005 78.933C8.97305 78.928 9.14805 78.92 9.32105 78.92V78.92ZM12.668 78.294C8.05005 78.294 4.30605 74.55 4.30605 69.931C4.30605 65.313 8.05005 61.569 12.668 61.569C17.287 61.569 21.031 65.313 21.031 69.931C21.026 74.548 17.285 78.289 12.668 78.294ZM12.668 62.785C9.78005 62.785 7.17605 64.525 6.07105 67.194C4.96505 69.862 5.57605 72.934 7.61905 74.976C9.66105 77.019 12.733 77.63 15.401 76.524C18.07 75.419 19.81 72.814 19.81 69.926C19.802 65.986 16.608 62.796 12.668 62.791V62.785V62.785Z" fill="black"/>
<path id="Vector_14" d="M15.167 74.76C14.959 74.76 14.757 74.694 14.588 74.572L12.668 73.177L10.746 74.571C10.401 74.821 9.93603 74.821 9.59103 74.571C9.24603 74.32 9.10103 73.877 9.23203 73.471L9.96503 71.216L8.05003 69.819C7.70503 69.569 7.56003 69.124 7.69303 68.719C7.82403 68.313 8.20303 68.039 8.62903 68.039H10.999L11.732 65.783C11.864 65.378 12.242 65.103 12.668 65.103C13.094 65.103 13.472 65.378 13.604 65.783L14.336 68.039H16.708C17.134 68.039 17.512 68.313 17.644 68.719C17.776 69.124 17.632 69.569 17.287 69.819L15.368 71.214L16.101 73.469C16.198 73.769 16.146 74.097 15.961 74.352C15.776 74.607 15.481 74.758 15.166 74.759L15.167 74.76ZM12.67 71.667L14.716 73.154L13.935 70.747L15.983 69.258H13.45L12.669 66.852L11.887 69.258H9.35703L11.403 70.746L10.623 73.148L12.669 71.667H12.67ZM15.476 77.808L15.064 76.659L15.135 76.633L15.559 77.779L15.476 77.808ZM15.295 77.87L14.909 76.711L14.976 76.689L15.373 77.845L15.295 77.87ZM15.903 77.642L15.429 76.516L15.522 76.476L15.777 77.03L16.022 77.589L15.903 77.642ZM15.65 77.744L15.213 76.604L15.403 76.528L15.873 77.655C15.799 77.685 15.726 77.715 15.653 77.743L15.649 77.744H15.65ZM16.077 77.567L15.577 76.452L15.677 76.406L16.194 77.512L16.077 77.567ZM16.242 77.489L15.718 76.39L15.819 76.341L16.361 77.44L16.242 77.489ZM16.723 77.244L16.129 76.176C16.524 75.956 16.897 75.7 17.244 75.409L18.247 74.571V76.158L18.028 76.341C17.622 76.683 17.185 76.985 16.723 77.244V77.244ZM16.571 77.326L15.997 76.246L16.108 76.186L16.699 77.255L16.571 77.326ZM16.411 77.407L15.864 76.316L15.969 76.262L16.536 77.344L16.411 77.407ZM13.303 78.269L13.213 77.052L13.258 77.661L13.215 77.052L13.273 77.66L13.318 78.268L13.303 78.269ZM13.719 78.228L13.565 77.017L13.579 77.014L13.738 78.226L13.653 77.621L13.719 78.228ZM13.506 78.251L13.393 77.036L13.408 77.035L13.532 78.249L13.506 78.251ZM18.226 89.962L12.662 86.307L7.08203 89.947L7.10503 78.765L7.83703 78.913C8.15703 78.958 8.48203 78.967 8.80503 78.94C9.27503 78.92 9.76103 78.9 10.233 79.028C10.706 79.155 11.088 79.405 11.477 79.652C11.904 79.924 12.308 80.182 12.67 80.182C13.031 80.182 13.435 79.924 13.863 79.652C14.25 79.408 14.65 79.15 15.106 79.028C15.58 78.906 16.066 78.92 16.537 78.94C16.863 78.968 17.19 78.958 17.514 78.912L18.247 78.76L18.226 89.962V89.962ZM12.664 84.847L17.007 87.701L17.018 80.167C16.844 80.167 16.662 80.161 16.486 80.154C16.089 80.138 15.714 80.124 15.42 80.201C15.146 80.275 14.84 80.469 14.517 80.675C13.987 81.013 13.385 81.395 12.668 81.395C11.952 81.395 11.35 81.012 10.82 80.675C10.496 80.469 10.19 80.275 9.91703 80.201C9.62403 80.123 9.25003 80.138 8.85303 80.154C8.68003 80.161 8.50203 80.172 8.32603 80.167L8.31503 87.687L12.664 84.847V84.847ZM14.924 77.984L14.595 76.808L14.653 76.792L14.993 77.964L14.924 77.984ZM15.111 77.929L14.753 76.761L14.818 76.742L15.185 77.907L15.111 77.929ZM13.946 78.196L13.745 76.991L13.756 76.99L13.946 78.196ZM14.738 78.034L14.434 76.852L14.483 76.838L14.794 78.019L14.738 78.034ZM14.549 78.08L14.272 76.891L14.304 76.883L14.581 78.073L14.549 78.08Z" fill="black"/>
</g>
</g>
</g>
</svg>
