<svg width="92" height="91" viewBox="0 0 92 91" fill="none" xmlns="http://www.w3.org/2000/svg">
<g id="process-req-gathering 1">
<g id="Group">
<g id="process-req-gathering-img-shape2">
<path id="Vector" d="M60.22 17.286H81.855V23.364H60.22V17.286ZM60.22 7.127H81.855V13.205H60.22V7.127ZM60.22 27.447H81.855V33.525H60.22V27.447Z" fill="#FE5814"/>
<path id="Vector_2" d="M85.506 32.901H56.57C55.536 32.901 54.698 33.739 54.698 34.773V36.359C54.698 37.393 55.536 38.231 56.57 38.231H85.506C86.54 38.231 87.379 37.393 87.379 36.359V34.772C87.379 33.738 86.54 32.9 85.506 32.9V32.901ZM86.13 36.359C86.13 36.703 85.85 36.983 85.506 36.983H56.57C56.225 36.983 55.946 36.703 55.946 36.359V34.772C55.946 34.428 56.226 34.148 56.57 34.148H85.506C85.851 34.148 86.13 34.428 86.13 34.772V36.358V36.359ZM85.506 12.58H56.57C55.536 12.58 54.698 13.419 54.698 14.453V16.038C54.698 17.072 55.536 17.91 56.57 17.91H85.506C86.54 17.91 87.379 17.072 87.379 16.038V14.453C87.379 13.419 86.54 12.58 85.506 12.58V12.58ZM86.13 16.038C86.13 16.383 85.85 16.662 85.506 16.662H56.57C56.225 16.662 55.946 16.382 55.946 16.038V14.453C55.946 14.108 56.226 13.829 56.57 13.829H85.506C85.851 13.829 86.13 14.108 86.13 14.453V16.038ZM85.506 2.42101H56.57C55.536 2.42101 54.698 3.25901 54.698 4.29201V5.87701C54.698 6.91101 55.536 7.75001 56.57 7.75001H85.506C86.54 7.75001 87.379 6.91101 87.379 5.87701V4.29301C87.379 3.25901 86.54 2.42101 85.506 2.42101V2.42101ZM86.13 5.87801C86.13 6.22301 85.85 6.50301 85.506 6.50301H56.57C56.225 6.50301 55.946 6.22301 55.946 5.87801V4.29301C55.946 3.94801 56.226 3.66901 56.57 3.66901H85.506C85.851 3.66901 86.13 3.94901 86.13 4.29301V5.87801V5.87801ZM85.506 22.74H56.57C55.536 22.74 54.698 23.578 54.698 24.612V26.198C54.698 27.232 55.536 28.07 56.57 28.07H85.506C86.54 28.07 87.379 27.232 87.379 26.198V24.612C87.379 23.578 86.54 22.74 85.506 22.74V22.74ZM86.13 26.198C86.13 26.542 85.85 26.822 85.506 26.822H56.57C56.225 26.822 55.946 26.542 55.946 26.198V24.612C55.946 24.268 56.226 23.988 56.57 23.988H85.506C85.851 23.988 86.13 24.268 86.13 24.612V26.198V26.198Z" fill="black"/>
</g>
<path id="Vector_3" d="M34.398 42.176H14.812C11.229 42.172 8.32504 39.269 8.32104 35.686V34.628C8.32504 31.045 11.229 28.141 14.811 28.138H27.907C31.491 28.141 34.394 31.045 34.398 34.628V42.176V42.176ZM14.812 29.386C11.916 29.386 9.56905 31.733 9.56905 34.628V35.685C9.56905 38.581 11.916 40.928 14.812 40.928H33.15V34.628C33.15 31.733 30.803 29.385 27.907 29.385H14.812V29.386Z" fill="black"/>
<path id="process-req-gathering-img-dot2" d="M21.36 36.419C22.057 36.419 22.622 35.854 22.622 35.157C22.622 34.46 22.057 33.895 21.36 33.895C20.663 33.895 20.098 34.46 20.098 35.157C20.098 35.854 20.663 36.419 21.36 36.419Z" fill="black"/>
<path id="process-req-gathering-img-dot1" d="M15.662 36.419C16.359 36.419 16.924 35.854 16.924 35.157C16.924 34.46 16.359 33.895 15.662 33.895C14.965 33.895 14.4 34.46 14.4 35.157C14.4 35.854 14.965 36.419 15.662 36.419Z" fill="black"/>
<path id="process-req-gathering-img-dot3" d="M27.059 36.419C27.756 36.419 28.321 35.854 28.321 35.157C28.321 34.46 27.756 33.895 27.059 33.895C26.362 33.895 25.797 34.46 25.797 35.157C25.797 35.854 26.362 36.419 27.059 36.419Z" fill="black"/>
<g id="Group_2">
<path id="Vector_4" d="M15.0091 80.048C15.6486 80.048 16.1671 79.5296 16.1671 78.89C16.1671 78.2505 15.6486 77.732 15.0091 77.732C14.3695 77.732 13.8511 78.2505 13.8511 78.89C13.8511 79.5296 14.3695 80.048 15.0091 80.048Z" fill="black"/>
<path id="Vector_5" d="M15.0091 85.276C15.6486 85.276 16.1671 84.7576 16.1671 84.118C16.1671 83.4785 15.6486 82.96 15.0091 82.96C14.3695 82.96 13.8511 83.4785 13.8511 84.118C13.8511 84.7576 14.3695 85.276 15.0091 85.276Z" fill="black"/>
<path id="Vector_6" d="M15.0091 74.82C15.6486 74.82 16.1671 74.3015 16.1671 73.662C16.1671 73.0225 15.6486 72.504 15.0091 72.504C14.3695 72.504 13.8511 73.0225 13.8511 73.662C13.8511 74.3015 14.3695 74.82 15.0091 74.82Z" fill="black"/>
<path id="Vector_7" d="M91.914 63.795L84.258 50.528C84.146 50.335 83.94 50.216 83.718 50.216H10.281C10.083 50.218 9.89803 50.313 9.78103 50.473L0.126026 63.74C-0.0119744 63.929 -0.0319744 64.179 0.0730256 64.388C0.178026 64.596 0.391026 64.729 0.625026 64.731H9.26303V88.097C9.26303 89.131 10.101 89.97 11.136 89.97H37.436C37.898 89.97 38.343 89.798 38.685 89.49C39.027 89.798 39.472 89.97 39.933 89.97H82.413C83.447 89.97 84.285 89.131 84.285 88.097V64.731H91.375C91.597 64.731 91.803 64.612 91.915 64.419C92.026 64.226 92.026 63.988 91.915 63.795H91.914ZM1.85003 63.483L10.599 51.464H37.854L29.104 63.483H1.85003ZM37.436 88.72H11.135C10.79 88.72 10.51 88.441 10.51 88.096V64.731H29.422C29.619 64.729 29.805 64.634 29.921 64.474L38.06 53.3V88.096C38.06 88.441 37.78 88.72 37.436 88.72ZM83.036 88.096C83.036 88.441 82.756 88.72 82.412 88.72H39.932C39.587 88.72 39.308 88.441 39.308 88.096V53.077L45.856 64.419C45.968 64.612 46.174 64.731 46.396 64.731H83.036V88.097V88.096ZM46.756 63.482L39.82 51.464H83.353L90.293 63.483H46.755L46.756 63.482Z" fill="black"/>
<path id="Vector_8" d="M79.1743 69.0639C79.8116 69.0102 80.2847 68.45 80.2309 67.8127C80.1772 67.1754 79.617 66.7024 78.9797 66.7561C78.3424 66.8098 77.8694 67.37 77.9231 68.0073C77.9768 68.6446 78.537 69.1176 79.1743 69.0639Z" fill="black"/>
<path id="Vector_9" d="M79.0741 71.15C78.7291 71.15 78.4501 71.43 78.4501 71.775V87.23C78.4501 87.574 78.7301 87.854 79.0741 87.854C79.4191 87.854 79.6981 87.574 79.6981 87.23V71.775C79.6981 71.43 79.4181 71.151 79.0741 71.151V71.15Z" fill="black"/>
</g>
<g id="Group_3">
<path id="Vector_10" d="M38.126 0H9.19004C8.50004 0 7.94104 0.559 7.94104 1.248V20.387C7.94104 21.077 8.50104 21.635 9.19004 21.635H38.126C38.816 21.635 39.374 21.076 39.374 20.387V1.248C39.374 0.558 38.815 0 38.126 0ZM28.243 14.73C28.136 14.73 28.029 14.721 27.923 14.706V17.732H16.853V6.663H20.21C20.198 6.566 20.191 6.467 20.192 6.369C20.22 5.164 21.205 4.203 22.409 4.203C23.614 4.203 24.599 5.164 24.627 6.369C24.627 6.467 24.621 6.566 24.608 6.663H27.925V10.318C28.749 10.194 29.574 10.542 30.059 11.219C30.545 11.897 30.609 12.789 30.227 13.53C29.844 14.27 29.077 14.734 28.244 14.73H28.243Z" fill="#FE5814"/>
<path id="process-req-gathering-img-shape1" d="M28.548 18.357H16.228V6.039H19.584C19.752 4.607 20.965 3.528 22.407 3.528C23.849 3.528 25.062 4.608 25.23 6.039H28.548V9.688C29.989 9.845 31.081 11.063 31.081 12.513C31.081 13.963 29.989 15.181 28.548 15.339V18.357ZM17.478 17.109H27.3V13.98L28.015 14.084C28.091 14.095 28.168 14.101 28.245 14.101C28.843 14.103 29.392 13.77 29.667 13.238C29.941 12.706 29.895 12.065 29.547 11.578C29.198 11.092 28.607 10.842 28.015 10.93L27.301 11.035V7.287H23.897L23.99 6.581C24 6.511 24.004 6.44 24.004 6.369C24.02 5.789 23.72 5.246 23.221 4.951C22.721 4.656 22.101 4.656 21.601 4.951C21.101 5.246 20.801 5.789 20.817 6.369C20.817 6.439 20.822 6.51 20.831 6.581L20.925 7.286H17.474L17.477 17.109H17.478Z" fill="black"/>
</g>
<g id="Group_4">
<path id="Vector_11" d="M34.002 37.015H35.901C38.078 37.018 39.843 38.782 39.845 40.96V51.539H41.094V40.959C41.09 38.093 38.767 35.77 35.901 35.767H34V35.863L34.002 37.015ZM37.476 12.25H39.983C42.158 12.25 43.927 14.372 43.927 16.993V51.539H45.175V16.992C45.175 13.689 42.846 11 39.983 11H37.476C37.131 11 36.852 11.28 36.852 11.624C36.852 11.969 37.132 12.248 37.476 12.248V12.25ZM49.099 51.539V31.163C49.101 28.986 50.866 27.221 53.043 27.219H55.55C55.894 27.219 56.174 26.939 56.174 26.595C56.174 26.25 55.894 25.97 55.55 25.97H53.043C50.177 25.974 47.853 28.297 47.85 31.163V51.54L49.099 51.539Z" fill="black"/>
</g>
</g>
</g>
</svg>
