<svg xmlns="http://www.w3.org/2000/svg" width="207.497" height="59.546" viewBox="0 0 207.497 59.546">
  <g id="Group_9" data-name="Group 9" transform="translate(0 0)">
    <path id="Path_305" data-name="Path 305" d="M227.033,75.474a5.969,5.969,0,0,1-5.975,5.969H25.519a5.976,5.976,0,0,1-5.983-5.969v-47.6A5.984,5.984,0,0,1,25.519,21.9H221.056a5.975,5.975,0,0,1,5.975,5.977l0,47.6Z" transform="translate(-19.536 -21.897)" fill="#fff"/>
    <path id="Path_307" data-name="Path 307" d="M227.033,75.474a5.969,5.969,0,0,1-5.975,5.969H25.519a5.976,5.976,0,0,1-5.983-5.969v-47.6A5.984,5.984,0,0,1,25.519,21.9H221.056a5.975,5.975,0,0,1,5.975,5.977l0,47.6Z" transform="translate(-19.536 -21.897)"/>
    <path id="Path_308" data-name="Path 308" d="M119.739,104.046a9.035,9.035,0,0,1,4.3-7.58,9.254,9.254,0,0,0-7.287-3.94c-3.065-.323-6.039,1.834-7.6,1.834-1.593,0-4-1.8-6.589-1.75A9.7,9.7,0,0,0,94.4,97.591c-3.531,6.114-.9,15.1,2.486,20.04,1.693,2.422,3.67,5.123,6.259,5.027,2.532-.1,3.479-1.613,6.535-1.613,3.028,0,3.917,1.613,6.556,1.552,2.718-.042,4.429-2.431,6.062-4.873a19.978,19.978,0,0,0,2.772-5.647A8.74,8.74,0,0,1,119.739,104.046Z" transform="translate(-74.173 -74.601)" fill="#fff"/>
    <path id="Path_309" data-name="Path 309" d="M162.1,61.025a8.891,8.891,0,0,0,2.035-6.372,9.058,9.058,0,0,0-5.857,3.029,8.463,8.463,0,0,0-2.088,6.137A7.482,7.482,0,0,0,162.1,61.025Z" transform="translate(-121.523 -46.351)" fill="#fff"/>
    <g id="Group_7" data-name="Group 7" transform="translate(64.738 26.664)">
      <path id="Path_310" data-name="Path 310" d="M292.477,149.052h-3.539L287,142.96H280.26l-1.847,6.092h-3.446l6.678-20.74h4.124Zm-6.062-8.648-1.753-5.416q-.278-.83-1.046-3.907h-.062q-.308,1.323-.985,3.907l-1.724,5.416Z" transform="translate(-274.968 -128.005)" fill="#fff"/>
      <path id="Path_311" data-name="Path 311" d="M369.268,157.522a8.469,8.469,0,0,1-2.073,6.03,6.077,6.077,0,0,1-4.61,1.97,4.615,4.615,0,0,1-4.27-2.121v7.847h-3.323v-16.1q0-2.4-.123-4.915h2.922l.186,2.37h.062a5.911,5.911,0,0,1,9.461-.587A8.27,8.27,0,0,1,369.268,157.522Zm-3.385.122a6.165,6.165,0,0,0-.985-3.6,3.4,3.4,0,0,0-2.892-1.476,3.455,3.455,0,0,0-2.23.815,3.781,3.781,0,0,0-1.308,2.14,4.348,4.348,0,0,0-.154,1.012v2.495a4,4,0,0,0,1,2.756,3.322,3.322,0,0,0,2.6,1.124,3.406,3.406,0,0,0,2.922-1.446A6.366,6.366,0,0,0,365.883,157.644Z" transform="translate(-334.618 -144.137)" fill="#fff"/>
      <path id="Path_312" data-name="Path 312" d="M437.13,157.522a8.468,8.468,0,0,1-2.073,6.03,6.08,6.08,0,0,1-4.611,1.97,4.615,4.615,0,0,1-4.27-2.121v7.847h-3.323v-16.1q0-2.4-.123-4.915h2.922l.186,2.37h.062a5.913,5.913,0,0,1,9.463-.587A8.279,8.279,0,0,1,437.13,157.522Zm-3.387.122a6.165,6.165,0,0,0-.987-3.6,3.4,3.4,0,0,0-2.889-1.476,3.47,3.47,0,0,0-2.233.815,3.778,3.778,0,0,0-1.306,2.14,4.434,4.434,0,0,0-.156,1.012v2.495a4.016,4.016,0,0,0,1,2.756,3.329,3.329,0,0,0,2.6,1.124,3.4,3.4,0,0,0,2.922-1.446A6.366,6.366,0,0,0,433.744,157.644Z" transform="translate(-385.28 -144.137)" fill="#fff"/>
      <path id="Path_313" data-name="Path 313" d="M517.536,142.33a5.54,5.54,0,0,1-1.844,4.309,8.171,8.171,0,0,1-5.649,1.816,9.862,9.862,0,0,1-5.371-1.292l.768-2.769a9.244,9.244,0,0,0,4.8,1.294,4.529,4.529,0,0,0,2.922-.846,2.764,2.764,0,0,0,1.049-2.26,2.9,2.9,0,0,0-.863-2.124,8,8,0,0,0-2.861-1.6q-5.447-2.032-5.448-5.941a5.245,5.245,0,0,1,1.923-4.184,7.6,7.6,0,0,1,5.093-1.632,10.063,10.063,0,0,1,4.708.985l-.833,2.709a8.233,8.233,0,0,0-3.985-.954,4.052,4.052,0,0,0-2.749.862,2.465,2.465,0,0,0-.833,1.879,2.54,2.54,0,0,0,.955,2.031,10.765,10.765,0,0,0,3.014,1.6,10.218,10.218,0,0,1,3.938,2.522A5.255,5.255,0,0,1,517.536,142.33Z" transform="translate(-446.455 -127.101)" fill="#fff"/>
      <path id="Path_314" data-name="Path 314" d="M572.056,142.646h-3.663v7.261q0,2.77,1.939,2.768a5.837,5.837,0,0,0,1.476-.154l.092,2.523a7.525,7.525,0,0,1-2.584.368,3.982,3.982,0,0,1-3.078-1.2,5.893,5.893,0,0,1-1.108-4.032V142.64h-2.182v-2.494h2.182v-2.738l3.264-.985v3.723h3.662Z" transform="translate(-489.96 -134.06)" fill="#fff"/>
      <path id="Path_315" data-name="Path 315" d="M620.8,157.6a8.2,8.2,0,0,1-1.97,5.662,7.022,7.022,0,0,1-5.477,2.277,6.694,6.694,0,0,1-5.247-2.182,7.955,7.955,0,0,1-1.954-5.508,8.137,8.137,0,0,1,2.015-5.691,6.985,6.985,0,0,1,5.433-2.216,6.834,6.834,0,0,1,5.291,2.185A7.851,7.851,0,0,1,620.8,157.6Zm-3.444.077a6.7,6.7,0,0,0-.89-3.529,3.289,3.289,0,0,0-2.986-1.781,3.336,3.336,0,0,0-3.047,1.781,6.807,6.807,0,0,0-.892,3.591,6.677,6.677,0,0,0,.892,3.53,3.407,3.407,0,0,0,6-.03A6.723,6.723,0,0,0,617.361,157.674Z" transform="translate(-522.218 -144.151)" fill="#fff"/>
      <path id="Path_316" data-name="Path 316" d="M683.006,153.151a5.782,5.782,0,0,0-1.047-.092,3.135,3.135,0,0,0-2.709,1.325,4.99,4.99,0,0,0-.829,2.953v7.847H675.1V154.938q0-2.583-.1-4.708H677.9l.122,2.861h.092a5.133,5.133,0,0,1,1.661-2.371,4.019,4.019,0,0,1,2.4-.8,5.327,5.327,0,0,1,.831.061l0,3.17Z" transform="translate(-573.615 -144.137)" fill="#fff"/>
      <path id="Path_317" data-name="Path 317" d="M726.067,156.93a7.787,7.787,0,0,1-.122,1.507h-9.968a4.338,4.338,0,0,0,1.446,3.388,4.947,4.947,0,0,0,3.26,1.044,11.027,11.027,0,0,0,4.033-.706l.521,2.3a12.47,12.47,0,0,1-5.014.924,7.268,7.268,0,0,1-5.464-2.045,7.56,7.56,0,0,1-1.984-5.492,8.567,8.567,0,0,1,1.848-5.629,6.367,6.367,0,0,1,5.229-2.4,5.573,5.573,0,0,1,4.9,2.4A8.072,8.072,0,0,1,726.067,156.93Zm-3.168-.862a4.5,4.5,0,0,0-.645-2.554,2.9,2.9,0,0,0-2.646-1.387,3.15,3.15,0,0,0-2.645,1.354,4.966,4.966,0,0,0-.983,2.584l6.92,0Z" transform="translate(-601.815 -144.068)" fill="#fff"/>
    </g>
    <g id="Group_8" data-name="Group 8" transform="translate(65.976 8.825)">
      <path id="Path_318" data-name="Path 318" d="M288.458,69h-1.741L285.765,66h-3.311L281.545,69h-1.694L283.133,58.8h2.026Zm-2.98-4.25-.862-2.662c-.09-.273-.257-.907-.514-1.92h-.031c-.106.438-.257,1.074-.485,1.92l-.846,2.662Z" transform="translate(-279.851 -58.275)" fill="#fff"/>
      <path id="Path_319" data-name="Path 319" d="M325.384,70.025l-2.783,7.35h-1.588l-2.693-7.35h1.755l1.256,3.887c.212.65.393,1.27.528,1.859h.045c.122-.528.3-1.149.528-1.859l1.24-3.887Z" transform="translate(-308.569 -66.653)" fill="#fff"/>
      <path id="Path_320" data-name="Path 320" d="M356.117,76.93,356,76.084h-.045A2.506,2.506,0,0,1,353.8,77.1a2.139,2.139,0,0,1-2.253-2.163c0-1.814,1.572-2.752,4.3-2.752v-.136c0-.968-.515-1.453-1.527-1.453a3.433,3.433,0,0,0-1.92.545l-.332-1.074a4.7,4.7,0,0,1,2.526-.636c1.92,0,2.889,1.013,2.889,3.041v2.707a10.926,10.926,0,0,0,.106,1.755l-1.469,0Zm-.228-3.661c-1.816,0-2.723.439-2.723,1.482a1.041,1.041,0,0,0,1.119,1.149,1.563,1.563,0,0,0,1.6-1.5Z" transform="translate(-333.377 -66.208)" fill="#fff"/>
      <path id="Path_321" data-name="Path 321" d="M386.453,59.5a.976.976,0,1,1,1.028-.984A.96.96,0,0,1,386.453,59.5Zm.848,8.56h-1.633v-7.35H387.3Z" transform="translate(-358.712 -57.339)" fill="#fff"/>
      <path id="Path_322" data-name="Path 322" d="M405.732,67.441H404.1V56.719h1.633Z" transform="translate(-372.609 -56.719)" fill="#fff"/>
      <path id="Path_323" data-name="Path 323" d="M424.476,76.925l-.122-.846h-.045a2.506,2.506,0,0,1-2.148,1.013,2.139,2.139,0,0,1-2.254-2.163c0-1.814,1.572-2.752,4.3-2.752v-.136c0-.968-.514-1.453-1.527-1.453a3.433,3.433,0,0,0-1.92.545l-.333-1.075a4.7,4.7,0,0,1,2.526-.636c1.92,0,2.889,1.013,2.889,3.041v2.707a11.321,11.321,0,0,0,.1,1.755Zm-.228-3.661c-1.816,0-2.723.439-2.723,1.482a1.041,1.041,0,0,0,1.119,1.149,1.563,1.563,0,0,0,1.6-1.5Z" transform="translate(-384.411 -66.203)" fill="#fff"/>
      <path id="Path_324" data-name="Path 324" d="M458.135,67.608a2.494,2.494,0,0,1-2.311-1.3h-.033l-.094,1.134h-1.392c.045-.589.061-1.256.061-1.981V56.719H456v4.448h.031a2.521,2.521,0,0,1,2.344-1.225c1.771,0,3.011,1.513,3.011,3.72C461.388,65.943,460.01,67.608,458.135,67.608Zm-.332-6.383a1.879,1.879,0,0,0-1.8,1.951v1.286a1.8,1.8,0,0,0,1.772,1.845c1.223,0,1.951-1,1.951-2.585C459.725,62.239,458.967,61.225,457.8,61.225Z" transform="translate(-410.091 -56.719)" fill="#fff"/>
      <path id="Path_325" data-name="Path 325" d="M493.41,67.441h-1.632V56.719h1.632Z" transform="translate(-438.066 -56.719)" fill="#fff"/>
      <path id="Path_326" data-name="Path 326" d="M514.214,73.6h-4.9a2.109,2.109,0,0,0,2.314,2.177,5.512,5.512,0,0,0,1.981-.348l.254,1.135a6.127,6.127,0,0,1-2.464.453,3.412,3.412,0,0,1-3.661-3.7c0-2.254,1.393-3.948,3.477-3.948,1.875,0,3.056,1.392,3.056,3.494A3.077,3.077,0,0,1,514.214,73.6Zm-1.5-1.164c0-1.134-.575-1.936-1.619-1.936a1.94,1.94,0,0,0-1.786,1.936Z" transform="translate(-449.978 -66.161)" fill="#fff"/>
      <path id="Path_327" data-name="Path 327" d="M561.93,77.1a3.5,3.5,0,0,1-3.539-3.781,3.58,3.58,0,0,1,3.662-3.887,3.471,3.471,0,0,1,3.539,3.767A3.6,3.6,0,0,1,561.93,77.1Zm.062-6.474c-1.18,0-1.936,1.1-1.936,2.646,0,1.513.771,2.617,1.92,2.617s1.919-1.18,1.919-2.648C563.9,71.742,563.141,70.623,561.993,70.623Z" transform="translate(-487.796 -66.208)" fill="#fff"/>
      <path id="Path_328" data-name="Path 328" d="M602.477,76.925h-1.632v-4.22c0-1.3-.5-1.951-1.482-1.951a1.7,1.7,0,0,0-1.635,1.8v4.371H596.1V71.676c0-.65-.017-1.347-.061-2.1h1.437l.077,1.135h.045a2.637,2.637,0,0,1,2.328-1.286c1.541,0,2.554,1.18,2.554,3.1v4.4Z" transform="translate(-515.9 -66.203)" fill="#fff"/>
      <path id="Path_329" data-name="Path 329" d="M650.443,65.856h-1.8v3.569q0,1.363.951,1.362a3.237,3.237,0,0,0,.726-.076l.045,1.241a3.643,3.643,0,0,1-1.269.182c-1.287,0-2.056-.711-2.056-2.571V65.856h-1.072V64.631h1.072V63.285l1.6-.485v1.83h1.8Z" transform="translate(-553.18 -61.259)" fill="#fff"/>
      <path id="Path_330" data-name="Path 330" d="M678.938,67.441H677.3V63.252c0-1.315-.5-1.981-1.482-1.981a1.6,1.6,0,0,0-1.632,1.739v4.431h-1.635V56.719h1.635v4.415h.031a2.473,2.473,0,0,1,2.208-1.2c1.557,0,2.509,1.209,2.509,3.131Z" transform="translate(-573.025 -56.719)" fill="#fff"/>
      <path id="Path_331" data-name="Path 331" d="M711.587,73.6h-4.9A2.107,2.107,0,0,0,709,75.779a5.506,5.506,0,0,0,1.981-.348l.255,1.135a6.135,6.135,0,0,1-2.466.453,3.412,3.412,0,0,1-3.661-3.7c0-2.254,1.393-3.948,3.477-3.948,1.875,0,3.056,1.392,3.056,3.494A3.154,3.154,0,0,1,711.587,73.6Zm-1.5-1.164c0-1.134-.573-1.936-1.617-1.936a1.937,1.937,0,0,0-1.786,1.936Z" transform="translate(-597.328 -66.161)" fill="#fff"/>
    </g>
  </g>
</svg>
