<svg xmlns="http://www.w3.org/2000/svg" xmlns:xlink="http://www.w3.org/1999/xlink" width="203.332" height="59.546" viewBox="0 0 203.332 59.546">
  <defs>
    <linearGradient id="linear-gradient" x1="1.033" y1="-2.738" x2="-0.261" y2="-2.062" gradientUnits="objectBoundingBox">
      <stop offset="0" stop-color="#00a0ff"/>
      <stop offset="0.007" stop-color="#00a1ff"/>
      <stop offset="0.26" stop-color="#00beff"/>
      <stop offset="0.512" stop-color="#00d2ff"/>
      <stop offset="0.76" stop-color="#00dfff"/>
      <stop offset="1" stop-color="#00e3ff"/>
    </linearGradient>
    <linearGradient id="linear-gradient-2" x1="1.224" y1="-7.655" x2="-1.151" y2="-7.655" gradientUnits="objectBoundingBox">
      <stop offset="0" stop-color="#ffe000"/>
      <stop offset="0.409" stop-color="#ffbd00"/>
      <stop offset="0.775" stop-color="orange"/>
      <stop offset="1" stop-color="#ff9c00"/>
    </linearGradient>
    <linearGradient id="linear-gradient-3" x1="0.455" y1="-5.899" x2="-0.905" y2="-4.113" gradientUnits="objectBoundingBox">
      <stop offset="0" stop-color="#ff3a44"/>
      <stop offset="1" stop-color="#c31162"/>
    </linearGradient>
    <linearGradient id="linear-gradient-4" x1="-0.593" y1="-5.327" x2="0.015" y2="-4.529" gradientUnits="objectBoundingBox">
      <stop offset="0" stop-color="#32a071"/>
      <stop offset="0.068" stop-color="#2da771"/>
      <stop offset="0.476" stop-color="#15cf74"/>
      <stop offset="0.801" stop-color="#06e775"/>
      <stop offset="1" stop-color="#00f076"/>
    </linearGradient>
  </defs>
  <g id="Group_1127" data-name="Group 1127" transform="translate(0 0)">
    <path id="path14" d="M209.867,345.735H21.6a7.512,7.512,0,0,1-7.531-7.443V293.632a7.512,7.512,0,0,1,7.531-7.443h188.27a7.512,7.512,0,0,1,7.531,7.443v44.659A7.512,7.512,0,0,1,209.867,345.735Z" transform="translate(-14.066 -286.189)"/>
    <g id="g18" transform="translate(62.284 10.219)">
      <path id="path20" d="M277.341,332.918a4.037,4.037,0,0,1-1.118,2.981,4.43,4.43,0,0,1-3.325,1.323,4.6,4.6,0,0,1-3.323-1.338,4.723,4.723,0,0,1,0-6.65,4.573,4.573,0,0,1,3.323-1.345,4.776,4.776,0,0,1,1.854.378,3.673,3.673,0,0,1,1.412,1l-.787.785a3.085,3.085,0,0,0-2.479-1.053,3.473,3.473,0,0,0-2.47.988,3.72,3.72,0,0,0,0,5.154,3.5,3.5,0,0,0,2.47.988,3.456,3.456,0,0,0,2.523-1,2.787,2.787,0,0,0,.757-1.811H272.9v-1.076h4.375A3.028,3.028,0,0,1,277.341,332.918Z" transform="translate(-268.206 -327.888)" fill="#fff" stroke="#fff" stroke-miterlimit="10" stroke-width="0.16"/>
    </g>
    <g id="g22" transform="translate(73.086 10.424)">
      <path id="path24" d="M317.56,329.82h-4.11v2.828h3.705v1.075H313.45v2.828h4.11v1.1h-5.274v-8.924h5.274Z" transform="translate(-312.286 -328.724)" fill="#fff" stroke="#fff" stroke-miterlimit="10" stroke-width="0.16"/>
    </g>
    <g id="g26" transform="translate(79.574 10.424)">
      <path id="path28" d="M342.443,337.648H341.28V329.82h-2.521v-1.1h6.207v1.1h-2.523Z" transform="translate(-338.759 -328.724)" fill="#fff" stroke="#fff" stroke-miterlimit="10" stroke-width="0.16"/>
    </g>
    <g id="g30" transform="translate(90.273 10.424)">
      <path id="path32" d="M382.416,337.648v-8.924h1.162v8.924Z" transform="translate(-382.416 -328.724)" fill="#fff" stroke="#fff" stroke-miterlimit="10" stroke-width="0.16"/>
    </g>
    <g id="g34" transform="translate(92.9 10.424)">
      <path id="path36" d="M396.817,337.648h-1.154V329.82h-2.53v-1.1h6.215v1.1h-2.53Z" transform="translate(-393.133 -328.724)" fill="#fff" stroke="#fff" stroke-miterlimit="10" stroke-width="0.16"/>
    </g>
    <g id="g38" transform="translate(102.909 10.219)">
      <path id="path40" d="M441.929,335.869a4.735,4.735,0,0,1-6.627,0,4.791,4.791,0,0,1,0-6.628,4.716,4.716,0,0,1,6.62.008,4.772,4.772,0,0,1,.008,6.621Zm-5.767-.748a3.5,3.5,0,0,0,4.906,0,3.772,3.772,0,0,0,0-5.132,3.5,3.5,0,0,0-4.906,0,3.772,3.772,0,0,0,0,5.132Z" transform="translate(-433.971 -327.888)" fill="#fff" stroke="#fff" stroke-miterlimit="10" stroke-width="0.16"/>
    </g>
    <g id="g42" transform="translate(113.83 10.424)">
      <path id="path44" d="M478.535,337.648v-8.924h1.412l4.391,6.941h.051l-.051-1.716v-5.225H485.5v8.924h-1.212l-4.6-7.283h-.051l.051,1.723v5.56Z" transform="translate(-478.535 -328.724)" fill="#fff" stroke="#fff" stroke-miterlimit="10" stroke-width="0.16"/>
    </g>
    <path id="path46" d="M307.1,396.737a6.332,6.332,0,1,0,6.435,6.332A6.279,6.279,0,0,0,307.1,396.737Zm0,10.169a3.845,3.845,0,1,1,3.619-3.837A3.679,3.679,0,0,1,307.1,406.906Zm-14.024-10.169a6.332,6.332,0,1,0,6.428,6.332A6.274,6.274,0,0,0,293.071,396.737Zm0,10.169a3.845,3.845,0,1,1,3.611-3.837A3.684,3.684,0,0,1,293.071,406.906Zm-16.688-8.228v2.691h6.5a5.557,5.557,0,0,1-1.478,3.379,6.72,6.72,0,0,1-5.023,1.963,7.145,7.145,0,0,1,0-14.291,6.938,6.938,0,0,1,4.9,1.918l1.918-1.9a9.544,9.544,0,0,0-6.817-2.711,9.838,9.838,0,1,0,0,19.669,9.15,9.15,0,0,0,6.944-2.762,9.582,9.582,0,0,0,2.206-7.961Zm68.24,2.086a5.935,5.935,0,0,0-5.486-4.027,6.049,6.049,0,0,0-6.038,6.332,6.23,6.23,0,0,0,6.354,6.331,6.369,6.369,0,0,0,5.339-2.806l-2.184-1.438a3.671,3.671,0,0,1-3.155,1.751,3.26,3.26,0,0,1-3.1-1.918l8.568-3.5Zm-8.736,2.108a3.493,3.493,0,0,1,3.346-3.692,2.494,2.494,0,0,1,2.384,1.344Zm-6.964,6.143h2.817V390.406h-2.817Zm-4.613-10.867h-.094a4.462,4.462,0,0,0-3.368-1.41,6.334,6.334,0,0,0,0,12.663,4.4,4.4,0,0,0,3.368-1.439h.094v.908c0,2.421-1.308,3.721-3.419,3.721a3.553,3.553,0,0,1-3.229-2.261l-2.449,1.01a6.112,6.112,0,0,0,5.678,3.744c3.3,0,6.089-1.92,6.089-6.593V397.122h-2.67Zm-3.221,8.759a3.848,3.848,0,0,1,0-7.676,3.863,3.863,0,0,1,0,7.676Zm36.72-16.5h-6.736v18.608h2.809v-7.051h3.927a5.792,5.792,0,1,0,0-11.558Zm.073,8.969h-4v-6.381h4a3.192,3.192,0,1,1,0,6.381Zm17.364-2.674a5.28,5.28,0,0,0-5.008,2.849l2.493,1.033a2.667,2.667,0,0,1,2.566-1.368,2.7,2.7,0,0,1,2.958,2.393v.2a6.228,6.228,0,0,0-2.935-.72c-2.685,0-5.42,1.461-5.42,4.187,0,2.494,2.2,4.1,4.671,4.1a3.986,3.986,0,0,0,3.588-1.824h.1v1.438h2.713v-7.138C380.969,398.548,378.476,396.7,375.247,396.7Zm-.339,10.2c-.919,0-2.2-.45-2.2-1.576,0-1.44,1.6-1.993,2.979-1.993a5.086,5.086,0,0,1,2.568.625A3.4,3.4,0,0,1,374.908,406.9Zm15.945-9.79-3.229,8.067h-.1l-3.338-8.067h-3.029l5.016,11.273-2.862,6.273h2.935l7.728-17.546Zm-25.32,11.906h2.817V390.406h-2.817Z" transform="translate(-204.473 -364.355)" fill="#fff"/>
    <g id="g48" transform="translate(15.018 11.115)">
      <path id="path64" d="M76.045,331.648a2.941,2.941,0,0,0-.7,2.093v32.921a2.94,2.94,0,0,0,.7,2.093l.109.1,18.665-18.441v-.435L76.154,331.54Z" transform="translate(-75.346 -331.54)" fill="url(#linear-gradient)"/>
    </g>
    <g id="g66" transform="translate(34.491 23.405)">
      <path id="path78" d="M161.018,394.426l-6.215-6.15v-.435l6.222-6.15.139.08,7.369,4.144c2.1,1.176,2.1,3.111,0,4.295l-7.369,4.137Z" transform="translate(-154.803 -381.691)" fill="url(#linear-gradient-2)"/>
    </g>
    <g id="g80" transform="translate(15.717 29.773)">
      <path id="path88" d="M103.333,413.961l-6.362-6.288L78.2,426.231c.7.726,1.837.813,3.133.087l22-12.357" transform="translate(-78.197 -407.673)" fill="url(#linear-gradient-3)"/>
    </g>
    <g id="g90" transform="translate(15.717 10.631)">
      <path id="path104" d="M103.333,342.423l-22-12.357c-1.3-.718-2.434-.631-3.133.095l18.774,18.55Z" transform="translate(-78.197 -329.569)" fill="url(#linear-gradient-4)"/>
    </g>
  </g>
</svg>
