<svg xmlns="http://www.w3.org/2000/svg" width="191.812" height="72.595" viewBox="0 0 191.812 72.595">
  <g id="comp_x5F_111-ember" transform="translate(0)">
    <g id="Group_631" data-name="Group 631" transform="translate(0)">
      <path id="Path_543" data-name="Path 543" d="M217.771,221.939a2.211,2.211,0,0,0-3.206-2.038s-4.676,3.625-8.781,3.206c-4.106-.389-2.817-9.59-2.817-9.59s.9-8.421-1.529-9.111c-2.428-.719-5.394,2.187-5.394,2.187a30.126,30.126,0,0,0-5.484,9.351l-.479.15s.569-9.171-.09-11.268c-.479-1.05-4.915-.959-5.634.9s-4.255,14.745-4.5,20.14c0,0-6.924,5.874-12.976,6.832s-7.493-2.816-7.493-2.816,16.424-4.586,15.854-17.712S162,203.9,160.561,204.976c-1.379,1.05-8.811,5.515-10.969,17.892-.06.42-.21,2.248-.21,2.248s-6.353,4.256-9.89,5.394c0,0,9.89-16.661-2.187-24.244-3.416-2.038-6.384-.15-8.152,1.589,4.076-5.185,13.906-19.24,11.059-31.527-1.738-7.313-5.394-8.122-8.751-6.923-5.094,2.008-7.043,5-7.043,5a56.336,56.336,0,0,0-8.122,23.825c-1.529,14.235-3.776,31.5-3.776,31.5s-3.147,3.056-6.054,3.206-1.618-8.6-1.618-8.6,2.248-13.368,2.1-15.615-.33-3.476-2.967-4.256c-2.667-.809-5.544,2.577-5.544,2.577s-7.642,11.6-8.3,13.367l-.389.719-.39-.479s5.394-15.794.24-16.034-8.541,5.634-8.541,5.634-5.874,9.83-6.114,10.939l-.39-.48s2.428-11.448,1.919-14.266a2.585,2.585,0,0,0-3.147-2.247s-3.386-.389-4.256,1.768a159.052,159.052,0,0,0-4.5,21.188s-8.451,6.054-14.025,6.113c-5.544.09-5-3.536-5-3.536s20.379-6.983,14.8-20.739c-2.487-3.536-5.394-4.645-9.5-4.585-4.106.09-9.081,2.578-12.377,9.98a31,31,0,0,0-2.338,9.44s-3.686.72-5.634-.869-3,0-3,0-3.357,4.2-.03,5.485a40.592,40.592,0,0,0,8.42,1.828,15.115,15.115,0,0,0,5.874,8.9c6.054,4.585,17.622-.389,17.622-.389l4.765-2.637s.15,4.375,3.626,5.005,4.915.3,10.939-14.356c3.536-7.492,3.776-7.072,3.776-7.072l.389-.09s-2.727,14.026-1.678,17.892c1.049,3.835,5.635,3.415,5.635,3.415s2.487.72,4.5-6.353a106.14,106.14,0,0,1,5.874-14.955h.48s-1.679,14.415.9,19.091,9.26,1.589,9.26,1.589a46.572,46.572,0,0,0,5.394-3.058,18.922,18.922,0,0,0,13.367,3.866c17.472-3.446,23.706-7.762,23.706-7.762a14.362,14.362,0,0,0,12.317,8c10.639.809,16.423-5.574,16.423-5.574a6.116,6.116,0,0,0,3.626,5.574c3.717,1.529,6.2-6.833,6.2-6.833l6.2-17.142h.569s.329,11.179,6.444,12.947,14.085-4.106,14.085-4.106,1.919-1.048,1.589-4.285Zm-173.22,1.588c.24-9.59,6.533-13.755,8.691-11.687,2.187,2.1,1.379,6.594-2.728,9.411C46.409,224.1,44.551,223.527,44.551,223.527Zm81.755-37.1s5.725-14.895,7.073-7.643-11.988,28.83-11.988,28.83C121.541,202.759,126.306,186.426,126.306,186.426Zm6.833,41.476c-3.776,9.89-12.977,5.875-12.977,5.875s-1.049-3.537,1.918-13.456,9.98-6.054,9.98-6.054S136.915,217.983,133.139,227.9Zm25.354-4.376s-.9-3.146,2.427-9.169c3.3-6.054,5.874-2.727,5.874-2.727s2.817,3.056-.39,7.642A9.478,9.478,0,0,1,158.492,223.527Z" transform="translate(-25.997 -168.949)" fill="#707070"/>
    </g>
  </g>
</svg>
