<svg xmlns="http://www.w3.org/2000/svg" width="104.061" height="59.672" viewBox="0 0 104.061 59.672">
  <g id="comp_x5F_162-hips" transform="translate(0)">
    <g id="Group_632" data-name="Group 632" transform="translate(0)">
      <path id="Path_544" data-name="Path 544" d="M66.91,137.948a.4.4,0,0,0-.455-.455H59.8a.451.451,0,0,0-.439.455V170.76a.451.451,0,0,0,.439.455h6.65a.4.4,0,0,0,.455-.455Zm-15.463,1.691a16.309,16.309,0,0,0-9.8-2.927,17.4,17.4,0,0,0-8.1,1.853v-13.2c0-.293-.146-.439-.455-.439H26.44a.388.388,0,0,0-.439.439v45.4c0,.309.146.455.439.455h6.666a.4.4,0,0,0,.455-.455V148.63c0-.13-.455-4.39,7.447-4.39,7.886,0,7.447,4.244,7.447,4.39v19.934a2.654,2.654,0,0,0,2.666,2.65h4.439c.293,0,.439-.146.439-.455V148.63A10.488,10.488,0,0,0,51.447,139.639Zm77.785,17.9A10.374,10.374,0,0,0,123.557,152l-9.365-4.114c-1.4-.585-1.5-1.821-.423-2.617,1.2-.895,7.2-2.26,13.658,1.106a.442.442,0,0,0,.651-.39v-7.268a.416.416,0,0,0-.309-.423,25.464,25.464,0,0,0-8.959-1.61c-4.309,0-7.366.943-9.512,2.5-.081.065-4.618,3.252-3.691,8.731.553,3.187,2.569,5.561,6.049,7.089l8.715,3.821c1.886.83,2.471,2.163,1.984,3.447-.6,1.48-2.146,2.211-5.935,2.211a16.041,16.041,0,0,1-9.5-3.106.452.452,0,0,0-.715.374v5.594a3.271,3.271,0,0,0,2.374,3.366,23.349,23.349,0,0,0,7.837,1.333,21.756,21.756,0,0,0,5.9-.7,10.75,10.75,0,0,0,7.414-7.446,9.5,9.5,0,0,0-.5-6.357ZM87.169,136.68c-5.154,0-16.942,3.268-16.942,16.829v29.836a.439.439,0,0,0,.439.439h6.65c.309,0,.455-.146.455-.439V168.906a14.971,14.971,0,0,0,9.381,3.106,17.666,17.666,0,0,0,.017-35.332Zm0,27.787a10.1,10.1,0,0,1-10.113-10.113,10.113,10.113,0,1,1,10.113,10.113ZM63.121,124.111a4.7,4.7,0,1,0,4.7,4.7,4.712,4.712,0,0,0-4.7-4.7Z" transform="translate(-26.001 -124.111)" fill="#707070"/>
    </g>
  </g>
</svg>
