<svg xmlns="http://www.w3.org/2000/svg" width="137.425" height="58.822" viewBox="0 0 137.425 58.822">
  <g id="_x31_98-less" transform="translate(0)">
    <g id="Group_634" data-name="Group 634" transform="translate(0 0)">
      <path id="Path_552" data-name="Path 552" d="M157.563,179.007c0-4.4.687-7,.687-11.726,0-7.345-2.706-9.707-8.7-9.707h-4.4v5.2H146.5c3.05,0,3.715,1.009,3.715,4.746,0,3.5-.344,7-.344,11.06,0,5.2,1.7,7.216,5.069,8.011v.343c-3.393.794-5.069,2.813-5.069,8.011,0,4.059.344,7.344.344,11.06,0,3.845-.795,4.854-3.715,4.854v.107H145.15v5.412h4.4c5.97,0,8.7-2.362,8.7-9.707,0-4.853-.687-7.344-.687-11.726,0-2.362,1.46-4.854,5.863-5.069v-5.863c-4.4-.15-5.863-2.641-5.863-5Zm-22.679,6.872c-3.393-1.353-6.55-2.148-6.55-4.4,0-1.7,1.353-2.706,3.844-2.706s4.747,1.009,7.216,2.813l4.51-5.97a19.144,19.144,0,0,0-11.855-4.4c-7.667,0-12.864,4.4-12.864,10.609,0,5.519,4.854,8.354,8.913,9.922,3.5,1.352,6.893,2.491,6.893,4.746,0,1.7-1.353,2.813-4.4,2.813-2.813,0-5.648-1.139-8.7-3.5l-4.509,6.55a21.781,21.781,0,0,0,12.864,4.747c9.02,0,13.873-4.747,13.873-10.953s-4.832-8.806-9.235-10.266ZM57.807,198.636c-.795,0-1.8-.687-1.8-2.813v-38.27H39.982c-6.1,0-8.805,2.362-8.805,9.707,0,4.854.687,7.56.687,11.726,0,2.363-1.46,4.854-5.863,5.068v5.863c4.4.107,5.863,2.6,5.863,4.96,0,4.167-.687,6.657-.687,11.511,0,7.345,2.706,9.707,8.7,9.707h4.4v-5.2H42.924c-2.813,0-3.716-1.139-3.716-4.854s.344-6.893.344-11.06c0-5.2-1.7-7.215-5.068-8.01v-.344c3.393-.794,5.068-2.813,5.068-8.01,0-4.059-.344-7.345-.344-11.06s.795-4.746,3.716-4.746h3.028V195.2c0,6.893,2.362,11.4,9.256,11.4a14.807,14.807,0,0,0,5.068-.794l-1.139-7.345a4.5,4.5,0,0,1-1.331.172Zm49.76-12.757c-3.5-1.353-6.657-2.148-6.657-4.4,0-1.7,1.353-2.706,3.844-2.706s4.746,1.009,7.216,2.813l4.51-5.97a19.142,19.142,0,0,0-11.854-4.4c-7.667,0-12.864,4.4-12.864,10.609,0,5.519,4.854,8.354,8.913,9.922,3.5,1.352,6.893,2.491,6.893,4.746,0,1.7-1.353,2.813-4.4,2.813-2.813,0-5.648-1.139-8.7-3.5l-4.4,6.55a21.783,21.783,0,0,0,12.865,4.747c9.02,0,13.873-4.747,13.873-10.953.022-6.207-4.832-8.806-9.235-10.266ZM74.28,171.1c-8.247,0-16.129,6.894-15.914,17.718,0,11.168,7.345,17.718,17.031,17.718A22.375,22.375,0,0,0,87.465,202.7l-3.393-5.971a14.167,14.167,0,0,1-7.345,2.147c-4.51,0-8.01-2.147-8.913-7.344H88.26a29.76,29.76,0,0,0,.343-4.166c.129-9.15-4.853-16.258-14.324-16.258Zm-6.443,14.217c.687-4.51,3.393-6.657,6.55-6.657,4.059,0,5.648,2.813,5.648,6.657Z" transform="translate(-26.001 -157.553)" fill="#707070"/>
    </g>
  </g>
</svg>
