<svg width="544" height="500" viewBox="0 0 544 500" fill="none" xmlns="http://www.w3.org/2000/svg">
<g id="cloud-expert-img 1">
<g id="Group">
<path id="Vector" fill-rule="evenodd" clip-rule="evenodd" d="M366.337 391.503C365.229 391.503 364.177 390.832 363.787 389.743C363.29 388.353 363.967 386.843 365.355 386.345C366.854 385.81 368.376 386.538 368.871 387.927C369.369 389.317 368.643 390.847 367.254 391.344C366.951 391.451 366.642 391.504 366.337 391.504" fill="black"/>
<g id="cloud-expert-img-route">
<mask id="mask0" mask-type="alpha" maskUnits="userSpaceOnUse" x="76" y="0" width="420" height="387">
<g id="prefix  b">
<path id="Vector_2" d="M76.054 0.401001H495.042V386.379H76.054V0.401001Z" fill="white"/>
</g>
</mask>
<g mask="url(#mask0)">
<path id="Vector_3" fill-rule="evenodd" clip-rule="evenodd" d="M272.824 5.748L272.548 5.745C271.073 5.722 269.896 4.508 269.919 3.032C269.943 1.556 271.089 0.453001 272.633 0.401001C274.099 0.425001 275.391 1.627 275.379 3.095C275.369 4.563 274.292 5.748 272.824 5.748ZM257.955 6.181C256.555 6.181 255.377 5.087 255.291 3.67C255.2 2.196 256.323 0.929001 257.796 0.840001C259.28 0.792001 260.651 1.865 260.741 3.336C260.831 4.809 259.827 6.069 258.355 6.16C258.353 6.162 258.122 6.176 258.119 6.176C258.065 6.179 258.01 6.181 257.955 6.181V6.181ZM287.02 6.308C285.547 6.198 284.446 4.914 284.557 3.441C284.669 1.972 285.93 0.843001 287.424 0.979001L287.452 3.661L287.02 6.308ZM243.381 7.605C242.065 7.605 240.919 6.634 240.736 5.295C240.536 3.831 241.559 2.484 243.022 2.285L243.284 2.252C244.749 2.059 246.084 3.108 246.267 4.572C246.45 6.037 245.411 7.372 243.945 7.554L243.615 4.903L243.745 7.581C243.622 7.597 243.5 7.605 243.381 7.605V7.605ZM302.001 7.941C301.881 7.941 301.758 7.933 301.634 7.915L301.374 7.877C299.914 7.657 298.91 6.294 299.131 4.834C299.353 3.376 300.708 2.353 302.174 2.594C303.627 2.814 304.746 4.184 304.534 5.638C304.339 6.968 303.292 7.941 302 7.941H302.001ZM228.938 10.013C227.678 10.013 226.555 9.117 226.314 7.833C226.044 6.381 226.997 4.985 228.448 4.714C229.878 4.44 231.396 5.364 231.679 6.805C231.96 8.247 231.139 9.622 229.702 9.915C229.688 9.917 229.448 9.965 229.434 9.966C229.267 9.999 229.101 10.013 228.938 10.013V10.013ZM316.391 10.586C316.21 10.586 316.021 10.567 315.834 10.526L315.591 10.472C314.15 10.147 313.248 8.716 313.571 7.276C313.898 5.836 315.331 4.943 316.767 5.258C318.204 5.582 319.219 7.032 318.901 8.47C318.622 9.718 317.599 10.586 316.391 10.586ZM214.688 13.397C213.506 13.397 212.426 12.607 212.107 11.411C211.729 9.985 212.578 8.521 214.006 8.142C215.406 7.764 216.998 8.576 217.384 9.998C217.767 11.419 217.041 12.853 215.621 13.242C215.613 13.242 215.383 13.306 215.376 13.307C215.147 13.369 214.916 13.397 214.688 13.397V13.397ZM330.57 14.288C330.31 14.288 330.049 14.25 329.787 14.171L330.57 11.615L329.604 14.115C328.186 13.705 327.37 12.221 327.782 10.805C328.195 9.386 329.69 8.58 331.093 8.982C331.107 8.985 331.34 9.057 331.353 9.06C332.763 9.492 333.558 10.988 333.125 12.398C332.772 13.548 331.714 14.288 330.57 14.288V14.288ZM201.645 17.583L199.827 12.556C199.833 12.554 200.062 12.474 200.072 12.472C201.468 11.996 202.986 12.749 203.46 14.145C203.933 15.545 203.183 17.061 201.784 17.535L200.928 15.003L201.645 17.583V17.583ZM344.411 19.062C344.081 19.062 343.744 19.002 343.419 18.87L344.411 16.389L343.264 18.811C341.882 18.297 341.174 16.759 341.689 15.375C342.201 13.99 343.74 13.281 345.124 13.8C345.146 13.806 345.381 13.9 345.403 13.908C346.773 14.456 347.439 16.011 346.893 17.381C346.473 18.427 345.469 19.061 344.411 19.061V19.062ZM187.063 23.075C186.016 23.075 185.024 22.456 184.596 21.43C184.028 20.068 184.672 18.502 186.036 17.935C187.392 17.369 189.054 17.959 189.63 19.312C190.204 20.662 189.687 22.179 188.34 22.764L188.091 22.869C187.756 23.009 187.406 23.075 187.063 23.075V23.075ZM357.769 24.907C357.403 24.907 357.029 24.825 356.667 24.65L356.456 24.55C355.128 23.907 354.571 22.308 355.214 20.98C355.854 19.65 357.45 19.095 358.782 19.736C360.109 20.379 360.772 22.027 360.131 23.356C359.663 24.322 358.746 24.907 357.769 24.907V24.907ZM173.839 29.365C172.87 29.365 171.938 28.838 171.462 27.92C170.784 26.609 171.297 24.996 172.609 24.318C173.915 23.644 175.635 24.097 176.312 25.411C176.99 26.722 176.582 28.281 175.271 28.96L175.063 29.067C174.671 29.269 174.253 29.365 173.839 29.365V29.365ZM370.639 31.839C370.209 31.839 369.771 31.726 369.361 31.485L369.131 31.348C367.87 30.582 367.468 28.938 368.234 27.676C369 26.413 370.649 26.016 371.904 26.778C373.161 27.54 373.665 29.233 372.911 30.494C372.402 31.347 371.536 31.839 370.639 31.839ZM161.12 36.614C160.245 36.614 159.386 36.184 158.875 35.394C158.073 34.157 158.425 32.502 159.665 31.699C159.685 31.685 159.907 31.548 159.928 31.534C161.187 30.766 162.833 31.169 163.599 32.432C164.365 33.694 163.963 35.338 162.702 36.104L161.315 33.819L162.571 36.183C162.121 36.475 161.617 36.614 161.121 36.614H161.12ZM382.88 39.84C382.384 39.84 381.885 39.691 381.435 39.375L381.207 39.212C380.015 38.342 379.756 36.669 380.627 35.477C381.497 34.284 383.167 34.027 384.361 34.897C385.546 35.761 385.905 37.487 385.051 38.679C384.516 39.425 383.705 39.839 382.879 39.839L382.88 39.84ZM150.707 44.196L148.987 42.141L147.447 39.956C148.651 39.113 150.399 39.324 151.251 40.516C152.108 41.707 151.936 43.298 150.751 44.163L149.174 42.005L150.707 44.195V44.196ZM393.777 49.503C393.072 49.503 392.382 49.213 391.873 48.619L393.903 46.879L391.818 48.554L393.751 46.704L395.78 44.966C396.74 46.086 396.686 47.861 395.566 48.821C395.037 49.273 394.402 49.503 393.776 49.503H393.777ZM137.551 53.946C136.809 53.946 136.069 53.637 135.541 53.034C134.568 51.923 134.681 50.234 135.791 49.262L135.984 49.095C137.101 48.135 138.788 48.255 139.754 49.379C140.715 50.498 140.589 52.185 139.469 53.147L137.728 51.121L139.312 53.285C138.805 53.729 138.177 53.946 137.552 53.946H137.551ZM401.949 61.572C401.029 61.572 400.163 61.097 399.701 60.208C399.689 60.187 399.575 59.957 399.563 59.935C398.923 58.605 399.48 57.008 400.81 56.367C402.133 55.722 403.736 56.281 404.379 57.611C405.014 58.928 404.526 60.613 403.217 61.268C402.806 61.472 402.373 61.572 401.949 61.572V61.572ZM126.909 63.98C126.255 63.98 125.598 63.74 125.082 63.258C124.004 62.249 123.949 60.558 124.958 59.48C124.977 59.458 125.16 59.273 125.182 59.252C126.223 58.21 127.917 58.21 128.959 59.252C130.004 60.296 130.004 61.987 128.959 63.032L127.07 61.142L128.86 63.132C128.334 63.696 127.622 63.98 126.909 63.98V63.98ZM336.865 73.1C336.822 73.1 336.782 73.1 336.742 73.097L336.504 73.087C335.032 73.017 333.892 71.767 333.961 70.292C334.03 68.816 335.26 67.669 336.756 67.748C338.229 67.818 339.485 69.072 339.416 70.546C339.349 71.978 338.279 73.101 336.866 73.101L336.865 73.1ZM321.999 73.392C320.631 73.392 319.465 72.349 319.339 70.961C319.206 69.492 320.289 68.191 321.759 68.057C323.222 67.938 324.642 68.995 324.778 70.462C324.914 71.932 323.95 73.222 322.482 73.359L322.244 73.381C322.161 73.389 322.08 73.392 321.999 73.392V73.392ZM351.437 74.57C351.301 74.57 351.161 74.56 351.023 74.538L351.435 71.897L350.842 74.51C349.379 74.312 348.356 72.964 348.556 71.5C348.756 70.042 350.083 69.027 351.566 69.214L351.846 69.256C353.304 69.485 354.303 70.851 354.075 72.31C353.868 73.628 352.731 74.57 351.437 74.57V74.57ZM117.147 74.873C116.572 74.873 115.989 74.687 115.501 74.303C114.341 73.393 114.136 71.713 115.047 70.551L115.252 70.301C116.199 69.171 117.88 69.022 119.017 69.975C120.147 70.925 120.293 72.609 119.344 73.74L117.298 72.02L119.253 73.85C118.725 74.522 117.94 74.873 117.148 74.873H117.147ZM407.053 75.256C405.89 75.256 404.853 74.536 404.551 73.346L404.491 73.11C404.134 71.678 405.005 70.227 406.437 69.869C407.865 69.514 409.318 70.383 409.677 71.814C410.034 73.244 409.195 74.806 407.765 75.167C407.527 75.227 407.286 75.256 407.053 75.256V75.256ZM308.523 75.923L307.626 73.402L306.902 70.829C308.308 70.436 309.902 71.219 310.306 72.635C310.711 74.05 310.006 75.493 308.593 75.903L307.849 73.336L308.522 75.923H308.523ZM365.783 77.427C365.59 77.427 365.39 77.405 365.19 77.357C365.17 77.353 364.923 77.294 364.904 77.287C363.477 76.919 362.616 75.462 362.984 74.034C363.354 72.603 364.809 71.735 366.241 72.114C367.66 72.479 368.63 73.945 368.281 75.367C367.981 76.589 366.967 77.427 365.783 77.427V77.427ZM379.847 81.473C379.587 81.473 379.324 81.433 379.057 81.346L378.8 81.262C377.401 80.789 376.652 79.272 377.126 77.873C377.599 76.476 379.116 75.723 380.513 76.2C381.905 76.67 382.766 78.212 382.304 79.606C381.931 80.736 380.948 81.473 379.847 81.473V81.473ZM294.1 81.637C293.106 81.637 292.152 81.081 291.693 80.127C291.051 78.798 291.607 77.2 292.935 76.557L294.308 78.863L295.262 81.37C294.886 81.551 294.491 81.637 294.1 81.637V81.637ZM108.365 86.575C107.825 86.575 107.283 86.413 106.81 86.075C105.611 85.215 105.337 83.545 106.196 82.345C107.047 81.162 108.754 80.78 109.952 81.609C111.154 82.439 111.532 83.98 110.724 85.193L110.54 85.46C110.02 86.188 109.198 86.575 108.365 86.575V86.575ZM393.551 86.598C393.228 86.598 392.897 86.534 392.571 86.398L392.357 86.309C390.994 85.742 390.349 84.176 390.918 82.814C391.487 81.45 393.049 80.806 394.413 81.375C395.776 81.942 396.528 83.552 395.959 84.915C395.526 85.951 394.579 86.598 393.551 86.598V86.598ZM281.251 88.644C280.375 88.644 279.516 88.214 279.005 87.424C278.203 86.187 278.555 84.532 279.795 83.729C279.815 83.715 280.037 83.578 280.058 83.564C281.315 82.798 282.964 83.2 283.73 84.462C284.496 85.724 284.093 87.368 282.833 88.134L281.446 85.849L282.702 88.214C282.252 88.504 281.748 88.644 281.251 88.644ZM406.891 92.749C406.477 92.749 406.058 92.653 405.665 92.45L406.893 90.076L405.492 92.361C404.172 91.701 403.636 90.095 404.295 88.775C404.755 87.857 405.672 87.318 406.631 87.298C406.629 87.24 406.619 87.082 406.619 87.082C406.529 85.609 407.652 84.342 409.125 84.252C410.583 84.182 411.865 85.286 411.953 86.759C412.042 88.204 410.97 89.563 409.538 89.698C409.615 90.23 409.534 90.79 409.268 91.304C408.792 92.222 407.859 92.749 406.891 92.749V92.749ZM269.321 97.119C268.541 97.119 267.769 96.778 267.241 96.125C266.313 94.975 266.491 93.294 267.641 92.365C268.781 91.445 270.552 91.54 271.482 92.685C272.412 93.827 272.334 95.431 271.194 96.364C271.19 96.369 271.004 96.52 271 96.524C270.504 96.924 269.912 97.118 269.322 97.118L269.321 97.119ZM100.649 99.003C100.199 99.003 99.743 98.891 99.327 98.652C98.044 97.919 97.599 96.287 98.332 95.004C99.058 93.727 100.742 93.176 102.027 93.904C103.307 94.63 103.817 96.154 103.097 97.437C103.092 97.443 102.976 97.651 102.971 97.657C102.479 98.519 101.577 99.003 100.649 99.003V99.003ZM419.602 99.872C419.162 99.872 418.713 99.753 418.297 99.5L418.097 99.378C416.836 98.612 416.434 96.968 417.2 95.706C417.966 94.443 419.612 94.046 420.87 94.809C422.132 95.574 422.633 97.279 421.868 98.541C421.356 99.386 420.495 99.872 419.602 99.872ZM408.976 104.341C408.899 104.341 408.823 104.337 408.747 104.331C407.277 104.195 406.185 103.009 406.32 101.539L406.342 101.308C406.48 99.838 407.762 98.743 409.249 98.892C410.719 99.027 411.802 100.328 411.666 101.799C411.538 103.192 410.35 104.341 408.976 104.341V104.341ZM258.824 107.296C258.196 107.296 257.566 107.076 257.059 106.63C255.951 105.654 255.844 103.965 256.819 102.858C257.789 101.751 259.548 101.555 260.654 102.518C261.763 103.481 261.963 105.07 261.006 106.186C260.999 106.196 260.84 106.38 260.83 106.388C260.302 106.989 259.564 107.296 258.824 107.296V107.296ZM431.864 108.021C431.317 108.021 430.764 107.854 430.289 107.506L431.866 105.348L430.113 107.378C428.917 106.514 428.648 104.843 429.511 103.648C430.377 102.451 432.047 102.181 433.244 103.045C433.246 103.048 433.439 103.188 433.444 103.191C434.636 104.061 434.894 105.734 434.024 106.926C433.501 107.642 432.687 108.021 431.864 108.021ZM94.062 112.066C93.683 112.066 93.3 111.985 92.934 111.814C91.597 111.19 91.019 109.6 91.642 108.263C92.261 106.936 93.874 106.245 95.216 106.853C96.55 107.459 97.196 108.918 96.605 110.259C96.598 110.277 96.493 110.505 96.485 110.523C96.032 111.495 95.068 112.066 94.062 112.066V112.066ZM443.197 117.124C442.607 117.124 442.015 116.915 441.525 116.475L443.309 114.485L441.461 116.417L443.136 114.331L444.92 112.341C446.019 113.325 446.197 115.091 445.213 116.191C444.668 116.801 443.933 117.124 443.197 117.124V117.124ZM406.573 118.782C406.385 118.782 406.195 118.76 406.004 118.716C404.582 118.38 403.666 117.076 403.982 115.648L404.052 115.354C404.41 113.921 405.866 113.059 407.292 113.408C408.723 113.767 409.594 115.218 409.237 116.65C408.93 117.88 407.796 118.782 406.573 118.782V118.782ZM250.555 119.34C250.113 119.34 249.663 119.23 249.249 118.998C247.962 118.276 247.505 116.646 248.226 115.359C248.939 114.087 250.602 113.521 251.88 114.213C253.165 114.905 253.71 116.394 253.041 117.69L252.889 117.976C252.397 118.849 251.49 119.34 250.555 119.34V119.34ZM88.655 125.655C88.383 125.655 88.107 125.613 87.833 125.525C86.43 125.072 85.657 123.565 86.111 122.161L86.215 121.856C86.718 120.466 88.252 119.757 89.637 120.248C91.027 120.749 91.745 122.281 91.245 123.669L88.73 122.763L91.197 123.803C90.834 124.933 89.785 125.655 88.654 125.655H88.655ZM453.855 127.311C453.142 127.311 452.43 127.027 451.905 126.466L453.855 124.639L451.767 126.319C450.747 125.253 450.782 123.561 451.847 122.541C452.911 121.523 454.603 121.554 455.625 122.62L455.806 122.812C456.816 123.889 456.76 125.58 455.683 126.589C455.166 127.072 454.509 127.311 453.856 127.311H453.855ZM402.441 132.941C402.138 132.941 401.834 132.891 401.534 132.783C400.144 132.283 399.426 130.75 399.926 129.363L402.441 130.269L399.999 129.156C400.495 127.765 402.017 127.035 403.414 127.531C404.803 128.025 405.531 129.553 405.038 130.943C405.036 130.947 404.955 131.171 404.955 131.175C404.562 132.265 403.535 132.941 402.441 132.941V132.941ZM245.651 133.076C245.464 133.076 245.271 133.056 245.078 133.014C243.638 132.699 242.723 131.274 243.04 129.832C243.352 128.404 244.786 127.378 246.204 127.669C247.636 127.959 248.59 129.231 248.321 130.667C248.316 130.693 248.267 130.947 248.259 130.974C247.989 132.224 246.879 133.076 245.652 133.076H245.651ZM463.171 138.428C462.42 138.428 461.69 138.1 461.185 137.443C461.171 137.425 461.016 137.223 461.005 137.204C460.134 136.013 460.393 134.34 461.585 133.469C462.777 132.601 464.449 132.858 465.32 134.05C466.183 135.232 466.007 136.981 464.835 137.859C464.33 138.239 463.745 138.429 463.172 138.429L463.171 138.428ZM84.439 139.661C84.219 139.661 83.999 139.635 83.777 139.579C82.347 139.214 81.482 137.761 81.846 136.33C82.207 134.899 83.689 133.914 85.124 134.285C86.554 134.648 87.448 135.99 87.084 137.421L87.027 137.646C86.72 138.856 85.633 139.661 84.439 139.661V139.661ZM396.717 146.303C396.338 146.303 395.957 146.221 395.603 146.045C394.294 145.398 393.697 143.927 394.323 142.609C394.338 142.582 394.452 142.345 394.466 142.318C395.144 141.008 396.759 140.496 398.068 141.171C399.378 141.849 399.893 143.462 399.214 144.773C398.727 145.716 397.728 146.303 396.717 146.303ZM245.128 147.639C243.796 147.639 242.645 146.647 242.478 145.292C242.298 143.829 243.323 142.38 244.788 142.199C246.244 142.002 247.572 142.941 247.755 144.405L247.784 144.64C247.964 146.104 246.923 147.438 245.457 147.619C245.347 147.631 245.236 147.639 245.128 147.639V147.639ZM471.434 150.649C470.506 150.649 469.604 150.165 469.112 149.303L471.432 147.976L469.019 149.145C468.263 147.877 468.679 146.236 469.947 145.48C471.211 144.725 472.854 145.14 473.611 146.407L473.751 146.65C474.484 147.933 474.039 149.564 472.757 150.297C472.34 150.537 471.884 150.649 471.434 150.649V150.649ZM84.048 151.638L81.396 151.298L78.766 150.812L81.436 151.068L84.048 151.638ZM389.586 159.093C389.114 159.093 388.642 158.969 388.223 158.703C386.989 157.917 386.553 156.383 387.322 155.141C387.336 155.121 387.472 154.905 387.483 154.886C388.295 153.652 389.946 153.306 391.183 154.113C392.418 154.923 392.765 156.578 391.956 157.813C391.426 158.621 390.505 159.093 389.586 159.093ZM249.126 161.668C248.119 161.668 247.156 161.097 246.701 160.125L246.575 159.845C245.99 158.49 246.611 156.917 247.965 156.329C249.325 155.74 250.89 156.366 251.481 157.719L249.028 158.782L251.545 157.865C252.168 159.202 251.59 160.792 250.253 161.417C249.886 161.587 249.503 161.667 249.125 161.667L249.126 161.668ZM477.876 163.632C476.884 163.632 475.966 163.092 475.54 162.11L475.421 161.826C474.874 160.456 475.541 158.901 476.911 158.353C478.281 157.801 479.834 158.469 480.384 159.842C480.926 161.198 480.324 162.846 478.975 163.408C478.614 163.559 478.24 163.632 477.876 163.632ZM79.511 168.416C79.432 168.416 79.354 168.412 79.273 168.406C77.803 168.269 76.715 167.026 76.851 165.556C76.987 164.085 78.314 162.896 79.77 163.024C81.24 163.16 82.332 164.345 82.196 165.814C82.056 167.32 80.881 168.416 79.511 168.416ZM381.109 171.006C380.531 171.006 379.956 170.827 379.484 170.444C378.352 169.526 378.095 167.958 378.994 166.81C379.014 166.788 379.178 166.583 379.196 166.56C380.143 165.43 381.827 165.28 382.962 166.233C384.092 167.183 384.238 168.868 383.289 169.998C382.741 170.651 381.92 171.007 381.109 171.007V171.006ZM254.594 173.101C253.692 171.931 253.839 170.161 255.01 169.261C256.185 168.359 257.789 168.49 258.686 169.658L256.568 171.288L258.75 169.74L256.71 171.472L254.594 173.102V173.101ZM482.676 177.441C481.544 177.441 480.528 176.757 480.2 175.605C480.192 175.58 480.123 175.33 480.117 175.305C479.752 173.873 480.618 172.42 482.047 172.055C483.476 171.697 484.934 172.557 485.297 173.989C485.657 175.404 484.843 176.959 483.435 177.339C483.18 177.407 482.926 177.441 482.676 177.441V177.441ZM371.293 181.843C370.601 181.843 369.916 181.591 369.411 181.07C368.389 180.014 368.329 178.41 369.378 177.381C369.385 177.375 369.559 177.206 369.566 177.201C370.627 176.182 372.321 176.215 373.344 177.281C374.364 178.346 374.329 180.039 373.264 181.059C372.726 181.575 372.004 181.843 371.294 181.843H371.293ZM78.726 183.082C77.251 183.082 76.054 181.885 76.054 180.41L76.059 180.097C76.104 178.621 77.331 177.537 78.814 177.507C80.289 177.552 81.447 178.786 81.402 180.261L78.73 180.179L81.397 180.409C81.397 181.885 80.201 183.082 78.726 183.082V183.082ZM266.75 184.776C266.123 184.776 265.492 184.556 264.985 184.11L264.793 183.938C263.693 182.955 263.601 181.265 264.585 180.166C265.571 179.069 267.262 178.972 268.361 179.959L266.577 181.949L268.516 180.097C269.624 181.072 269.732 182.761 268.756 183.869C268.228 184.469 267.49 184.776 266.75 184.776V184.776ZM360.145 191.279C359.315 191.279 358.497 190.921 357.988 190.22C357.122 189.029 357.288 187.43 358.478 186.56L358.678 186.415C359.877 185.547 361.544 185.818 362.41 187.017C363.274 188.213 363.005 189.884 361.808 190.747C361.316 191.103 360.728 191.279 360.145 191.279V191.279ZM486.028 191.694C484.825 191.694 483.763 190.932 483.495 189.7C483.488 189.677 483.435 189.426 483.43 189.402C483.155 187.952 484.106 186.553 485.557 186.277C487.023 186 488.407 186.955 488.683 188.403C488.956 189.839 488.048 191.341 486.616 191.635C486.418 191.675 486.221 191.695 486.028 191.695V191.694ZM278.365 193.673C277.855 193.673 277.339 193.527 276.885 193.223C275.658 192.405 275.229 190.681 276.047 189.453C276.869 188.224 278.434 187.83 279.657 188.648L279.849 188.776C281.077 189.596 281.409 191.254 280.591 192.482C280.075 193.255 279.228 193.672 278.365 193.672V193.673ZM78.975 197.723C77.539 197.723 76.351 196.58 76.306 195.132C76.261 193.672 77.391 192.332 78.849 192.264C80.272 192.176 81.545 193.198 81.633 194.654C81.635 194.681 81.649 194.94 81.649 194.968C81.695 196.442 80.536 197.677 79.061 197.722H78.976L78.975 197.723ZM347.698 198.879C346.688 198.879 345.702 198.349 345.248 197.409C344.611 196.093 345.046 194.561 346.354 193.907L346.628 193.774C347.968 193.149 349.554 193.727 350.18 195.065C350.803 196.402 350.225 197.992 348.888 198.617C348.51 198.793 348.103 198.879 347.698 198.879V198.879ZM291.178 200.724C290.812 200.724 290.44 200.649 290.084 200.488C288.744 199.885 288.036 198.268 288.628 196.925C289.223 195.58 290.678 194.917 292.03 195.504C292.04 195.51 292.266 195.609 292.277 195.614C293.624 196.219 294.223 197.801 293.617 199.148C293.171 200.138 292.199 200.724 291.178 200.724V200.724ZM334.081 204.078C332.875 204.078 331.721 203.305 331.407 202.111C331.036 200.694 331.762 199.272 333.174 198.885L333.458 198.81C334.888 198.458 336.338 199.322 336.698 200.755C337.055 202.187 336.184 203.638 334.752 203.996C334.531 204.051 334.305 204.078 334.081 204.078ZM305.119 205.118C304.943 205.118 304.764 205.1 304.583 205.064C303.137 204.771 302.091 203.336 302.383 201.889C302.678 200.445 303.943 199.481 305.421 199.779L305.649 199.826C307.096 200.12 308.029 201.53 307.736 202.976C307.479 204.244 306.363 205.118 305.119 205.118V205.118ZM488.835 206.188C487.541 206.188 486.405 205.245 486.197 203.928L488.837 203.514L486.171 203.77C485.905 202.319 486.863 200.925 488.314 200.657C489.773 200.377 491.16 201.349 491.429 202.8C491.433 202.823 491.474 203.078 491.479 203.101C491.707 204.56 490.708 205.927 489.249 206.155C489.111 206.177 488.971 206.187 488.835 206.187V206.188ZM319.445 206.288C318.009 206.288 316.821 205.143 316.776 203.695C316.731 202.22 317.892 200.988 319.367 200.943L319.447 203.614L319.555 200.937C321.025 200.843 322.282 202.005 322.35 203.481C322.42 204.955 321.28 206.206 319.807 206.275L319.529 206.285L319.445 206.287V206.288ZM80.03 212.328C78.664 212.328 77.498 211.288 77.37 209.902C77.367 209.875 77.348 209.615 77.348 209.588C77.258 208.115 78.378 206.848 79.851 206.756C81.283 206.671 82.594 207.786 82.682 209.26L80.015 209.424L82.694 209.411C82.829 210.88 81.747 212.181 80.277 212.317C80.194 212.325 80.11 212.329 80.03 212.329V212.328ZM490.843 220.572C489.525 220.572 488.4 219.682 488.236 218.339L488.202 218.032C488.065 216.562 489.142 215.26 490.612 215.122C492.116 214.975 493.387 216.063 493.522 217.532C493.66 218.988 492.615 220.397 491.165 220.555C491.055 220.567 490.948 220.572 490.843 220.572ZM81.059 226.933C79.659 226.933 78.48 225.843 78.395 224.425C78.305 222.951 79.418 221.567 80.891 221.477C82.401 221.377 83.624 222.391 83.715 223.865L83.729 224.097C83.819 225.57 82.699 226.837 81.226 226.929C81.171 226.931 81.114 226.933 81.059 226.933V226.933ZM492.095 235.161C490.698 235.161 489.535 234.179 489.449 232.768C489.447 232.74 489.432 232.481 489.432 232.454C489.387 230.979 490.546 229.745 492.021 229.7C493.527 229.686 494.731 230.813 494.776 232.29C494.821 233.75 493.691 235.09 492.232 235.158C492.187 235.16 492.14 235.161 492.095 235.161ZM81.928 241.552C80.491 241.552 79.304 240.41 79.258 238.964C79.213 237.504 80.343 236.162 81.802 236.095C83.239 236.016 84.497 237.03 84.585 238.485L84.601 238.797C84.647 240.272 83.488 241.505 82.014 241.552H81.928V241.552ZM492.368 249.915C490.81 249.869 489.649 248.637 489.694 247.162L492.366 247.242L489.699 247.01C489.699 245.535 490.896 244.338 492.371 244.338C493.845 244.338 495.042 245.535 495.042 247.01L495.038 247.324C494.992 248.773 493.805 249.914 492.368 249.914V249.915ZM82.589 256.181C81.189 256.181 80.012 255.091 79.924 253.676C79.922 253.647 79.911 253.386 79.911 253.357C79.865 251.882 81.026 250.65 82.501 250.605C83.991 250.631 85.208 251.718 85.254 253.195L82.582 253.276L85.258 253.343C85.351 254.815 84.231 256.083 82.758 256.176C82.701 256.181 82.644 256.181 82.589 256.181V256.181ZM491.445 264.403C491.357 264.403 491.269 264.398 491.181 264.388C489.728 264.234 488.657 263.054 488.795 261.598C488.795 261.574 488.823 261.32 488.825 261.296C489.002 259.83 490.317 258.769 491.799 258.964C493.265 259.141 494.309 260.473 494.131 261.938C493.967 263.301 492.791 264.403 491.445 264.403V264.403ZM82.949 270.816C81.513 270.816 80.325 269.674 80.28 268.227L80.278 267.91C80.278 266.436 81.474 265.239 82.949 265.239C84.424 265.239 85.621 266.436 85.621 267.91H82.948L85.623 268.06C85.667 269.536 84.509 270.768 83.034 270.816H82.949V270.816ZM489.205 278.98C489.017 278.98 488.825 278.96 488.632 278.916C487.19 278.602 486.277 277.177 486.592 275.735L489.203 276.306L486.624 275.586C486.895 274.136 488.28 273.178 489.743 273.451C491.194 273.722 492.148 275.119 491.877 276.571C491.872 276.596 491.82 276.851 491.813 276.877C491.541 278.127 490.433 278.98 489.205 278.98ZM82.825 285.456C81.265 285.408 80.106 284.176 80.152 282.701C80.197 281.226 81.489 279.989 82.909 279.996C84.384 280.041 85.547 281.156 85.502 282.632L85.495 282.868C85.45 284.314 84.263 285.456 82.825 285.456V285.456ZM485.425 293C485.17 293 484.914 292.961 484.661 292.88C483.258 292.426 482.449 291.032 482.903 289.626L482.975 289.406C483.427 288.001 484.923 287.226 486.338 287.682C487.742 288.135 488.515 289.641 488.06 291.047C487.69 292.197 486.584 293 485.425 293V293ZM480.086 306.733C479.696 306.733 479.301 306.648 478.928 306.467C477.598 305.825 477.041 304.227 477.681 302.899L480.089 304.059L477.734 302.787C478.321 301.433 479.886 300.81 481.25 301.397C482.603 301.985 483.225 303.557 482.64 304.914C482.625 304.947 482.51 305.189 482.497 305.221C482.035 306.177 481.081 306.733 480.086 306.733V306.733ZM473.121 319.471C472.65 319.471 472.179 319.347 471.76 319.081C470.533 318.301 470.094 316.781 470.849 315.538C470.868 315.505 471.011 315.277 471.032 315.246C471.852 314.019 473.512 313.687 474.739 314.503C475.966 315.322 476.299 316.983 475.481 318.21C474.947 319.007 474.034 319.47 473.121 319.47V319.471ZM464.694 331.426C464.121 331.426 463.55 331.246 463.081 330.871C461.932 329.948 461.675 328.359 462.596 327.207C462.598 327.205 462.746 327.022 462.748 327.017C463.676 325.867 465.358 325.692 466.507 326.617C467.656 327.545 467.834 329.227 466.907 330.377C466.359 331.054 465.522 331.426 464.694 331.426V331.426ZM454.991 342.352C454.312 342.352 453.644 342.112 453.141 341.61C452.097 340.565 452.016 338.955 453.061 337.913L453.225 337.749C454.267 336.702 455.961 336.702 457.003 337.749C458.047 338.791 458.047 340.485 457.003 341.527C456.461 342.069 455.721 342.352 454.991 342.352ZM444.225 352.242C443.464 352.242 442.712 351.94 442.201 351.33C441.251 350.2 441.308 348.59 442.439 347.64L442.617 347.49C443.749 346.537 445.434 346.69 446.383 347.816C447.333 348.949 447.187 350.633 446.057 351.583C445.537 352.021 444.877 352.242 444.225 352.242V352.242ZM432.64 361.148C431.788 361.148 430.953 360.775 430.446 360.05C429.604 358.844 429.799 357.247 431.005 356.4C431.01 356.398 431.205 356.26 431.212 356.255C432.423 355.415 434.091 355.718 434.931 356.934C435.771 358.146 435.468 359.809 434.253 360.651C433.773 360.985 433.201 361.148 432.64 361.148ZM420.402 369.154C419.488 369.154 418.592 368.724 418.099 367.912C417.333 366.649 417.635 365.067 418.896 364.301L419.096 364.18C420.354 363.411 422.001 363.813 422.766 365.076C423.533 366.337 423.13 367.981 421.87 368.747C421.42 369.021 420.909 369.154 420.402 369.154ZM407.275 375.57C406.209 375.57 405.171 374.978 404.748 373.962C404.187 372.613 404.705 371.107 406.045 370.527L406.33 370.407C407.703 369.856 409.254 370.527 409.803 371.897C410.35 373.267 409.684 374.823 408.314 375.37C407.979 375.506 407.624 375.57 407.274 375.57H407.275ZM393.705 381.096C392.62 381.096 391.566 380.48 391.155 379.439C390.616 378.07 391.175 376.567 392.542 376.022C392.551 376.018 392.777 375.93 392.784 375.925C394.164 375.397 395.708 376.075 396.243 377.452C396.776 378.83 396.091 380.378 394.716 380.912C394.388 381.037 394.045 381.096 393.705 381.096V381.096ZM380.037 386.378C378.936 386.378 377.867 385.743 377.467 384.684C376.954 383.324 377.517 381.842 378.869 381.301C378.903 381.287 379.149 381.191 379.183 381.18C380.58 380.69 382.103 381.413 382.597 382.805C383.09 384.197 382.362 385.723 380.973 386.219C380.668 386.326 380.351 386.378 380.037 386.378Z" fill="black"/>
</g>
</g>
<path id="Vector_4" fill-rule="evenodd" clip-rule="evenodd" d="M287.245 6.32501L287.452 3.66101L287.245 6.32501ZM81.261 300.43C80.942 300.43 80.617 300.373 80.303 300.252C78.925 299.721 78.238 298.175 78.766 296.797C79.291 295.429 80.84 294.692 82.208 295.201C83.581 295.711 84.306 297.181 83.814 298.558L83.757 298.715C83.347 299.778 82.334 300.43 81.261 300.43ZM299.169 499.801H44.694C43.219 499.801 42.022 498.605 42.022 497.13C42.022 495.655 43.219 494.458 44.694 494.458H299.169C300.644 494.458 301.84 495.655 301.84 497.13C301.84 498.605 300.644 499.801 299.169 499.801ZM541.092 499.801H319.155C317.68 499.801 316.483 498.605 316.483 497.13C316.483 495.655 317.68 494.458 319.155 494.458H541.092C542.567 494.458 543.764 495.655 543.764 497.13C543.764 498.605 542.567 499.801 541.092 499.801Z" fill="black"/>
<path id="cloud-expert-img-dots" fill-rule="evenodd" clip-rule="evenodd" d="M92.336 89.886C101.704 89.886 109.3 97.479 109.3 106.848C109.3 116.216 101.704 123.813 92.336 123.813C82.967 123.813 75.371 116.216 75.371 106.848C75.371 97.479 82.967 89.886 92.336 89.886ZM357.033 7.617C363.837 7.617 369.352 13.129 369.352 19.933C369.352 26.737 363.837 32.249 357.033 32.249C350.232 32.249 344.717 26.737 344.717 19.933C344.717 13.129 350.232 7.617 357.033 7.617V7.617ZM492.29 255.816C499.091 255.816 504.605 261.331 504.605 268.133C504.605 274.933 499.091 280.451 492.289 280.451C485.488 280.451 479.971 274.934 479.971 268.133C479.971 261.331 485.488 255.816 492.289 255.816" fill="#FE5814"/>
<mask id="mask1" mask-type="alpha" maskUnits="userSpaceOnUse" x="0" y="0" width="544" height="500">
<g id="prefix  d">
<path id="Vector_5" d="M0 499.876H543.764V0.401001H0V499.876Z" fill="white"/>
</g>
</mask>
<g mask="url(#mask1)">
<path id="Vector_6" fill-rule="evenodd" clip-rule="evenodd" d="M210.91 496.881H321.91V382.881H210.91V496.881Z" stroke="black" stroke-width="5.99"/>
<path id="Vector_7" fill-rule="evenodd" clip-rule="evenodd" d="M95.981 497.881H210.78V383.082H95.981V497.881Z" stroke="black" stroke-width="5.99"/>
<path id="Vector_8" fill-rule="evenodd" clip-rule="evenodd" d="M210.306 271.893V296.572C210.732 296.467 211.212 296.51 211.703 296.776C212.929 297.438 214.026 298.261 215.036 299.218C215.096 299.274 215.142 299.334 215.191 299.393C215.391 299.564 215.541 299.765 215.647 299.983V277.233H319.764V380.485H215.647V353.495C214.483 354.383 212.985 354.89 211.494 354.81C211.06 354.786 210.644 354.643 210.306 354.4V385.826H325.105V271.893H210.305H210.306Z" fill="black"/>
<path id="Vector_9" fill-rule="evenodd" clip-rule="evenodd" d="M210.3 293.575C210.314 295.604 210.344 297.628 210.296 299.648C223.078 302.125 232.763 313.393 232.763 326.888C232.763 340.453 222.979 351.768 210.1 354.168C210.081 354.217 210.06 354.267 210.038 354.318C210.062 356.288 210.126 358.254 210.153 360.218C226.323 357.731 238.753 343.744 238.753 326.888C238.753 310.083 226.4 296.125 210.301 293.575" fill="black"/>
<path id="Vector_10" fill-rule="evenodd" clip-rule="evenodd" d="M285.447 382.315C285.447 393.877 276.073 403.25 264.511 403.25C252.947 403.25 243.574 393.877 243.574 382.315C243.574 370.753 252.947 361.38 264.511 361.38C276.073 361.38 285.447 370.753 285.447 382.315Z" fill="#FFFBF9"/>
<path id="Vector_11" fill-rule="evenodd" clip-rule="evenodd" d="M264.511 364.45C254.66 364.45 246.645 372.466 246.645 382.315C246.645 392.165 254.66 400.179 264.511 400.179C274.361 400.179 282.375 392.164 282.375 382.315C282.375 372.465 274.36 364.451 264.511 364.451V364.45ZM264.511 406.321C251.272 406.321 240.503 395.551 240.503 382.315C240.503 369.078 251.273 358.308 264.511 358.308C277.748 358.308 288.518 369.078 288.518 382.315C288.518 395.551 277.748 406.321 264.511 406.321Z" fill="black"/>
<path id="Vector_12" fill-rule="evenodd" clip-rule="evenodd" d="M225.544 408.866H303.863V386.232H225.544V408.866Z" fill="#FFFBF9"/>
<g id="cloud-expert-img-cloud">
<path id="Vector_13" fill-rule="evenodd" clip-rule="evenodd" d="M42.861 269.484C22.081 268.284 4.261 284.156 3.059 304.937C1.857 325.718 17.73 343.538 38.511 344.74C39.961 344.823 41.412 344.823 42.861 344.74H152.27C168.518 344.733 181.684 331.556 181.677 315.308C181.67 299.07 168.507 285.908 152.27 285.901H150.175C153.645 260.858 136.155 237.744 111.113 234.275C86.071 230.806 62.957 248.295 59.489 273.337C54.317 270.791 48.627 269.473 42.862 269.484" fill="#FE5814"/>
<path id="Vector_14" fill-rule="evenodd" clip-rule="evenodd" d="M42.861 269.484C22.081 268.284 4.261 284.156 3.059 304.937C1.857 325.718 17.73 343.538 38.511 344.74C39.961 344.823 41.412 344.823 42.861 344.74H152.27C168.518 344.733 181.684 331.556 181.677 315.308C181.67 299.07 168.507 285.908 152.27 285.901H150.175C153.645 260.858 136.155 237.744 111.113 234.275C86.071 230.806 62.957 248.295 59.489 273.337C54.317 270.791 48.627 269.473 42.862 269.484H42.861Z" stroke="black" stroke-width="5.99"/>
</g>
</g>
</g>
</g>
</svg>
