<svg width="56" height="42" viewBox="0 0 56 42" fill="none" xmlns="http://www.w3.org/2000/svg">
<path fill-rule="evenodd" clip-rule="evenodd" d="M13.454 11.834C5.922 12.455 0 18.761 0 26.454C0 33.846 5.468 39.959 12.578 40.976V41.128H33.604C35.859 40.063 37.434 37.688 37.434 34.933C37.434 31.373 34.674 28.448 31.211 28.255H29.199V24.817H30.795V24.807H30.845C30.996 24.807 31.146 24.81 31.295 24.817H31.595V24.835C36.75 25.225 40.828 29.605 40.828 34.933C40.828 37.203 40.092 39.361 38.74 41.128H42.525V41.068C50.021 40.41 55.901 34.121 55.901 26.454C55.901 19.44 50.979 13.58 44.401 12.13H25.216C21.679 12.13 18.802 14.984 18.802 18.493C18.802 21.88 21.489 24.663 24.86 24.847H26.825V28.141L25.215 28.151C25.069 28.151 24.923 28.148 24.778 28.141H24.481V28.124C19.458 27.75 15.485 23.573 15.485 18.493C15.485 13.38 19.509 9.183 24.578 8.856V8.836H41.314C39.056 3.636 33.879 0 27.85 0C20.718 0 14.776 5.09 13.453 11.833" fill="url(#paint0_linear)"/>
<defs>
<linearGradient id="paint0_linear" x1="6.16253" y1="15.8446" x2="46.2975" y2="39.0162" gradientUnits="userSpaceOnUse">
<stop stop-color="#FD9714"/>
<stop offset="1" stop-color="#FD5714"/>
</linearGradient>
</defs>
</svg>
