<svg xmlns="http://www.w3.org/2000/svg" width="245.886" height="260.893" viewBox="0 0 245.886 260.893">
  <g id="hand-drawn-cooking" transform="translate(201.599 -3.827) rotate(73)">
    <g id="Group_24" data-name="Group 24" transform="translate(0 13.091)">
      <path id="Path_50" data-name="Path 50" d="M187.442,175.077c-31.385,39.537-92.932,29.754-107.2-19.565a52.415,52.415,0,0,1-1.63-7.744c33.015-7.337,65.215-31.385,68.068-60.324,2.446-26.086-24.048-33.83-41.575-19.157C84.32,85.814,69.647,111.493,68.424,138.8c-21.195,2.853-41.982-2.853-53.4-23.641-19.157-35.053,6.522-82.334,40.76-96.193,3.668-1.223,2.038-6.929-1.63-5.706C6.877,26.713-17.579,92.743,14.621,131.872c12.635,15.082,33.015,19.972,54.21,17.527,2.853,27.716,24.456,49.727,50.134,58.286,29.754,9.782,57.063-4.483,74.59-27.716C196.409,176.3,190.294,171.817,187.442,175.077ZM96.14,92.743c6.522-8.967,15.081-19.157,26.086-22.825,10.6-3.668,14.266,11.005,14.673,17.527.408,8.152-5.3,15.489-10.6,21.195-11,12.635-29.346,23.641-48.1,28.531C79.429,121.274,87.173,105.786,96.14,92.743Z" transform="translate(0 -13.091)"/>
      <path id="Path_51" data-name="Path 51" d="M297.284,233.668c-11.413,0-23.233.815-34.238,3.668-4.483,1.223-2.446,7.337,2.039,6.522,8.967-1.63,18.342-1.223,27.309-.815-.408,5.3-.815,11-1.63,16.3-.815,4.076-3.668,10.19-1.223,14.266,1.223,2.039,3.261,2.039,5.3,1.223,4.891-2.038,4.891-10.6,5.706-15.081a128.539,128.539,0,0,0,1.63-21.6C302.175,235.706,299.729,233.668,297.284,233.668Z" transform="translate(-87.017 -86.762)"/>
    </g>
  </g>
</svg>
