<svg width="410" height="410" viewBox="0 0 410 410" fill="none" xmlns="http://www.w3.org/2000/svg">
<g clip-path="url(#clip0)">
<path d="M392.533 17.067H17.067C7.641 17.067 0 24.708 0 34.133C0 43.558 7.641 51.2 17.067 51.2H392.534C401.96 51.2 409.601 43.559 409.601 34.133C409.601 24.707 401.959 17.067 392.533 17.067Z" fill="#713BDB"/>
<path d="M392.533 187.733H17.067C7.641 187.733 0 195.374 0 204.8C0 214.226 7.641 221.867 17.067 221.867H392.534C401.96 221.867 409.601 214.226 409.601 204.8C409.601 195.374 401.959 187.733 392.533 187.733Z" fill="#713BDB"/>
<path d="M392.533 358.4H17.067C7.641 358.4 0 366.041 0 375.467C0 384.893 7.641 392.534 17.067 392.534H392.534C401.96 392.534 409.601 384.893 409.601 375.467C409.601 366.041 401.959 358.4 392.533 358.4Z" fill="#713BDB"/>
</g>
<defs>
<clipPath id="clip0">
<rect width="409.6" height="409.6" fill="#713BDB"/>
</clipPath>
</defs>
</svg>
