<svg id="Component_3_1" data-name="Component 3 – 1" xmlns="http://www.w3.org/2000/svg" width="25.658" height="29.649" viewBox="0 0 25.658 29.649">
  <path id="Path_9260" data-name="Path 9260" d="M58.694,5.7h-5.7a5.7,5.7,0,1,0-11.4,0h-5.7a1.425,1.425,0,1,0,0,2.851h.57v17.39a3.712,3.712,0,0,0,3.706,3.706H54.418a3.712,3.712,0,0,0,3.706-3.706V8.553h.57a1.425,1.425,0,1,0,0-2.851Zm-11.4-2.851A2.851,2.851,0,0,1,50.142,5.7h-5.7A2.851,2.851,0,0,1,47.291,2.851Zm7.982,23.092a.856.856,0,0,1-.855.855H40.164a.856.856,0,0,1-.855-.855V8.553H55.273Z" transform="translate(-34.462)" fill="#f64e60"/>
  <path id="Path_9261" data-name="Path 9261" d="M178.656,239.938a1.425,1.425,0,0,1-1.425-1.425v-5.7a1.425,1.425,0,1,1,2.851,0v5.7A1.425,1.425,0,0,1,178.656,239.938Z" transform="translate(-168.963 -217.986)" fill="#ffbbc0"/>
  <path id="Path_9262" data-name="Path 9262" d="M286.964,239.938a1.425,1.425,0,0,1-1.425-1.425v-5.7a1.425,1.425,0,1,1,2.851,0v5.7A1.425,1.425,0,0,1,286.964,239.938Z" transform="translate(-271 -217.986)" fill="#ffbbc0"/>
</svg>
