<svg id="Component_2_1" data-name="Component 2 – 1" xmlns="http://www.w3.org/2000/svg" width="29.912" height="29.911" viewBox="0 0 29.912 29.911">
  <path id="Path_9258" data-name="Path 9258" d="M24.57,46.956A1.068,1.068,0,0,0,23.5,48.024V58.707a1.068,1.068,0,0,1-1.068,1.068H3.2a1.068,1.068,0,0,1-1.068-1.068V37.342A1.068,1.068,0,0,1,3.2,36.274H16.024a1.068,1.068,0,1,0,0-2.137H3.2a3.2,3.2,0,0,0-3.2,3.2V58.707a3.2,3.2,0,0,0,3.2,3.2H22.434a3.2,3.2,0,0,0,3.2-3.2V48.024A1.068,1.068,0,0,0,24.57,46.956Z" transform="translate(0 -32)" fill="rgba(113,59,219,0.22)"/>
  <path id="Path_9259" data-name="Path 9259" d="M124.713,1.2a4.089,4.089,0,0,0-5.784,0l-14.071,14.07a1.08,1.08,0,0,0-.257.418l-2.137,6.41a1.068,1.068,0,0,0,1.013,1.406,1.085,1.085,0,0,0,.338-.054l6.41-2.137a1.069,1.069,0,0,0,.418-.259L124.712,6.985A4.089,4.089,0,0,0,124.713,1.2Z" transform="translate(-95.998 -0.004)" fill="#713bdb"/>
</svg>
