<svg xmlns="http://www.w3.org/2000/svg" width="22.966" height="15.735" viewBox="0 0 22.966 15.735">
  <path id="Icon_ionic-ios-arrow-round-forward" data-name="Icon ionic-ios-arrow-round-forward" d="M21.883,11.532a1,1,0,0,0-.008,1.4l4.639,4.647H8.859a.992.992,0,0,0,0,1.984H26.507l-4.639,4.647a1,1,0,0,0,.008,1.4.988.988,0,0,0,1.4-.008l6.287-6.333h0a1.114,1.114,0,0,0,.206-.313.947.947,0,0,0,.076-.381.994.994,0,0,0-.282-.694l-6.287-6.333A.972.972,0,0,0,21.883,11.532Z" transform="translate(-7.375 -10.752)" fill="#fff" stroke="#fff" stroke-width="1"/>
</svg>
