<svg xmlns="http://www.w3.org/2000/svg" width="47.725" height="47.725" viewBox="0 0 47.725 47.725">
  <g id="Group_2" data-name="Group 2" transform="translate(-164 -298.844)">
    <g id="Group_1" data-name="Group 1">
      <circle id="Ellipse_496" data-name="Ellipse 496" cx="23.863" cy="23.863" r="23.863" transform="translate(164 298.844)" fill="#4be291"/>
      <path id="Path_13403" data-name="Path 13403" d="M92.282,68.422A23.933,23.933,0,0,1,68.42,92.284a23.481,23.481,0,0,1-18.643-8.948,23.543,23.543,0,0,0,14.914,5.22A23.933,23.933,0,0,0,88.554,64.693a23.543,23.543,0,0,0-5.22-14.914A23.48,23.48,0,0,1,92.282,68.422Z" transform="translate(119.443 254.286)" fill="#4ed68d"/>
    </g>
    <path id="Path_13404" data-name="Path 13404" d="M124.194,125.5l-15.511,17a2.548,2.548,0,0,1-3.878,0l-6.562-7.308a2.639,2.639,0,0,1,3.878-3.579l4.623,5.22,13.572-14.765a2.615,2.615,0,0,1,3.729-.149A2.571,2.571,0,0,1,124.194,125.5Z" transform="translate(76.645 190.349)" fill="#fff"/>
  </g>
</svg>
