<svg id="Component_1_1" data-name="Component 1 – 1" xmlns="http://www.w3.org/2000/svg" width="79.389" height="100.205" viewBox="0 0 79.389 100.205">
  <path id="Path_9239" data-name="Path 9239" d="M54.5.774A2.424,2.424,0,0,0,52.757,0H13.667A13.223,13.223,0,0,0,.5,13.143V87.062a13.223,13.223,0,0,0,13.167,13.143H66.722A13.223,13.223,0,0,0,79.889,87.062V28.367a2.605,2.605,0,0,0-.7-1.694Zm.7,7.77L71.733,25.9H60.986a5.764,5.764,0,0,1-5.785-5.76Zm11.521,86.82H13.667a8.384,8.384,0,0,1-8.326-8.3V13.143a8.384,8.384,0,0,1,8.326-8.3H50.36v15.3a10.589,10.589,0,0,0,10.626,10.6H75.048V87.062A8.368,8.368,0,0,1,66.722,95.364Zm0,0" transform="translate(-0.5)" fill="#a0a5b9"/>
  <path id="Path_9240" data-name="Path 9240" d="M131.432,401.934H91.592a2.42,2.42,0,1,0,0,4.841h39.864a2.42,2.42,0,1,0-.024-4.841Zm0,0" transform="translate(-71.818 -323.27)" fill="#a0a5b9"/>
  <path id="Path_9241" data-name="Path 9241" d="M122.613,189.588l9.972-10.723V205.3a2.42,2.42,0,0,0,4.841,0V178.865l9.972,10.723a2.415,2.415,0,0,0,3.534-3.292l-14.184-15.224a2.4,2.4,0,0,0-3.534,0L119.031,186.3a2.412,2.412,0,0,0,.121,3.413A2.469,2.469,0,0,0,122.613,189.588Zm0,0" transform="translate(-95.311 -136.968)" fill="#a0a5b9"/>
</svg>
