<svg xmlns="http://www.w3.org/2000/svg" width="46.727" height="46.725" viewBox="0 0 46.727 46.725">
  <path id="Path_13410" data-name="Path 13410" d="M40.244,7.2A23.353,23.353,0,1,0,7.189,40.182c.013.013.018.033.032.045.135.13.282.24.419.365.375.334.751.679,1.146,1,.212.167.432.334.649.487.374.279.747.557,1.138.814.265.167.539.334.811.5.36.217.719.435,1.091.634.315.167.637.31.958.462.35.167.7.334,1.054.484s.719.267,1.083.4.677.25,1.026.357c.394.118.8.21,1.2.309.334.082.657.175,1,.242.46.092.928.15,1.395.214.289.04.571.1.862.125.764.075,1.535.117,2.312.117s1.548-.042,2.312-.117c.292-.028.574-.085.862-.125.467-.063.934-.122,1.395-.214.334-.067.667-.167,1-.242.4-.1.8-.19,1.2-.309.349-.107.686-.237,1.026-.357s.727-.25,1.083-.4.7-.319,1.054-.484c.32-.152.642-.3.958-.462.372-.2.731-.417,1.091-.634.272-.167.546-.319.811-.5.39-.257.764-.535,1.138-.814.217-.167.437-.317.649-.487.4-.317.771-.654,1.146-1,.137-.125.284-.235.419-.365.013-.012.018-.032.032-.045A23.327,23.327,0,0,0,40.244,7.2Zm-3.75,31.235c-.3.267-.617.521-.934.766-.187.143-.374.285-.566.422-.3.219-.609.425-.921.624-.227.145-.459.285-.692.422q-.44.25-.894.5c-.267.137-.539.265-.812.392s-.576.262-.871.38-.609.23-.918.334c-.282.1-.564.2-.849.282-.334.1-.682.182-1.028.265-.27.063-.537.135-.811.189-.4.077-.8.13-1.2.185-.23.03-.459.072-.691.1-.641.062-1.29.1-1.945.1s-1.3-.037-1.945-.1c-.232-.023-.46-.065-.691-.1-.405-.055-.809-.108-1.2-.185-.274-.053-.541-.125-.811-.189-.345-.083-.689-.167-1.028-.265-.285-.085-.567-.185-.849-.282-.309-.107-.617-.215-.918-.334s-.584-.249-.871-.38-.546-.255-.812-.392c-.3-.157-.6-.322-.894-.5-.234-.137-.465-.277-.692-.422-.312-.2-.619-.405-.921-.624-.192-.137-.379-.279-.566-.422-.317-.245-.631-.5-.934-.766-.073-.055-.14-.125-.212-.189a13.384,13.384,0,0,1,9.1-12.5,9.891,9.891,0,0,0,8.5,0,13.385,13.385,0,0,1,9.1,12.5C36.632,38.31,36.566,38.374,36.494,38.436ZM17.539,13.386a6.673,6.673,0,1,1,9.087,9.087.035.035,0,0,0-.028.01,7.068,7.068,0,0,1-1.395.591c-.087.025-.167.058-.259.08-.167.043-.342.073-.514.1a6.757,6.757,0,0,1-.979.1h-.19a6.757,6.757,0,0,1-.979-.1c-.167-.03-.344-.06-.514-.1-.088-.022-.167-.055-.259-.08a7.062,7.062,0,0,1-1.395-.591l-.03-.01A6.673,6.673,0,0,1,17.539,13.386ZM39.662,34.939h0a16.766,16.766,0,0,0-8.932-11.5,10.01,10.01,0,1,0-14.747,0,16.766,16.766,0,0,0-8.932,11.5,20.019,20.019,0,1,1,32.611,0Z" transform="translate(0 -0.011)" fill="#eae0ff"/>
</svg>
